<svg id="Layer_1" xmlns="http://www.w3.org/2000/svg" xmlns:xlink="http://www.w3.org/1999/xlink" viewBox="0 0 847.5 1688.5"><style>.st0{fill:#fff}.st1{fill:#e0e0e0}.st2,.st3,.st4{clip-path:url(#SVGID_2_);fill:#907ba2}.st3,.st4{fill:#8c77a0}.st4{fill:#88749e}.st5,.st6,.st7,.st8,.st9{clip-path:url(#SVGID_2_);fill:#84719c}.st6,.st7,.st8,.st9{fill:#816e9a}.st7,.st8,.st9{fill:#7e6c98}.st8,.st9{fill:#7b6a97}.st9{fill:#786795}.st10,.st11,.st12,.st13,.st14{clip-path:url(#SVGID_2_);fill:#766594}.st11,.st12,.st13,.st14{fill:#746493}.st12,.st13,.st14{fill:#726292}.st13,.st14{fill:#706191}.st14{fill:#6e5f90}.st15,.st16,.st17,.st18,.st19{clip-path:url(#SVGID_2_);fill:#6d5e8f}.st16,.st17,.st18,.st19{fill:#6b5d8f}.st17,.st18,.st19{fill:#6a5c8e}.st18,.st19{fill:#695b8d}.st19{fill:#685a8d}.st20,.st21,.st22,.st23,.st24{clip-path:url(#SVGID_2_);fill:#685a8c}.st21,.st22,.st23,.st24{fill:#67598c}.st22,.st23,.st24{fill:#66598c}.st23,.st24{fill:#66588b}.st24{fill:#65588b}.st25,.st26,.st27,.st28,.st29{clip-path:url(#SVGID_2_);fill:#65578b}.st26,.st27,.st28,.st29{fill:#64578b}.st27,.st28,.st29{fill:#64578a}.st28,.st29{fill:#64568a}.st29{fill:#63568a}.st30{clip-path:url(#SVGID_4_)}.st31{clip-path:url(#SVGID_6_)}.st32{fill:#e3d4e8}.st33{clip-path:url(#SVGID_8_)}.st34{clip-path:url(#SVGID_10_)}.st35{clip-path:url(#SVGID_12_)}.st36{clip-path:url(#SVGID_14_)}.st37{clip-path:url(#SVGID_16_)}.st38{clip-path:url(#SVGID_18_)}.st39{clip-path:url(#SVGID_20_)}.st40{fill:#c7cfe9}.st41{fill:#c6bccb}.st42{fill:#63568a}.st43{fill:#dcd6e5}.st44{fill:none}</style><g id="phone"><g id="Rectangle_1_copy_5"><path class="st0" d="M147.5 1685.5c-72.8 0-131.9-59.2-131.9-131.9V134.9C15.5 62.2 74.7 3 147.5 3h552.6c72.8 0 132 59.2 132 131.9v1418.7c0 72.8-59.2 131.9-132 131.9H147.5z"/><path class="st1" d="M700.1 5.9c71.2 0 129 57.7 129 129v1418.7c0 71.2-57.7 129-129 129H147.5c-71.2 0-129-57.7-129-129V134.9c0-71.2 57.7-129 129-129h552.6m0-5.9H147.5c-74.4 0-135 60.5-135 134.9v1418.7c0 74.4 60.5 134.9 134.9 134.9H700c74.4 0 134.9-60.5 134.9-134.9V134.9C835 60.5 774.5 0 700.1 0z"/></g><g id="Ellipse_2_2_"><path class="st0" d="M424.7 1656.1c-32.4 0-58.7-26.4-58.7-58.8s26.4-58.7 58.7-58.7c32.4 0 58.8 26.4 58.8 58.7s-26.4 58.8-58.8 58.8z"/><path class="st1" d="M424.7 1541.6c30.8 0 55.8 25 55.8 55.8s-25 55.8-55.8 55.8-55.8-25-55.8-55.8c0-30.8 25-55.8 55.8-55.8m0-6c-34.1 0-61.7 27.6-61.7 61.7s27.6 61.7 61.7 61.7 61.7-27.6 61.7-61.7c0-34-27.6-61.7-61.7-61.7z"/></g><path class="st1" d="M3.7 500.4c-2 0-3.7 1.6-3.7 3.7v98.8c0 2 1.6 3.7 3.7 3.7h5.5V500.4H3.7z" id="Rectangle_4_copy_2"/><path class="st1" d="M3.7 369.8c-2 0-3.7 1.6-3.7 3.7v98.8c0 2 1.6 3.7 3.7 3.7h5.5V369.8H3.7z" id="Rectangle_4_copy_2_"/><path class="st1" d="M3.7 247.3c-2 0-3.7 1.6-3.7 3.7v53.9c0 2 1.6 3.7 3.7 3.7h5.5v-61.2H3.7v-.1z" id="Rectangle_4"/><path class="st1" d="M843.9 369.8h-5.5V476h5.5c2 0 3.7-1.6 3.7-3.7v-98.8c-.1-2.1-1.7-3.7-3.7-3.7z" id="Rectangle_4_copy_4_2_"/><path class="st1" d="M486.6 90.3H361c-3.7 0-6.7 3-6.7 6.7v1.5c0 3.7 3 6.7 6.7 6.7h125.6c3.7 0 6.7-3 6.7-6.7V97c0-3.7-3-6.7-6.7-6.7z" id="Rectangle_2"/><circle class="st1" cx="289.3" cy="97.8" r="14.6" id="Ellipse_1_2_"/><circle class="st1" cx="423.8" cy="35.4" r="9.8" id="Ellipse_1_copy"/></g><defs><path id="SVGID_1_" d="M46.1 181.9H798v1334.7H46.1z"/></defs><clipPath id="SVGID_2_"><use xlink:href="#SVGID_1_" overflow="visible"/></clipPath><path class="st2" d="M798 181.9H46.1 798zM46.1 181.9H798v29.7H46.1z"/><path class="st3" d="M46.1 211.6H798v29.7H46.1z"/><path class="st4" d="M46.1 241.2H798v29.7H46.1z"/><path class="st5" d="M46.1 270.9H798v29.7H46.1z"/><path class="st6" d="M46.1 300.5H798v29.7H46.1z"/><path class="st7" d="M46.1 330.2H798v29.7H46.1z"/><path class="st8" d="M46.1 359.9H798v29.7H46.1z"/><path class="st9" d="M46.1 389.5H798v29.7H46.1z"/><path class="st10" d="M46.1 419.2H798v29.7H46.1z"/><path class="st11" d="M46.1 448.8H798v29.7H46.1z"/><path class="st12" d="M46.1 478.5H798v29.7H46.1z"/><path class="st13" d="M46.1 508.2H798v29.7H46.1z"/><path class="st14" d="M46.1 537.8H798v29.7H46.1z"/><path class="st15" d="M46.1 567.5H798v29.7H46.1z"/><path class="st16" d="M46.1 597.1H798v29.7H46.1z"/><path class="st17" d="M46.1 626.8H798v29.7H46.1z"/><path class="st18" d="M46.1 656.5H798v29.7H46.1z"/><path class="st19" d="M46.1 686.1H798v29.7H46.1z"/><path class="st20" d="M46.1 715.8H798v29.7H46.1z"/><path class="st21" d="M46.1 745.4H798v29.7H46.1z"/><path class="st22" d="M46.1 775.1H798v29.7H46.1z"/><path class="st23" d="M46.1 804.8H798v29.7H46.1z"/><path class="st24" d="M46.1 834.4H798v29.7H46.1z"/><path class="st25" d="M46.1 864.1H798v29.7H46.1z"/><path class="st26" d="M46.1 893.7H798v29.7H46.1z"/><path class="st26" d="M46.1 923.4H798v29.7H46.1z"/><path class="st27" d="M46.1 953.1H798v29.7H46.1z"/><path class="st27" d="M46.1 982.7H798v29.7H46.1z"/><path class="st28" d="M46.1 1012.4H798v29.7H46.1z"/><path class="st29" d="M46.1 1042H798v29.7H46.1zM46.1 1071.7H798v29.7H46.1zM46.1 1101.4H798v29.7H46.1z"/><path class="st29" d="M46.1 1131H798v29.7H46.1zM46.1 1160.7H798v29.7H46.1z"/><path class="st29" d="M46.1 1190.3H798v29.7H46.1zM46.1 1220H798v29.7H46.1zM46.1 1249.7H798v29.7H46.1z"/><path class="st29" d="M46.1 1279.3H798v29.7H46.1zM46.1 1309H798v29.7H46.1z"/><path class="st29" d="M46.1 1338.6H798v29.7H46.1zM46.1 1368.3H798v29.7H46.1zM46.1 1398H798v29.7H46.1z"/><path class="st29" d="M46.1 1427.6H798v29.7H46.1zM46.1 1457.3H798v29.7H46.1z"/><path class="st29" d="M46.1 1486.9H798v29.7H46.1zM46.1 1516.6H798 46.1z"/><g><defs><path id="SVGID_3_" d="M444 434.4c0-2.9 2.4-5.3 5.3-5.3s5.3 2.4 5.3 5.3-2.4 5.3-5.3 5.3c-3 0-5.3-2.4-5.3-5.3zm30.7-36.8v73.6h-79.8c-14 0-25.4-11.4-25.4-25.4V366h48.7c14 0 25 11.4 25 25.4v6.1h31.5zm-94.7 0h52.6v-6.1c0-8.2-7.1-14.9-15.3-14.9H380v21zm84.2 10.5H380v37.7c0 8.2 6.7 14.9 14.9 14.9h69.3v-52.6z"/></defs><use xlink:href="#SVGID_3_" overflow="visible" fill-rule="evenodd" clip-rule="evenodd" fill="#e3d4e8"/><clipPath id="SVGID_4_"><use xlink:href="#SVGID_3_" overflow="visible"/></clipPath><g class="st30"><defs><path id="SVGID_5_" d="M-787.8-580.8h2209.4V3312H-787.8z"/></defs><use xlink:href="#SVGID_5_" overflow="visible" fill="#e3d4e8"/><clipPath id="SVGID_6_"><use xlink:href="#SVGID_5_" overflow="visible"/></clipPath><g class="st31"><path class="st32" d="M343.2 339.8H501v157.8H343.2z"/></g></g><defs><path id="SVGID_7_" d="M81.6 207.4h681V246h-681z"/></defs><clipPath id="SVGID_8_"><use xlink:href="#SVGID_7_" overflow="visible"/></clipPath><g class="st33"><path class="st0" d="M625.9 236.5v-4.3-4-4-4.3h-.2c-1 .7-1.8 1.3-2.4 1.8-.6.5-1.5 1.1-2.4 1.8V221c1-.7 1.9-1.3 2.6-1.8.7-.5 1.5-1.1 2.6-1.8h2.4v19.2h-2.6zM635.5 234.3c-1.2-1.8-1.8-4.2-1.8-7.4s.6-5.6 1.8-7.4 2.9-2.6 5-2.6 3.8.9 5 2.7c1.2 1.8 1.8 4.2 1.8 7.4s-.6 5.6-1.8 7.4c-1.2 1.7-2.9 2.6-5 2.6-2.2-.1-3.8-1-5-2.7zm8.3-1.5c.8-1.4 1.1-3.3 1.1-5.9 0-2.5-.4-4.5-1.1-5.9-.8-1.4-1.8-2.1-3.2-2.1-1.4 0-2.5.7-3.3 2.1-.8 1.4-1.2 3.3-1.2 5.9 0 2.6.4 4.5 1.1 5.9s1.8 2.1 3.3 2.1c1.4-.1 2.5-.8 3.3-2.1zM652.6 234.3c-1.2-1.8-1.8-4.2-1.8-7.4s.6-5.6 1.8-7.4 2.9-2.6 5-2.6 3.8.9 5 2.7c1.2 1.8 1.8 4.2 1.8 7.4s-.6 5.6-1.8 7.4c-1.2 1.7-2.9 2.6-5 2.6-2.1-.1-3.8-1-5-2.7zm8.3-1.5c.8-1.4 1.1-3.3 1.1-5.9 0-2.5-.4-4.5-1.1-5.9-.8-1.4-1.8-2.1-3.2-2.1-1.4 0-2.5.7-3.3 2.1-.8 1.4-1.2 3.3-1.2 5.9 0 2.6.4 4.5 1.1 5.9s1.8 2.1 3.3 2.1c1.5-.1 2.6-.8 3.3-2.1zM674.3 224.9c-.8.9-1.7 1.3-2.9 1.3s-2.2-.4-2.9-1.3c-.8-.9-1.2-2-1.2-3.3 0-1.3.4-2.5 1.2-3.3.8-.9 1.7-1.3 2.9-1.3s2.2.4 2.9 1.3c.8.9 1.1 2 1.1 3.3.1 1.3-.3 2.4-1.1 3.3zm-3.1 11.6h-2.4l7.3-10 6.7-9.2h2.4l-7.4 10.2-6.6 9zm1.6-12.8c.4-.5.5-1.2.5-2.1 0-.9-.2-1.6-.5-2.1-.4-.5-.8-.8-1.4-.8-.6 0-1.1.3-1.4.8-.4.5-.5 1.2-.5 2.1 0 .9.2 1.6.5 2.1.4.5.8.8 1.4.8.6 0 1-.3 1.4-.8zm12.6 11.8c-.8.9-1.7 1.3-2.9 1.3s-2.2-.4-2.9-1.3c-.8-.9-1.2-2-1.2-3.3 0-1.3.4-2.5 1.2-3.3.8-.9 1.7-1.3 2.9-1.3s2.2.4 2.9 1.3c.8.9 1.1 2 1.1 3.3s-.3 2.4-1.1 3.3zm-1.5-1.2c.4-.5.5-1.2.5-2.1 0-.9-.2-1.6-.5-2.1-.4-.5-.8-.8-1.4-.8-.6 0-1.1.3-1.4.8-.4.5-.5 1.2-.5 2.1s.2 1.6.5 2.1c.4.5.8.8 1.4.8.6 0 1-.3 1.4-.8z"/></g><g class="st33"><path class="st0" d="M373.4 237.7c-1.1-.9-1.8-2.1-2.2-3.7h2.5c.3.9.7 1.6 1.4 2.1s1.5.8 2.4.8c1.6 0 2.8-.7 3.6-2 .9-1.3 1.3-3.3 1.4-5.9H382.2c-.5.9-1.2 1.7-2 2.2s-1.9.8-3.1.8c-1.8 0-3.3-.6-4.5-1.8-1.2-1.2-1.8-2.7-1.8-4.6 0-1.9.6-3.5 1.9-4.8s2.9-1.9 4.8-1.9c3 0 5.1 1.5 6.3 4.4.6 1.5.9 3.2.9 5.3 0 3.3-.6 5.9-1.9 7.7-1.3 1.8-3.1 2.7-5.5 2.7-1.4 0-2.7-.4-3.9-1.3zm7.5-9c.8-.8 1.2-1.9 1.2-3.1 0-1.3-.4-2.4-1.2-3.2-.8-.9-1.9-1.3-3.1-1.3-1.2 0-2.3.4-3.1 1.3-.8.8-1.2 1.9-1.2 3.2 0 1.3.4 2.4 1.2 3.2.8.8 1.8 1.2 3.1 1.2s2.2-.5 3.1-1.3zM389.5 228c-.3-.3-.5-.7-.5-1.2s.2-.9.5-1.2.7-.5 1.2-.5.9.2 1.2.5.5.7.5 1.2-.2.9-.5 1.2-.7.5-1.2.5-.9-.2-1.2-.5zm0 10.2c-.3-.3-.5-.7-.5-1.2s.2-.9.5-1.2c.3-.3.7-.5 1.2-.5s.9.2 1.2.5c.3.3.5.7.5 1.2s-.2.9-.5 1.2-.7.5-1.2.5-.9-.2-1.2-.5zM405.6 238.6v-2-2h-9.4v-2.2c.4-.8.9-1.6 1.5-2.6s1.2-2 1.9-3.1 1.5-2.3 2.3-3.5c.8-1.2 1.6-2.5 2.5-3.8h3.5v13.1h2.7v2.1H408v4h-2.4zm-6.9-6.3v.2h6.9v-10.9h-.2c-.5.7-1 1.5-1.6 2.3s-1.1 1.7-1.7 2.6c-.6.9-1.2 1.9-1.8 2.8-.4 1.1-1 2-1.6 3zM419 238.6v-4.3-4-4-4.3h-.2c-1 .7-1.8 1.3-2.4 1.8-.6.5-1.5 1.1-2.4 1.8v-2.5c1-.7 1.9-1.3 2.6-1.8.7-.5 1.5-1.1 2.6-1.8h2.4v19.2H419zM447.6 238.6c-.4-1.1-.7-2-1-2.7s-.6-1.6-1-2.7H438l-1.9 5.5h-2.5l7.1-19.2h2.4l7.1 19.2h-2.6zm-5.9-16.1c-.4 1.2-.8 2.2-1.1 3s-.6 1.7-.9 2.6c-.3.9-.7 1.9-1.1 3h6.2l-3-8.6h-.1zM472.4 238.6h-2.2v-14.7h-.2l-6.1 14.5h-2l-6.1-14.5h-.2v14.7h-2.2v-19.2h2.8l6.6 15.9h.2l6.6-15.9h2.8v19.2z"/></g><defs><path id="SVGID_9_" d="M228 223.7l-2.5 2.4c-3.1-3.2-7.5-5.2-12.3-5.2-4.8 0-9.2 2-12.3 5.1l-2.5-2.4c3.7-3.8 8.9-6.1 14.7-6.1 5.9.1 11.2 2.4 14.9 6.2zm-4.9 4.8l-2.5 2.4c-1.8-2-4.4-3.2-7.4-3.2-2.9 0-5.5 1.2-7.3 3.1l-2.5-2.4c2.4-2.5 5.9-4.1 9.8-4.1 3.9.1 7.4 1.7 9.9 4.2zm-5 4.8l-4.8 4.7-4.9-4.8c1.2-1.3 2.9-2.1 4.8-2.1 2 0 3.7.9 4.9 2.2z"/></defs><clipPath id="SVGID_10_"><use xlink:href="#SVGID_9_" overflow="visible"/></clipPath><g class="st34"><defs><path id="SVGID_11_" d="M81.6 207.4h681V246h-681z"/></defs><clipPath id="SVGID_12_"><use xlink:href="#SVGID_11_" overflow="visible"/></clipPath><g class="st35"><path class="st0" d="M187.1 206.2h52.2v43.1h-52.2z"/></g></g><defs><path id="SVGID_13_" d="M166.1 234.6c-3.4 0-6.2-2.8-6.2-6.2 0-3.4 2.8-6.2 6.2-6.2s6.2 2.8 6.2 6.2c.1 3.4-2.7 6.2-6.2 6.2zm-15.8 0c-3.4 0-6.2-2.8-6.2-6.2 0-3.4 2.8-6.2 6.2-6.2 3.4 0 6.2 2.8 6.2 6.2 0 3.4-2.8 6.2-6.2 6.2zm-15.9 0c-3.4 0-6.2-2.8-6.2-6.2 0-3.4 2.8-6.2 6.2-6.2s6.2 2.8 6.2 6.2c0 3.4-2.8 6.2-6.2 6.2zm-15.9 0c-3.4 0-6.2-2.8-6.2-6.2 0-3.4 2.8-6.2 6.2-6.2s6.2 2.8 6.2 6.2c0 3.4-2.8 6.2-6.2 6.2zm-15.9 0c-3.4 0-6.2-2.8-6.2-6.2 0-3.4 2.8-6.2 6.2-6.2s6.2 2.8 6.2 6.2c0 3.4-2.8 6.2-6.2 6.2z"/></defs><clipPath id="SVGID_14_"><use xlink:href="#SVGID_13_" overflow="visible"/></clipPath><g class="st36"><defs><path id="SVGID_15_" d="M81.6 207.4h681V246h-681z"/></defs><clipPath id="SVGID_16_"><use xlink:href="#SVGID_15_" overflow="visible"/></clipPath><g class="st37"><path class="st0" d="M85 210.8h98.7V246H85z"/></g></g><defs><path id="SVGID_17_" d="M114.4 331.9l4.5-4.9-10.3-10.5h51.6v-6.2h-51.6l10.3-9.4-4.5-4.1-18.1 16.7z"/></defs><use xlink:href="#SVGID_17_" overflow="visible" fill-rule="evenodd" clip-rule="evenodd" fill="#e3d4e8"/><clipPath id="SVGID_18_"><use xlink:href="#SVGID_17_" overflow="visible"/></clipPath><g class="st38"><defs><path id="SVGID_19_" d="M-605.9-290.5H734.7v2106.6H-605.9z"/></defs><use xlink:href="#SVGID_19_" overflow="visible" fill="#e3d4e8"/><clipPath id="SVGID_20_"><use xlink:href="#SVGID_19_" overflow="visible"/></clipPath><g class="st39"><path class="st32" d="M80.4 280.8h95.8v67H80.4z"/></g></g><path class="st40" d="M312.4 524.2h7.2c3.4 0 5.9.5 7.4 1.5s2.3 2.6 2.3 4.8c0 1.5-.4 2.8-1.3 3.8s-2.1 1.6-3.7 1.9v.2c3.9.7 5.8 2.7 5.8 6.1 0 2.3-.8 4.1-2.3 5.4-1.5 1.3-3.7 1.9-6.5 1.9h-8.9v-25.6zm3 11h4.9c2.1 0 3.6-.3 4.5-1 .9-.7 1.4-1.8 1.4-3.3 0-1.4-.5-2.5-1.5-3.1-1-.6-2.7-1-4.9-1h-4.4v8.4zm0 2.5v9.6h5.3c2.1 0 3.6-.4 4.7-1.2 1-.8 1.6-2.1 1.6-3.8 0-1.6-.5-2.8-1.6-3.5-1.1-.7-2.7-1.1-4.9-1.1h-5.1zM356.1 549.8l-3.2-8.2h-10.3l-3.2 8.2h-3l10.1-25.7h2.5l10.1 25.7h-3zm-4.2-10.8l-3-7.9c-.4-1-.8-2.2-1.2-3.7-.3 1.1-.6 2.4-1.1 3.7l-3 7.9h8.3zM387 549.8h-3.4l-14-21.5h-.1c.2 2.5.3 4.8.3 6.9v14.6H367v-25.6h3.4l14 21.4h.1c0-.3-.1-1.3-.2-3s-.1-2.9-.1-3.7v-14.7h2.8v25.6zM416.9 549.8h-3.5l-9.3-12.4-2.7 2.4v10h-3v-25.6h3v12.7l11.6-12.7h3.5l-10.3 11.1 10.7 14.5zM438.4 549.8v-25.6h3v25.6h-3zM472.7 549.8h-3.4l-14-21.5h-.1c.2 2.5.3 4.8.3 6.9v14.6h-2.8v-25.6h3.4l14 21.4h.1c0-.3-.1-1.3-.2-3s-.1-2.9-.1-3.7v-14.7h2.8v25.6zM487 549.8h-3v-25.6h14.3v2.6H487v9.4h10.6v2.6H487v11zM529.1 537c0 4.1-1 7.3-3.1 9.7-2.1 2.3-5 3.5-8.7 3.5-3.8 0-6.7-1.2-8.7-3.5-2.1-2.3-3.1-5.6-3.1-9.8 0-4.2 1-7.4 3.1-9.7 2.1-2.3 5-3.4 8.8-3.4 3.7 0 6.6 1.2 8.6 3.5 2.1 2.3 3.1 5.5 3.1 9.7zm-20.4 0c0 3.5.7 6.1 2.2 7.9 1.5 1.8 3.6 2.7 6.4 2.7 2.8 0 5-.9 6.4-2.7 1.4-1.8 2.2-4.4 2.2-7.9 0-3.4-.7-6.1-2.2-7.8s-3.6-2.7-6.4-2.7c-2.8 0-5 .9-6.5 2.7-1.3 1.7-2.1 4.3-2.1 7.8z"/><g><path class="st0" d="M142.8 650.4h2.5v20.5c0 2.8-.8 5-2.4 6.6s-3.7 2.5-6.4 2.5c-2.8 0-5-.7-6.5-2.2s-2.3-3.6-2.3-6.2h2.5c0 2.1.6 3.7 1.7 4.8s2.7 1.6 4.7 1.6c1.9 0 3.4-.6 4.5-1.8 1.2-1.2 1.8-2.9 1.8-5v-20.8zM159.1 667.7v11.9h-2.5v-29.2h9.9c3 0 5.4.8 7.2 2.3 1.8 1.5 2.6 3.7 2.6 6.4s-.8 4.9-2.5 6.3c-1.7 1.5-4.1 2.2-7.3 2.2h-7.4zm0-2.1h7.5c2.4 0 4.2-.6 5.5-1.7 1.3-1.1 1.9-2.7 1.9-4.8 0-2-.6-3.6-1.9-4.8-1.2-1.2-3-1.8-5.3-1.8h-7.6v13.1zM189.3 650.4l10.8 25.7 10.8-25.7h3.3v29.2h-2.5v-12.7l.2-13-10.9 25.7h-1.9L188.3 654l.2 12.8v12.8H186v-29.2h3.3zM223.7 668.4c0-2.1.4-4 1.2-5.6s2-3 3.4-3.9 3.1-1.4 5-1.4c2.9 0 5.2 1 7 3s2.7 4.7 2.7 8v.5c0 2.1-.4 4-1.2 5.7-.8 1.7-1.9 3-3.4 3.9-1.5.9-3.1 1.4-5 1.4-2.9 0-5.2-1-7-3s-2.7-4.7-2.7-8v-.6zm2.4.7c0 2.6.7 4.7 2 6.4 1.3 1.7 3.1 2.5 5.3 2.5 2.2 0 3.9-.8 5.3-2.5 1.3-1.7 2-3.9 2-6.6v-.5c0-1.7-.3-3.2-.9-4.5-.6-1.4-1.5-2.4-2.6-3.2-1.1-.8-2.4-1.1-3.8-1.1-2.1 0-3.9.8-5.2 2.5-1.3 1.7-2 3.9-2 6.6v.4zM262.2 659.9c-.5-.1-1-.1-1.6-.1-1.5 0-2.8.4-3.8 1.3-1 .8-1.8 2-2.2 3.6v14.9h-2.4v-21.7h2.3v3.4c1.3-2.6 3.3-3.8 6.1-3.8.7 0 1.2.1 1.6.3v2.1zM269.1 668.5c0-3.4.8-6.1 2.3-8.1s3.5-3 6.1-3c3 0 5.2 1.2 6.7 3.5l.1-3.1h2.2V679c0 2.8-.8 5-2.3 6.6s-3.7 2.4-6.4 2.4c-1.5 0-2.9-.3-4.3-1s-2.4-1.6-3.2-2.7l1.3-1.4c1.7 2.1 3.7 3.1 6.1 3.1 2 0 3.6-.6 4.7-1.8 1.1-1.2 1.7-2.8 1.7-4.9v-2.7c-1.5 2.1-3.8 3.2-6.7 3.2-2.5 0-4.5-1-6.1-3s-2.3-4.7-2.3-8.1v-.2zm2.4.5c0 2.8.6 4.9 1.7 6.5 1.1 1.6 2.7 2.4 4.7 2.4 3 0 5-1.3 6.3-4v-10.1c-.6-1.4-1.4-2.4-2.4-3.2-1.1-.7-2.3-1.1-3.8-1.1-2 0-3.6.8-4.7 2.4-1.2 1.6-1.8 4-1.8 7.1zM310.6 679.6c-.2-.7-.4-1.7-.5-3-.8 1.1-1.9 1.9-3.2 2.5-1.3.6-2.7.9-4.1.9-2.1 0-3.8-.6-5.1-1.7-1.3-1.2-1.9-2.6-1.9-4.4 0-2.1.9-3.8 2.6-5 1.8-1.2 4.2-1.8 7.3-1.8h4.3v-2.5c0-1.5-.5-2.8-1.4-3.7-1-.9-2.3-1.3-4.2-1.3-1.7 0-3.1.4-4.1 1.3-1.1.9-1.6 1.9-1.6 3.1h-2.4c0-1.7.8-3.2 2.4-4.5 1.6-1.3 3.6-1.9 5.9-1.9 2.4 0 4.3.6 5.7 1.8s2.1 2.9 2.2 5.1v10.3c0 2.1.2 3.7.7 4.7v.2h-2.6zm-7.5-1.8c1.6 0 3-.4 4.3-1.2 1.3-.8 2.2-1.8 2.8-3.1v-4.8h-4.3c-2.4 0-4.3.5-5.6 1.3-1.3.8-2 2-2 3.5 0 1.2.5 2.2 1.4 3 .7.9 1.9 1.3 3.4 1.3zM325.3 657.9l.1 3.7c.8-1.3 1.8-2.4 3-3.1 1.2-.7 2.6-1.1 4-1.1 2.3 0 4.1.7 5.2 2 1.1 1.3 1.7 3.3 1.7 5.9v14.2H337v-14.2c0-1.9-.4-3.4-1.2-4.3-.8-.9-2.1-1.4-3.9-1.4-1.5 0-2.8.5-3.9 1.4-1.1.9-2 2.2-2.5 3.8v14.8H323v-21.7h2.3zM384.9 670.5c-.3 3.1-1.4 5.4-3.3 7.1s-4.3 2.4-7.4 2.4c-2.2 0-4.1-.5-5.7-1.6-1.7-1.1-2.9-2.6-3.9-4.6-.9-2-1.4-4.3-1.4-6.8v-3.8c0-2.6.5-4.9 1.4-6.9.9-2 2.2-3.5 3.9-4.6 1.7-1.1 3.7-1.6 5.9-1.6 3.1 0 5.6.8 7.4 2.5 1.8 1.7 2.9 4 3.2 7h-2.5c-.6-5-3.3-7.4-8.1-7.4-2.6 0-4.8 1-6.3 3-1.6 2-2.4 4.7-2.4 8.2v3.6c0 3.4.8 6.1 2.3 8.1s3.6 3 6.2 3 4.5-.6 5.8-1.9 2.1-3.1 2.4-5.6h2.5zM396.9 661.6c.8-1.3 1.8-2.3 3-3 1.2-.7 2.6-1.1 4-1.1 2.3 0 4.1.7 5.2 2 1.1 1.3 1.7 3.3 1.7 5.9v14.2h-2.4v-14.2c0-1.9-.4-3.4-1.2-4.3-.8-.9-2.1-1.4-3.9-1.4-1.5 0-2.8.5-3.9 1.4-1.1.9-2 2.2-2.5 3.8v14.8h-2.4v-30.8h2.4v12.7zM434.8 679.6c-.2-.7-.4-1.7-.5-3-.8 1.1-1.9 1.9-3.2 2.5-1.3.6-2.7.9-4.1.9-2.1 0-3.8-.6-5.1-1.7-1.3-1.2-1.9-2.6-1.9-4.4 0-2.1.9-3.8 2.6-5 1.8-1.2 4.2-1.8 7.3-1.8h4.3v-2.5c0-1.5-.5-2.8-1.4-3.7-1-.9-2.3-1.3-4.2-1.3-1.7 0-3.1.4-4.1 1.3-1.1.9-1.6 1.9-1.6 3.1h-2.4c0-1.7.8-3.2 2.4-4.5 1.6-1.3 3.6-1.9 5.9-1.9 2.4 0 4.3.6 5.7 1.8 1.4 1.2 2.1 2.9 2.2 5.1v10.3c0 2.1.2 3.7.7 4.7v.2h-2.6zm-7.5-1.8c1.6 0 3-.4 4.3-1.2 1.3-.8 2.2-1.8 2.8-3.1v-4.8H430c-2.4 0-4.3.5-5.6 1.3-1.3.8-2 2-2 3.5 0 1.2.5 2.2 1.4 3 .8.9 2 1.3 3.5 1.3zM460.2 674.1c0-1.2-.5-2.1-1.4-2.9-1-.7-2.4-1.3-4.3-1.7s-3.4-.9-4.5-1.4c-1.1-.5-1.9-1.2-2.4-1.9-.5-.8-.8-1.7-.8-2.8 0-1.7.7-3.1 2.1-4.2 1.4-1.1 3.3-1.7 5.5-1.7 2.4 0 4.4.6 5.8 1.8 1.5 1.2 2.2 2.8 2.2 4.7H460c0-1.3-.5-2.3-1.6-3.2-1.1-.8-2.4-1.3-4-1.3s-2.8.4-3.8 1.1c-1 .7-1.4 1.6-1.4 2.7s.4 1.9 1.2 2.5c.8.6 2.2 1.1 4.3 1.6 2.1.5 3.7 1 4.7 1.6s1.8 1.2 2.3 2c.5.8.8 1.7.8 2.9 0 1.8-.7 3.3-2.2 4.4-1.5 1.1-3.4 1.6-5.8 1.6-2.5 0-4.6-.6-6.1-1.8-1.6-1.2-2.4-2.8-2.4-4.6h2.4c.1 1.4.7 2.5 1.8 3.3s2.5 1.2 4.3 1.2c1.7 0 3-.4 4-1.1 1.2-.8 1.7-1.7 1.7-2.8zM480.5 680c-1.8 0-3.5-.5-5-1.4-1.5-.9-2.6-2.2-3.5-3.8s-1.2-3.4-1.2-5.5v-.9c0-2.1.4-4 1.2-5.6s1.9-3 3.4-3.9c1.4-1 3-1.4 4.7-1.4 2.6 0 4.7.9 6.3 2.7 1.5 1.8 2.3 4.3 2.3 7.4v1.3h-15.5v.5c0 2.5.7 4.5 2.1 6.1 1.4 1.6 3.2 2.5 5.3 2.5 1.3 0 2.4-.2 3.4-.7 1-.5 1.9-1.2 2.7-2.2l1.5 1.1c-1.8 2.5-4.4 3.8-7.7 3.8zm-.5-20.5c-1.8 0-3.3.7-4.6 2-1.2 1.3-2 3.1-2.3 5.3h13v-.3c-.1-2.1-.7-3.8-1.8-5.1-1-1.2-2.4-1.9-4.3-1.9zM516.4 663.7c-1.2-1.4-2-2.7-2.5-3.8s-.8-2.2-.8-3.3c0-2 .6-3.7 1.8-4.8 1.2-1.2 2.8-1.8 4.9-1.8 1.9 0 3.4.5 4.5 1.6s1.7 2.4 1.7 4.1c0 1.9-1.1 3.8-3.3 5.7l-3.2 2.5 8 9.3c1.2-2 1.8-4.2 1.8-6.7h2.2c0 3.3-.9 6.1-2.6 8.4l4 4.6H530l-2.5-2.9c-1.1 1-2.3 1.9-3.7 2.4-1.4.6-2.8.9-4.4.9-2.8 0-5-.7-6.6-2.1-1.6-1.4-2.4-3.3-2.4-5.7 0-1.4.4-2.8 1.3-4 .8-1.3 2.3-2.7 4.4-4.3l.3-.1zm3.2 14.2c1.2 0 2.4-.3 3.5-.8s2.2-1.2 3.1-2.2l-8.2-9.5-.3-.3-.9.7c-2.6 2.1-3.9 4.2-3.9 6.2 0 1.8.6 3.2 1.8 4.2s2.8 1.7 4.9 1.7zm-4.1-21.4c0 1.6.9 3.6 2.7 5.8l2.6-2c.9-.6 1.6-1.3 2.1-2s.8-1.6.8-2.6-.4-1.9-1.1-2.6c-.7-.7-1.7-1.1-2.9-1.1-1.3 0-2.4.4-3.1 1.3-.7.8-1.1 1.9-1.1 3.2zM576.1 670.5c-.3 3.1-1.4 5.4-3.3 7.1s-4.3 2.4-7.4 2.4c-2.2 0-4.1-.5-5.7-1.6-1.7-1.1-2.9-2.6-3.9-4.6s-1.4-4.3-1.4-6.8v-3.8c0-2.6.5-4.9 1.4-6.9.9-2 2.2-3.5 3.9-4.6 1.7-1.1 3.7-1.6 5.9-1.6 3.1 0 5.6.8 7.4 2.5 1.8 1.7 2.9 4 3.2 7h-2.5c-.6-5-3.3-7.4-8.1-7.4-2.6 0-4.8 1-6.3 3-1.6 2-2.4 4.7-2.4 8.2v3.6c0 3.4.8 6.1 2.3 8.1 1.5 2 3.6 3 6.2 3s4.5-.6 5.8-1.9 2.1-3.1 2.4-5.6h2.5zM584.3 668.4c0-2.1.4-4 1.2-5.6s2-3 3.4-3.9c1.5-.9 3.1-1.4 5-1.4 2.9 0 5.2 1 7 3s2.7 4.7 2.7 8v.5c0 2.1-.4 4-1.2 5.7-.8 1.7-1.9 3-3.4 3.9-1.5.9-3.1 1.4-5 1.4-2.9 0-5.2-1-7-3-1.8-2-2.7-4.7-2.7-8v-.6zm2.4.7c0 2.6.7 4.7 2 6.4 1.3 1.7 3.1 2.5 5.3 2.5 2.2 0 3.9-.8 5.3-2.5 1.3-1.7 2-3.9 2-6.6v-.5c0-1.7-.3-3.2-.9-4.5s-1.5-2.4-2.6-3.2c-1.1-.8-2.4-1.1-3.8-1.1-2.1 0-3.9.8-5.2 2.5-1.3 1.7-2 3.9-2 6.6v.4zM612.5 678.1c0-.5.2-.9.5-1.2.3-.3.7-.5 1.3-.5.5 0 1 .2 1.3.5.3.3.5.7.5 1.2s-.2.9-.5 1.2-.7.5-1.3.5c-.5 0-1-.1-1.3-.5s-.5-.7-.5-1.2z"/></g><g><path class="st41" d="M128.8 611.3h5c2.3 0 3.9.4 5 1.2 1.1.8 1.6 1.9 1.6 3.5 0 1.1-.3 1.9-1 2.6-.6.7-1.6 1.2-2.8 1.4v.1c1.5.2 2.5.7 3.2 1.4.7.7 1 1.7 1 2.9 0 1.7-.6 3-1.7 3.9-1.1.9-2.7 1.4-4.8 1.4h-5.6v-18.4zm1.3 8.2h4c1.7 0 3-.3 3.8-.9.8-.6 1.2-1.5 1.2-2.7 0-1.2-.4-2.1-1.3-2.7-.9-.6-2.2-.8-3.9-.8h-3.7v7.1zm0 1.1v7.9h4.3c3.4 0 5.1-1.4 5.1-4.1 0-2.5-1.8-3.8-5.4-3.8h-4zM155.4 629.6l-.3-2.2h-.1c-.7.9-1.4 1.5-2.1 1.9-.7.4-1.6.5-2.6.5-1.3 0-2.4-.3-3.1-1s-1.1-1.6-1.1-2.8c0-1.3.6-2.4 1.7-3.1s2.7-1.1 4.8-1.2l2.6-.1v-.9c0-1.3-.3-2.3-.8-2.9-.5-.7-1.4-1-2.5-1-1.3 0-2.6.4-3.9 1.1l-.5-1.1c1.5-.7 3-1.1 4.4-1.1 1.5 0 2.6.4 3.4 1.2.7.8 1.1 2 1.1 3.6v9.1h-1zm-5-.8c1.5 0 2.6-.4 3.4-1.2.8-.8 1.3-2 1.3-3.5v-1.3l-2.4.1c-1.9.1-3.3.4-4.1.9-.8.5-1.2 1.3-1.2 2.4 0 .9.3 1.5.8 2 .5.3 1.3.6 2.2.6zM172.8 629.6v-8.8c0-1.4-.3-2.4-.9-3s-1.5-.9-2.7-.9c-1.6 0-2.8.4-3.6 1.2-.8.8-1.1 2.2-1.1 4v7.5h-1.2V616h1.1l.2 1.9h.1c.9-1.4 2.5-2.1 4.7-2.1 3.1 0 4.6 1.7 4.6 5v8.9h-1.2zM182.2 623.7l7-7.6h1.5l-5.4 5.8 5.8 7.8h-1.5l-5.2-6.9-2.2 2v4.8H181v-19.5h1.2V623.7zM218.8 629.6h-1.3l-10.8-16.3h-.1c.1 1.9.2 3.4.2 4.4v11.9h-1.2v-18.3h1.3l10.8 16.2h.1c-.1-1.5-.1-2.9-.1-4.3v-11.9h1.2v18.3zM234.6 629.6l-.3-2.2h-.1c-.7.9-1.4 1.5-2.1 1.9-.7.4-1.6.5-2.6.5-1.3 0-2.4-.3-3.1-1s-1.1-1.6-1.1-2.8c0-1.3.6-2.4 1.7-3.1s2.7-1.1 4.8-1.2l2.6-.1v-.9c0-1.3-.3-2.3-.8-2.9-.5-.7-1.4-1-2.5-1-1.3 0-2.6.4-3.9 1.1l-.5-1.1c1.5-.7 3-1.1 4.4-1.1 1.5 0 2.6.4 3.4 1.2.7.8 1.1 2 1.1 3.6v9.1h-1zm-5.1-.8c1.5 0 2.6-.4 3.4-1.2.8-.8 1.3-2 1.3-3.5v-1.3l-2.4.1c-1.9.1-3.3.4-4.1.9-.8.5-1.2 1.3-1.2 2.4 0 .9.3 1.5.8 2 .6.3 1.3.6 2.2.6zM259.4 629.6v-8.9c0-1.3-.3-2.3-.8-2.9s-1.3-.9-2.4-.9c-1.4 0-2.4.4-3.1 1.2-.7.8-1 2-1 3.6v8h-1.3v-9.3c0-2.3-1.1-3.4-3.2-3.4-1.4 0-2.5.4-3.1 1.2-.7.8-1 2.2-1 4v7.5h-1.2V616h1l.3 1.9h.1c.4-.7.9-1.2 1.6-1.6s1.5-.6 2.3-.6c2.1 0 3.5.8 4.1 2.4h.1c.4-.8 1-1.4 1.8-1.8s1.6-.6 2.5-.6c1.5 0 2.6.4 3.3 1.2.7.8 1.1 2.1 1.1 3.8v8.9h-1.1zM273.1 629.9c-2 0-3.5-.6-4.6-1.8-1.1-1.2-1.7-2.9-1.7-5.1 0-2.2.5-3.9 1.6-5.2 1.1-1.3 2.5-2 4.3-2 1.6 0 2.9.6 3.8 1.7.9 1.1 1.4 2.6 1.4 4.6v1h-9.8c0 1.9.5 3.3 1.3 4.3s2.1 1.5 3.7 1.5c.8 0 1.5-.1 2-.2.6-.1 1.3-.3 2.2-.7v1.1c-.8.3-1.5.6-2.1.7s-1.3.1-2.1.1zm-.3-13c-1.3 0-2.4.4-3.2 1.3-.8.9-1.3 2.1-1.4 3.7h8.4c0-1.6-.3-2.8-1-3.7s-1.6-1.3-2.8-1.3z"/></g><g><path class="st42" d="M125.2 700.9h598.1"/><path class="st43" d="M125.2 700.7h598.1v.5H125.2z"/></g><g><path class="st0" d="M143.7 813.8h4.5v2h-4.5v7.4h-2.4v-7.4h-13.7v-1.4l13.5-20.4h2.6v19.8zm-13.2 0h10.8v-16.7l-1.1 1.8-9.7 14.9zM173.8 795.4l-12.5 27.8h-2.5l12.4-27.1h-16.6v-2h19.2v1.3zM188 807.3h2.5c1.4 0 2.6-.2 3.6-.7 1-.5 1.8-1.2 2.4-2 .5-.8.8-1.8.8-2.9 0-1.9-.5-3.3-1.6-4.4-1.1-1.1-2.6-1.6-4.5-1.6s-3.4.6-4.6 1.7c-1.2 1.1-1.8 2.6-1.8 4.4h-2.4c0-1.5.4-2.9 1.1-4.1.8-1.2 1.8-2.2 3.2-2.9 1.3-.7 2.8-1 4.5-1 2.6 0 4.7.7 6.3 2.2s2.3 3.4 2.3 5.9c0 1.4-.4 2.7-1.3 3.9-.9 1.2-2.1 2.1-3.7 2.7 1.8.5 3.2 1.4 4.1 2.6.9 1.2 1.4 2.7 1.4 4.4 0 2.5-.8 4.5-2.4 6s-3.8 2.3-6.5 2.3c-1.7 0-3.3-.3-4.8-1-1.4-.7-2.6-1.7-3.4-2.9-.8-1.2-1.2-2.7-1.2-4.4h2.4c0 1.9.6 3.4 1.9 4.5s3 1.8 5 1.8c2.1 0 3.7-.5 4.8-1.6 1.2-1.1 1.7-2.6 1.7-4.6 0-2-.6-3.4-1.9-4.5-1.2-1-3.1-1.5-5.5-1.5H188v-2.3zM226.7 801.5c0 1.5-.4 2.9-1.3 4.1-.9 1.2-2 2.1-3.5 2.6 1.7.6 3 1.5 4 2.8 1 1.3 1.5 2.8 1.5 4.4 0 2.5-.8 4.5-2.5 5.9-1.7 1.5-3.9 2.2-6.7 2.2-2.8 0-5.1-.7-6.8-2.2-1.7-1.5-2.5-3.4-2.5-6 0-1.7.5-3.1 1.5-4.4 1-1.3 2.3-2.2 4-2.8-1.4-.6-2.6-1.4-3.4-2.6-.9-1.2-1.3-2.5-1.3-4.1 0-2.4.8-4.3 2.3-5.8 1.6-1.4 3.6-2.1 6.2-2.1s4.6.7 6.2 2.2 2.3 3.5 2.3 5.8zm-1.6 14c0-1.8-.6-3.3-1.9-4.5-1.3-1.2-3-1.8-5-1.8s-3.7.6-4.9 1.7c-1.3 1.1-1.9 2.7-1.9 4.5s.6 3.3 1.9 4.4c1.2 1.1 2.9 1.7 5 1.7s3.7-.5 5-1.6 1.8-2.5 1.8-4.4zm-.8-14c0-1.7-.6-3.1-1.7-4.2-1.2-1.1-2.6-1.7-4.4-1.7-1.8 0-3.3.5-4.4 1.6-1.1 1.1-1.7 2.5-1.7 4.2 0 1.7.6 3.1 1.7 4.1s2.6 1.6 4.4 1.6c1.8 0 3.3-.5 4.4-1.6 1.2-.9 1.7-2.3 1.7-4zM251.4 809.7c-.9 1.3-1.9 2.2-3.2 2.9-1.3.7-2.6 1-4.1 1-1.7 0-3.1-.4-4.4-1.3-1.3-.9-2.3-2-2.9-3.5-.7-1.5-1-3.2-1-4.9 0-1.9.4-3.7 1.1-5.2.7-1.6 1.8-2.8 3.1-3.7 1.3-.9 2.9-1.3 4.6-1.3 2.9 0 5.2 1 6.8 3.1 1.6 2.1 2.4 5 2.4 8.7v2.2c0 5.3-1.1 9.2-3.4 11.9-2.2 2.6-5.7 4-10.3 4h-.4v-2.1h.8c3.5-.1 6.1-1 8-3 1.8-2 2.8-4.9 2.9-8.8zm-7.1 1.9c1.6 0 3-.5 4.3-1.4 1.3-1 2.2-2.2 2.7-3.7v-1.4c0-3-.6-5.3-1.9-6.9-1.2-1.6-2.9-2.4-5-2.4-1.9 0-3.5.8-4.7 2.3-1.2 1.5-1.8 3.4-1.8 5.8 0 2.2.6 4.1 1.8 5.6 1.2 1.3 2.8 2.1 4.6 2.1zM281.5 823.2h-18.3v-1.8l10-11.3c1.7-1.9 2.8-3.5 3.4-4.7.6-1.2 1-2.5 1-3.6 0-1.8-.5-3.3-1.6-4.4-1.1-1.1-2.6-1.6-4.5-1.6-2 0-3.6.6-4.8 1.9-1.2 1.3-1.8 2.9-1.8 4.9h-2.4c0-1.6.4-3.1 1.1-4.5.7-1.3 1.8-2.4 3.2-3.2 1.4-.8 2.9-1.2 4.7-1.2 2.7 0 4.8.7 6.3 2.1s2.3 3.3 2.3 5.7c0 1.4-.4 2.9-1.3 4.5-.8 1.6-2.3 3.6-4.5 6.1l-8.1 9.2h15.3v1.9zM307.3 801.5c0 1.5-.4 2.9-1.3 4.1-.9 1.2-2 2.1-3.5 2.6 1.7.6 3 1.5 4 2.8 1 1.3 1.5 2.8 1.5 4.4 0 2.5-.8 4.5-2.5 5.9-1.7 1.5-3.9 2.2-6.7 2.2-2.8 0-5.1-.7-6.8-2.2-1.7-1.5-2.5-3.4-2.5-6 0-1.7.5-3.1 1.5-4.4 1-1.3 2.3-2.2 4-2.8-1.4-.6-2.6-1.4-3.4-2.6-.9-1.2-1.3-2.5-1.3-4.1 0-2.4.8-4.3 2.3-5.8 1.6-1.4 3.6-2.1 6.2-2.1s4.6.7 6.2 2.2 2.3 3.5 2.3 5.8zm-1.7 14c0-1.8-.6-3.3-1.9-4.5-1.3-1.2-3-1.8-5-1.8s-3.7.6-4.9 1.7c-1.3 1.1-1.9 2.7-1.9 4.5s.6 3.3 1.9 4.4c1.2 1.1 2.9 1.7 5 1.7s3.7-.5 5-1.6 1.8-2.5 1.8-4.4zm-.7-14c0-1.7-.6-3.1-1.7-4.2-1.2-1.1-2.6-1.7-4.4-1.7-1.8 0-3.3.5-4.4 1.6-1.1 1.1-1.7 2.5-1.7 4.2 0 1.7.6 3.1 1.7 4.1s2.6 1.6 4.4 1.6c1.8 0 3.3-.5 4.4-1.6 1.1-.9 1.7-2.3 1.7-4zM334.9 795.4l-12.5 27.8h-2.5l12.4-27.1h-16.6v-2h19.2v1.3zM354.9 823.2h-2.4v-26.3l-7.9 2.9v-2.2l9.9-3.7h.4v29.3z"/></g><g><path class="st41" d="M137.7 766.8h-7.4l-2.6 6.5h-1.4l7.4-18.4h.8l7.2 18.4h-1.4l-2.6-6.5zm-7-1.1h6.6l-2.5-6.6c-.2-.5-.5-1.2-.8-2.2-.2.8-.5 1.5-.7 2.2l-2.6 6.6zM151.9 773.5c-1.9 0-3.5-.6-4.6-1.8-1.1-1.2-1.7-2.9-1.7-5.1 0-2.3.6-4 1.7-5.3 1.1-1.3 2.7-1.9 4.7-1.9 1.2 0 2.3.2 3.4.6l-.3 1.1c-1.2-.4-2.2-.6-3.1-.6-1.7 0-2.9.5-3.8 1.5-.9 1-1.3 2.5-1.3 4.5 0 1.8.4 3.3 1.3 4.3s2.1 1.6 3.6 1.6c1.2 0 2.4-.2 3.4-.7v1.2c-.7.4-1.9.6-3.3.6zM166.7 773.5c-1.9 0-3.5-.6-4.6-1.8-1.1-1.2-1.7-2.9-1.7-5.1 0-2.3.6-4 1.7-5.3 1.1-1.3 2.7-1.9 4.7-1.9 1.2 0 2.3.2 3.4.6l-.3 1.1c-1.2-.4-2.2-.6-3.1-.6-1.7 0-2.9.5-3.8 1.5-.9 1-1.3 2.5-1.3 4.5 0 1.8.4 3.3 1.3 4.3s2.1 1.6 3.6 1.6c1.2 0 2.4-.2 3.4-.7v1.2c-.8.4-1.9.6-3.3.6zM187.2 766.5c0 2.2-.5 4-1.6 5.2-1.1 1.2-2.6 1.9-4.5 1.9-1.2 0-2.2-.3-3.2-.9s-1.6-1.4-2.1-2.5-.7-2.3-.7-3.7c0-2.2.5-4 1.6-5.2s2.6-1.9 4.4-1.9c1.9 0 3.3.6 4.4 1.9 1.2 1.2 1.7 3 1.7 5.2zm-10.7 0c0 1.9.4 3.3 1.2 4.4.8 1 2 1.6 3.5 1.6s2.7-.5 3.5-1.6c.8-1 1.2-2.5 1.2-4.4 0-1.9-.4-3.3-1.2-4.4-.8-1-2-1.6-3.5-1.6s-2.7.5-3.5 1.5c-.8 1.1-1.2 2.6-1.2 4.5zM194.7 759.7v8.8c0 1.4.3 2.4.9 3s1.5.9 2.7.9c1.6 0 2.8-.4 3.6-1.2s1.1-2.1 1.1-4v-7.5h1.2v13.6h-1.1l-.2-1.9h-.1c-.9 1.4-2.5 2.1-4.7 2.1-3.1 0-4.6-1.7-4.6-5v-8.9h1.2zM220.8 773.3v-8.8c0-1.4-.3-2.4-.9-3s-1.5-.9-2.7-.9c-1.6 0-2.8.4-3.6 1.2-.8.8-1.1 2.2-1.1 4v7.5h-1.2v-13.6h1.1l.2 1.9h.1c.9-1.4 2.5-2.1 4.7-2.1 3.1 0 4.6 1.7 4.6 5v8.9h-1.2zM232.6 772.4c.8 0 1.5-.1 2.1-.2v1c-.6.2-1.3.3-2.1.3-1.2 0-2.1-.3-2.7-1-.6-.6-.9-1.7-.9-3v-8.8h-2v-.7l2-.6.6-3.1h.6v3.3h4v1.1h-4v8.6c0 1 .2 1.8.6 2.3.4.6 1 .8 1.8.8zM263 773.3h-1.3L250.8 757h-.1c.1 1.9.2 3.4.2 4.4v11.9h-1.2V755h1.3l10.8 16.2h.1c-.1-1.5-.1-2.9-.1-4.3V755h1.2v18.3zM281.7 766.5c0 2.2-.5 4-1.6 5.2-1.1 1.2-2.6 1.9-4.5 1.9-1.2 0-2.2-.3-3.2-.9s-1.6-1.4-2.1-2.5-.7-2.3-.7-3.7c0-2.2.5-4 1.6-5.2s2.6-1.9 4.4-1.9c1.9 0 3.3.6 4.4 1.9 1.1 1.2 1.7 3 1.7 5.2zm-10.8 0c0 1.9.4 3.3 1.2 4.4.8 1 2 1.6 3.5 1.6s2.7-.5 3.5-1.6c.8-1 1.2-2.5 1.2-4.4 0-1.9-.4-3.3-1.2-4.4-.8-1-2-1.6-3.5-1.6s-2.7.5-3.5 1.5c-.8 1.1-1.2 2.6-1.2 4.5zM287.8 772.3c0-.8.3-1.2 1-1.2s1 .4 1 1.2c0 .8-.3 1.2-1 1.2s-1-.4-1-1.2z"/></g><g><path class="st42" d="M125.2 844.6h598.1"/><path class="st43" d="M125.2 844.3h598.1v.5H125.2z"/></g><g><path class="st0" d="M146.2 943.9c0 1.5-.4 2.9-1.3 4.1-.9 1.2-2 2.1-3.5 2.6 1.7.6 3 1.5 4 2.8 1 1.3 1.5 2.8 1.5 4.4 0 2.5-.8 4.5-2.5 5.9-1.7 1.5-3.9 2.2-6.7 2.2-2.8 0-5.1-.7-6.8-2.2-1.7-1.5-2.5-3.4-2.5-6 0-1.7.5-3.1 1.5-4.4s2.3-2.2 4-2.8c-1.4-.6-2.6-1.4-3.4-2.6-.9-1.2-1.3-2.5-1.3-4.1 0-2.4.8-4.3 2.3-5.8 1.6-1.4 3.6-2.1 6.2-2.1s4.6.7 6.2 2.2 2.3 3.4 2.3 5.8zm-1.7 13.9c0-1.8-.6-3.3-1.9-4.5s-3-1.8-5-1.8-3.7.6-4.9 1.7c-1.3 1.1-1.9 2.7-1.9 4.5 0 1.9.6 3.3 1.9 4.4 1.2 1.1 2.9 1.7 5 1.7s3.7-.5 5-1.6c1.2-1 1.8-2.5 1.8-4.4zm-.7-13.9c0-1.7-.6-3.1-1.7-4.2-1.2-1.1-2.6-1.7-4.4-1.7-1.8 0-3.3.5-4.4 1.6s-1.7 2.5-1.7 4.2c0 1.7.6 3.1 1.7 4.1s2.6 1.6 4.4 1.6c1.8 0 3.3-.5 4.4-1.6 1.1-.9 1.7-2.3 1.7-4zM157.5 950.6l1.4-14.2h14.6v2.2H161l-1 9.9c1.6-1.1 3.4-1.6 5.5-1.6 2.6 0 4.7.9 6.3 2.6s2.3 4 2.3 6.8c0 3.1-.8 5.5-2.3 7.2-1.5 1.7-3.7 2.5-6.4 2.5-2.5 0-4.6-.7-6.2-2.1-1.6-1.4-2.5-3.4-2.7-6h2.3c.2 2 .9 3.5 2 4.5s2.6 1.5 4.5 1.5c2.1 0 3.7-.7 4.7-2 1.1-1.3 1.6-3.2 1.6-5.7 0-2.1-.6-3.9-1.8-5.2-1.2-1.3-2.8-2-4.9-2-1.1 0-2.1.1-3 .4-.8.3-1.7.8-2.7 1.7l-1.7-.5zM200.3 953.4c0 4.1-.8 7.2-2.3 9.4-1.5 2.1-3.7 3.2-6.7 3.2-2.9 0-5.1-1-6.6-3.1s-2.3-5.1-2.4-9.1v-5.2c0-4.1.8-7.2 2.3-9.3 1.5-2.1 3.7-3.2 6.7-3.2 2.9 0 5.1 1 6.6 3.1s2.3 5 2.4 9v5.2zm-2.4-5.2c0-3.3-.5-5.9-1.6-7.6-1.1-1.7-2.7-2.6-4.9-2.6s-3.8.8-4.9 2.5c-1.1 1.7-1.7 4.1-1.7 7.4v5.7c0 3.3.6 5.9 1.7 7.6 1.1 1.8 2.8 2.6 4.9 2.6 2.1 0 3.8-.9 4.9-2.6 1.1-1.7 1.7-4.2 1.7-7.6v-5.4zM227.1 953.4c0 4.1-.8 7.2-2.3 9.4-1.5 2.1-3.7 3.2-6.7 3.2-2.9 0-5.1-1-6.6-3.1s-2.3-5.1-2.4-9.1v-5.2c0-4.1.8-7.2 2.3-9.3 1.5-2.1 3.7-3.2 6.7-3.2 2.9 0 5.1 1 6.6 3.1s2.3 5 2.4 9v5.2zm-2.4-5.2c0-3.3-.5-5.9-1.6-7.6-1.1-1.7-2.7-2.6-4.9-2.6s-3.8.8-4.9 2.5c-1.1 1.7-1.7 4.1-1.7 7.4v5.7c0 3.3.6 5.9 1.7 7.6 1.1 1.8 2.8 2.6 4.9 2.6 2.1 0 3.8-.9 4.9-2.6 1.1-1.7 1.7-4.2 1.7-7.6v-5.4zM254.4 937.8l-12.5 27.8h-2.5l12.4-27.1h-16.6v-2h19.2v1.3zM274.4 965.6H272v-26.3l-7.9 2.9V940l9.9-3.7h.4v29.3zM304.2 936.2v2.1h-.3c-3.5 0-6.2 1-8.2 3.1-2 2.1-3.1 4.9-3.3 8.6.8-1.1 1.8-2 3.1-2.6 1.2-.6 2.6-.9 4.2-.9 2.6 0 4.6.9 6.1 2.7 1.5 1.8 2.3 4.1 2.3 6.9 0 1.9-.4 3.6-1.1 5.1-.7 1.5-1.7 2.7-3 3.6-1.3.8-2.8 1.3-4.5 1.3-2.8 0-5.1-1-6.8-3-1.8-2-2.6-4.6-2.6-7.8v-2.4c0-5.2 1.2-9.3 3.6-12.1s5.8-4.3 10.1-4.4h.4zm-5 12.3c-1.5 0-2.9.5-4.3 1.4-1.3.9-2.2 2-2.6 3.4v2c0 2.5.7 4.6 2 6.2 1.3 1.6 3 2.4 5.1 2.4 1.9 0 3.4-.7 4.5-2.2 1.2-1.5 1.7-3.3 1.7-5.6s-.6-4.1-1.7-5.5c-1.1-1.4-2.7-2.1-4.7-2.1zM322.3 949.7h2.5c1.4 0 2.6-.2 3.6-.7 1-.5 1.8-1.2 2.4-2s.8-1.8.8-2.9c0-1.9-.5-3.3-1.6-4.4-1.1-1.1-2.6-1.6-4.5-1.6s-3.4.6-4.6 1.7c-1.2 1.1-1.8 2.6-1.8 4.4h-2.4c0-1.5.4-2.9 1.1-4.1.8-1.2 1.8-2.2 3.2-2.9 1.3-.7 2.8-1 4.5-1 2.6 0 4.7.7 6.3 2.2s2.3 3.4 2.3 5.9c0 1.4-.4 2.7-1.3 3.9-.9 1.2-2.1 2.1-3.7 2.7 1.8.5 3.2 1.4 4.1 2.6.9 1.2 1.4 2.7 1.4 4.4 0 2.5-.8 4.5-2.4 6-1.6 1.5-3.8 2.3-6.5 2.3-1.7 0-3.3-.3-4.8-1-1.4-.7-2.6-1.7-3.4-2.9-.8-1.2-1.2-2.7-1.2-4.4h2.4c0 1.9.6 3.4 1.9 4.5 1.3 1.2 3 1.8 5 1.8 2.1 0 3.7-.5 4.8-1.6 1.2-1.1 1.7-2.6 1.7-4.6 0-2-.6-3.4-1.9-4.5-1.2-1-3.1-1.5-5.5-1.5h-2.4v-2.3zM358.5 956.2h4.5v2h-4.5v7.4h-2.4v-7.4h-13.7v-1.4l13.5-20.4h2.6v19.8zm-13.2 0h10.8v-16.7l-1.1 1.8-9.7 14.9z"/></g><g><path class="st41" d="M130.1 907.7v8h-1.3v-18.3h4.4c2.3 0 3.9.4 5 1.3 1.1.8 1.6 2.1 1.6 3.8 0 1.2-.3 2.3-1 3.1-.6.8-1.6 1.4-2.9 1.8l5 8.3h-1.5l-4.7-8h-4.6zm0-1.1h3.5c1.5 0 2.7-.3 3.6-1 .9-.7 1.3-1.7 1.3-3 0-1.4-.4-2.4-1.3-3-.8-.6-2.2-1-4.1-1h-3v8zM157.6 908.8c0 2.2-.5 4-1.6 5.2-1.1 1.2-2.6 1.9-4.5 1.9-1.2 0-2.2-.3-3.2-.9s-1.6-1.4-2.1-2.5-.7-2.3-.7-3.7c0-2.2.5-4 1.6-5.2 1.1-1.2 2.6-1.9 4.4-1.9 1.9 0 3.3.6 4.4 1.9 1.2 1.3 1.7 3 1.7 5.2zm-10.8 0c0 1.9.4 3.3 1.2 4.4s2 1.6 3.5 1.6 2.7-.5 3.5-1.6 1.2-2.5 1.2-4.4c0-1.9-.4-3.3-1.2-4.4-.8-1-2-1.6-3.5-1.6s-2.7.5-3.5 1.5c-.7 1.2-1.2 2.6-1.2 4.5zM165 902v8.8c0 1.4.3 2.4.9 3s1.5.9 2.7.9c1.6 0 2.8-.4 3.6-1.2.8-.8 1.1-2.1 1.1-4V902h1.2v13.6h-1.1l-.2-1.9h-.1c-.9 1.4-2.5 2.1-4.7 2.1-3.1 0-4.6-1.7-4.6-5V902h1.2zM185.2 914.8c.8 0 1.5-.1 2.1-.2v1c-.6.2-1.3.3-2.1.3-1.2 0-2.1-.3-2.7-1-.6-.6-.9-1.7-.9-3v-8.8h-2v-.7l2-.6.6-3.1h.6v3.3h4v1.1h-4v8.6c0 1 .2 1.8.6 2.3.5.5 1 .8 1.8.8zM192.6 898.2c0-.8.3-1.2.8-1.2.3 0 .5.1.6.3s.2.5.2.9-.1.7-.2.9-.3.3-.6.3c-.5.1-.8-.4-.8-1.2zm1.4 17.4h-1.2V902h1.2v13.6zM210.6 915.6v-8.8c0-1.4-.3-2.4-.9-3s-1.5-.9-2.7-.9c-1.6 0-2.8.4-3.6 1.2-.8.8-1.1 2.2-1.1 4v7.5h-1.2V902h1.1l.2 1.9h.1c.9-1.4 2.5-2.1 4.7-2.1 3.1 0 4.6 1.7 4.6 5v8.9h-1.2zM229.5 902v.9l-2.8.2c.8.9 1.1 2 1.1 3.1 0 1.3-.4 2.4-1.3 3.2-.9.8-2 1.2-3.5 1.2-.6 0-1.1 0-1.3-.1-.5.3-.9.6-1.1.9s-.4.7-.4 1.1c0 .4.2.8.5 1 .3.2.9.3 1.7.3h2.4c1.5 0 2.6.3 3.4.9.8.6 1.2 1.5 1.2 2.6 0 1.4-.6 2.5-1.7 3.3-1.2.8-2.8 1.2-5 1.2-1.7 0-3-.3-4-1-.9-.7-1.4-1.6-1.4-2.8 0-.9.3-1.7.9-2.3.6-.6 1.4-1 2.4-1.3-.4-.2-.7-.4-1-.7-.2-.3-.4-.7-.4-1.1 0-.9.6-1.7 1.7-2.4-.8-.3-1.4-.8-1.9-1.5-.4-.7-.7-1.5-.7-2.4 0-1.4.4-2.5 1.3-3.3.9-.8 2-1.2 3.5-1.2.9 0 1.6.1 2.1.3h4.3zm-11.1 15.9c0 1.9 1.4 2.8 4.2 2.8 3.6 0 5.4-1.1 5.4-3.4 0-.8-.3-1.4-.8-1.8s-1.5-.6-2.7-.6h-2.2c-2.6.1-3.9 1.1-3.9 3zm1.1-11.6c0 1.1.3 1.9 1 2.4.6.6 1.5.9 2.6.9s2-.3 2.6-.9c.6-.6.9-1.4.9-2.5 0-1.2-.3-2-.9-2.6-.6-.6-1.5-.9-2.6-.9s-1.9.3-2.6.9-1 1.6-1 2.7zM257.7 915.6h-1.3l-10.8-16.3h-.1c.1 1.9.2 3.4.2 4.4v11.9h-1.2v-18.3h1.3l10.8 16.2h.1c-.1-1.5-.1-2.9-.1-4.3v-11.9h1.2v18.3zM276.4 908.8c0 2.2-.5 4-1.6 5.2-1.1 1.2-2.6 1.9-4.5 1.9-1.2 0-2.2-.3-3.2-.9s-1.6-1.4-2.1-2.5-.7-2.3-.7-3.7c0-2.2.5-4 1.6-5.2 1.1-1.2 2.6-1.9 4.4-1.9 1.9 0 3.3.6 4.4 1.9 1.1 1.3 1.7 3 1.7 5.2zm-10.8 0c0 1.9.4 3.3 1.2 4.4s2 1.6 3.5 1.6 2.7-.5 3.5-1.6 1.2-2.5 1.2-4.4c0-1.9-.4-3.3-1.2-4.4-.8-1-2-1.6-3.5-1.6s-2.7.5-3.5 1.5c-.8 1.2-1.2 2.6-1.2 4.5zM282.4 914.7c0-.8.3-1.2 1-1.2s1 .4 1 1.2-.3 1.2-1 1.2c-.6 0-1-.4-1-1.2z"/></g><g><path class="st42" d="M125.2 986.9h598.1"/><path class="st43" d="M125.2 986.7h598.1v.5H125.2z"/></g><g><path class="st0" d="M129.9 1111.8v-29.2h8.2c2.4 0 4.5.5 6.4 1.6s3.4 2.6 4.4 4.7c1.1 2 1.6 4.3 1.6 6.9v2.7c0 2.6-.5 4.9-1.6 6.9s-2.5 3.6-4.5 4.7c-1.9 1.1-4.1 1.6-6.6 1.6h-7.9zm2.5-27.1v25h5.5c3.1 0 5.5-1 7.4-3.1 1.9-2 2.8-4.8 2.8-8.3v-2.6c0-3.4-.9-6-2.7-8.1-1.8-2-4.2-3-7.2-3h-5.8zM168.7 1112.2c-1.8 0-3.5-.5-5-1.4s-2.6-2.2-3.5-3.8c-.8-1.6-1.2-3.4-1.2-5.5v-.9c0-2.1.4-4 1.2-5.6s1.9-3 3.4-3.9c1.4-1 3-1.4 4.7-1.4 2.6 0 4.7.9 6.3 2.7s2.3 4.3 2.3 7.4v1.3h-15.5v.5c0 2.5.7 4.5 2.1 6.1 1.4 1.6 3.2 2.5 5.3 2.5 1.3 0 2.4-.2 3.4-.7s1.9-1.2 2.7-2.2l1.5 1.1c-1.7 2.5-4.3 3.8-7.7 3.8zm-.4-20.5c-1.8 0-3.3.7-4.6 2-1.2 1.3-2 3.1-2.3 5.3h13v-.3c-.1-2.1-.7-3.8-1.8-5.1-1-1.2-2.5-1.9-4.3-1.9zM187.9 1090.1l.1 3.7c.8-1.3 1.8-2.4 3-3.1 1.2-.7 2.6-1.1 4-1.1 2.3 0 4.1.7 5.2 2 1.1 1.3 1.7 3.3 1.7 5.9v14.2h-2.4v-14.2c0-1.9-.4-3.4-1.2-4.3-.8-.9-2.1-1.4-3.9-1.4-1.5 0-2.8.5-3.9 1.4-1.1.9-2 2.2-2.5 3.8v14.8h-2.4v-21.7h2.3zM219.1 1108.5l6.6-18.4h2.5l-8.1 21.7h-1.9l-8.1-21.7h2.5l6.5 18.4zM244.5 1112.2c-1.8 0-3.5-.5-5-1.4s-2.6-2.2-3.5-3.8c-.8-1.6-1.2-3.4-1.2-5.5v-.9c0-2.1.4-4 1.2-5.6s1.9-3 3.4-3.9c1.4-1 3-1.4 4.7-1.4 2.6 0 4.7.9 6.3 2.7s2.3 4.3 2.3 7.4v1.3h-15.5v.5c0 2.5.7 4.5 2.1 6.1 1.4 1.6 3.2 2.5 5.3 2.5 1.3 0 2.4-.2 3.4-.7s1.9-1.2 2.7-2.2l1.5 1.1c-1.8 2.5-4.3 3.8-7.7 3.8zm-.4-20.5c-1.8 0-3.3.7-4.6 2-1.2 1.3-2 3.1-2.3 5.3h13v-.3c-.1-2.1-.7-3.8-1.8-5.1-1-1.2-2.5-1.9-4.3-1.9zM271.5 1092.1c-.5-.1-1-.1-1.6-.1-1.5 0-2.8.4-3.8 1.3-1 .8-1.8 2-2.2 3.6v14.9h-2.4v-21.7h2.3v3.4c1.3-2.6 3.3-3.8 6.1-3.8.7 0 1.2.1 1.6.3v2.1z"/></g><g><path class="st41" d="M136.7 1044.4c-2.3 0-4.1.7-5.4 2.2-1.3 1.5-2 3.5-2 6 0 2.6.6 4.6 1.9 6.1 1.2 1.4 3 2.2 5.3 2.2 1.5 0 2.9-.2 4.2-.6v1.1c-1.2.4-2.7.6-4.5.6-2.6 0-4.6-.8-6.1-2.5s-2.2-4-2.2-7c0-1.9.4-3.5 1.1-4.9.7-1.4 1.7-2.5 3-3.3s2.9-1.2 4.6-1.2c1.8 0 3.4.3 4.8 1l-.5 1.2c-1.4-.6-2.8-.9-4.2-.9zM146.8 1044.4c0-.8.3-1.2.8-1.2.3 0 .5.1.6.3s.2.5.2.9-.1.7-.2.9-.3.3-.6.3c-.5.1-.8-.4-.8-1.2zm1.5 17.4H147v-13.6h1.2v13.6zM159 1061c.8 0 1.5-.1 2.1-.2v1c-.6.2-1.3.3-2.1.3-1.2 0-2.1-.3-2.7-1-.6-.6-.9-1.7-.9-3v-8.8h-2v-.7l2-.6.6-3.1h.6v3.3h4v1.1h-4v8.6c0 1 .2 1.8.6 2.3.4.5 1 .8 1.8.8zM164.3 1048.2h1.3l2.9 7.6c.9 2.3 1.4 3.9 1.7 4.7h.1c.4-1.1.9-2.7 1.7-4.8l2.9-7.6h1.3l-6.1 15.8c-.5 1.3-.9 2.2-1.2 2.6-.3.5-.7.8-1.2 1-.4.2-1 .3-1.6.3-.5 0-1-.1-1.6-.3v-1.1c.5.1 1 .2 1.6.2.4 0 .8-.1 1.1-.3s.6-.5.9-.9c.3-.4.6-1.1.9-2 .3-.9.6-1.5.7-1.8l-5.4-13.4z"/></g><g><path class="st42" d="M125.2 1133.1h598.1"/><path class="st43" d="M125.2 1132.9h598.1v.5H125.2z"/></g><g><path class="st0" d="M150.6 1246.2c-.3 3.1-1.4 5.4-3.3 7.1s-4.3 2.4-7.4 2.4c-2.2 0-4.1-.5-5.7-1.6s-2.9-2.6-3.9-4.6c-.9-2-1.4-4.3-1.4-6.8v-3.8c0-2.6.5-4.9 1.4-6.9.9-2 2.2-3.6 3.9-4.6s3.7-1.6 5.9-1.6c3.1 0 5.6.8 7.4 2.5 1.8 1.7 2.9 4 3.2 7h-2.5c-.6-5-3.3-7.4-8.1-7.4-2.6 0-4.8 1-6.3 3-1.6 2-2.4 4.7-2.4 8.2v3.6c0 3.4.8 6.1 2.3 8.1 1.5 2 3.6 3 6.2 3s4.5-.6 5.8-1.9c1.3-1.2 2.1-3.1 2.4-5.6h2.5zM158.8 1244.1c0-2.1.4-4 1.2-5.6.8-1.7 2-3 3.4-3.9 1.5-.9 3.1-1.4 5-1.4 2.9 0 5.2 1 7 3s2.7 4.7 2.7 8v.5c0 2.1-.4 4-1.2 5.7-.8 1.7-1.9 3-3.4 3.9-1.5.9-3.1 1.4-5 1.4-2.9 0-5.2-1-7-3-1.8-2-2.7-4.7-2.7-8v-.6zm2.4.7c0 2.6.7 4.7 2 6.4 1.3 1.7 3.1 2.5 5.3 2.5 2.2 0 3.9-.8 5.3-2.5 1.3-1.7 2-3.9 2-6.6v-.5c0-1.7-.3-3.2-.9-4.5-.6-1.4-1.5-2.4-2.6-3.2s-2.4-1.1-3.8-1.1c-2.1 0-3.9.8-5.2 2.5-1.3 1.7-2 3.9-2 6.6v.4zM189.9 1255.3h-2.4v-30.8h2.4v30.8zM199.2 1244.1c0-2.1.4-4 1.2-5.6.8-1.7 2-3 3.4-3.9 1.5-.9 3.1-1.4 5-1.4 2.9 0 5.2 1 7 3s2.7 4.7 2.7 8v.5c0 2.1-.4 4-1.2 5.7-.8 1.7-1.9 3-3.4 3.9-1.5.9-3.1 1.4-5 1.4-2.9 0-5.2-1-7-3-1.8-2-2.7-4.7-2.7-8v-.6zm2.4.7c0 2.6.7 4.7 2 6.4 1.3 1.7 3.1 2.5 5.3 2.5 2.2 0 3.9-.8 5.3-2.5 1.3-1.7 2-3.9 2-6.6v-.5c0-1.7-.3-3.2-.9-4.5-.6-1.4-1.5-2.4-2.6-3.2s-2.4-1.1-3.8-1.1c-2.1 0-3.9.8-5.2 2.5-1.3 1.7-2 3.9-2 6.6v.4zM237.6 1235.6c-.5-.1-1-.1-1.6-.1-1.5 0-2.8.4-3.8 1.3-1 .8-1.8 2-2.2 3.6v14.9h-2.4v-21.7h2.3v3.4c1.3-2.6 3.3-3.8 6.1-3.8.7 0 1.2.1 1.6.3v2.1zM258.4 1255.3c-.2-.7-.4-1.7-.5-3-.8 1.1-1.9 1.9-3.2 2.5-1.3.6-2.7.9-4.1.9-2.1 0-3.8-.6-5.1-1.7s-1.9-2.6-1.9-4.4c0-2.1.9-3.8 2.6-5 1.8-1.2 4.2-1.8 7.3-1.8h4.3v-2.5c0-1.5-.5-2.8-1.4-3.7-1-.9-2.3-1.3-4.2-1.3-1.7 0-3.1.4-4.1 1.3-1.1.9-1.6 1.9-1.6 3.1h-2.4c0-1.7.8-3.2 2.4-4.5 1.6-1.3 3.6-1.9 5.9-1.9 2.4 0 4.3.6 5.7 1.8 1.4 1.2 2.1 2.9 2.2 5.1v10.3c0 2.1.2 3.7.7 4.7v.2h-2.6zm-7.5-1.8c1.6 0 3-.4 4.3-1.2 1.3-.8 2.2-1.8 2.8-3.1v-4.8h-4.3c-2.4 0-4.3.5-5.6 1.3-1.3.8-2 2-2 3.5 0 1.2.5 2.2 1.4 3s1.9 1.3 3.4 1.3zM269.8 1244.2c0-3.4.8-6 2.3-8s3.5-3 6.1-3c2.9 0 5.2 1.2 6.7 3.5v-12.2h2.4v30.8H285l-.1-2.9c-1.5 2.2-3.8 3.3-6.8 3.3-2.5 0-4.5-1-6-3s-2.3-4.7-2.3-8.1v-.4zm2.5.4c0 2.8.6 4.9 1.7 6.5 1.1 1.6 2.7 2.4 4.7 2.4 3 0 5-1.3 6.3-3.9v-10.2c-1.2-2.8-3.3-4.2-6.3-4.2-2 0-3.6.8-4.7 2.4-1.2 1.6-1.7 4-1.7 7zM296.4 1244.1c0-2.1.4-4 1.2-5.6.8-1.7 2-3 3.4-3.9 1.5-.9 3.1-1.4 5-1.4 2.9 0 5.2 1 7 3s2.7 4.7 2.7 8v.5c0 2.1-.4 4-1.2 5.7-.8 1.7-1.9 3-3.4 3.9-1.5.9-3.1 1.4-5 1.4-2.9 0-5.2-1-7-3-1.8-2-2.7-4.7-2.7-8v-.6zm2.4.7c0 2.6.7 4.7 2 6.4 1.3 1.7 3.1 2.5 5.3 2.5 2.2 0 3.9-.8 5.3-2.5 1.3-1.7 2-3.9 2-6.6v-.5c0-1.7-.3-3.2-.9-4.5-.6-1.4-1.5-2.4-2.6-3.2s-2.4-1.1-3.8-1.1c-2.1 0-3.9.8-5.2 2.5-1.3 1.7-2 3.9-2 6.6v.4z"/></g><g><path class="st41" d="M138.9 1200.6c0 1.5-.6 2.7-1.7 3.6s-2.6 1.3-4.5 1.3c-2.2 0-4-.2-5.1-.7v-1.3c1.3.6 3 .8 5 .8 1.5 0 2.7-.3 3.6-1s1.3-1.6 1.3-2.7c0-.7-.1-1.3-.4-1.7s-.8-.9-1.4-1.2-1.6-.8-2.9-1.2c-1.9-.6-3.2-1.3-3.9-2.1-.7-.7-1.1-1.7-1.1-3 0-1.4.5-2.5 1.6-3.4 1.1-.9 2.5-1.3 4.1-1.3 1.7 0 3.3.3 4.8 1l-.5 1.1c-1.5-.6-3-1-4.4-1-1.4 0-2.4.3-3.2.9-.8.6-1.2 1.5-1.2 2.6 0 .7.1 1.2.4 1.7.2.4.6.8 1.2 1.2s1.5.8 2.9 1.2c1.4.5 2.5 1 3.2 1.4.7.5 1.2 1 1.6 1.6.5.7.6 1.4.6 2.2zM148.7 1204.5c.8 0 1.5-.1 2.1-.2v1c-.6.2-1.3.3-2.1.3-1.2 0-2.1-.3-2.7-1-.6-.6-.9-1.7-.9-3v-8.8h-2v-.7l2-.6.6-3.1h.6v3.3h4v1.1h-4v8.6c0 1 .2 1.8.6 2.3.4.5 1 .8 1.8.8zM164.5 1205.3l-.3-2.2h-.1c-.7.9-1.4 1.5-2.1 1.9-.7.4-1.6.5-2.6.5-1.3 0-2.4-.3-3.1-1s-1.1-1.6-1.1-2.8c0-1.3.6-2.4 1.7-3.1s2.7-1.1 4.8-1.2l2.6-.1v-.9c0-1.3-.3-2.3-.8-2.9-.5-.7-1.4-1-2.5-1-1.3 0-2.6.4-3.9 1.1l-.5-1.1c1.5-.7 3-1.1 4.4-1.1 1.5 0 2.6.4 3.4 1.2.7.8 1.1 2 1.1 3.6v9.1h-1zm-5-.9c1.5 0 2.6-.4 3.4-1.2.8-.8 1.3-2 1.3-3.5v-1.3l-2.4.1c-1.9.1-3.3.4-4.1.9-.8.5-1.2 1.3-1.2 2.4 0 .9.3 1.5.8 2 .5.4 1.2.6 2.2.6zM176 1204.5c.8 0 1.5-.1 2.1-.2v1c-.6.2-1.3.3-2.1.3-1.2 0-2.1-.3-2.7-1-.6-.6-.9-1.7-.9-3v-8.8h-2v-.7l2-.6.6-3.1h.6v3.3h4v1.1h-4v8.6c0 1 .2 1.8.6 2.3.4.5 1 .8 1.8.8zM189 1205.6c-2 0-3.5-.6-4.6-1.8-1.1-1.2-1.7-2.9-1.7-5.1 0-2.2.5-3.9 1.6-5.2s2.5-2 4.3-2c1.6 0 2.9.6 3.8 1.7.9 1.1 1.4 2.6 1.4 4.6v1H184c0 1.9.5 3.3 1.3 4.3s2.1 1.5 3.7 1.5c.8 0 1.5-.1 2-.2.6-.1 1.3-.3 2.2-.7v1.1c-.8.3-1.5.6-2.1.7-.6 0-1.3.1-2.1.1zm-.3-13.1c-1.3 0-2.4.4-3.2 1.3-.8.9-1.3 2.1-1.4 3.7h8.4c0-1.6-.3-2.8-1-3.7-.7-.8-1.6-1.3-2.8-1.3z"/></g><g><path class="st42" d="M125.2 1276.6h598.1"/><path class="st43" d="M125.2 1276.4h598.1v.5H125.2z"/></g><g><path class="st0" d="M146.2 1380.7c0 1.5-.4 2.9-1.3 4.1-.9 1.2-2 2.1-3.5 2.6 1.7.6 3 1.5 4 2.8 1 1.3 1.5 2.8 1.5 4.4 0 2.5-.8 4.5-2.5 5.9-1.7 1.5-3.9 2.2-6.7 2.2-2.8 0-5.1-.7-6.8-2.2-1.7-1.5-2.5-3.4-2.5-6 0-1.7.5-3.1 1.5-4.4s2.3-2.2 4-2.8c-1.4-.6-2.6-1.4-3.4-2.6-.9-1.2-1.3-2.5-1.3-4.1 0-2.4.8-4.3 2.3-5.8 1.6-1.4 3.6-2.1 6.2-2.1s4.6.7 6.2 2.2 2.3 3.4 2.3 5.8zm-1.7 14c0-1.8-.6-3.3-1.9-4.5s-3-1.8-5-1.8-3.7.6-4.9 1.7c-1.3 1.1-1.9 2.7-1.9 4.5 0 1.9.6 3.3 1.9 4.4 1.2 1.1 2.9 1.7 5 1.7s3.7-.5 5-1.6c1.2-1.1 1.8-2.6 1.8-4.4zm-.7-14c0-1.7-.6-3.1-1.7-4.2-1.2-1.1-2.6-1.7-4.4-1.7-1.8 0-3.3.5-4.4 1.6s-1.7 2.5-1.7 4.2c0 1.7.6 3.1 1.7 4.1s2.6 1.6 4.4 1.6c1.8 0 3.3-.5 4.4-1.6 1.1-.9 1.7-2.3 1.7-4zM173.4 1390.2c0 4.1-.8 7.2-2.3 9.4-1.5 2.1-3.7 3.2-6.7 3.2-2.9 0-5.1-1-6.6-3.1s-2.3-5.1-2.4-9.1v-5.2c0-4.1.8-7.2 2.3-9.3 1.5-2.1 3.7-3.2 6.7-3.2 2.9 0 5.1 1 6.6 3.1s2.3 5 2.4 9v5.2zm-2.4-5.2c0-3.3-.5-5.9-1.6-7.6-1.1-1.7-2.7-2.6-4.9-2.6s-3.8.8-4.9 2.5c-1.1 1.7-1.7 4.1-1.7 7.4v5.7c0 3.3.6 5.9 1.7 7.6 1.1 1.8 2.8 2.6 4.9 2.6 2.1 0 3.8-.9 4.9-2.6 1.1-1.7 1.7-4.2 1.7-7.6v-5.4zM201 1402.4h-18.3v-1.8l10-11.3c1.7-1.9 2.8-3.5 3.4-4.7.6-1.2 1-2.5 1-3.6 0-1.8-.5-3.3-1.6-4.4-1.1-1.1-2.6-1.6-4.5-1.6-2 0-3.6.6-4.8 1.9-1.2 1.3-1.8 2.9-1.8 4.9H182c0-1.6.4-3.1 1.1-4.5.7-1.3 1.8-2.4 3.2-3.2 1.4-.8 2.9-1.2 4.7-1.2 2.7 0 4.8.7 6.3 2.1 1.5 1.4 2.3 3.3 2.3 5.7 0 1.4-.4 2.9-1.3 4.5-.8 1.6-2.3 3.6-4.5 6.1l-8.1 9.2H201v1.9zM227.1 1390.2c0 4.1-.8 7.2-2.3 9.4-1.5 2.1-3.7 3.2-6.7 3.2-2.9 0-5.1-1-6.6-3.1s-2.3-5.1-2.4-9.1v-5.2c0-4.1.8-7.2 2.3-9.3 1.5-2.1 3.7-3.2 6.7-3.2 2.9 0 5.1 1 6.6 3.1s2.3 5 2.4 9v5.2zm-2.4-5.2c0-3.3-.5-5.9-1.6-7.6-1.1-1.7-2.7-2.6-4.9-2.6s-3.8.8-4.9 2.5c-1.1 1.7-1.7 4.1-1.7 7.4v5.7c0 3.3.6 5.9 1.7 7.6 1.1 1.8 2.8 2.6 4.9 2.6 2.1 0 3.8-.9 4.9-2.6 1.1-1.7 1.7-4.2 1.7-7.6v-5.4zM254.7 1402.4h-18.3v-1.8l10-11.3c1.7-1.9 2.8-3.5 3.4-4.7.6-1.2 1-2.5 1-3.6 0-1.8-.5-3.3-1.6-4.4-1.1-1.1-2.6-1.6-4.5-1.6-2 0-3.6.6-4.8 1.9-1.2 1.3-1.8 2.9-1.8 4.9h-2.4c0-1.6.4-3.1 1.1-4.5.7-1.3 1.8-2.4 3.2-3.2 1.4-.8 2.9-1.2 4.7-1.2 2.7 0 4.8.7 6.3 2.1 1.5 1.4 2.3 3.3 2.3 5.7 0 1.4-.4 2.9-1.3 4.5-.8 1.6-2.3 3.6-4.5 6.1l-8.1 9.2h15.3v1.9z"/></g><g><path class="st41" d="M140 1352.4h-12.7v-1l10.7-16.2h-10.2v-1.2h11.9v1l-10.7 16.2h11v1.2zM146.2 1352.4v-18.3h1.3v18.3h-1.3zM166.2 1339.4c0 1.8-.6 3.1-1.8 4.1-1.2.9-2.9 1.4-5.1 1.4h-2.8v7.6h-1.3v-18.3h4.5c4.4-.1 6.5 1.7 6.5 5.2zm-9.7 4.4h2.5c2.1 0 3.6-.3 4.5-1s1.4-1.8 1.4-3.3c0-1.4-.4-2.5-1.3-3.1s-2.2-1-4-1h-3v8.4z"/></g><g><path class="st42" d="M125.2 1423.8h598.1"/><path class="st43" d="M125.2 1423.5h598.1v.5H125.2z"/></g></g><path class="st44" d="M57.2 187.4h718.3v40.7H57.2z"/><path class="st44" d="M725.8 200h46.7c.7 0 1.2.5 1.2 1.2v15.6c0 .7-.5 1.2-1.2 1.2h-46.7c-.7 0-1.2-.5-1.2-1.2v-15.6c0-.7.5-1.2 1.2-1.2zm0-1.2c-1.3 0-2.4 1.1-2.4 2.4v15.5c0 1.3 1.1 2.4 2.4 2.4h46.6c1.3 0 2.4-1.1 2.4-2.4v-15.5c0-1.3-1.1-2.4-2.4-2.4h-46.6zm51.5 6h1.8c1 0 1.8.8 1.8 1.8v4.8c0 1-.8 1.8-1.8 1.8h-1.8v-8.4zm-51.5-7.2h46.7c2 0 3.6 1.6 3.6 3.6v15.5c0 2-1.6 3.6-3.6 3.6h-46.7c-2 0-3.6-1.6-3.6-3.6v-15.5c0-2 1.6-3.6 3.6-3.6z"/></svg>