<svg id="Layer_1" xmlns="http://www.w3.org/2000/svg" viewBox="0 0 1000 400"><style>.st0{opacity:.15;fill:#c7cfe9}.st1{opacity:.19}.st1,.st2{fill:#c7cfe9}.st3{fill:#9396ad}.st4{fill:#5e6578}.st5{fill:#454c5a}.st6{fill:#71788d}.st7{fill:#8a86a5}.st8{fill:#907ba2}.st9{fill:#584b80}.st10{fill:#4d4967}.st11{fill:#664a9d}.st12{fill:#9aaa68}.st13{fill:#828c65}.st14{fill:#e3d4e8}.st15{fill:#c6bccb}.st16{fill:#6b5363}</style><path class="st0" d="M-13 297.2L1012 24v379.8H-13z"/><path class="st0" d="M1102 346L-168-10.6V408h1270z"/><path class="st1" d="M1245-86.4L-25 69.6V-213h1270z"/><g id="color"><path transform="rotate(-90 309.217 474.412)" class="st2" d="M281.3 463.3h55.8v22.2h-55.8z"/><path transform="rotate(-90 264.81 474.412)" class="st3" d="M236.9 463.3h55.8v22.2h-55.8z"/><path transform="rotate(-90 175.995 474.412)" class="st4" d="M148.1 463.3h55.8v22.2h-55.8z"/><path transform="rotate(-90 131.588 474.412)" class="st5" d="M103.7 463.3h55.8v22.2h-55.8z"/><path transform="rotate(-90 220.403 474.412)" class="st6" d="M192.5 463.3h55.8v22.2h-55.8z"/><path transform="rotate(-90 391.056 474.412)" class="st7" d="M363.2 463.3H419v22.2h-55.8z"/><path transform="rotate(-90 699.233 474.412)" class="st8" d="M671.3 463.3h55.8v22.2h-55.8z"/><path transform="rotate(-90 610.418 474.412)" class="st9" d="M582.5 463.3h55.8v22.2h-55.8z"/><path transform="rotate(-90 566.01 474.412)" class="st10" d="M538.1 463.3h55.8v22.2h-55.8z"/><path transform="rotate(-90 654.825 474.412)" class="st11" d="M626.9 463.3h55.8v22.2h-55.8z"/><path transform="rotate(-90 868.207 474.412)" class="st12" d="M840.3 463.3h55.8v22.2h-55.8z"/><path transform="rotate(-90 823.8 474.412)" class="st13" d="M795.9 463.3h55.8v22.2h-55.8z"/><path transform="rotate(-90 479.643 474.412)" class="st14" d="M451.7 463.3h55.8v22.2h-55.8z"/><path transform="rotate(-90 435.236 474.412)" class="st15" d="M407.3 463.3h55.8v22.2h-55.8z"/><path transform="rotate(-90 779.393 474.412)" class="st16" d="M751.5 463.3h55.8v22.2h-55.8z"/></g></svg>