<svg id="Layer_1" xmlns="http://www.w3.org/2000/svg" viewBox="0 0 500 500"><style>.st0{fill:none}.st1{fill:#e3e3ec}.st2{fill:#e41f2f}.st3{fill:#5e6578}.st4{fill:#52596a}.st5{fill:#9396ad}.st6{fill:#71788d}.st7{fill:#454c5a}.st8{fill:#c7cfe9}.st9{fill:#b1b6cf}.st10{fill:#828c65}.st11{fill:#9aaa68}.st12{fill:#928ba8}.st13{fill:#736e8a}.st14{fill:#b0accb}.st15{fill:#8f7ca3}.st16{fill:#6b5363}</style><path class="st0" d="M131.4 295.2zM365.8 139.2l-26.5 15.5zM339 154.9l-67.4 39.5zM363.6 296.8l-20 11.3zM264.5 179.6l4.9 2.8-4.9-2.8zM264.3 179.5L243.1 167l-41.5-24.2z"/><path class="st1" d="M371.9 339.1v.5L343.6 355v-.6l-28.8-17.1v-.1l-45.4 26-21.4-13.1-45.6 27.6-70.3-41.6L25 397l94.4 54.5 85.1-49 27.5 17.3 16.5-10.5 20.9 13.9 123.9-73.8-.2-.2-1.5.9z"/><path class="st2" d="M339.3 154.7l-.3.2zM264.3 179.5l.2.1z"/><path class="st3" d="M376.2 221l-12.8 7.4 20.6 12.3c.2-1.1.4-2.2.5-3.4 0-.2.1-.3.3-.4.2-.1.4 0 .5.2 0 0 .1.1.1.2l.3.6c.2.2.3.5.5.8.1.2.3.4.4.6.9 1.5 1.8 2.9 2.5 4.4l16.9 10c.3-.5.6-.9 1-1.4.4-.6.8-1.1 1.2-1.6v-47.4l-30.7 18.2c-.5-.2-.9-.3-1.3-.5zM360.1 262.2l5.6 3.1c-1.6-1.9-3-3.9-4.2-6-.1-.1-.2-.3-.3-.5-.2 1.1-.6 2.3-1.1 3.4zM408.2 287.9l1.8 1 1.3-.7c-1.3-.1-2.6-.3-3.9-.5l.8.5v-.3z"/><path class="st4" d="M340.6 109.6l.2-48.7-139.2 81.9 41.5 24.2z"/><path class="st3" d="M179.2 141zM184.5 235.3c4.6 5.6 7.5 12.6 9.4 19.6l.3 1.2c1.9-2.3 4.2-4.5 7.1-5.7 2.2-.8 4.3-.9 6.3-.3 4 1 7.7 4.5 10.8 9.3 0 0 .1.1.1.2.1.2.3.5.4.7 1.1 1.8 2 3.6 2.9 5.5 2.2 4.8 3.8 10.1 4.7 15.1.3 1.8.6 3.5.6 5.3.2 2.7.2 5.6-.7 8.1-.1.4-.3.8-.5 1.2-.2.6-.4 1.1-.6 1.6l22.9 13.8-.1 39.5-.1.1 21.3 13.1V195.7l2.3-1.3-2.3 1.3-90.1-54.6v89.4c1.1.6 2 1.4 3.1 2.3.8.9 1.5 1.6 2.2 2.5z"/><path class="st5" d="M339.3 154.7l-.3.2-67.4 39.5-2.3 1.3v167.5l45.5-26.1V245c-11.7-6.1-28.7-18.8-30.7-42.1l50.7-30v-.1l49.3-29.8h.1l42.4-24.6h.1s.8 5.4 4 12.5l.1-29.9-64.9 38.1-26.6 15.6zM413.9 286.6l15.6-9.2-15.6 9.2zM410 288.8l-1.8-1v.1l1.7.9 1.4-.8-1.3.8zM430.3 190.3l-22.1 13.1v47.3c1.4-1.9 2.9-3.6 4.5-5.2.6-.6 1.2-1.2 2-1.9.2-.2.4-.5.7-.4.1 0 .1.1.2.2.1.2 0 .4 0 .6-.1 4.7-.9 9.3-2.5 13.7l17.2 10.2.2-77.7-.2.1zM243.1 167l21.2 12.5.2.1 4.9 2.9 97.6-57.1-26.4-15.8z"/><path class="st3" d="M367 125.4l41.9-24.4-68.1-40.1-.2 48.7z"/><path class="st6" d="M269.4 195.7l2.3-1.3 67.4-39.5.3-.2 26.5-15.5 64.9-38.1-90-52.6L179.2 141h-.1.1l90.2 54.7zm71.4-134.8l68.1 40-41.9 24.6-97.6 57-4.9-2.9-.2-.1-62.7-36.7 139.2-81.9z"/><path class="st7" d="M353.5 256.4l-.5-22.2-17.5 10c3.2 5.4 5.6 11.2 7 17.5.3 1.2.5 2.3.6 3.4l8.1-5c.7-1.2 1.5-2.5 2.3-3.7zM314.8 255.1v-1.9l18.1 11c-.2-1-.5-2-.6-3-.4-1.9-.7-3.7-.9-5.5-.2-1.5-.2-3-.3-4.5v-4.4l-5.2 3s-4.8-1.3-11.2-4.6l.1 9.9z"/><path class="st4" d="M343.7 285.5c-.1.4 0 .6.1.9.6 2.6 1.3 5.2 2 7.8.2.8-.4 1.3-1.2 1.2-.5-.1-.6-.5-.6-.8-.5-2.4-1-4.6-1.4-6.9-.1-.6-.3-1.1-.5-1.9-.7 1.2-1.3 2.4-2.1 3.3-2 2.5-4.4 4.7-7 6.5l10.6 6.6 14.8-8.5-8.8-5.2c-1.6-.6-3.1-1.2-4.6-2.2-.5-.2-.8-.5-1.3-.8zM314.9 266.2l-.1-3.9v7.6zM332.4 290.7c1.4-1.4 3.1-2.8 4.8-4.1-1.3.4-2.7.8-4.1 1.2-2.3.6-6.2 1.5-9.4 1.9l7.2 4.5-1-.7c.7-1 1.6-1.8 2.5-2.8zM332.3 282.1l2.7.3c-.1-.4-.4-.4-.6-.5-6.1-2-11.7-5-16.7-9.3-1.1-.9-2-1.7-2.9-2.7v14.4h.1v-.4c5.4-1.3 11.8-2.2 17.4-1.8zM351.2 260.1l-8.1 5c.3 1.9.5 3.7.6 5.6l1.9 1.1c1.5-4 3.4-8 5.6-11.7zM389.4 284.2c-1.3.4-2.7.8-4.1 1.2-6.1 1.3-12.1.8-17.9-1.3-1.2-.5-2.3-1-3.4-1.4-.2-.1-.6-.1-.5-.5 0-.3.3-.4.6-.5 6.7-2.2 13.5-2.6 20.5-2.1l2.7.3c-.1-.5-.4-.5-.6-.6-6.1-2.1-11.7-5.2-16.6-9.5-1.6-1.4-3-2.9-4.4-4.5l-5.6-3.1c-.1.3-.2.6-.4.9-1.9 4.7-4.6 8.8-7.9 12.6l1.4.9c4.6-2.4 9.5-4.2 14.6-5.2.6-.2 1.2-.2 1.7-.3.2 0 .4-.1.6 0 .2 0 .5 0 .6.1.2.4-.2.6-.4.8-1 1.2-1.9 2.4-3 3.3-2.1 2.1-4.5 4-7.2 5.4l20.2 12.2c1.2-1.7 2.5-3.3 4-4.9 1.8-1.3 3.4-2.6 5.1-3.8zM407.4 287.6c-3.7-.6-7.1-1.7-10-3.7l-1.2-.9c-.1.4 0 .6.1.9.6 2.6 1.2 5.2 1.9 7.8.2.8-.5 1.3-1.2 1.2-.5-.1-.6-.5-.6-.8-.5-2.4-.9-4.7-1.3-6.9-.1-.6-.3-1.1-.5-1.9-.7 1.2-1.3 2.4-2.1 3.3-2.6 3.3-5.9 5.7-9.4 7.8l8.8 5.3 18.3-10.7-1.7-.9-1.1-.5z"/><path class="st6" d="M406.1 253.7l-16.9-10c2.1 4.1 3.8 8.4 5 12.9l7.5 4.4c1.3-2.5 2.7-5 4.4-7.3zM363.3 228.3l-8.7 5 29 17.1v-2.3c-.1-2 .1-3.9.2-5.8 0-.6 0-1.2.1-1.8l-20.6-12.2z"/><path class="st6" d="M413.1 257.8c-.3.8-.6 1.7-1 2.5-.8 1.8-1.7 3.6-2.7 5.2l6.8 4c1.4-.4 2.9-.7 4.4-1 .6-.1 1.1-.1 1.7-.2.3 0 .6-.2.8.1v.3c0 .3-.2.5-.4.6-.7.9-1.5 1.8-2.3 2.6l9.2 5.4-15.6 9.2.9.6c.1.1.3.2.4.3.2.1.4.3.3.6-.1.3-.4.3-.6.3-1.2 0-2.4-.1-3.6-.2l-1.4.8-18.3 10.7-8.7-5.3c-.1.1-.2.1-.4.2-1 .6-1.9 1.1-2.9 1.6-.3.1-.6.5-.8.2s0-.6.1-.8c.5-.9 1.1-1.8 1.6-2.6l-20.2-12.2c-.1.1-.3.2-.5.2-2.9 1.4-6 2.5-9.2 3-.3-.1-.6-.3-.8-.4-.3 0-.5 0-.8.1 0 0-.1 0-.3.1.6.4 1.1.4 1.5.5 4.5.9 8.7 2.5 12.4 5.2.1.1.3.2.4.3.2.2.4.3.3.6s-.4.3-.6.3c-2.5 0-5-.2-7.6-.6-1.9-.3-3.7-.8-5.5-1.4l8.8 5.2-14.8 8.5-10.6-6.6-.1.1-1.9-1.4-7.2-4.5c-1.4.2-2.6.2-3.7.1l-5.1-2.7v-2.9h-.1v6.2l28.8 17.7 20-11.4 8.4-4.8v9.3l19.7 12 56.1-35-17.8-10.4-17.1-10.2z"/><path class="st3" d="M371.9 339.1l19.7 11v-36.8l-19.7-12z"/><path class="st8" d="M391.6 313.3v36.8l1.4-.9 54.6-33v-37.9l-56 35zm51.8.3l-47.6 29.1v-26.5l47.6-29.4v26.8z"/><path class="st9" d="M395.8 342.7l47.6-29.1v-26.8l-47.6 29.4z"/><path class="st3" d="M401.6 261l-7.5-4.4c.2.8.4 1.5.6 2.3 1.1 5.2 1.4 10.5 1.1 15.8v.5c.6-1.7 1.2-3.5 1.9-5.2 1.1-3.2 2.4-6.2 3.9-9zM395.7 275v.2c.1 0 0-.1 0-.2zM401 276c-.1.1-.4.4-.5.6.8-.5 1.7-1 2.5-1.4 4.2-2.4 8.6-4.4 13.2-5.6l-6.8-4c-2.3 3.8-5.1 7.2-8.4 10.4zM419.7 272.6c-2.4 2.3-4.9 4.2-7.7 5.6-2.9 1.4-6 2.5-9.2 2.9h-.4c-.4.1-.7.1-1.1.2-.1 0-.2.1-.3.1.6.4 1.1.4 1.5.5 4.1.8 8 2.4 11.4 4.8l15.6-9.2-9.2-5.5c-.1.2-.3.4-.6.6zM354.7 233.3l-1.7 1 .5 22.2c.3-.4.6-.9.9-1.3 1.7-2.5 3.5-4.7 5.6-6.9l1.9-1.9c.2-.2.4-.6.6-.4.1-.1.2-.1.3 0 .3.2.2.5.2.7 0 3.2-.3 6.4-1 9.5 1.8.6 3.5 1.4 5.2 2.1 5.7 2.7 10.9 6 15.7 10.1 2.8 2.4 5.4 4.9 7.8 7.6 0-.1.2.3.6.4-1-2-2.1-3.9-2.9-6-1.6-4-3-8-3.7-12.4-.3-1.8-.6-3.6-.8-5.5-.1-.7-.1-1.5-.1-2.2l-29.1-17z"/><path class="st6" d="M314.8 262.3v3.9l.1-4.9c5.7 2.6 10.6 6 15.4 9.9 2.8 2.3 5.5 4.8 7.9 7.4.2.3.4.6.7.7-.5-.9-.9-1.8-1.4-2.7-.2-.4-.4-.7-.6-1.2-.3-.6-.6-1.3-1-2-1.3-3-2.4-6.1-3.1-9.3l-18.1-11v8.5l.1.7zM345.3 272.8c.1-.3.2-.6.4-.9l-1.9-1.1c.1 2.1.1 4.3 0 6.5.5-1.5.9-3 1.5-4.5zM348.8 278.9c-.1.1-.3.2-.4.4.6-.4 1.3-.8 2-1.2.9-.6 1.9-1.1 2.8-1.6l-1.4-.9c-.9 1.2-1.9 2.3-3 3.3z"/><path class="st3" d="M314.8 337.2v.1l28.8 17.1v-46.3l-28.8-17.6z"/><path class="st8" d="M343.6 308.1V355l28.4-15.3V292l-8.4 4.8-20 11.3zm24.9-9.5l-.3 36.6-19.4 10.6v-35.4l18.9-11.7.8-.1z"/><path class="st9" d="M348.8 310.3v35.4l19.4-10.5.3-36.6h-.7z"/><path class="st10" d="M331.1 251.2c.1 1.5.1 3 .3 4.5.2 1.8.6 3.6.9 5.5l.6 3c.8 3.1 1.9 6.2 3.1 9.3.3.7.6 1.3 1 2-.3-.6-.5-1.3-.6-2-1.7-4-3.1-8-3.8-12.3-.4-1.9-.7-3.7-.9-5.5-.2-1.5-.2-3-.3-4.5-.1-1.5 0-3.1 0-4.6l-.4.2c.1 1.4 0 2.9.1 4.4zM348.5 279.4c0 .1-.1.2-.2.3.8-.6 1.7-1 2.5-1.5 5.5-3.2 11.2-5.6 17.5-6.8.6-.2 1.2-.2 1.7-.3h.2-.6c-.6.1-1.1.1-1.7.3-5.1 1-10 2.7-14.6 5.2-1 .5-1.9 1-2.8 1.6-.6.4-1.3.7-2 1.2zM361.9 246.4l-1.9 1.9c-2.1 2.2-3.9 4.4-5.6 6.9-.3.4-.6.9-.9 1.3-.8 1.2-1.6 2.5-2.3 3.7-2.2 3.7-4.1 7.6-5.6 11.8-.1.3-.2.6-.4.9-.6 1.4-1 3-1.5 4.4v.8c-.1.1-.1.3 0 .3s.1-.1.1-.2c.6-1.7 1.2-3.5 1.8-5.2 2.3-6.3 5.3-12.2 9.1-17.7 1.7-2.5 3.6-4.7 5.6-6.9.6-.6 1.3-1.2 1.9-1.9l.3-.3c-.3-.4-.5 0-.6.2z"/><path class="st10" d="M339 279.3c-.4-.2-.6-.5-.7-.7-2.5-2.6-5.1-5.1-7.9-7.4-4.8-4-9.7-7.3-15.4-9.9l-.1 4.9-.1 3.8c.9 1 1.8 1.8 2.9 2.7 5 4.3 10.6 7.3 16.7 9.3.3.1.6.1.6.5l-2.7-.3c-5.6-.5-12 .6-17.4 1.8v3.3l5.1 2.7c1 .1 2.3 0 3.7-.1 3.2-.4 7.1-1.4 9.4-1.9 1.3-.4 2.7-.8 4.1-1.2-1.6 1.2-3.3 2.6-4.8 4.1-.9.9-1.7 1.8-2.5 2.8l1 .7 1.9 1.4.1-.1c2.6-1.8 5-3.9 7-6.5.7-1 1.3-2.1 2.1-3.3.2.8.4 1.3.5 1.9.5 2.4 1 4.6 1.4 6.9.1.4.2.7.6.8.8.2 1.3-.4 1.2-1.2-.6-2.6-1.3-5.2-2-7.8-.1-.3-.2-.6-.1-.9.5.3.8.6 1.2.8 1.4.9 3 1.7 4.6 2.2 1.8.6 3.6 1.1 5.5 1.4 2.5.5 5 .6 7.6.6.3 0 .6 0 .6-.3.1-.3-.1-.4-.3-.6-.1-.1-.3-.2-.4-.3-3.7-2.7-7.8-4.3-12.4-5.2-.5-.1-1-.1-1.5-.5.2-.1.3-.1.3-.1.3 0 .5-.1.8-.1-4.4-2-8.5-4.4-12.2-7 .7 1 1.2 1.9 1.6 2.8z"/><path class="st11" d="M370.5 272c.2-.2.6-.5.4-.8-.1-.2-.4-.2-.6-.1h-.2c-.6.1-1.1.1-1.7.3-6.2 1.2-12 3.5-17.5 6.8-.8.6-1.7 1-2.5 1.5 0-.1.1-.2.2-.3l.4-.4c1.1-1.1 2.1-2.1 3-3.3 3.2-3.8 5.9-8 7.9-12.6.1-.3.2-.6.4-.9.5-1.2.8-2.3 1.2-3.5-.4-.7-.7-1.4-1.1-2-.1-.3-.5-.6-.2-.8.3-.3.6-.1.8 0 .4.1.7.3 1.1.4.7-3.1 1.1-6.2 1-9.5 0-.3.1-.6-.2-.7-.1-.1-.2 0-.3 0l-.3.3c-.6.6-1.3 1.2-1.9 1.9-2 2.2-3.9 4.4-5.6 6.9-3.8 5.5-6.9 11.3-9.1 17.7-.6 1.7-1.2 3.5-1.8 5.2 0 .1 0 .2-.1.2s-.1-.2 0-.3v-.5-.3c.1-2.2.1-4.4 0-6.5-.1-1.9-.3-3.8-.6-5.6-.2-1.2-.4-2.3-.6-3.4-1.4-6.2-3.8-12-7-17.5l-3.9 2.3c0 1.5-.1 3.1 0 4.6.1 1.5.1 3 .3 4.5.2 1.8.6 3.6.9 5.5.7 4.3 2.1 8.3 3.8 12.3.1.7.3 1.4.6 2 .2.4.4.7.6 1.2 3.7 2.6 7.8 5 12.2 7 .3.1.6.3.8.4 3.2-.6 6.3-1.5 9.2-3 .1-.1.3-.2.5-.2 2.7-1.4 5.1-3.3 7.2-5.4.8-1 1.7-2.2 2.7-3.4z"/><path class="st10" d="M406.1 253.7c-1.6 2.4-3.1 4.8-4.4 7.3-1.5 2.9-2.9 5.8-4 8.9-.7 1.7-1.2 3.5-1.9 5.2 0 .1.1.2 0 .2v.1c.1.1.1-.1.1-.2.6-1.7 1.2-3.5 1.9-5.2 2.4-6.3 5.5-12.1 9.4-17.6 1.7-2.4 3.6-4.7 5.7-6.8.6-.6 1.3-1.2 2-1.9.2-.2.4-.6.6-.4.1 0 .1.1.2.1 0-.1-.1-.2-.2-.2-.4-.1-.6.2-.7.4-.7.6-1.3 1.3-2 1.9-1.6 1.6-3.1 3.3-4.5 5.2-.4.5-.8 1.1-1.2 1.6-.4.4-.7.9-1 1.4zM386.2 238.5c-.2-.3-.3-.5-.5-.8.2.3.4.6.5.8zM403 275.1c-.8.5-1.7 1-2.5 1.4v.1c.8-.4 1.7-.9 2.5-1.5 5.6-3.1 11.3-5.4 17.6-6.5.6-.1 1.2-.1 1.7-.2.3-.1.6-.2.8.1V268.4c-.2-.3-.6-.1-.8-.1-.6.1-1.2.1-1.7.2-1.5.2-2.9.6-4.4 1-4.7 1.3-9 3.2-13.2 5.6z"/><path class="st10" d="M402.5 281.8c-.5-.1-1-.1-1.5-.5.1 0 .2-.1.3-.1.4-.1.7-.1 1.1-.2h.3c-4.5-2.2-8.8-4.8-12.8-7.5-.5-1-1-2-1.4-3-1.7-4-3.1-8.1-3.7-12.4-.3-1.8-.6-3.7-.8-5.5-.1-1.5-.1-3-.2-4.5-.1-1.9.1-3.9.2-5.8.1-1.7.6-3.4.6-5.1 0-.2.1-.4.3-.4.1 0 .3 0 .4.1-.1-.1-.3-.2-.5-.2-.2.1-.3.2-.3.4 0 1.1-.3 2.2-.5 3.4-.1.6-.1 1.2-.1 1.8-.1 1.9-.3 3.8-.2 5.8v2.3c0 .7 0 1.5.1 2.2.2 1.9.6 3.7.8 5.5.7 4.3 2.1 8.4 3.7 12.4.8 2.1 1.9 4 2.9 6-.4-.1-.6-.5-.6-.4-2.5-2.7-5-5.2-7.8-7.6-4.8-4.1-10-7.4-15.7-10.1-1.7-.7-3.4-1.5-5.2-2.1-.4-.1-.7-.3-1.1-.4-.3-.1-.6-.3-.8 0-.3.3.1.6.2.8.4.6.7 1.4 1.1 2 .1.1.2.3.3.5 1.2 2.1 2.6 4.2 4.2 6 1.3 1.6 2.8 3.1 4.4 4.5 4.9 4.3 10.5 7.5 16.6 9.5.3.1.6.1.6.6l-2.7-.3c-6.9-.6-13.8-.1-20.5 2.1-.3.1-.6.2-.6.5-.1.4.3.4.5.5 1.2.5 2.3 1 3.4 1.4 5.8 2.2 11.7 2.7 17.9 1.3 1.3-.4 2.7-.8 4.1-1.2-1.7 1.2-3.3 2.5-4.9 4-1.5 1.5-2.9 3.1-4 4.9-.6.8-1.1 1.7-1.6 2.6-.1.3-.4.6-.1.8s.6-.1.8-.2c1-.6 1.9-1.1 2.9-1.6.1-.1.2-.1.4-.2 3.6-2.1 6.9-4.5 9.4-7.8.7-1 1.3-2.1 2.1-3.3.2.8.4 1.3.5 1.9.5 2.3.9 4.6 1.3 6.9.1.4.2.7.6.8.7.2 1.3-.4 1.2-1.2-.6-2.6-1.3-5.2-1.9-7.8-.1-.3-.2-.6-.1-.9.5.4.9.6 1.2.9 3 2 6.4 3.1 10 3.7 1.3.2 2.6.4 3.9.5 1.2.1 2.4.2 3.6.2.3 0 .6 0 .6-.3.1-.3-.1-.5-.3-.6-.1-.1-.3-.2-.4-.3l-.9-.6c-3.3-2.2-7.2-3.9-11.3-4.7z"/><path class="st11" d="M415.6 243.5s-.1-.1-.2-.1c-.3-.2-.5.2-.6.4-.6.6-1.3 1.2-2 1.9-2.1 2.1-4 4.4-5.7 6.8-3.9 5.5-7 11.2-9.4 17.6-.6 1.7-1.3 3.5-1.9 5.2 0 .1 0 .3-.1.2v-.1-.2-.5c.4-5.3 0-10.6-1.1-15.8-.2-.8-.4-1.6-.6-2.3-1.2-4.5-2.8-8.8-5-12.9-.8-1.5-1.6-3-2.5-4.4-.1-.2-.3-.4-.4-.6-.1-.2-.3-.5-.5-.8l-.3-.6c0-.1-.1-.1-.1-.2-.1-.1-.2-.1-.4-.1s-.3.2-.3.4c-.1 1.7-.6 3.4-.6 5.1-.1 1.9-.3 3.9-.2 5.8.1 1.5.1 3 .2 4.5.2 1.8.6 3.7.8 5.5.6 4.3 2 8.4 3.7 12.4.5 1 1 2 1.4 3 3.9 2.8 8.2 5.4 12.8 7.5h.1c3.2-.5 6.3-1.4 9.2-2.9 2.9-1.4 5.4-3.3 7.7-5.6l.6-.6c.8-.8 1.6-1.8 2.3-2.6.1-.1.4-.4.4-.6v-.2c-.2-.3-.6-.2-.8-.1-.6.1-1.1.1-1.7.2-6.3 1.1-12.1 3.4-17.6 6.6-.8.5-1.7 1-2.5 1.4v-.1c.1-.2.3-.5.5-.6 3.3-3.1 6.1-6.6 8.4-10.5 1-1.7 1.9-3.4 2.7-5.2.4-.8.7-1.7 1-2.5 1.6-4.4 2.5-9 2.5-13.8.2-.3.3-.4.2-.6z"/><path class="st8" d="M462.3 171.6l12.7-7.3c-.2 0-.5-.1-.7-.1.3.1.4.1.4.1l-12.4 7.3zM426.5 118.6c.9 5 2.5 9.6 4.6 13.7l-.6-1.2c-3.1-7.1-3.9-12.5-4-12.5zM326 249.7l5.2-3 .4-.2 3.9-2.3 17.5-10 1.7-1 8.7-5 12.8-7.4c-40-16.9-41.5-43.4-41.5-47.5v-.4L284 203c2 23.3 19 36 30.7 42.1 6.4 3.3 11.2 4.6 11.3 4.6z"/><path class="st12" d="M384.2 143.7c0-.3-.1-.5-.1-.5h-.1L334.8 173v.1l49.4-29.4z"/><path class="st13" d="M408.2 202.6l-32 18.3c.4.2.8.4 1.3.6l30.7-18.2v-.7z"/><path class="st12" d="M408.2 203.3l22.1-13.1c-.1 0-.2-.1-.3-.1l-21.8 12.5v.7z"/><path class="st14" d="M334.7 173.4c0 4.1 1.4 30.6 41.5 47.5l32-18.3 21.8-12.5c-39.3-15.1-45.1-42.5-45.8-46.5L334.7 173v.4z"/><path class="st15" d="M426.5 118.6l-42.4 24.6s0 .2.1.5c.6 4.1 6.5 31.3 45.8 46.5.1 0 .2.1.3.1h.1l31.9-18.7 12.4-7.3s-.1 0-.4-.1c-3.7-1-31.3-9.3-43.2-31.9-2.1-4.1-3.7-8.6-4.6-13.7z"/><path class="st3" d="M181.2 296l4.6 2.7c-1.2-1.9-2-4-2.3-6.7-.1-.8-.2-1.7-.2-2.5 0-1.7 0-3.5.2-5.2-1.2.5-2.5.9-3.7 1.2.3 1.7.6 3.4.8 5 .2 1.8.5 3.6.6 5.5zM220.5 301.9c-2.9 2.1-6.2 3.5-9.1 4.3.3 1.7.6 3.4.8 5.1.1.9.2 1.8.3 2.8l7 4c.3-.2.5-.3.8-.5l13.2-8.4h.1l-12.5-7.7c-.1.1-.3.2-.5.3 0 .1 0 .1-.1.1z"/><path class="st5" d="M248.2 310.6c-.2.3-.7.6-.9.6-.6.4-1.1.6-1.6 1-1.7 1-3.3 2.1-5 3.1-3.5 2.1-6.9 4.3-10.4 6.4l-13.9 8.6c-1.7 1-3.4 2.1-5 3.1-.2.1-.3.2-.5.3l.1.1c-1.2.7-2.5 1.4-3.7 2.2-.7.5-1.6.9-2.4 1.3-.2.1-.5.3-.7.5-.3.2-.7.5-1.1.7-.1.1-.2.1-.4.2-.1.1-.3.3-.4.3v38.7l45.7-27.5.1-.1.1-39.5z"/><path class="st3" d="M131.3 295.2c0 .1 0 0 0 0zM202.4 339c-.2 0-.6-.4-.7-.5-.6-.3-1-.6-1.5-.9-2-1.2-3.9-2.5-5.9-3.6-3-1.8-5.9-3.7-8.9-5.5l-22.5-13.8c-6.9-4.3-14-8.6-20.9-12.9-2.4-1.4-4.8-3-7.1-4.4-.7-.5-1.5-.9-2.3-1.3-.3-.2-1-.5-1.2-.7 0 0-.1-.1-.2-.1l.5 40.6.4.2 70.2 41.6.1-38.7z"/><path class="st7" d="M166.3 300.6l-5.1 3c.8.5 1.7 1 2.5 1.5 1.2.7 2.3 1.4 3.5 2.1-.5-1.3-.7-3-.8-5.1-.1-.5-.1-1-.1-1.5zM199.1 306.7c-4.4-.9-10.1-3.1-13.3-8l-4.6-2.7c.2 2.5.2 5.1-.2 7.6-.8 5.4-3.4 7.8-5.3 8.8 2.9 1.8 5.7 3.5 8.6 5.3 4.7 2.8 9.3 5.6 14 8.5-.2-.9-.3-2-.4-3.2-.3-5.5.2-11 1.2-16.3zM212.8 322.3c2.2-1.4 4.5-2.8 6.7-4.2l-7-4c.3 2.7.5 5.5.3 8.2z"/><path class="st4" d="M167.5 285.9c-1.6-.3-3.4-.8-5.2-1.6l-16.5 9.9.9.6c4.8 2.9 9.7 5.9 14.5 8.8l5.1-3c-.1-4.9.4-9.9 1.2-14.7zM131.4 295.2l25-14.7-25 14.7z"/><path class="st16" d="M181 303.6c.4-2.5.4-5 .2-7.6-.1-1.9-.4-3.7-.6-5.5-.2-1.7-.5-3.4-.8-5-3.3.9-6 1.2-6.2 1.2-.4 0-2.9 0-6-.7-.9 4.8-1.4 9.8-1.2 14.7v1.5c.1 2 .4 3.7.8 5.1 2.8 1.7 5.6 3.4 8.5 5.2 1.8-1.2 4.4-3.6 5.3-8.9z"/><path class="st10" d="M162.3 284.3c1.8.7 3.6 1.2 5.2 1.6 3.1.6 5.6.7 6 .7.3 0 2.9-.2 6.2-1.2 1.2-.3 2.4-.7 3.7-1.2-.2 1.8-.2 3.5-.2 5.2 0 .8.1 1.7.2 2.5.3 2.7 1.1 4.9 2.3 6.7 3.2 4.9 8.9 7.1 13.3 8 3.2.7 5.7.7 6 .7.3 0 2.9-.2 6.2-1.2 2.8-.8 6.2-2.1 9.1-4.3-1.1.5-8.1 2.7-16.8-8.2-9.4-11.9-4.3-42.3-4.3-42.3 1.8-1.1 3.7-1.7 5.7-1.7.8 0 1.6.1 2.4.3-2-.6-4.1-.5-6.3.3-2.9 1.1-5.1 3.3-7.1 5.7l-.3-1.2c-1.9-6.9-4.8-14-9.4-19.6-.7-.8-1.5-1.7-2.3-2.4 5.5 5.1 9.8 14.4 11.9 23.2l-.2.2c-2.5 3.1-4.3 6.5-5.8 10.1-2 4.7-3.6 9.8-4.3 15-3-.6-7.1-2.7-11.7-8.5-9.4-11.9-4.3-42.3-4.3-42.3 1.3-.8 2.7-1.3 4.2-1.6-.7.1-1.5.3-2.3.6-3 1.2-5.3 3.5-7.3 6-2.5 3.1-4.3 6.5-5.8 10.1-3.1 7.2-5 15.2-4.9 23 0 .8.1 1.7.2 2.5.4 4.1 2.1 7.1 4.4 9.3 2.1 1.9 4.2 3.1 6.3 4z"/><path class="st11" d="M172.1 272.9c4.6 5.7 8.7 7.8 11.7 8.5.8-5.1 2.3-10.2 4.3-15 1.5-3.6 3.3-7 5.8-10.1 0-.1.1-.1.2-.2-2.1-8.8-6.5-18.1-11.9-23.2-1-.9-2-1.7-3.1-2.3-1.8-1.1-3.7-1.7-5.6-1.7-.5 0-1 0-1.5.1-1.4.2-2.8.8-4.2 1.6.1 0-5.1 30.4 4.3 42.3z"/><path class="st16" d="M212.5 314.1c-.1-.9-.2-1.9-.3-2.8-.2-1.7-.5-3.4-.8-5.1-3.3.9-6 1.2-6.2 1.2-.3 0-2.8 0-6-.7-1 5.4-1.5 10.9-1.2 16.3 0 1.2.2 2.3.4 3.2l3.9 2.4c.1.1.3.1.4.2 3.4-2.2 6.8-4.3 10.2-6.4.1-2.8-.1-5.6-.4-8.3z"/><path class="st10" d="M218.3 259.3s.1.1.1.2c0-.1 0-.1-.1-.2zM218.9 260.1c1.1 1.7 2 3.5 2.9 5.5-.9-1.9-1.8-3.7-2.9-5.5zM226.3 294.2c-.1.4-.2.7-.4 1.1.2-.4.4-.8.4-1.1 1-2.6 1-5.5.8-8.2-.1-1.8-.3-3.5-.6-5.3.9 5.3 1 10.2-.2 13.5z"/><path class="st11" d="M226.3 294.2c1.1-3.3 1.1-8.1.2-13.5-.9-5-2.5-10.3-4.7-15.1-.9-1.9-1.9-3.8-2.9-5.5-.1-.2-.3-.5-.4-.7 0 0-.1-.1-.1-.2-3.1-4.7-6.8-8.2-10.8-9.3-.8-.2-1.6-.3-2.4-.3-2 0-3.9.6-5.7 1.7 0 0-5.2 30.4 4.3 42.3 8.8 10.9 15.6 8.7 16.8 8.2.1 0 .2-.1.2-.1.2-.1.3-.2.5-.3 2.3-1.4 3.3-2.5 4.3-4.8.2-.5.4-1 .6-1.6-.1-.1 0-.5.1-.8z"/><path class="st6" d="M132.6 296.1c.7.5 1.5.9 2.3 1.3 2.4 1.4 4.8 3 7.1 4.4 6.9 4.3 14 8.6 20.9 12.9l22.5 13.8c3 1.8 5.9 3.7 8.9 5.5 2 1.2 3.9 2.4 5.9 3.6.6.3 1 .6 1.5.9.2.1.6.5.7.5.1 0 .3-.2.4-.3.1-.1.2-.1.4-.2.4-.2.7-.5 1.1-.7.2-.1.5-.3.7-.5.8-.5 1.6-.9 2.4-1.3 1.3-.7 2.5-1.4 3.7-2.2l-.1-.1c.2-.1.3-.2.5-.3 1.7-1 3.4-2.1 5-3.1l13.9-8.6c3.5-2.1 6.9-4.3 10.4-6.4 1.7-1 3.3-2.1 5-3.1.6-.4 1.1-.6 1.6-1 .2-.1.7-.4.8-.6l.1-.1-22.9-13.8c-.9 2.3-1.9 3.4-4.3 4.8l12.5 7.7h-.1l-13.2 8.4c-.3.2-.5.3-.8.5-2.2 1.4-4.5 2.8-6.7 4.2-3.4 2.1-6.8 4.3-10.2 6.4-.1-.1-.3-.1-.4-.2l-3.9-2.4c-4.7-2.9-9.3-5.7-14-8.5-2.9-1.8-5.7-3.5-8.6-5.3-2.8-1.7-5.6-3.5-8.5-5.2-1.2-.7-2.3-1.4-3.5-2.1-.8-.5-1.7-1-2.5-1.5-4.8-2.9-9.7-5.9-14.5-8.8l-.9-.6 16.5-9.9c-2.1-.9-4.2-2.1-5.9-3.8l-25 14.7h-.1c.1 0 .2.1.2.1.2.4.9.7 1.1.9z"/></svg>