<svg id="Layer_1" xmlns="http://www.w3.org/2000/svg" viewBox="0 0 500 500"><style>.st0{fill:none}.st1{fill:#3b4663}.st2{fill:#e3e3ec}.st3{fill:#565e6e}.st4{fill:#525969}.st5{fill:#7f8195}.st6{fill:#495060}.st7{fill:#878996}.st8{fill:#888ca1}.st9{fill:#a4a9b6}.st10{fill:#61697c}.st11{fill:#5d6678}.st12{fill:#9296ad}.st13{fill:#a1b5c6}.st14{fill:#b0c9d8}.st15{fill:#c8d4db}.st16{fill:#98abbb}.st17{fill:#c9d2d2}.st18{fill:#a7bfcb}.st19{fill:#6a5263}.st20{fill:#828c64}.st21{fill:#9aaa69}.st22{fill:#333c57}.st23{fill:#52496e}.st24{fill:#7a5674}.st25{fill:#86608b}.st26{fill:#977ea1}.st27{fill:#c7d0d7}.st28{fill:#bbc0cf}.st29{fill:#b0b5c4}</style><path class="st0" d="M258.3 276.4l6.2 4.1 5.2-11.6z"/><path class="st1" d="M265.8 178.2l8.5 10.9 30-20.7c-1-.1-4.8-.9-5.1-7.9v-4.6l-25.6 16.8.2.3-8 5.2zM308.1 165.7z"/><path class="st2" d="M353.6 355.2l-94.2-63.4 5.1-11.2-6.2-4.1-4.5 3-20-12.9-67.8 44.8-59.4-38.7 15.4-17.1-15.2-9.8c-1.5.7-3 1.2-4.3 1.6 1 5.3 1.4 11.2.9 14.3-1.1 6.6-5.5 7.5-5.7 7.5-.3 0-5.4-.2-5.8-8.6-.2-3.6.2-8.4 1-12.8-4.3-.9-10.2-3.3-11.8-9.5-1.7 3.2-4.3 3.6-4.5 3.6-.1 0-1.8 0-3.3-1.6l-2.3 1.6-39.3 27.3 10.6 4.9L15 294.4l88.5 58.4 44.4-35.9 61.1 41.7-49.1 32 55.8 40 43.2-29.3c-1.4-.1-6.8-1.5-7.3-11.4-.2-4.7.3-11 1.3-16.8-6.3-1.3-15-5-16-15.1-.5-4.8.1-10.7 1.7-16.8-2.9 2.1-6.3 3.4-9.1 4.2 1.3 6.9 1.9 14.7 1.1 18.9-1.4 8.7-7.3 9.8-7.5 9.8-.4 0-7.1-.3-7.6-11.4-.2-4.7.3-11 1.3-16.8-6.3-1.3-15-5-16-15.1-1.3-13.2 5.9-35.6 16.4-42h.1c.1-.1.3-.2.5-.3 0 0 .1 0 .2-.1.2-.1.4-.2.5-.3h.1c.2-.1.5-.2.7-.3.2-.1.4-.1.7-.2h.2c.1 0 .3-.1.5-.1h.2c.1 0 .3 0 .4-.1H222.9c11.9 0 21.6 22.1 22.7 37 2.2-3.5 4.8-6.3 7.6-8 0 0 .1-.1.2-.1s.2-.1.3-.1c.1 0 .2-.1.3-.2.1 0 .2-.1.4-.2.1 0 .2-.1.3-.1.2-.1.4-.2.7-.3h.1c.2 0 .4-.1.6-.2h.2c.1 0 .3-.1.5-.1h.2c.1 0 .3 0 .5-.1H259.1c14.8 0 26.1 33.7 22 45.9-1.5 4.5-2.2 5.9-5.9 7.9-3.1 2.3-6.6 3.7-9.6 4.6 1.3 6.9 1.9 14.7 1.1 18.9-.4 2.6-1.2 4.5-2.2 6l49-33.2 17.1 9.9 37-25-11.5 7.6c-.8-1.3-1.6-1.9-2.5-2.4z"/><path class="st3" d="M253.2 111.7l-12.7 4.1-3.3 4.8 15 21.6z"/><path class="st4" d="M162.6 181.4l29.4 31.7 9.4-7.9v-71.3l-32.6-18.8-29.4 41.4z"/><path class="st5" d="M253.2 111.7l-1 30.5 9.6 13.6 21.6-13.3-29.8-45.7 12.1 18.5z"/><path class="st6" d="M81.3 220.1c.2 1.1.4 2.2.6 3.4.3-1.3.7-2.6 1.1-4-.5.3-1.1.5-1.7.6zM93.7 204c.1-.1.2-.1.3-.1.1 0 .2-.1.3-.1.1 0 .2-.1.3-.1.1 0 .3-.1.4-.1.1 0 .2 0 .3-.1h.2c.1 0 .2 0 .3-.1h1.7c11.2 0 19.8 25.6 16.7 34.9-1.2 3.5-1.7 4.5-4.5 6-1 .7-2 1.3-3 1.8l15.2 9.8 5.3-5.9-.6-60.6-20.1-20.4-16.2 21.7c1.6 4.1 2.7 8.4 3.1 12.2.3.2.3.7.3 1.1zM68.7 219.7l-.8 1.1 3.3 2.1c.1-.8.2-1.6.4-2.4-.8-.2-1.8-.4-2.9-.8z"/><path class="st7" d="M137.1 239l29-32.2 16.2 14.3 9.7-8-29.4-31.7-24.4-4.7-11.4 12.4.6 60.6z"/><path class="st8" d="M215.2 108.1l-13.8 25.8v71.3l51.9-43.1 12.5 16.1 7.9-5.2-.2-.3-11.7-16.9-9.6-13.6-15-21.6-35.8-51.3 28.8 41.2z"/><path class="st9" d="M253.3 162.1l26.5 34.1-26 24.4-.2-.2.2 59 4.5-3 11.4-7.5 24.5-54-20-25.8-8.4-10.9z"/><path class="st10" d="M238.2 206.8l-32.9-4.9 48-39.8-51.9 43.1-9.4 7.9-9.7 8 51.6 45.4 19.9 12.9-.2-59z"/><path class="st11" d="M166 246.3l-8.5-10.9-20.4 3.6-9.7 10.7-5.4 5.9-15.3 17.1 59.3 38.7.1-65.1z"/><path class="st12" d="M166.1 206.8l22.4 19.8-22.4 19.7-.1 65.1 67.9-44.9-51.6-45.4z"/><path class="st13" d="M157.5 235.4l8.5 10.9.1-39.5-29 32.2zM137.1 239z"/><path class="st14" d="M166.1 246.3l22.4-19.7-22.4-19.8-.1 39.5z"/><path class="st13" d="M238.2 206.8l15.4 13.6.2.2-.5-58.5-48 39.8z"/><path class="st15" d="M279.8 196.2l-26.5-34.1.5 58.5z"/><path class="st16" d="M126.8 189.1l-.5-46.8-19.6 26.4z"/><path class="st17" d="M138.2 176.7l24.4 4.7-23.2-24.9-13.1-14.2.5 46.8z"/><path class="st18" d="M201.4 69.3l-32.6 45.8 32.6 18.8z"/><path class="st17" d="M215.2 108.1l15 2.4-28.8-41.2v64.6z"/><path class="st18" d="M253.6 96.8l-13.1 19 12.7-4.1z"/><path class="st17" d="M253.2 111.7l12.5 3.6-12.1-18.5z"/><path class="st19" d="M81 238.3c-.1-.6-.3-1.3-.4-2-.4-3.6.1-8.2 1.3-12.8-.1-1.1-.3-2.3-.6-3.4-2.6.8-4.7 1-4.9 1-.3 0-2.2 0-4.7-.6-.1.8-.2 1.6-.4 2.4-.5 3.7-.7 7.5-.6 10.4.2 3.7 1.2 5.8 2.4 7.1 1.5 1.6 3.2 1.6 3.3 1.6.3 0 2.9-.6 4.6-3.7z"/><path class="st20" d="M76.5 175.8H76h.5zM76.4 221.1c.2 0 2.3-.2 4.9-1 .6-.1 1.1-.3 1.7-.5-.4 1.3-.8 2.6-1.1 4-1.1 4.5-1.6 9.1-1.3 12.8 0 .7.2 1.4.4 2 1.6 6.2 7.5 8.6 11.8 9.5 2.5.5 4.4.6 4.7.6.2 0 2.3-.2 4.9-1 1.3-.4 2.8-.9 4.3-1.6 1-.5 2.1-1.1 3-1.8 0 0-5.9 3-13.3-6.4-7.5-9.3-3.4-33-3.3-33.2-3.7 2.2-6.8 7-9.1 12.5-2.3-.6-5.3-2.3-8.7-6.5-7.5-9.4-3.3-33.2-3.3-33.2C64 182 58.5 199 59.5 209c.6 6.2 5.1 9.3 9.3 10.7 1 .3 2 .6 3 .8 2.4.5 4.3.6 4.6.6z"/><path class="st21" d="M75.4 210.3c3.4 4.3 6.4 5.9 8.7 6.5 2.2-5.5 5.3-10.3 9.1-12.5 0 .2-4.1 23.9 3.3 33.2 7.5 9.3 13.2 6.4 13.3 6.4 2.8-1.6 3.3-2.6 4.5-6 3.2-9.2-5.5-34.9-16.7-34.9h-.5-.5-.7c-.1 0-.2 0-.3.1h-.2c-.1 0-.2 0-.3.1-.1 0-.3.1-.4.1-.1 0-.2 0-.3.1-.1 0-.2.1-.3.1-.1 0-.1 0-.2.1 0-.4 0-.9-.1-1.4-.4-3.8-1.5-8.1-3.1-12.2-3.2-7.9-8.2-14.7-14-14.7h-.5-.5-.5-.2c-.1 0-.2 0-.3.1h-.2c-.1 0-.3.1-.4.1-.2 0-.3.1-.5.2h-.1c-.1 0-.3.1-.4.2H73c-.1.1-.3.1-.4.2-.6 1-4.7 24.9 2.8 34.2zm18.1-6.1c-.1 0-.1.1-.2.1.1 0 .1-.1.2-.1z"/><path class="st19" d="M92.9 247.8c-.8 4.3-1.1 9.2-1 12.8.4 8.5 5.5 8.6 5.8 8.6.2 0 4.6-.9 5.7-7.5.5-3.2.1-9.1-.9-14.3-2.6.8-4.7 1-4.9 1-.3 0-2.3 0-4.7-.6z"/><path class="st0" d="M95 203.5c.1 0 .2 0 .3-.1M96 203.2h.3M94.3 203.8c.1 0 .2-.1.3-.1M93.8 204c.1 0 .1-.1.2-.1M96.5 203.1h.3M95.5 203.4c.1 0 .2 0 .3-.1M97.1 203.1h.5M93.3 204.3c.1 0 .1-.1.2-.1"/><path class="st22" d="M411.8 286.1l-8.2-5.7-2.3 5.2c-1.5 15-4.3 31.7-9.7 38.8-10.8 14.1-16.6 19.9-16.6 19.9l61.8-40.9s-12-1.1-19.2-7.5c-2-1.7-3.9-5.4-5.8-9.8zm4.2 9.1l-6.2 4.1-6.2-4.3v-.7l6.2-3.9 6.2 3.9v.9z"/><path class="st23" d="M417.6 296c7.2 6.5 19.1 7.5 19.2 7.5l-24.9-17.3c1.8 4.3 3.7 8 5.7 9.8zM391.6 324.5c5.4-7.1 8.2-23.8 9.7-38.8L375 344.4s5.8-5.8 16.6-19.9z"/><path class="st24" d="M264.5 280.5l-5.1 11.2 94.2 63.4c-82.9-56.9-48.9-163.7-48.9-163.7l-10.6 23.5-24.5 54-5.1 11.6z"/><path class="st25" d="M353.6 355.2c.8.6 1.6 1.1 2.5 1.7l45.8-100.4-97.2-65c.1 0-33.9 106.7 48.9 163.7z"/><path class="st26" d="M422.4 288.2l-8.3-5.7v-.9l8.3-5.2.5.3-1.7-1.6-12.4-8.5V265l1.2-.7-8.1-7.9-45.8 100.4 11.6-7.6 7.3-4.8 26.3-58.7 2.4-5.3 8.1 5.7 25 17.4 8.1-5.4-15.2-14.8z"/><path class="st27" d="M403.7 294.4l6.2 4.1 6.1-4.1-6.1-3.9z"/><path class="st28" d="M403.7 294.4v.7l6.2 4.2v-.8z"/><path class="st29" d="M409.9 299.3l6.1-4.1v-.8l-6.1 4.1z"/><path class="st27" d="M414.1 281.6l8.3 5.4 8.2-5.4-7.7-4.9-.5-.3z"/><path class="st28" d="M414.1 281.6v.9l8.3 5.7V287z"/><path class="st29" d="M422.4 288.2l7.3-4.9.9-.7v-1l-8.2 5.4z"/><path class="st27" d="M423 274.4l14.3-9.4-14.3-9-13 8.3-1.2.7z"/><path class="st28" d="M408.8 265v1.6l12.4 8.5 1.8 1.3v-2z"/><path class="st29" d="M423 276.4l14.3-9.5V265l-14.3 9.4z"/><path class="st27" d="M425.2 228.5l-17.1 10.8 30.3 20 30.4-20-8.7-5.5-13.8 9.2z"/><path class="st28" d="M408.1 239.3v3.3l30.3 20.9v-4.2z"/><path class="st29" d="M438.4 263.5l30.4-20.3v-3.9l-30.4 20z"/><path class="st27" d="M485 212.1l-29.7-18.7-32.1 21.4-9.5-6.5-6.1 3.8 38.7 25.5z"/><path class="st28" d="M446.3 237.6l-38.7-25.5v4.3l17.6 12.1 21.1 14.5z"/><path class="st29" d="M485 212.1l-38.7 25.5v5.4l13.8-9.2 24.9-16.6z"/><path class="st27" d="M471.1 176.7l-47.9-30.2-47.8 30.2 47.8 31.5z"/><path class="st28" d="M423.2 208.2l-47.8-31.5v5.2l38.3 26.4 9.5 6.5z"/><path class="st29" d="M423.2 214.8l32.1-21.4 15.8-10.4v-6.3l-47.9 31.5z"/><path class="st19" d="M216.8 346c-1 5.7-1.5 12.1-1.3 16.8.5 11.1 7.3 11.4 7.6 11.4.2 0 6.1-1.1 7.5-9.8.7-4.2.1-11.9-1.1-18.9-3.5 1-6.2 1.2-6.5 1.2-.4 0-2.9 0-6.2-.7z"/><path class="st21" d="M221.6 332.6c8.5 10.6 15.3 9.2 17.1 8.5 1.5-6.1 4-12.2 7.1-17-1.1-14.9-10.7-37-22.7-37H221.5c-.1 0-.3 0-.4.1h-.2c-.1 0-.3.1-.5.1h-.2c-.2 0-.4.1-.7.2-.2.1-.5.2-.7.3h-.1c-.2.1-.4.2-.5.3 0 0-.1 0-.2.1s-.3.2-.5.3h-.1c-.2.5-5.6 31.8 4.2 44.1z"/><path class="st19" d="M265.7 372.7c-3.5 1-6.2 1.2-6.5 1.2-.4 0-2.9 0-6.2-.7-1 5.7-1.5 12.1-1.3 16.8.5 9.9 5.8 11.2 7.3 11.4h.3c.2 0 3.1-.6 5.3-3.9 1-1.4 1.8-3.3 2.2-6 .7-4.2.2-11.9-1.1-18.8z"/><path class="st20" d="M259.2 314.3h-.7.7zM259.2 373.9c.3 0 3-.2 6.5-1.2 3-.9 6.5-2.2 9.6-4.6 0 0-7.6 4-17.5-8.4-9.8-12.2-4.5-43.4-4.4-43.7-2.8 1.7-5.4 4.5-7.6 8-3.1 4.8-5.5 10.9-7.1 17-1.8.6-8.6 2.1-17.1-8.5-9.8-12.3-4.4-43.5-4.4-43.7-10.6 6.4-17.8 28.8-16.4 42 1 10.2 9.8 13.9 16 15.1 3.3.7 5.8.7 6.2.7.3 0 3-.2 6.5-1.2 2.9-.8 6.2-2.1 9.1-4.2-1.5 6-2.1 12-1.7 16.8 1 10.2 9.8 13.9 16 15.1 3.4.8 5.9.8 6.3.8z"/><path class="st21" d="M257.8 359.7c9.8 12.3 17.5 8.4 17.5 8.4 3.6-2.1 4.3-3.4 5.9-7.9 4.1-12.1-7.2-45.9-22-45.9h-.7H257.6c-.1 0-.3 0-.5.1h-.2c-.1 0-.3.1-.5.1h-.2c-.2 0-.4.1-.6.2h-.1c-.2.1-.4.2-.7.3-.1 0-.2.1-.3.1-.1 0-.2.1-.4.2-.1 0-.2.1-.3.2-.1 0-.2.1-.3.1 0 0-.1 0-.2.1 0 .7-5.3 31.8 4.5 44z"/><path class="st19" d="M299.1 160.5c.3 7 4.2 7.8 5.1 7.9h.2c.1 0 2.1-.4 3.7-2.7.7-1 1.2-2.3 1.5-4.1.5-2.9.1-8.3-.8-13.1-2.4.7-4.3.9-4.5.9-.2 0-2.1 0-4.3-.5-.4 2.3-.7 4.7-.8 7-.1 1.7-.1 3.2-.1 4.6z"/><path class="st20" d="M304.3 149.3c.2 0 2.1-.2 4.5-.9 2.1-.6 4.6-1.6 6.7-3.2 0 0-5.3 2.7-12.2-5.8-6.8-8.5-3.1-30.1-3.1-30.4-7.4 4.4-12.3 20-11.4 29.2.7 7.1 6.8 9.6 11.2 10.6 2.3.5 4.1.6 4.3.5z"/><path class="st21" d="M303.4 139.5c6.8 8.5 12.1 5.8 12.2 5.8 2.5-1.4 3-2.3 4.1-5.5 2.9-8.5-5-31.9-15.2-31.9h-.5-.4-.5-.5-.2c-.1 0-.2 0-.2.1-.2 0-.3.1-.5.2h-.1c-.1 0-.2.1-.3.1h-.1c-.1 0-.2.1-.3.1h-.1s-.1 0-.1.1c-.5 1-4.2 22.5 2.7 31z"/></svg>