<svg id="Layer_1" xmlns="http://www.w3.org/2000/svg" xmlns:xlink="http://www.w3.org/1999/xlink" viewBox="0 0 600 623.6"><style>.st0{fill:#e3e3ec}.st1{fill:#c6bccb}.st2{opacity:.2}.st3{clip-path:url(#SVGID_2_)}.st4{fill:#8a86a5}.st5{fill:#4d4967}.st6{opacity:.5}.st7{clip-path:url(#SVGID_4_)}.st8{fill:#d7cbe4}.st9{opacity:.7}.st10{clip-path:url(#SVGID_6_)}.st11{fill:#fff}.st12{clip-path:url(#SVGID_8_)}.st13{fill:#818c66}.st14{clip-path:url(#SVGID_10_)}.st15{fill:#9aaa67}.st16{clip-path:url(#SVGID_12_)}.st17{fill:#f9f9fc}.st18{clip-path:url(#SVGID_14_)}</style><path class="st0" d="M193.2 474.3l152.9-2.9 96.6 54L302.5 600l-92.9-51.9L74 623.6 0 582.4" id="_x34__SHADOW_2_"/><g id="_x33__CASE_2_"><path class="st1" d="M267.1 226.9L599.8 41.2v288.9L267.1 515.6z"/><g class="st2"><defs><path id="SVGID_1_" d="M267.1 226.9H600v288.8H267.1z"/></defs><clipPath id="SVGID_2_"><use xlink:href="#SVGID_1_" overflow="visible"/></clipPath><g class="st3"><path class="st4" d="M267.1 226.9l2 1.6c91.8 71.7 206.4 107.7 322.7 101.9l8.2-.4-332.9 185.7V226.9z"/></g></g><path class="st5" d="M267.1 226.9l-73.9-41.2v288.8l73.9 41.1z"/><path class="st4" d="M526 0l73.8 41.2-332.7 185.7-73.9-41.2z"/><g class="st6"><defs><path id="SVGID_3_" d="M226.3 17.8h334.5v476.1H226.3z"/></defs><clipPath id="SVGID_4_"><use xlink:href="#SVGID_3_" overflow="visible"/></clipPath><g class="st7"><path class="st8" d="M229.4 493.9h-3.1V203.7l.9-.4L559.4 17.8l1.4 2.5-331.4 185.2z"/></g></g><path class="st5" d="M368.6 134.8V87.4c0-4 2.2-7.4 5.4-9.4l37.2-16.2v32.1l14.9 8.5v-58c0-7.6-3.8-10.2-10.5-6.5l-55.5 31c-4 2.2-6.4 6.4-6.4 10.9V126l14.9 8.8z"/><path class="st5" d="M423.1 36.6l17.7 10L421 59.5z"/><path class="st4" d="M426.1 58c-1.6-5.3 1.3-10.7 6.5-12.3 5.3-1.6 10.7 1.3 12.3 6.5 1.6 5.3-1.3 10.7-6.5 12.3-5.1 1.7-10.7-1.4-12.3-6.5"/><path class="st1" d="M387.8 123.9V91.7l38.4-21.4v32.1l19.2-10.7V55.1c0-7.6-8.2-12.5-14.9-8.7L373.8 78c-3.3 1.8-5.3 5.3-5.3 9.1v47.5l19.3-10.7z"/></g><g id="_x32__CLIPBOARD_2_"><path class="st5" d="M559.4 136.9l-11.5-5.9-136.4 76.1V473l11.5 6 136.4-76.2z"/><path class="st1" d="M423 213.1l136.6-76.2v266.3L423 479.4z"/><g class="st9"><defs><path id="SVGID_5_" d="M435.3 157.1H547V441H435.3z"/></defs><clipPath id="SVGID_6_"><use xlink:href="#SVGID_5_" overflow="visible"/></clipPath><g class="st10"><path class="st11" d="M435.3 217.3L547 157.1v223.8l-111.7 60z"/></g></g><path class="st4" d="M547.9 131l11.5 5.9L423 213.1l-11.5-6z"/><path class="st4" d="M463.9 179.7L444.7 169l57.7-32.1 19.2 10.7z"/><path class="st1" d="M521.6 147.6v10.7l9.5-5.2v21.4l-76.8 42.8v-21.4l9.6-5.5v-10.7z"/><path class="st5" d="M444.7 169v10.7l19.2 10.7v-10.7zM435.3 185.2l19 10.7v21.4l-9.6-5.5v-10.6l-9.4-5.3z"/><path class="st4" d="M463.9 190.4l-9.6 5.5-19-10.7 9.4-5.5z"/><path class="st5" d="M510.2 313.4v9.5l-61.1 34.2v-9.6zM490.8 379.8v9.6l-41.7 23.2V403zM532.7 279.3v9.4l-83.3 46.5v-9.4z"/><defs><path id="SVGID_7_" d="M454.3 233.1v76.7l76.8-44.3v-76.7z"/></defs><clipPath id="SVGID_8_"><use xlink:href="#SVGID_7_" overflow="visible"/></clipPath><g class="st12"><path class="st13" d="M490.4 259.2c-.5-1.8-1.3-3.6-1.6-5.6-.7-4-1.3-8.2-.9-12.7.2-2 .2-4 .4-6 .2-1.6.5-3.4.7-5.1.4-2.2 1.1-4.4 1.5-6.7.4-2 1.3-4 1.8-6 0-.2.2-.4.4-.5.2-.2.4 0 .5.2.4.5.5 1.1.9 1.8 2.4 5.6 3.6 12 3.6 19.4 0 5.4-.9 11.4-2.5 17.6 0 .2 0 .4-.2.5 0 .2-.2.4 0 .4s.2-.2.2-.2c1.1-2.2 2-4.4 3.1-6.5 3.8-8 8.2-15.8 13.4-23.2 2.4-3.3 4.7-6.5 7.3-9.8.7-.9 1.6-1.8 2.4-2.9.2-.2.5-.7.7-.5.4 0 0 .5 0 .7-1.3 6.5-3.8 13.1-7.3 19.8-4 7.8-8.9 14.9-14.7 21.8-.2.4-.5.5-.7 1.1.9-.9 2-1.8 2.9-2.5 6.2-5.6 12.5-10.3 19.1-13.6.5-.4 1.1-.5 1.8-.9.4-.2.7-.4.7-.2.2.4-.4.7-.5 1.1-1.3 1.6-2.4 3.3-3.8 4.7-2.9 3.3-5.8 6.4-9.1 9.1-3.4 2.9-6.9 5.1-10.3 6.7-.4.2-.7.4-1.1.5 0 0-.2.2-.4.2.4.2.9 0 1.5 0 4.4-.5 8 0 11.3 1.8.2 0 .2.2.4.2s.4.2.2.5c-.2.4-.4.4-.7.5-2.5.7-5.1 1.5-7.4 1.8-3.4.5-6.7.5-9.3-.7-.4-.2-.7-.4-1.1-.5-.2.4-.2.7-.2 1.1 0 2.7.2 5.4.2 8.2 0 .9-.7 1.6-1.5 1.8-.4 0-.5-.4-.4-.7 0-2.5.2-4.9.2-7.4v-2c-1.1 1.6-1.8 3.1-2.9 4.5-3.4 4.7-7.4 8.9-11.6 12.5-1.1.9-2.2 1.8-3.3 2.9-.2.2-.5.7-.9.4-.2-.2.2-.5.4-.9 2.2-3.6 4.5-7.3 7.4-10.5 1.8-2.2 3.8-4.2 5.8-6.2-1.5.9-2.9 1.8-4.4 2.7-6.5 3.8-12.3 5.3-17.6 4.7-1.1-.2-2-.4-3.1-.5-.2 0-.5 0-.4-.4.2-.4.4-.5.5-.7 7.3-4.9 14.2-7.8 21.1-9.6.9-.2 1.8-.4 2.7-.7 0-.4-.4-.4-.5-.4-5.6-.2-10.5-1.8-14.5-4.9-2.7-2.2-4.9-5.3-6.2-8.9-.4-.7-.5-1.6-.7-2.4 0-.2-.4-.4 0-.9.4-.4.5-.4.9-.4 2 0 4 .4 5.8.7 5.1 1.1 9.6 2.9 13.4 5.8 2.2 1.6 4.4 3.6 6.2 5.8-.1-.3.1.1.4.1z"/></g><g><defs><path id="SVGID_9_" d="M454.3 233.1v76.7l76.8-44.3v-76.7z"/></defs><clipPath id="SVGID_10_"><use xlink:href="#SVGID_9_" overflow="visible"/></clipPath><g class="st14"><path class="st15" d="M489.7 256.3c3.3 1.8 7.1 3.3 11.3 4 3.3-1.6 6.7-3.8 10-6.5s6.2-5.8 9.1-9.1c1.3-1.5 2.5-3.1 3.8-4.7.2-.4.7-.7.5-1.1-.2-.2-.5 0-.7.2-.5.4-1.1.5-1.8.9-6.5 3.4-12.9 8.2-19.1 13.6-.9.9-2 1.8-2.9 2.5.2-.4.5-.7.7-1.1 5.8-6.9 10.7-14 14.7-21.8 3.4-6.7 5.8-13.2 7.3-19.8 0-.4.2-.7 0-.7-.4 0-.5.4-.7.5-.7.9-1.6 1.8-2.4 2.9-2.5 3.1-4.9 6.4-7.3 9.8-5.1 7.6-9.6 15.2-13.4 23.2-1.1 2.2-2 4.4-3.1 6.5 0 .2 0 .2-.2.2s0-.2 0-.4 0-.4.2-.5c1.6-6.2 2.4-12 2.5-17.6 0-7.4-1.3-14-3.6-19.4-.2-.5-.5-1.3-.9-1.8 0-.2-.2-.2-.5-.2-.2.2-.4.2-.4.5-.4 2-1.3 4-1.8 6-.5 2.2-1.1 4.5-1.5 6.7-.4 1.6-.7 3.4-.9 5.1-.2 2-.4 4-.4 6-.4 4.5.2 8.7.9 12.7.1 1.6.4 2.5.6 3.4"/></g></g></g><g id="_x31__PHONE_2_"><path class="st1" d="M346.1 291.8l16.1-8.9 96.7 53.9v179.9l-16.2 8.9-96.6-53.8z"/><path class="st5" d="M442.7 345.9l-96.6-54.1v180l96.6 53.8z"/><g class="st9"><defs><path id="SVGID_11_" d="M358.6 313.6h71.7v167h-71.7z"/></defs><clipPath id="SVGID_12_"><use xlink:href="#SVGID_11_" overflow="visible"/></clipPath><g class="st16"><path class="st17" d="M430.2 352.2l-71.6-38.6v128.6l71.6 38.4z"/></g></g><g class="st9"><defs><path id="SVGID_13_" d="M385 472.8h12v15.8h-12z"/></defs><clipPath id="SVGID_14_"><use xlink:href="#SVGID_13_" overflow="visible"/></clipPath><g class="st18"><path class="st4" d="M397 480.6c0-4.4-2.7-7.8-6-7.8s-6 3.4-6 7.8 2.7 7.8 6 7.8c3.3.2 6-3.4 6-7.8"/></g></g><path class="st4" d="M362.2 282.9l-16.1 8.9 96.6 54.1 16.2-9.1zM358.6 313.6l71.6 167-71.6-38.4z"/></g></svg>