<svg id="Layer_1" xmlns="http://www.w3.org/2000/svg" viewBox="0 0 626 178"><style>.st0{fill:none}.st1{fill:#c7bdcc}.st2{fill:#4e4a68}.st3{fill:#4d4d4d}</style><path class="st0" d="M415.6 86.8c-1.5 0-2.9.2-4.2.7-1.3.5-2.5 1.1-3.6 2s-2 1.9-2.8 3.1c-.7 1.2-1.3 2.5-1.7 4H428c-1.7-6.5-5.8-9.8-12.4-9.8zM238.1 86.8c-4.2 0-7.8 1.6-10.6 4.8-2.8 3.2-4.2 7.2-4.2 12 0 5.1 1.4 9.3 4.1 12.5 2.8 3.3 6.3 4.9 10.6 4.9 4.5 0 8.2-1.6 11-4.7 2.8-3.2 4.2-7.4 4.2-12.3 0-5-1.4-9.2-4.2-12.4s-6.4-4.8-10.9-4.8zM71.4 81.7s.1 0 0 0h-.2.2zM117 96.2c-2.6-.6-5.2-1.5-7.7-2.4-1.7-.6-3.2-1.3-4.9-2.2-1.4-.8-2.7-1.7-4.1-2.5-.1 0-.2 0-.3-.1 1.8-1.7 3.4-3.6 4.7-5.7 1.1-1.7 1.9-3.6 2.6-5.5.6-1.8 1.2-3.7 1.8-5.5.6-1.9 1.3-3.8 1.9-5.7.1-.4.3-.8.4-1.2.2-.8-.6-1.7-1.4-1.4-.1 0-.1 0-.2.1.7-.1 1.4.7 1.2 1.4-.1.4-.3.8-.4 1.2-.6 1.9-1.3 3.8-1.9 5.7-.6 1.8-1.1 3.7-1.8 5.5-.7 1.9-1.5 3.8-2.6 5.5-1.2 2.1-2.9 4-4.7 5.7.1 0 .2 0 .3.1 1.4.8 2.7 1.7 4.1 2.5 1.7.9 3.2 1.6 4.9 2.2 2.5.9 5.1 1.7 7.7 2.4 1 .3 1.1 1.6-.1 2.2-1.3.7-2.5 1.4-3.7 2.2-.7.5-1.4 1-2.2 1.5-.7.4-1.4.7-2.1 1-.4.2-.9.3-1.3.4.6-.2 1.2-.3 1.7-.5.7-.3 1.4-.6 2.1-1 .7-.5 1.4-1 2.2-1.5 1.2-.8 2.5-1.5 3.7-2.2.8-.5.7-1.8.1-2.2zM90.8 104.2c.5 1.9.9 3.7 1.4 5.6.2.7-.3 1.3-1 1.5.9 0 1.6-.7 1.4-1.6-.5-1.9-1-3.7-1.4-5.6-.2-.6-.3-1.2-.5-1.8-.2-.1-.3-.3-.5-.3.2.7.4 1.5.6 2.2zM51.9 66.9c1.9.6 3.7 1.3 5.6 1.9 1.5.5 3.1 1.1 4.6 1.9 1.8 1 3.5 2.1 5 3.5.6.6 1.2 1.1 1.7 1.7-.1-.2-.1-.4-.1-.7-.4-.4-.7-.8-1.2-1.1-1.5-1.4-3.2-2.6-5-3.5-1.4-.8-3-1.4-4.6-1.9-1.9-.6-3.7-1.3-5.6-1.9-2-.7-4.1-1.4-6.1-2.1-.3-.1-.5-.1-.8 0 .1 0 .2 0 .4.1 2 .7 4.1 1.4 6.1 2.1zM78.4 45.1l4.8 9.6c.1.2.1.3.2.4 1.2 2.5 2.4 5 3 7.8.4 1.8.6 3.7.6 5.5 0 2.2-.3 4.6-.8 6.8-.1.3-.2.7-.3 1l.5-.5c.1-.2.1-.3.2-.6.5-2.2.8-4.5.8-6.8 0-1.8-.2-3.7-.6-5.5-.6-2.8-1.7-5.3-3-7.8-.1-.2-.1-.3-.2-.4L78.8 45c-.2-.5-.9-.6-1.4-.4.4 0 .8.1 1 .5zM77.5 98.6c-.5 2-1.3 3.8-2.4 5.5-1.3 1.9-2.9 3.5-5.1 4.5-1.8.8-3.6 1.5-5.4 2.3 0 0-.1 0-.1.1.2 0 .4-.1.5-.2 1.8-.7 3.6-1.5 5.4-2.3 2.2-1 3.9-2.6 5.1-4.5.9-1.5 1.7-3.1 2.2-4.7 0-.1 0-.1-.1-.2 0-.1-.1-.3-.1-.5zM62.8 102.8c-.5.2-1.1.4-1.6.6.7-.2 1.4-.4 2-.7.5-.2.9-.5 1.4-.7v-.2c-.6.4-1.2.7-1.8 1zM538.2 86.8c-4.2 0-7.8 1.6-10.6 4.8-2.8 3.2-4.2 7.2-4.2 12 0 5.1 1.4 9.3 4.1 12.5 2.8 3.3 6.3 4.9 10.6 4.9 4.5 0 8.2-1.6 11-4.7 2.8-3.2 4.2-7.4 4.2-12.3 0-5-1.4-9.2-4.2-12.4s-6.4-4.8-10.9-4.8z"/><path class="st1" d="M185.1 75.7c-5.4 0-10.2 2.1-14.5 6.4v-4.9h-12.4v53.3h12.4v-25.7c0-6.6.8-11.3 2.5-13.9 1.7-2.7 4.6-4 8.7-4 3.8 0 6.3 1 7.8 3.1 1.5 2 2.2 5.6 2.2 10.9v29.7h12.4V97.8c0-7.5-1.5-12.9-4.5-16.2-3.6-3.9-8.4-5.9-14.6-5.9zM252.5 83.4c-5-5.1-10.6-7.7-16.8-7.7-7.2 0-13.2 2.7-17.9 8-4.8 5.3-7.2 12-7.2 20 0 8.1 2.4 14.9 7.2 20.3 4.8 5.3 10.9 8 18.3 8 5.8 0 11.3-2.4 16.4-7.1v5.6h12.4V77.2h-12.4v6.2zm-3.5 32.9c-2.8 3.1-6.5 4.7-11 4.7-4.3 0-7.8-1.6-10.6-4.9-2.7-3.2-4.1-7.4-4.1-12.5 0-4.8 1.4-8.8 4.2-12s6.4-4.8 10.6-4.8c4.5 0 8.1 1.6 10.9 4.8s4.2 7.4 4.2 12.4c0 4.9-1.4 9.1-4.2 12.3zM289.4 57.7h-12.3v19.5h-5.2v11.5h5.2v41.8h12.3V88.7h9.6V77.2h-9.6zM338 107.8c0 8.8-3.5 13.2-10.4 13.2-7 0-10.4-4.4-10.4-13.2V77.2h-12.3V108c0 4.9.5 8.6 1.5 11 1.1 2.8 2.9 5.3 5.4 7.5 4.2 3.6 9.4 5.4 15.8 5.4s11.7-1.8 15.9-5.4c2.5-2.2 4.3-4.7 5.3-7.5 1.1-3.1 1.6-6.8 1.6-11V77.2H338v30.6zM381.1 75.7c-2.4 0-4.6.5-6.3 1.4-1.8.9-3.8 2.5-6 4.9v-4.8h-12.3v53.3h12.3v-27.6c0-10.1 3.4-15.2 10.1-15.2 2.2 0 4.5.8 6.8 2.5l5.6-11.3c-3.5-2.1-6.9-3.2-10.2-3.2zM424 118.8c-2 1.5-4.5 2.2-7.6 2.2-3.9 0-7.2-1.3-9.7-3.8-2.5-2.6-3.9-6.1-4.3-10.4h38.2l.1-2.9c0-8.8-2.3-15.7-6.8-20.6-4.6-5-10.8-7.5-18.6-7.5s-14 2.6-18.7 7.7c-4.7 5.2-7 12-7 20.5s2.4 15.3 7.2 20.5c4.8 5.1 11.2 7.7 19.1 7.7 2.8 0 5.3-.3 7.7-.9s4.6-1.5 6.6-2.8 4-2.9 5.7-4.8c1.8-2 3.5-4.3 5.1-7l-10.4-5.8c-2.4 3.8-4.6 6.5-6.6 7.9zm-19-26.2c.8-1.2 1.7-2.2 2.8-3.1 1.1-.9 2.3-1.5 3.6-2 1.3-.5 2.7-.7 4.2-.7 6.6 0 10.7 3.3 12.4 9.8h-24.7c.4-1.5 1-2.8 1.7-4z"/><path class="st2" d="M463.2 57.7h-12.3v19.5h-5.2v11.5h5.2v41.8h12.3V88.7h9.6V77.2h-9.6zM503.2 75.7c-2.4 0-4.6.5-6.3 1.4-1.8.9-3.8 2.5-6 4.9v-4.8h-12.3v53.3h12.3v-27.6c0-10.1 3.4-15.2 10.1-15.2 2.2 0 4.5.8 6.8 2.5l5.6-11.3c-3.5-2.1-6.9-3.2-10.2-3.2zM552.6 83.4c-5-5.1-10.6-7.7-16.8-7.7-7.2 0-13.2 2.7-17.9 8-4.8 5.3-7.2 12-7.2 20 0 8.1 2.4 14.9 7.2 20.3 4.8 5.3 10.9 8 18.3 8 5.8 0 11.3-2.4 16.4-7.1v5.6H565V77.2h-12.4v6.2zm-3.5 32.9c-2.8 3.1-6.5 4.7-11 4.7-4.3 0-7.8-1.6-10.6-4.9-2.7-3.2-4.1-7.4-4.1-12.5 0-4.8 1.4-8.8 4.2-12s6.4-4.8 10.6-4.8c4.5 0 8.1 1.6 10.9 4.8 2.8 3.2 4.2 7.4 4.2 12.4 0 4.9-1.4 9.1-4.2 12.3zM593.9 99.6L617 77.2h-16.5l-17.3 17.2V38.1h-12.4v92.4h12.4V110l1.9-2 17.6 22.5h16z"/><path class="st3" d="M71.4 81.7h-.2c.1.1.1.1.2 0zM70.2 105.4c-.2.2 0 .1 0 0zM85.1 80.5c-.1.1-.2.2 0 0zM80.4 85.8v-.2c0 .1-.1.1 0 .2z"/><path class="st2" d="M127.2 24.8c-27.4-27.4-71.9-27.4-99.4 0C.4 52.2.4 96.7 27.8 124.2l49.7 49.7 49.7-49.7c27.5-27.5 27.5-72 0-99.4zm-10.3 73.6c-1.2.7-2.5 1.4-3.7 2.2-.8.5-1.5 1-2.2 1.5-.6.4-1.3.6-1.9.9-.2.1-.4.2-.5.3-.4.1-.8.3-1.3.4-3.5 1.1-7.4 1.2-10.9.7-1.9-.3-3.8-.8-5.5-1.9v-.1h-.1-.1c.2.6.3 1.2.5 1.8.4 1.9.9 3.7 1.4 5.6.2.7-.3 1.3-.9 1.5-.1.1-.2.1-.4.2-.3.1-.7.1-1.1-.1-1.4-.6-2.8-1.3-4.2-1.9-.7-.3-1.4-.6-2.1-1-.7-.5-1.4-1-2-1.6l-.6-.6c-1.8-2-2.9-4.4-3.6-6.9-.5 1.6-1.2 3.2-2.2 4.7-.9 1.5-2.2 2.8-3.7 3.8-.5.4-1.1.7-1.7.9-1.8.8-3.6 1.5-5.4 2.3 0 .1-.1.1-.1.1-.5.2-1.1.1-1.6-.3l-.1-.1c-.4-.3-.5-.8-.4-1.2.5-1.9 1-3.7 1.5-5.6.2-.6.4-1.3.6-1.9-.3.2-.5.3-.8.4-.3.2-.6.3-.9.5-.5.2-1 .4-1.6.6-1.8.5-3.6.7-5.3.8-3.7.2-7.7-.2-11.1-1.9-.6-.3-1-.6-1.5-.9-.8-.5-1.5-1-2.3-1.5-.9-.6-1.9-1.1-2.9-1.7-.1-.1-.2-.2-.3-.2-.6-.6-.4-1.8.5-2 3.2-.9 6.3-1.9 9.3-3.1.3-.1.8-.3 1.2-.5l1.2-.6c.8-.3 1.5-.7 2.2-1.1l2.7-1.5c-1.1-1.1-2.1-2.2-3-3.4-1.2-1.7-2.1-3.5-2.8-5.4-.6-1.5-1.1-3.1-1.6-4.7-1.1-3.2-2.1-6.4-3.2-9.6-.2-.7.4-1.4 1-1.5.2-.1.5-.1.8 0 2 .7 4.1 1.4 6.1 2.1 1.9.6 3.7 1.3 5.6 1.9 1.6.5 3.2 1.1 4.6 1.9 1.8.9 3.5 2.1 5 3.5.4.3.8.7 1.2 1.1-.3-1.4-.5-2.9-.7-4.3-.3-3.6 0-7.2 1.2-10.6.9-2.8 2.4-5.4 3.7-8l3.6-7.2c.1-.3.5-.5.9-.5.5-.2 1.2-.1 1.4.4l4.8 9.6c.1.1.1.2.2.4 1.3 2.5 2.4 5 3 7.8.4 1.8.6 3.7.6 5.5 0 2.3-.3 4.6-.8 6.8-.1.2-.1.4-.2.6l.3-.3c1.5-1.6 3.1-3 4.9-4.2 1.3-.9 2.7-1.7 4.1-2.3 1.4-.6 2.9-1.1 4.3-1.6.8-.2 1.6-.5 2.3-.8 1.8-.6 3.6-1.2 5.3-1.8.6-.2 1.3-.4 1.9-.7h.2c.1 0 .1 0 .2-.1.8-.3 1.6.6 1.4 1.4-.1.4-.3.8-.4 1.2-.6 1.9-1.3 3.8-1.9 5.7-.6 1.8-1.2 3.7-1.8 5.5-.7 1.9-1.5 3.8-2.6 5.5-1.3 2.1-2.9 4-4.7 5.7.1.1.2.1.3.1 1.4.8 2.7 1.7 4.1 2.5 1.7.9 3.2 1.6 4.9 2.2 2.5.9 5.1 1.8 7.7 2.4.7.4.8 1.7 0 2.2z"/></svg>