<svg id="Layer_1" xmlns="http://www.w3.org/2000/svg" viewBox="0 0 600 623.6"><style>.st0{fill:#adbd3d}.st1{opacity:.85}.st2{fill:#4d4967}.st3{fill:#63568a}.st4{fill:#907ba2}.st5{fill:#dcd6e5}</style><path class="st0" d="M137.9 422c-20.6-20.6-53.9-20.6-74.4 0-20.6 20.6-20.6 53.9 0 74.4l37.2 37.2 37.2-37.2c20.6-20.6 20.6-53.9 0-74.4zm-7.7 55.1c-.9.5-1.8 1.1-2.7 1.6-.6.4-1.1.8-1.7 1.1-.5.3-1 .5-1.6.7-2.9 1.1-6.1 1.3-9.2.8-1.5-.2-2.9-.6-4.1-1.4-.1-.1-.3-.2-.4-.3.2.5.3 1.1.4 1.7.3 1.4.7 2.8 1 4.2.2.8-.7 1.5-1.6 1.1-1-.5-2.1-1-3.1-1.4-.5-.2-1.1-.5-1.6-.8-.7-.4-1.3-.9-1.9-1.5-1.4-1.6-2.3-3.4-2.8-5.3 0-.1-.1-.3-.1-.4-.4 1.4-.9 2.8-1.8 4.1-.9 1.4-2.2 2.6-3.8 3.4-1.3.6-2.7 1.2-4.1 1.8-.4.2-.9.2-1.3-.2-.3-.2-.4-.6-.3-.9.4-1.4.7-2.8 1.1-4.2.1-.5.3-1.1.5-1.6-.4.3-.9.5-1.3.7-1.6.7-3.4 1-5.2 1.1-2.8.2-5.8-.2-8.4-1.5-.4-.2-.7-.4-1.1-.7-.6-.4-1.1-.7-1.7-1.1-.7-.4-1.5-.9-2.2-1.3-.6-.4-.5-1.4.2-1.5 2.3-.6 4.7-1.4 6.9-2.3.2-.1.6-.2.9-.4.3-.1.6-.3.9-.4.5-.3 1.1-.6 1.6-.8.7-.4 1.3-.7 2-1.1-.8-.8-1.6-1.6-2.2-2.5-.9-1.3-1.5-2.6-2.1-4.1-.4-1.2-.8-2.3-1.2-3.5l-2.4-7.2c-.2-.6.4-1.2 1-1 1.5.5 3.1 1 4.6 1.6 1.4.5 2.8.9 4.2 1.4 1.2.4 2.4.9 3.5 1.4 1.4.7 2.6 1.6 3.8 2.6l1.2 1.2c-.3-1.2-.5-2.5-.6-3.8-.2-2.7 0-5.4.9-8 .7-2.1 1.8-4 2.8-6l2.7-5.4c.3-.5 1.2-.6 1.5 0l3.6 7.2c0 .1.1.2.1.3.9 1.9 1.8 3.8 2.3 5.8.3 1.4.4 2.7.4 4.1 0 1.7-.2 3.5-.6 5.1-.1.3-.1.5-.2.8l.6-.6c1.1-1.1 2.3-2.2 3.7-3.1 1-.7 2-1.2 3.1-1.7 1-.5 2.1-.8 3.2-1.2l7.2-2.4c.6-.2 1.2.4 1 1l-.3.9c-.5 1.4-.9 2.8-1.4 4.3-.5 1.4-.9 2.8-1.4 4.1-.5 1.4-1.1 2.9-1.9 4.2-1 1.6-2.2 3-3.6 4.3.1 0 .1.1.2.1 1 .6 2 1.2 3.1 1.8 1.3.7 2.4 1.2 3.7 1.7 1.9.7 3.8 1.3 5.8 1.8.7.2.8 1.2.2 1.6z"/><g class="st1"><path class="st2" d="M370.5 445.9H245.1c0-85.3-69.4-154.7-154.7-154.7V165.9c154.5 0 280.1 125.6 280.1 280z"/></g><g class="st1"><path class="st3" d="M165.1 355.8c-24.5-25.2-57.4-39.1-92.6-39.1V191.4c69.3 0 134 27.3 182.4 77l-89.8 87.4z"/></g><g class="st1"><path class="st4" d="M75.6 344.5c-6.8-1.4-13.9-2.1-20.9-2.1V217c15.5 0 31 1.6 46.1 4.7L75.6 344.5z"/></g><path class="st5" d="M73 253.5l-.8-.6 110.3-143.3H408v1.1H183zM455.1 115.8c0-1.1-.4-2-1.1-2.8-.7-.7-1.9-1.4-3.5-2-1.7-.6-2.9-1.1-3.9-1.6-3.1-1.6-4.6-4.1-4.6-7.3 0-2.2.7-4 2-5.4 1.3-1.4 3.1-2.2 5.4-2.5V90h3.2v4.3c2.3.3 4.1 1.3 5.3 2.9 1.2 1.6 1.9 3.7 1.9 6.3H455c0-1.7-.4-3-1.1-3.9-.7-1-1.8-1.4-3-1.4-1.3 0-2.2.3-3 1-.7.7-1.1 1.7-1.1 2.9 0 1.1.4 2.1 1.1 2.7.7.7 1.9 1.3 3.6 2 1.7.6 3 1.2 4 1.7s1.8 1.1 2.4 1.8c.7.7 1.2 1.5 1.5 2.3.4.9.5 1.9.5 3.1 0 2.2-.7 4-2 5.4-1.4 1.4-3.3 2.2-5.7 2.4v3.8H449v-3.8c-2.6-.3-4.6-1.2-6-2.8-1.4-1.6-2.1-3.7-2.1-6.3h4.8c0 1.7.4 2.9 1.3 3.8.8.9 2 1.4 3.5 1.4s2.6-.4 3.4-1.1c.8-.5 1.2-1.5 1.2-2.7zM465.3 109.1l1.6-14.5h15.4v4.1h-11.4l-.8 6.9c1.3-.8 2.8-1.1 4.5-1.1 2.7 0 4.9.9 6.4 2.6 1.5 1.7 2.3 4.1 2.3 7.1 0 2.9-.8 5.2-2.5 7-1.7 1.7-4 2.6-6.9 2.6-2.6 0-4.8-.7-6.5-2.2-1.7-1.5-2.7-3.5-2.8-5.9h4.6c.2 1.4.7 2.5 1.5 3.2.8.7 1.9 1.1 3.2 1.1 1.5 0 2.6-.5 3.4-1.6.8-1.1 1.2-2.5 1.2-4.3 0-1.7-.5-3.1-1.4-4.1s-2.2-1.5-3.7-1.5c-.9 0-1.6.1-2.2.3-.6.2-1.3.7-2 1.3l-3.9-1zM505.6 111.2c0 4.1-.8 7.2-2.3 9.3-1.5 2.1-3.9 3.1-7 3.1s-5.4-1-7-3.1-2.4-5.1-2.4-9.1v-5c0-4.1.8-7.2 2.3-9.3 1.5-2.1 3.9-3.1 7.1-3.1 3.1 0 5.5 1 7 3s2.3 5 2.4 9v5.2zm-4.8-5.3c0-2.7-.4-4.7-1.1-5.9-.7-1.3-1.9-1.9-3.5-1.9s-2.7.6-3.4 1.8c-.7 1.2-1.1 3-1.2 5.6v6.5c0 2.7.4 4.7 1.1 6 .7 1.3 1.9 2 3.5 2 1.5 0 2.7-.6 3.4-1.8.7-1.2 1.1-3.1 1.2-5.7v-6.6zM517.1 114.2l-2.1 2.2v7h-4.8V93.1h4.8v17.5l1.5-1.9 5.9-6.6h5.8l-7.9 8.9 8.8 12.4h-5.5l-6.5-9.2z"/><path class="st4" d="M455.1 204.7c0-1.1-.4-2-1.1-2.8-.7-.7-1.9-1.4-3.5-2-1.7-.6-2.9-1.1-3.9-1.6-3.1-1.6-4.6-4.1-4.6-7.3 0-2.2.7-4 2-5.4 1.3-1.4 3.1-2.2 5.4-2.5v-4.3h3.2v4.3c2.3.3 4.1 1.3 5.3 2.9 1.2 1.6 1.9 3.7 1.9 6.3H455c0-1.7-.4-3-1.1-3.9-.7-1-1.8-1.4-3-1.4-1.3 0-2.2.3-3 1-.7.7-1.1 1.7-1.1 2.9 0 1.1.4 2.1 1.1 2.7.7.7 1.9 1.3 3.6 2 1.7.6 3 1.2 4 1.7s1.8 1.1 2.4 1.8c.7.7 1.2 1.5 1.5 2.3.4.9.5 1.9.5 3.1 0 2.2-.7 4-2 5.4-1.4 1.4-3.3 2.2-5.7 2.4v3.8H449v-3.8c-2.6-.3-4.6-1.2-6-2.8s-2.1-3.7-2.1-6.3h4.8c0 1.7.4 2.9 1.3 3.8.8.9 2 1.4 3.5 1.4s2.6-.4 3.4-1.1c.8-.4 1.2-1.4 1.2-2.6zM477 212.2h-4.8v-23l-7 2.4v-4l11.2-4.1h.6v28.7zM505.6 200.2c0 4.1-.8 7.2-2.3 9.3-1.5 2.1-3.9 3.1-7 3.1s-5.4-1-7-3.1c-1.6-2-2.4-5.1-2.4-9.1v-5c0-4.1.8-7.2 2.3-9.3 1.5-2.1 3.9-3.1 7.1-3.1 3.1 0 5.5 1 7 3s2.3 5 2.4 9v5.2zm-4.8-5.4c0-2.7-.4-4.7-1.1-5.9-.7-1.3-1.9-1.9-3.5-1.9s-2.7.6-3.4 1.8c-.7 1.2-1.1 3-1.2 5.6v6.5c0 2.7.4 4.7 1.1 6 .7 1.3 1.9 2 3.5 2 1.5 0 2.7-.6 3.4-1.8.7-1.2 1.1-3.1 1.2-5.7v-6.6zM528.6 200.2c0 4.1-.8 7.2-2.3 9.3-1.5 2.1-3.9 3.1-7 3.1s-5.4-1-7-3.1c-1.6-2-2.4-5.1-2.4-9.1v-5c0-4.1.8-7.2 2.3-9.3 1.5-2.1 3.9-3.1 7.1-3.1 3.1 0 5.5 1 7 3s2.3 5 2.4 9v5.2zm-4.8-5.4c0-2.7-.4-4.7-1.1-5.9-.7-1.3-1.9-1.9-3.5-1.9s-2.7.6-3.4 1.8c-.7 1.2-1.1 3-1.2 5.6v6.5c0 2.7.4 4.7 1.1 6 .7 1.3 1.9 2 3.5 2 1.5 0 2.7-.6 3.4-1.8.7-1.2 1.1-3.1 1.2-5.7v-6.6zM540 203.1l-2.1 2.2v7h-4.8V182h4.8v17.5l1.5-1.9 5.9-6.6h5.8l-7.9 8.9 8.8 12.4h-5.5l-6.5-9.2z"/><g><path class="st3" d="M455.1 298.6c0-1.1-.4-2-1.1-2.8-.7-.7-1.9-1.4-3.5-2-1.7-.6-2.9-1.1-3.9-1.6-3.1-1.6-4.6-4.1-4.6-7.3 0-2.2.7-4 2-5.4 1.3-1.4 3.1-2.2 5.4-2.5v-4.3h3.2v4.3c2.3.3 4.1 1.3 5.3 2.9 1.2 1.6 1.9 3.7 1.9 6.3H455c0-1.7-.4-3-1.1-3.9-.7-1-1.8-1.4-3-1.4-1.3 0-2.2.3-3 1-.7.7-1.1 1.7-1.1 2.9 0 1.1.4 2.1 1.1 2.7.7.7 1.9 1.3 3.6 2 1.7.6 3 1.2 4 1.7s1.8 1.1 2.4 1.8c.7.7 1.2 1.5 1.5 2.3.4.9.5 1.9.5 3.1 0 2.2-.7 4-2 5.4-1.4 1.4-3.3 2.2-5.7 2.4v3.8H449v-3.8c-2.6-.3-4.6-1.2-6-2.8s-2.1-3.7-2.1-6.3h4.8c0 1.7.4 2.9 1.3 3.8.8.9 2 1.4 3.5 1.4s2.6-.4 3.4-1.1c.8-.4 1.2-1.4 1.2-2.6zM483.3 306.1H464v-3.3l9.6-10.4c1.4-1.5 2.4-2.8 2.9-3.9.6-1 .9-2.1.9-3.1 0-1.4-.4-2.5-1.2-3.3-.8-.8-1.8-1.3-3.1-1.3-1.6 0-2.8.5-3.6 1.4s-1.3 2.2-1.3 3.9h-4.8c0-1.7.4-3.3 1.2-4.7.8-1.4 1.9-2.5 3.4-3.3 1.5-.8 3.2-1.2 5.1-1.2 2.8 0 5 .7 6.6 2.1 1.6 1.4 2.4 3.3 2.4 5.8 0 1.4-.4 2.9-1.2 4.5-.8 1.6-2.1 3.4-4 5.3l-7 7.5h13.3v4zM505.6 294c0 4.1-.8 7.2-2.3 9.3-1.5 2.1-3.9 3.1-7 3.1s-5.4-1-7-3.1-2.4-5.1-2.4-9.1v-5c0-4.1.8-7.2 2.3-9.3 1.5-2.1 3.9-3.1 7.1-3.1 3.1 0 5.5 1 7 3s2.3 5 2.4 9v5.2zm-4.8-5.3c0-2.7-.4-4.7-1.1-5.9-.7-1.3-1.9-1.9-3.5-1.9s-2.7.6-3.4 1.8c-.7 1.2-1.1 3-1.2 5.6v6.5c0 2.7.4 4.7 1.1 6 .7 1.3 1.9 2 3.5 2 1.5 0 2.7-.6 3.4-1.8.7-1.2 1.1-3.1 1.2-5.7v-6.6zM528.6 294c0 4.1-.8 7.2-2.3 9.3-1.5 2.1-3.9 3.1-7 3.1s-5.4-1-7-3.1-2.4-5.1-2.4-9.1v-5c0-4.1.8-7.2 2.3-9.3 1.5-2.1 3.9-3.1 7.1-3.1 3.1 0 5.5 1 7 3s2.3 5 2.4 9v5.2zm-4.8-5.3c0-2.7-.4-4.7-1.1-5.9-.7-1.3-1.9-1.9-3.5-1.9s-2.7.6-3.4 1.8c-.7 1.2-1.1 3-1.2 5.6v6.5c0 2.7.4 4.7 1.1 6 .7 1.3 1.9 2 3.5 2 1.5 0 2.7-.6 3.4-1.8.7-1.2 1.1-3.1 1.2-5.7v-6.6zM540 297l-2.1 2.2v7h-4.8v-30.3h4.8v17.5l1.5-1.9 5.9-6.6h5.8l-7.9 8.9 8.8 12.4h-5.5L540 297z"/></g><g><path class="st0" d="M455.1 395.4c0-1.1-.4-2-1.1-2.8-.7-.7-1.9-1.4-3.5-2-1.7-.6-2.9-1.1-3.9-1.6-3.1-1.6-4.6-4.1-4.6-7.3 0-2.2.7-4 2-5.4 1.3-1.4 3.1-2.2 5.4-2.5v-4.3h3.2v4.3c2.3.3 4.1 1.3 5.3 2.9 1.2 1.6 1.9 3.7 1.9 6.3H455c0-1.7-.4-3-1.1-3.9-.7-1-1.8-1.4-3-1.4-1.3 0-2.2.3-3 1s-1.1 1.7-1.1 2.9c0 1.1.4 2.1 1.1 2.7.7.7 1.9 1.3 3.6 2 1.7.6 3 1.2 4 1.7s1.8 1.1 2.4 1.8c.7.7 1.2 1.5 1.5 2.3.4.9.5 1.9.5 3.1 0 2.2-.7 4-2 5.4-1.4 1.4-3.3 2.2-5.7 2.4v3.8H449V403c-2.6-.3-4.6-1.2-6-2.8s-2.1-3.7-2.1-6.3h4.8c0 1.7.4 2.9 1.3 3.8.8.9 2 1.4 3.5 1.4s2.6-.4 3.4-1.1c.8-.5 1.2-1.4 1.2-2.6zM483.3 402.9H464v-3.3l9.6-10.4c1.4-1.5 2.4-2.8 2.9-3.9.6-1 .9-2.1.9-3.1 0-1.4-.4-2.5-1.2-3.3-.8-.8-1.8-1.3-3.1-1.3-1.6 0-2.8.5-3.6 1.4-.9.9-1.3 2.2-1.3 3.9h-4.8c0-1.7.4-3.3 1.2-4.7.8-1.4 1.9-2.5 3.4-3.3 1.5-.8 3.2-1.2 5.1-1.2 2.8 0 5 .7 6.6 2.1 1.6 1.4 2.4 3.3 2.4 5.8 0 1.4-.4 2.9-1.2 4.5-.8 1.6-2.1 3.4-4 5.3l-7 7.5h13.3v4zM488.2 388.7l1.6-14.5h15.4v4.1h-11.4l-.8 6.9c1.3-.8 2.8-1.1 4.5-1.1 2.7 0 4.9.9 6.4 2.6 1.5 1.7 2.3 4.1 2.3 7.1 0 2.9-.8 5.2-2.5 7-1.7 1.7-4 2.6-6.9 2.6-2.6 0-4.8-.7-6.5-2.2-1.7-1.5-2.7-3.5-2.8-5.9h4.6c.2 1.4.7 2.5 1.5 3.2.8.7 1.9 1.1 3.2 1.1 1.5 0 2.6-.5 3.4-1.6.8-1.1 1.2-2.5 1.2-4.3 0-1.7-.5-3.1-1.4-4.1-.9-1-2.2-1.5-3.7-1.5-.9 0-1.6.1-2.2.3-.6.2-1.3.7-2 1.3l-3.9-1zM528.6 390.8c0 4.1-.8 7.2-2.3 9.3-1.5 2.1-3.9 3.1-7 3.1s-5.4-1-7-3.1c-1.6-2-2.4-5.1-2.4-9.1v-5c0-4.1.8-7.2 2.3-9.3 1.5-2.1 3.9-3.1 7.1-3.1 3.1 0 5.5 1 7 3s2.3 5 2.4 9v5.2zm-4.8-5.4c0-2.7-.4-4.7-1.1-5.9-.7-1.3-1.9-1.9-3.5-1.9s-2.7.6-3.4 1.8c-.7 1.2-1.1 3-1.2 5.6v6.5c0 2.7.4 4.7 1.1 6 .7 1.3 1.9 2 3.5 2 1.5 0 2.7-.6 3.4-1.8.7-1.2 1.1-3.1 1.2-5.7v-6.6zM540 393.7l-2.1 2.2v7h-4.8v-30.3h4.8v17.5l1.5-1.9 5.9-6.6h5.8l-7.9 8.9 8.8 12.4h-5.5l-6.5-9.2z"/></g><g><path class="st5" d="M205.9 266.6l-.7-.9 87.1-69.2H408v1.1H292.6z"/></g><g><path class="st5" d="M300.5 338.2l-.6-.9 60.4-42.6H408v1h-47.4z"/></g><g><path class="st5" d="M136.6 437.2l-.2-1 162.3-42.6h128.1v1.1h-128z"/></g></svg>