<svg id="Layer_1" xmlns="http://www.w3.org/2000/svg" xmlns:xlink="http://www.w3.org/1999/xlink" viewBox="0 0 600 421"><style>.st0{opacity:.1;fill:#272b43;enable-background:new}.st1{fill:#4d4a67}.st2{fill:#c7bdcc}.st3{fill:#8a86a5}.st4{fill:#797393}.st5{fill:#dfdcdb}.st6{fill:#ab9fad}.st7{fill:#656579}.st8{fill:#aeb7dd}.st9{opacity:.5;fill:#7987b2;enable-background:new}.st10{fill:#828c64}.st11{fill:#9aaa69}.st12{fill:#9b93a9}.st13{fill:#756e90}.st14{fill:#848484}.st15{opacity:.75}.st16{clip-path:url(#SVGID_2_);enable-background:new}.st17{clip-path:url(#SVGID_4_)}.st18{enable-background:new}.st19{fill:#5e6578}.st20{fill:#c3b6c8}.st21{fill:#ddcfe2}.st22{fill:#dbcde0}.st23{fill:#f8f5f9}.st24{fill:#8a809f}.st25{fill:#4f3a7a}.st26{clip-path:url(#SVGID_6_);enable-background:new}.st27{clip-path:url(#SVGID_8_)}.st28{fill:#3c3950}</style><switch><g><path class="st0" d="M384.4 231.6L325 261.8l97.1 61.5 139.4-79.9z"/><path class="st1" d="M384.1 139.3l.3 92.3 99.1 56.9v-90.3z"/><path class="st2" d="M483.5 198.2l78-44.1v89.3l-78 45.1z"/><path class="st3" d="M561.5 154.1L461.3 95.5l-77.2 43.8 99.4 58.9z"/><path class="st4" d="M461.3 95.5l-23.4-39.2-76 45.7 22.2 37.3z"/><path class="st5" d="M555.3 170l-.6 6.9-44.5 26.3v-7.5z"/><path class="st6" d="M555.3 180.7l-.6 4.2-48.7 28.6v-4.7zM555.3 188.5l-.6 4.2-48.7 28.6v-4.7zM556.2 197.1l-.6 4.2-48.7 28.6v-4.7z"/><path class="st5" d="M555.3 209.2l-56.2 32.5v30.5l56.2-31.5z"/><path class="st7" d="M544 153.1l-83.1-47.9-.8 69.2 23.8 14.2z"/><path class="st1" d="M460.1 174.4l-58.2-34.5 59-34.7z"/><path class="st8" d="M408.9 190.3c.3-.9.6-1.7.9-2.7.4-1.8.6-3.8.5-6-.1-.9-.1-1.8-.2-2.8-.1-.8-.3-1.6-.4-2.4-.2-1-.5-2.1-.8-3.1-.2-.9-.7-1.9-.9-2.8 0-.1-.1-.2-.2-.2-.1-.1-.2 0-.3 0-.2.3-.3.6-.4.8-1.3 2.6-2 5.6-2 9.1 0 2.6.5 5.3 1.3 8.2 0 .1 0 .2.1.3 0 .1.1.1 0 .1s-.1-.1-.1-.1c-.5-1-1.1-2.1-1.6-3.1-2-3.7-4.4-7.4-7.2-10.9-1.2-1.6-2.5-3.1-3.9-4.6-.4-.5-.9-.9-1.3-1.3-.1-.1-.3-.3-.4-.3-.2 0 0 .2 0 .4.7 3 2 6.1 3.9 9.3 2.1 3.6 4.8 7 7.9 10.2.1.1.3.3.4.5-.5-.4-1-.8-1.6-1.2-3.4-2.6-6.8-4.8-10.3-6.4-.3-.1-.6-.3-.9-.4-.2-.1-.4-.2-.4-.1-.1.1.2.3.3.5.6.8 1.3 1.5 2 2.2 1.5 1.6 3.1 3 4.9 4.3s3.7 2.4 5.6 3.2c.2.1.4.2.6.2 0 0 .1 0 .2.1-.2.1-.5 0-.8 0-2.3-.2-4.3 0-6 .8-.1 0-.1.1-.2.1s-.2.1-.1.2c.1.2.2.2.4.2 1.4.4 2.7.7 4 .9 1.9.2 3.6.3 5-.3l.6-.3c.1.2.1.3.1.5 0 1.3-.1 2.6-.1 3.9 0 .4.4.8.8.8.2 0 .2-.1.2-.3 0-1.2-.1-2.3-.1-3.5v-.9c.6.8 1 1.5 1.5 2.1 1.9 2.2 4 4.1 6.3 5.9.6.5 1.2.9 1.8 1.3.1.1.3.3.4.2s-.1-.3-.2-.4c-1.2-1.7-2.5-3.4-4-4.9-1-1-2.1-2-3.1-2.9.8.4 1.6.9 2.4 1.3 3.5 1.8 6.6 2.5 9.5 2.2.6 0 1.1-.1 1.7-.2.1 0 .3 0 .2-.2 0-.1-.2-.2-.3-.3-3.9-2.3-7.6-3.7-11.3-4.5-.5-.1-.9-.2-1.4-.3 0-.2.2-.2.3-.2 3.1-.1 5.7-.8 7.8-2.3 1.5-1 2.6-2.4 3.3-4.2.2-.4.3-.7.4-1.1 0-.1.2-.2 0-.4s-.3-.1-.4-.1c-1.1 0-2.1.1-3.1.3-2.7.5-5.2 1.4-7.3 2.8-1.2.8-2.3 1.7-3.3 2.7-.5 0-.6.1-.7.1z"/><path class="st9" d="M409.2 189c-1.8.8-3.8 1.5-6.1 1.9-1.8-.8-3.6-1.8-5.3-3.1-1.7-1.2-3.3-2.7-4.9-4.3-.7-.7-1.4-1.5-2-2.2-.1-.1-.4-.3-.3-.5.1-.1.3 0 .4.1.3.1.6.2.9.4 3.5 1.6 7 3.8 10.3 6.4.5.4 1 .8 1.6 1.2-.1-.2-.2-.3-.4-.5-3.1-3.2-5.8-6.6-7.9-10.2-1.8-3.1-3.1-6.2-3.9-9.3 0-.1-.1-.3 0-.4.2 0 .3.2.4.3l1.3 1.3c1.4 1.5 2.7 3 3.9 4.6 2.8 3.6 5.2 7.2 7.2 10.9.6 1 1.1 2.1 1.6 3.1 0 0 0 .1.1.1v-.1c0-.1 0-.2-.1-.3-.9-2.9-1.3-5.6-1.3-8.2 0-3.5.7-6.5 2-9.1.1-.3.3-.6.4-.8 0-.1.1-.1.3 0 .1 0 .2.1.2.2.2.9.7 1.9.9 2.8.3 1 .6 2.1.8 3.1.1.8.3 1.6.4 2.4.1.9.2 1.9.2 2.8.2 2.2-.1 4.1-.5 6 .1.5 0 .9-.2 1.4"/><path class="st10" d="M400.4 99.4c3.3 9.6 8.4 18.4 15.2 26.5 9.6 11.5 21.6 20.8 35.4 28.2.5.3 1.3.4 1.3 1.4-2.2-.6-4.4-1.3-6.5-1.8-9.8-2.7-19.8-4.6-29.8-5.4l30.4 18c3-.1 5.9-.3 8.9-.5-1.9.8-3.9 1.5-5.8 2.3l9.5 5.6 1.8-1.2c2.4-1.7 4.4-3.7 6.9-6v4.2c-.1 2.7-.1 5.4-.2 8.1l4.4 2.6c-.1-4.2-.2-8.4-.3-12.7 0-.6-.2-1.2.3-2 .9.9 1.7 1.7 2.6 2.4 4.4 4 9.5 7.1 15 9.6l2.9-9.6c-1.3-.6-2.7-1.1-4-1.7-1.1-.4-2.4-.7-3.5-1.6.4 0 .6-.1.8-.1.9.1 1.7.1 2.6.2 1.7.1 3.3.2 5 .2l3.3-10.8 6.3-4.1c-3.2.7-6.5 1.5-9.7 2.4-2.4.6-4.7 1.3-7.1 2 .5-.6 1.1-1 1.7-1.3 13.9-7.5 26-16.6 35.7-28.2 8.3-10 14.1-21 17.4-33 .1-.5.7-1.2 0-1.6-.7-.5-1.3.1-1.8.4-2 1-3.9 2-5.8 3.1-6.2 3.6-12 7.5-17.5 11.8-12.5 9.8-23.3 20.8-32.4 33.1-2.5 3.4-4.9 6.8-7.4 10.3-.1.2-.1.5-.4.4-.2-.1-.1-.4.1-.5.1-.3.2-.7.3-1 3.9-11.1 5.8-22.5 5.9-34.1.1-15.7-3-30.9-9.1-45.7-.7-1.6-1.4-3.2-2-4.8-.2-.5-.5-.8-1.2-.8-.4 0-.8.2-.9.6-1.1 3.7-3.2 7-4.2 10.6-1.2 4.1-2.7 8.1-3.6 12.2-.7 3.2-1.5 6.5-2 9.7-.5 4-.7 8.1-1 12.1-.7 9.4.4 18.8 2.3 28 1 4.7 2.5 9.3 3.9 14l.1.1-.1-.1c-.7-.5-1-1.2-1.4-1.9-4.5-6.9-9.6-13.5-15.1-19.8-9.5-10.9-20.5-20.5-32.9-28.9-4.5-3-9.2-5.8-14.1-8.4-.6-.3-1.2-.9-2-.4s-.2 1.2 0 1.8c.4 2 1.1 4.1 1.8 6.1z"/><path class="st11" d="M462.3 143.9c8.2 7.9 17.3 15.5 27.6 22.3 8.1.5 16.2-.1 24.1-1.8 7.8-1.7 15.1-4.6 22-8.2 3.2-1.7 6.1-3.6 9.1-5.6.6-.4 1.6-.8 1.3-1.6-.3-.7-1.2-.6-2-.6-1.4-.1-2.8-.3-4.2-.3-15.9-.7-31.4 1.6-46.6 5.7-2.4.6-4.7 1.3-7.1 2 .5-.6 1.1-1 1.7-1.3 13.9-7.5 26-16.6 35.6-28.2 8.3-10 14.1-21 17.4-33 .1-.5.7-1.2 0-1.6-.7-.5-1.3.1-1.8.4-2 1-3.9 2-5.8 3.1-6.2 3.6-12 7.5-17.5 11.9-12.5 9.8-23.4 20.8-32.5 33.1-2.5 3.4-4.9 6.8-7.4 10.3-.1.2-.1.5-.4.4-.2-.1-.1-.4.1-.5.1-.3.2-.7.3-1 3.9-11.1 5.8-22.5 5.9-34.2.1-15.7-3.1-30.9-9.1-45.7-.7-1.6-1.4-3.2-2-4.8-.2-.5-.5-.8-1.2-.8-.4 0-.8.2-.9.6-1 3.7-3.2 7-4.2 10.6-1.2 4.1-2.7 8.1-3.6 12.3-.7 3.2-1.5 6.4-2 9.7-.5 4-.7 8.1-1 12.1-.7 9.4.4 18.7 2.3 28 .6 2.1 1.3 4.4 1.9 6.7"/><path class="st12" d="M561.5 154.1l11-45.3-75.6 45.3-13.4 44.1z"/><path class="st14" d="M431.1 235.5l.1-45.2 39.3 22.7-.2 45.1z"/><g class="st15"><defs><path id="SVGID_1_" d="M431.1 235.5l.1-45.2 39.3 22.7-.2 45.1z"/></defs><clipPath id="SVGID_2_"><use xlink:href="#SVGID_1_" overflow="visible"/></clipPath><g class="st16"><defs><path id="SVGID_3_" d="M470.3 258.1l-39.2-22.6.1-45.2 39.3 22.7-.2 45.1"/></defs><clipPath id="SVGID_4_"><use xlink:href="#SVGID_3_" overflow="visible"/></clipPath><image width="36" height="63" xlink:href="72B36CE3AB78866A.png" transform="matrix(1.1077 0 0 1.0901 431.073 190.337)" overflow="visible" class="st17"/></g></g><g class="st18"><path class="st3" d="M199.6 46.2l-.7 250.9 128.9 74.4.7-250.9z"/><path class="st19" d="M327.8 371.5l15.8-9.2.7-250.9-15.8 9.2z"/><path class="st20" d="M328.5 120.6l15.8-9.2L215.4 37l-15.8 9.2z"/></g><path class="st21" d="M208.6 66l-.6 196.8 108.6 62.7.6-196.8z"/><path class="st22" d="M257 298.7c-5.3-3.1-9.6-.6-9.6 5.5s4.2 13.4 9.5 16.5c5.3 3 9.6.6 9.6-5.5.1-6-4.2-13.4-9.5-16.5z"/><g><g class="st18"><path class="st23" d="M261.2 117l3.5 2c-.8-.5-1.9-.4-3.2.3l-3.5-2c1.3-.7 2.4-.8 3.2-.3zM71 378.8l-3.5-2c-.8-.5-1.3-1.5-1.3-2.9l3.5 2c0 1.5.5 2.4 1.3 2.9z"/><path class="st23" d="M69.7 376l-3.5-2.1-.4-140.5 3.5 2.1zM73.8 227.8l-3.6-2.1 187.9-108.4 3.5 2z"/><path class="st23" d="M261.6 119.3c2.5-1.4 4.5-.3 4.5 2.6l.4 140.5c0 2.8-2 6.3-4.4 7.7l-114.9 66.3 3 37.5-41-15.6-35 20.2c-2.5 1.4-4.5.3-4.5-2.6l-.4-140.5c0-2.8 2-6.3 4.4-7.7l187.9-108.4z"/><path class="st23" d="M69.3 235.5l-3.5-2c0-2.8 2-6.3 4.4-7.7l3.5 2c-2.4 1.4-4.4 4.9-4.4 7.7z"/></g><path class="st24" d="M233.2 210.5v8.8L130 278.9v-8.8z"/><path class="st25" d="M233.2 245.9v8.8L130 314.3v-8.8z"/><path class="st24" d="M104.4 276.6c5.6-3.2 10.1-.6 10.1 5.8s-4.5 14.2-10.1 17.4c-5.6 3.2-10.1.6-10.1-5.8s4.5-14.2 10.1-17.4zm-1.9 18.6l8.6-14.9-1.4-.8-7.2 12.4-3.4-1.9-1.4 2.5 4.8 2.7"/><path class="st25" d="M104.4 318.2c5.6-3.2 10.1-.6 10.1 5.8s-4.5 14.2-10.1 17.4c-5.6 3.2-10.1.6-10.1-5.8s4.5-14.2 10.1-17.4zm-1.9 18.6l8.6-14.9-1.4-.8-7.2 12.4-3.4-1.9-1.4 2.5 4.8 2.7"/></g><g><path class="st14" d="M118.6 253.6l-.1-33.3-29 16.7.1 33.3z"/><g class="st15"><defs><path id="SVGID_5_" d="M118.6 253.6l-.1-33.3-29 16.7.1 33.3z"/></defs><clipPath id="SVGID_6_"><use xlink:href="#SVGID_5_" overflow="visible"/></clipPath><g class="st26"><defs><path id="SVGID_7_" d="M89.6 270.3l29-16.7-.1-33.3-29 16.7.1 33.3"/></defs><clipPath id="SVGID_8_"><use xlink:href="#SVGID_7_" overflow="visible"/></clipPath><image width="36" height="62" xlink:href="72B36CE3AB78866E.png" transform="matrix(-.8166 0 0 .8166 118.572 220.293)" overflow="visible" class="st27"/></g></g><path class="st28" d="M139.5 226.6l-2.3 1.4-.4 2.4 2.2-1.2v1.9l-2.5 1.4-.6 4.3-1.8 1 .6-4.2-1.6.9-.6 4.2-1.8 1.1.6-4.2-2 1.1v-2l2.3-1.3.4-2.4-2.1 1.2v-2l2.4-1.4.6-4.2 1.8-1.1-.6 4.3 1.6-1 .7-4.2 1.8-1-.7 4.2 2-1.1z"/><path class="st28" d="M135 231.4l-1.6 1 .4-2.5 1.6-.9zM147.9 217.6c.7.8 1.1 2.4 1.1 4.7 0 2.4-.3 4.4-1 6s-1.8 2.8-3.2 3.6-2.4.8-3.2 0c-.7-.8-1.1-2.4-1.1-4.7 0-2.5.3-4.5 1-6 .7-1.6 1.7-2.7 3.2-3.6 1.4-.8 2.4-.8 3.2 0zm-1.9 10c.3-.9.4-2.2.4-3.9s-.1-2.9-.4-3.4c-.3-.6-.7-.7-1.3-.4s-1 1-1.3 1.9-.4 2.2-.4 3.9.1 2.8.4 3.4c.3.6.7.7 1.3.4.6-.4 1.1-1 1.3-1.9M157.5 212c.7.8 1.1 2.4 1.1 4.7 0 2.4-.3 4.4-1 6s-1.8 2.8-3.2 3.6-2.4.8-3.2 0c-.7-.8-1.1-2.4-1.1-4.7 0-2.5.3-4.5 1-6 .7-1.6 1.7-2.7 3.2-3.6 1.5-.8 2.5-.8 3.2 0zm-1.8 10.1c.3-.9.4-2.2.4-3.9s-.1-2.8-.4-3.4c-.3-.6-.7-.7-1.3-.4s-1 1-1.3 1.9-.4 2.2-.4 3.9.1 2.8.4 3.4c.3.6.7.7 1.3.4.6-.4 1-1.1 1.3-1.9M167.7 207.1c.4.7.5 1.7.5 3 0 2.7-.5 5.1-1.5 7s-2.5 3.5-4.5 4.7c-.7.4-1.3.7-1.6.8v-2.4c.5-.1 1-.4 1.5-.6.9-.5 1.6-1 2.1-1.6s1-1.3 1.3-2.1.5-1.7.5-2.8l-.1.1c-.3.8-.7 1.4-1.1 1.9-.4.5-.9.9-1.6 1.3-1.1.6-1.9.7-2.5.3s-.9-1.3-.9-2.7c0-1.5.4-2.9 1.1-4.2.7-1.3 1.7-2.3 3-3 .9-.5 1.7-.7 2.3-.6.7-.2 1.2.2 1.5.9zm-2.5 5.1c.4-.6.5-1.2.5-1.7 0-.8-.2-1.3-.5-1.6s-.8-.3-1.3 0-.9.7-1.2 1.3-.4 1.3-.4 2.1c0 .7.1 1.1.4 1.4.3.2.7.2 1.2-.1.5-.4.9-.8 1.3-1.4M177.4 207.2c.4.4.6.9.6 1.6 0 1.1-.4 2.3-1.2 3.4-.8 1.1-1.8 2.1-3.1 2.8-1.3.8-2.4 1-3.1.8-.8-.2-1.1-.9-1.1-2.1 0-.8.2-1.6.5-2.4.4-.8.9-1.7 1.8-2.6-.7-.1-1.2-.4-1.5-.7-.3-.4-.5-.9-.5-1.6 0-1 .4-2 1.1-3 .7-1 1.7-1.9 2.8-2.5 1.2-.7 2.1-.9 2.8-.7s1.1.8 1.1 1.8c0 .7-.2 1.4-.5 2.2s-.9 1.6-1.6 2.4c.8.1 1.5.3 1.9.6zm-2.3 4.5c.3-.5.5-1 .5-1.5 0-.4-.2-.7-.5-.9s-.8-.3-1.5-.3c-1.2 1.3-1.8 2.4-1.8 3.4 0 .6.2.9.5 1s.8 0 1.4-.3c.6-.5 1.1-.9 1.4-1.4m-2.5-7.7c-.3.4-.4.8-.4 1.3 0 .4.1.7.3.8.2.2.6.3 1.2.3.5-.6.9-1.1 1.1-1.6.2-.4.3-.8.3-1.2s-.1-.7-.4-.8c-.3-.1-.6 0-1.1.2-.4.3-.7.6-1 1M187.6 193v1.9l-4.5 14.6-2.7 1.6 4.5-14.1-5.9 3.5V198zM196.1 196.8l1.4-.8v2.3l-1.4.8v2.9l-2.5 1.4v-2.9l-5.2 3v-2l5.3-12 2.4-1.4v8.7zm-2.4-2.6c0-.8 0-1.2.1-1.3h-.1c-.2.6-.4 1.3-.7 1.9l-2.2 5.1 2.9-1.7v-2.4c-.1-.3-.1-.9 0-1.6M209 180.6l-4.2 8.6 4.3 5.3-2.9 1.7-3.2-4-1.1 1.5.1 4.9-2.6 1.5v-13.9l2.5-1.4v6.3l1-2.2 3.3-6.6z"/><path class="st28" d="M213.2 178.3v13c0 1.6-.3 3-1 4.3-.6 1.2-1.6 2.2-2.9 2.9-.6.3-1.1.6-1.5.7v-2.5c.4-.1.8-.3 1.2-.5.6-.3 1-.8 1.2-1.3s.4-1.2.4-2.1v-13l2.6-1.5zM225.9 170.9l-4.2 8.6 4.3 5.3-3 1.7-3.1-4.1-1.1 1.5v5l-2.6 1.5v-13.9l2.6-1.5v6.4l1-2.2 3.2-6.6z"/></g></g></switch></svg>