<svg id="Layer_1" xmlns="http://www.w3.org/2000/svg" viewBox="0 0 600 750.8"><style>.st0{fill:none}.st1{fill:#8f7ca3}.st2{fill:#bbbdbf}.st3{fill:#dbdbda}.st4{fill:#e6e7e8}.st5{fill:#4d4967}.st6{fill:#907ba2}.st7{fill:#bcb0c7}.st8{fill:#fff}</style><path class="st0" d="M432.7 579.8l-37-20.7-.1-45.6-37.1-20.7v-40.7l-5.2-2.9-36.9 20.6-29.5-16.5-81.8 44.8 36.9 20.6-.1-28.5 37.8-21.1 37 20.7.1 45.7 36.9 20.6.1 26.5-37.9 21-37-20.7-.1-26.4h.1l-36.8-20.6v28.6l-37.8 21-37-20.7-37.1-20.7v-4.9l-62.3 34.1 173.6 97.3-.1-45.4 37.8-21 37 20.7.1 45.2 215.8-120.6-61.7-34.6.1 43.9z"/><path class="st1" d="M205.1 498.1l81.8-44.8-.5-.3-81.4 44.6v.5zM470.4 514.4v.5l61.7 34.6-215.8 120.6v.5l-37.8 21-37-20.7v-.3L67.9 573.3l62.3-34.1v-.6l-62.9 34.5-.3.2 211.3 118.5.1.1 254.3-142.2.3-.2zM358.5 452.1v-.5l-4.7-2.6-.5.2z"/><path class="st2" d="M130.2 544.1l37.1 20.7-.1-14.4.1 14.4 37 20.7-.1-45.7-37-20.7v-16.2l-37-20.7v57z"/><path class="st3" d="M167.3 564.8l-.1-14.4.1 14.4zM167.2 519.1l37.8-21v-16.2l-37.8 21z"/><path class="st4" d="M205 481.9l-37-20.7-37.8 21 37 20.7z"/><path class="st3" d="M242.1 535.9h-.1v-17.1l-37.8 21 .1 45.7 37.8-21z"/><path class="st4" d="M242 518.8v-.1l-36.9-20.6h-.1l-37.8 21 37 20.7z"/><path class="st2" d="M278.8 556.5l.1 26.4 37 20.7-.1-26.4z"/><path class="st3" d="M315.9 603.6l37.9-21-.1-26.5-37.9 21.1z"/><path class="st4" d="M278.9 556.5h-.1l37 20.7 37.9-21.1-36.9-20.6-37.8 21z"/><path class="st5" d="M360 338.9l-.2-204.6-66.9-37.4.2 204.6 66.9 37.4zm-51.1-204.2c4.9-2.8 11.2-1.9 17.5 1.8 6.3 3.7 12.7 10.1 17.5 18.5 9.6 16.7 9.6 34.7-.1 40.3l-17.6 10-17.4-30.3c-9.7-16.7-9.6-34.7.1-40.3z"/><path class="st5" d="M313.5 167.8c.3.3.5.7.8 1 .2.2.3.5.5.7 1 1.2 2.2 2.1 3.4 2.8.2.1.4.2.5.3.8.4 1.7.8 2.4.8h.6c-.1.2-.2.5-.2.7-.2.7-.3 1.3-.5 2 0 .2 0 .4.1.6.1.2.2.3.3.4.1.1.2.1.3.1.6 0 1.3.1 1.9.2.8 0 1.4-.3 1.8-.8.4-.5.7-1.1.8-1.7v.2c.2 1.2.7 2.4 1.3 3.6.3.5.6.9.9 1.3.2.3.5.6.7.9.5.5 1 1.1 1.5 1.6l.2.2c.3.2.6 0 .5-.4-.2-.9-.3-1.7-.5-2.5-.1-.3-.1-.7-.2-1l.2.3c.6.8 1.3 1.4 1.9 1.9.5.4.9.7 1.4.9 1 .6 2 1 2.9 1.1.3 0 .5.1.7 0 .3 0 .5-.1.8-.1.4-.1.9-.1 1.3-.1.3 0 .2-.6-.1-.9-.9-.8-1.8-1.7-2.7-2.6-.6-.6-1.1-1.2-1.7-1.9-.5-.6-1-1.2-1.4-1.8l-.1-.1c.7-.3 1.2-.7 1.7-1.3.4-.5.7-1.1.9-1.7.2-.6.4-1.2.7-1.9.2-.6.4-1.3.7-1.9.1-.1.1-.3.1-.4.1-.2-.1-.7-.4-.8h-.1c-1.1-.2-2.3-.4-3.4-.6-.5-.1-1-.2-1.5-.2s-1 0-1.4.1c-.6.1-1.2.4-1.7.7-.1.1-.2.1-.3.2 0-.1.1-.2.1-.4.2-.8.3-1.7.3-2.6 0-.7-.1-1.5-.2-2.3-.2-1.2-.6-2.5-1.1-3.8l-.1-.2c-.6-1.6-1.1-3.3-1.7-4.9-.1-.2-.2-.3-.3-.4-.1-.1-.3-.1-.3 0-.4.7-.9 1.5-1.3 2.2-.5.8-1 1.6-1.3 2.5-.4 1.1-.5 2.5-.4 4.1 0 .7.1 1.4.3 2.2-.2-.3-.4-.7-.6-1-.5-.9-1.1-1.7-1.8-2.4-.5-.6-1.1-1.2-1.6-1.7-.7-.6-1.3-1.3-2-1.9-.7-.7-1.4-1.4-2.2-2.1l-.1-.1c-.2-.1-.5 0-.4.4.4 1.5.7 3 1.1 4.6.2.7.3 1.5.6 2.2.3.9.6 1.8 1 2.8.3.7.6 1.3 1 2-.3 0-.6 0-.9.1h-1.6c-1.1-.1-2.2-.3-3.3-.6-.3-.1-.4.4-.1.8.6-.2 1 .2 1.3.6z"/><path class="st6" d="M360 338.9l68.3-38-.1-204.6-68.4 38z"/><path class="st7" d="M428.2 96.3l-66.9-37.4-68.4 38 66.9 37.4z"/><path class="st2" d="M168.2 343.7l.1 45.7 37 20.7-.1-45.7z"/><path class="st3" d="M205.2 364.4l.1 45.7 27.9-15.5-28-15.6z"/><path class="st4" d="M205.2 364.4v-41.2l-37 20.5z"/><path class="st2" d="M432.7 579.8l-.1-45.7-37-20.7v.1l.1 45.6z"/><path class="st3" d="M432.6 534.1l.1 45.7 37.8-21-.1-43.9v-1.8z"/><path class="st4" d="M395.6 513.4l37 20.7 37.8-21-37-20.7z"/><path class="st2" d="M278.4 645.9l-37-20.7.1 45.4v.3l37 20.7z"/><path class="st3" d="M278.4 645.9l.1 45.7 37.8-21v-.5l-.1-45.2z"/><path class="st4" d="M316.2 624.9l-37-20.7-37.8 21 37 20.7z"/><path class="st2" d="M242 535.9h.1l36.8 20.6h.1l-.1-45.7-37-20.6.1 28.5v.1z"/><path class="st3" d="M279 556.5l37.8-21-.1-45.7-37.8 21z"/><path class="st4" d="M316.7 489.8l-37-20.7-37.8 21.1 37 20.6z"/><path class="st2" d="M316.4 469.8l-.1-45.7-37-20.7.1 45.7 7 3.9.5.3z"/><path class="st3" d="M316.4 469.8l36.9-20.6.5-.2.4-.3-.1-45.7-37.8 21.1z"/><path class="st4" d="M354.1 403l-37-20.7-37.8 21.1 37 20.7z"/><path class="st2" d="M205.2 379l28 15.6 9.1 5.1-.1-72.7-37-20.7v58.1z"/><path class="st3" d="M242.3 399.7l37.8-21-.1-72.7-37.8 21z"/><path class="st4" d="M280 306l-37-20.7-37.8 21 37 20.7z"/><path class="st2" d="M358.5 492.8l37.1 20.7-.1-45.7-37-20.7v5z"/><path class="st4" d="M414.5 457.2l-19-10.6v-20.1l-37 20.6 37 20.7z"/><path class="st2" d="M414.5 457.2l18 10.1-.1-92-37-20.7.1 71.9v20.1z"/><path class="st3" d="M432.5 467.3l-18-10.1-19 10.6.1 45.7v-.1l37.8-21-.1-25.6 37.1-20.5-.1-92.1-37.9 21.1z"/><path class="st4" d="M470.3 354.2l-37.1-20.7-37.8 21.1 37 20.7z"/><path class="st1" d="M67.2 333h.5v239.8h-.5z"/><path class="st8" d="M326.2 205.2l17.6-10c9.7-5.5 9.8-23.6.1-40.3-4.8-8.4-11.2-14.8-17.5-18.5-6.3-3.7-12.7-4.5-17.5-1.8-9.7 5.5-9.8 23.6-.1 40.3l17.4 30.3zm-13.6-39.4c1.1.3 2.2.5 3.3.6h1.6c.3 0 .6 0 .9-.1-.4-.6-.7-1.3-1-2-.4-.9-.7-1.8-1-2.8-.2-.7-.4-1.5-.6-2.2-.4-1.5-.7-3-1.1-4.6-.1-.3.1-.5.4-.4 0 0 .1 0 .1.1.7.7 1.4 1.4 2.2 2.1.7.6 1.3 1.3 2 1.9.6.5 1.1 1.1 1.6 1.7.6.7 1.2 1.6 1.8 2.4.2.3.4.7.6 1-.1-.8-.2-1.5-.3-2.2-.1-1.5 0-2.9.4-4.1.3-.9.9-1.7 1.3-2.5.4-.7.8-1.5 1.3-2.2.1-.1.2-.1.3 0 .1.1.3.2.3.4.6 1.6 1.1 3.2 1.7 4.9l.1.2c.4 1.3.9 2.5 1.1 3.8.1.8.2 1.6.2 2.3 0 .9-.1 1.8-.3 2.6 0 .1-.1.2-.1.4.1-.1.2-.1.3-.2.5-.3 1.1-.6 1.7-.7.5-.1.9-.1 1.4-.1.5 0 1 .1 1.5.2 1.1.2 2.3.4 3.4.6h.1c.2.1.5.6.4.8-.1.1-.1.3-.1.4-.2.6-.4 1.3-.7 1.9-.2.6-.4 1.3-.7 1.9-.2.6-.5 1.2-.9 1.7-.5.6-1 1-1.7 1.3l.1.1c.5.6 1 1.2 1.4 1.8.6.7 1.1 1.3 1.7 1.9.9.9 1.8 1.7 2.7 2.6.3.3.4.9.1.9-.4 0-.9.1-1.3.1-.3 0-.5.1-.8.1h-.7c-.9-.1-1.9-.5-2.9-1.1-.5-.3-1-.6-1.4-.9-.7-.5-1.4-1.1-1.9-1.9l-.2-.3c.1.3.1.7.2 1 .2.8.3 1.7.5 2.5.1.4-.2.5-.5.4-.1 0-.2-.1-.2-.2-.5-.5-1-1.1-1.5-1.6-.2-.3-.5-.6-.7-.9-.3-.4-.6-.9-.9-1.3-.6-1.2-1.1-2.4-1.3-3.6v-.2c-.2.7-.4 1.3-.8 1.7-.4.5-1 .8-1.8.8-.6 0-1.3-.1-1.9-.2-.1 0-.2 0-.3-.1-.1-.1-.3-.2-.3-.4-.1-.2-.2-.4-.1-.6.2-.7.3-1.3.5-2 .1-.3.1-.5.2-.7-.2 0-.4.1-.6 0-.8-.1-1.6-.4-2.4-.8-.2-.1-.4-.2-.5-.3-1.2-.7-2.4-1.6-3.4-2.8-.2-.2-.4-.4-.5-.7-.3-.4-.5-.7-.8-1-.3-.4-.7-.9-1-1.3-.6.3-.6-.2-.2-.1z"/></svg>