<?xml version="1.0" encoding="utf-8"?>
<!-- Generator: Adobe Illustrator 21.1.0, SVG Export Plug-In . SVG Version: 6.00 Build 0)  -->
<svg version="1.1" id="Layer_1" xmlns="http://www.w3.org/2000/svg" xmlns:xlink="http://www.w3.org/1999/xlink" x="0px" y="0px"
	 viewBox="0 0 847.5 1688.5" style="enable-background:new 0 0 847.5 1688.5;" xml:space="preserve">
<style type="text/css">
	.st0{fill:#FFFFFF;}
	.st1{fill:#E0E0E0;}
	.st2{clip-path:url(#SVGID_2_);fill:#907BA2;}
	.st3{clip-path:url(#SVGID_2_);fill:#8C77A0;}
	.st4{clip-path:url(#SVGID_2_);fill:#88749E;}
	.st5{clip-path:url(#SVGID_2_);fill:#84719C;}
	.st6{clip-path:url(#SVGID_2_);fill:#816E9A;}
	.st7{clip-path:url(#SVGID_2_);fill:#7E6C98;}
	.st8{clip-path:url(#SVGID_2_);fill:#7B6A97;}
	.st9{clip-path:url(#SVGID_2_);fill:#786795;}
	.st10{clip-path:url(#SVGID_2_);fill:#766594;}
	.st11{clip-path:url(#SVGID_2_);fill:#746493;}
	.st12{clip-path:url(#SVGID_2_);fill:#726292;}
	.st13{clip-path:url(#SVGID_2_);fill:#706191;}
	.st14{clip-path:url(#SVGID_2_);fill:#6E5F90;}
	.st15{clip-path:url(#SVGID_2_);fill:#6D5E8F;}
	.st16{clip-path:url(#SVGID_2_);fill:#6B5D8F;}
	.st17{clip-path:url(#SVGID_2_);fill:#6A5C8E;}
	.st18{clip-path:url(#SVGID_2_);fill:#695B8D;}
	.st19{clip-path:url(#SVGID_2_);fill:#685A8D;}
	.st20{clip-path:url(#SVGID_2_);fill:#685A8C;}
	.st21{clip-path:url(#SVGID_2_);fill:#67598C;}
	.st22{clip-path:url(#SVGID_2_);fill:#66598C;}
	.st23{clip-path:url(#SVGID_2_);fill:#66588B;}
	.st24{clip-path:url(#SVGID_2_);fill:#65588B;}
	.st25{clip-path:url(#SVGID_2_);fill:#65578B;}
	.st26{clip-path:url(#SVGID_2_);fill:#64578B;}
	.st27{clip-path:url(#SVGID_2_);fill:#64578A;}
	.st28{clip-path:url(#SVGID_2_);fill:#64568A;}
	.st29{clip-path:url(#SVGID_2_);fill:#63568A;}
	.st30{clip-path:url(#SVGID_4_);}
	.st31{clip-path:url(#SVGID_6_);}
	.st32{fill:#E3D4E8;}
	.st33{clip-path:url(#SVGID_8_);}
	.st34{clip-path:url(#SVGID_10_);}
	.st35{clip-path:url(#SVGID_12_);}
	.st36{clip-path:url(#SVGID_14_);}
	.st37{clip-path:url(#SVGID_16_);}
	.st38{clip-path:url(#SVGID_18_);}
	.st39{clip-path:url(#SVGID_20_);}
	.st40{fill:#C7CFE9;}
	.st41{fill:#C6BCCB;}
	.st42{fill:#63568A;}
	.st43{fill:#DCD6E5;}
	.st44{fill:none;}
</style>
<g>
	<g>
		<g id="phone">
			<g id="Rectangle_1_copy_5">
				<g>
					<path class="st0" d="M147.5,1685.5c-72.8,0-131.9-59.2-131.9-131.9V134.9C15.5,62.2,74.7,3,147.5,3h552.6
						c72.8,0,132,59.2,132,131.9v1418.7c0,72.8-59.2,131.9-132,131.9H147.5z"/>
					<path class="st1" d="M700.1,5.9c71.2,0,129,57.7,129,129v1418.7c0,71.2-57.7,129-129,129H147.5c-71.2,0-129-57.7-129-129V134.9
						c0-71.2,57.7-129,129-129L700.1,5.9 M700.1,0H147.5c-74.4,0-135,60.5-135,134.9v1418.7c0,74.4,60.5,134.9,134.9,134.9H700
						c74.4,0,134.9-60.5,134.9-134.9V134.9C835,60.5,774.5,0,700.1,0L700.1,0z"/>
				</g>
			</g>
			<g id="Ellipse_2_2_">
				<g>
					<path class="st0" d="M424.7,1656.1c-32.4,0-58.7-26.4-58.7-58.8s26.4-58.7,58.7-58.7c32.4,0,58.8,26.4,58.8,58.7
						S457.1,1656.1,424.7,1656.1z"/>
				</g>
				<g>
					<path class="st1" d="M424.7,1541.6c30.8,0,55.8,25,55.8,55.8s-25,55.8-55.8,55.8s-55.8-25-55.8-55.8
						C368.9,1566.6,393.9,1541.6,424.7,1541.6 M424.7,1535.6c-34.1,0-61.7,27.6-61.7,61.7s27.6,61.7,61.7,61.7s61.7-27.6,61.7-61.7
						C486.4,1563.3,458.8,1535.6,424.7,1535.6L424.7,1535.6z"/>
				</g>
			</g>
			<g id="Rectangle_4_copy_2">
				<path class="st1" d="M3.7,500.4c-2,0-3.7,1.6-3.7,3.7v98.8c0,2,1.6,3.7,3.7,3.7h5.5V500.4H3.7z"/>
			</g>
			<g id="Rectangle_4_copy_2_">
				<path class="st1" d="M3.7,369.8c-2,0-3.7,1.6-3.7,3.7v98.8c0,2,1.6,3.7,3.7,3.7h5.5V369.8H3.7z"/>
			</g>
			<g id="Rectangle_4">
				<path class="st1" d="M3.7,247.3c-2,0-3.7,1.6-3.7,3.7v53.9c0,2,1.6,3.7,3.7,3.7h5.5v-61.2H3.7V247.3z"/>
			</g>
			<g id="Rectangle_4_copy_4_2_">
				<path class="st1" d="M843.9,369.8h-5.5V476h5.5c2,0,3.7-1.6,3.7-3.7v-98.8C847.5,371.4,845.9,369.8,843.9,369.8z"/>
			</g>
			<g id="Rectangle_2">
				<path class="st1" d="M486.6,90.3H361c-3.7,0-6.7,3-6.7,6.7v1.5c0,3.7,3,6.7,6.7,6.7h125.6c3.7,0,6.7-3,6.7-6.7V97
					C493.3,93.3,490.3,90.3,486.6,90.3z"/>
			</g>
			<g id="Ellipse_1_2_">
				<circle class="st1" cx="289.3" cy="97.8" r="14.6"/>
			</g>
			<g id="Ellipse_1_copy">
				<circle class="st1" cx="423.8" cy="35.4" r="9.8"/>
			</g>
		</g>
		<g>
			<g>
				<g>
					<g>
						<defs>
							<rect id="SVGID_1_" x="46.1" y="181.9" width="751.9" height="1334.7"/>
						</defs>
						<clipPath id="SVGID_2_">
							<use xlink:href="#SVGID_1_"  style="overflow:visible;"/>
						</clipPath>
						<path class="st2" d="M798,181.9H46.1H798z"/>
						<rect x="46.1" y="181.9" class="st2" width="751.9" height="29.7"/>
						<rect x="46.1" y="211.6" class="st3" width="751.9" height="29.7"/>
						<rect x="46.1" y="241.2" class="st4" width="751.9" height="29.7"/>
						<rect x="46.1" y="270.9" class="st5" width="751.9" height="29.7"/>
						<rect x="46.1" y="300.5" class="st6" width="751.9" height="29.7"/>
						<rect x="46.1" y="330.2" class="st7" width="751.9" height="29.7"/>
						<rect x="46.1" y="359.9" class="st8" width="751.9" height="29.7"/>
						<rect x="46.1" y="389.5" class="st9" width="751.9" height="29.7"/>
						<rect x="46.1" y="419.2" class="st10" width="751.9" height="29.7"/>
						<rect x="46.1" y="448.8" class="st11" width="751.9" height="29.7"/>
						<rect x="46.1" y="478.5" class="st12" width="751.9" height="29.7"/>
						<rect x="46.1" y="508.2" class="st13" width="751.9" height="29.7"/>
						<rect x="46.1" y="537.8" class="st14" width="751.9" height="29.7"/>
						<rect x="46.1" y="567.5" class="st15" width="751.9" height="29.7"/>
						<rect x="46.1" y="597.1" class="st16" width="751.9" height="29.7"/>
						<rect x="46.1" y="626.8" class="st17" width="751.9" height="29.7"/>
						<rect x="46.1" y="656.5" class="st18" width="751.9" height="29.7"/>
						<rect x="46.1" y="686.1" class="st19" width="751.9" height="29.7"/>
						<rect x="46.1" y="715.8" class="st20" width="751.9" height="29.7"/>
						<rect x="46.1" y="745.4" class="st21" width="751.9" height="29.7"/>
						<rect x="46.1" y="775.1" class="st22" width="751.9" height="29.7"/>
						<rect x="46.1" y="804.8" class="st23" width="751.9" height="29.7"/>
						<rect x="46.1" y="834.4" class="st24" width="751.9" height="29.7"/>
						<rect x="46.1" y="864.1" class="st25" width="751.9" height="29.7"/>
						<rect x="46.1" y="893.7" class="st26" width="751.9" height="29.7"/>
						<rect x="46.1" y="923.4" class="st26" width="751.9" height="29.7"/>
						<rect x="46.1" y="953.1" class="st27" width="751.9" height="29.7"/>
						<rect x="46.1" y="982.7" class="st27" width="751.9" height="29.7"/>
						<rect x="46.1" y="1012.4" class="st28" width="751.9" height="29.7"/>
						<rect x="46.1" y="1042" class="st29" width="751.9" height="29.7"/>
						<rect x="46.1" y="1071.7" class="st29" width="751.9" height="29.7"/>
						<rect x="46.1" y="1101.4" class="st29" width="751.9" height="29.7"/>
						<rect x="46.1" y="1131" class="st29" width="751.9" height="29.7"/>
						<rect x="46.1" y="1160.7" class="st29" width="751.9" height="29.7"/>
						<rect x="46.1" y="1190.3" class="st29" width="751.9" height="29.7"/>
						<rect x="46.1" y="1220" class="st29" width="751.9" height="29.7"/>
						<rect x="46.1" y="1249.7" class="st29" width="751.9" height="29.7"/>
						<rect x="46.1" y="1279.3" class="st29" width="751.9" height="29.7"/>
						<rect x="46.1" y="1309" class="st29" width="751.9" height="29.7"/>
						<rect x="46.1" y="1338.6" class="st29" width="751.9" height="29.7"/>
						<rect x="46.1" y="1368.3" class="st29" width="751.9" height="29.7"/>
						<rect x="46.1" y="1398" class="st29" width="751.9" height="29.7"/>
						<rect x="46.1" y="1427.6" class="st29" width="751.9" height="29.7"/>
						<rect x="46.1" y="1457.3" class="st29" width="751.9" height="29.7"/>
						<rect x="46.1" y="1486.9" class="st29" width="751.9" height="29.7"/>
						<path class="st29" d="M46.1,1516.6H798H46.1z"/>
					</g>
				</g>
			</g>
			<g>
				<g>
					<defs>
						<path id="SVGID_3_" d="M444,434.4c0-2.9,2.4-5.3,5.3-5.3c2.9,0,5.3,2.4,5.3,5.3c0,2.9-2.4,5.3-5.3,5.3
							C446.3,439.7,444,437.3,444,434.4z M474.7,397.6v73.6h-79.8c-14,0-25.4-11.4-25.4-25.4v-79.8h48.7c14,0,25,11.4,25,25.4v6.1
							H474.7z M380,397.6h52.6v-6.1c0-8.2-7.1-14.9-15.3-14.9h-0.4H380V397.6z M464.2,408.1h-21H380v37.7c0,8.2,6.7,14.9,14.9,14.9
							h69.3V408.1z"/>
					</defs>
					<use xlink:href="#SVGID_3_"  style="overflow:visible;fill-rule:evenodd;clip-rule:evenodd;fill:#E3D4E8;"/>
					<clipPath id="SVGID_4_">
						<use xlink:href="#SVGID_3_"  style="overflow:visible;"/>
					</clipPath>
					<g class="st30">
						<defs>
							<rect id="SVGID_5_" x="-787.8" y="-580.8" width="2209.4" height="3892.8"/>
						</defs>
						<use xlink:href="#SVGID_5_"  style="overflow:visible;fill:#E3D4E8;"/>
						<clipPath id="SVGID_6_">
							<use xlink:href="#SVGID_5_"  style="overflow:visible;"/>
						</clipPath>
						<g class="st31">
							<g>
								<rect x="343.2" y="339.8" class="st32" width="157.8" height="157.8"/>
							</g>
						</g>
					</g>
				</g>
				<g>
					<defs>
						<rect id="SVGID_7_" x="81.6" y="207.4" width="681" height="38.6"/>
					</defs>
					<clipPath id="SVGID_8_">
						<use xlink:href="#SVGID_7_"  style="overflow:visible;"/>
					</clipPath>
					<g class="st33">
						<path class="st0" d="M625.9,236.5c0-1.6,0-3,0-4.3s0-2.6,0-4s0-2.7,0-4c0-1.3,0-2.7,0-4.3h-0.2c-1,0.7-1.8,1.3-2.4,1.8
							c-0.6,0.5-1.5,1.1-2.4,1.8v-2.5c1-0.7,1.9-1.3,2.6-1.8c0.7-0.5,1.5-1.1,2.6-1.8h2.4v19.2H625.9z"/>
						<path class="st0" d="M635.5,234.3c-1.2-1.8-1.8-4.2-1.8-7.4c0-3.2,0.6-5.6,1.8-7.4s2.9-2.6,5-2.6c2.1,0,3.8,0.9,5,2.7
							c1.2,1.8,1.8,4.2,1.8,7.4c0,3.2-0.6,5.6-1.8,7.4c-1.2,1.7-2.9,2.6-5,2.6C638.3,236.9,636.7,236,635.5,234.3z M643.8,232.8
							c0.8-1.4,1.1-3.3,1.1-5.9c0-2.5-0.4-4.5-1.1-5.9c-0.8-1.4-1.8-2.1-3.2-2.1c-1.4,0-2.5,0.7-3.3,2.1c-0.8,1.4-1.2,3.3-1.2,5.9
							c0,2.6,0.4,4.5,1.1,5.9s1.8,2.1,3.3,2.1C641.9,234.8,643,234.1,643.8,232.8z"/>
						<path class="st0" d="M652.6,234.3c-1.2-1.8-1.8-4.2-1.8-7.4c0-3.2,0.6-5.6,1.8-7.4s2.9-2.6,5-2.6c2.1,0,3.8,0.9,5,2.7
							c1.2,1.8,1.8,4.2,1.8,7.4c0,3.2-0.6,5.6-1.8,7.4c-1.2,1.7-2.9,2.6-5,2.6C655.5,236.9,653.8,236,652.6,234.3z M660.9,232.8
							c0.8-1.4,1.1-3.3,1.1-5.9c0-2.5-0.4-4.5-1.1-5.9c-0.8-1.4-1.8-2.1-3.2-2.1c-1.4,0-2.5,0.7-3.3,2.1c-0.8,1.4-1.2,3.3-1.2,5.9
							c0,2.6,0.4,4.5,1.1,5.9s1.8,2.1,3.3,2.1C659.1,234.8,660.2,234.1,660.9,232.8z"/>
						<path class="st0" d="M674.3,224.9c-0.8,0.9-1.7,1.3-2.9,1.3c-1.2,0-2.2-0.4-2.9-1.3c-0.8-0.9-1.2-2-1.2-3.3
							c0-1.3,0.4-2.5,1.2-3.3c0.8-0.9,1.7-1.3,2.9-1.3c1.2,0,2.2,0.4,2.9,1.3c0.8,0.9,1.1,2,1.1,3.3
							C675.5,222.9,675.1,224,674.3,224.9z M671.2,236.5c-0.5,0-0.9,0-1.2,0s-0.7,0-1.2,0l7.3-10l6.7-9.2h2.4l-7.4,10.2L671.2,236.5
							z M672.8,223.7c0.4-0.5,0.5-1.2,0.5-2.1c0-0.9-0.2-1.6-0.5-2.1c-0.4-0.5-0.8-0.8-1.4-0.8c-0.6,0-1.1,0.3-1.4,0.8
							c-0.4,0.5-0.5,1.2-0.5,2.1c0,0.9,0.2,1.6,0.5,2.1c0.4,0.5,0.8,0.8,1.4,0.8C672,224.5,672.4,224.2,672.8,223.7z M685.4,235.5
							c-0.8,0.9-1.7,1.3-2.9,1.3s-2.2-0.4-2.9-1.3c-0.8-0.9-1.2-2-1.2-3.3c0-1.3,0.4-2.5,1.2-3.3c0.8-0.9,1.7-1.3,2.9-1.3
							s2.2,0.4,2.9,1.3c0.8,0.9,1.1,2,1.1,3.3S686.2,234.6,685.4,235.5z M683.9,234.3c0.4-0.5,0.5-1.2,0.5-2.1
							c0-0.9-0.2-1.6-0.5-2.1c-0.4-0.5-0.8-0.8-1.4-0.8c-0.6,0-1.1,0.3-1.4,0.8c-0.4,0.5-0.5,1.2-0.5,2.1s0.2,1.6,0.5,2.1
							c0.4,0.5,0.8,0.8,1.4,0.8C683.1,235.1,683.5,234.8,683.9,234.3z"/>
					</g>
					<g class="st33">
						<path class="st0" d="M373.4,237.7c-1.1-0.9-1.8-2.1-2.2-3.7h2.5c0.3,0.9,0.7,1.6,1.4,2.1s1.5,0.8,2.4,0.8c1.6,0,2.8-0.7,3.6-2
							c0.9-1.3,1.3-3.3,1.4-5.9h-0.1h-0.1h-0.1c-0.5,0.9-1.2,1.7-2,2.2s-1.9,0.8-3.1,0.8c-1.8,0-3.3-0.6-4.5-1.8
							c-1.2-1.2-1.8-2.7-1.8-4.6c0-1.9,0.6-3.5,1.9-4.8s2.9-1.9,4.8-1.9c3,0,5.1,1.5,6.3,4.4c0.6,1.5,0.9,3.2,0.9,5.3
							c0,3.3-0.6,5.9-1.9,7.7c-1.3,1.8-3.1,2.7-5.5,2.7C375.9,239,374.6,238.6,373.4,237.7z M380.9,228.7c0.8-0.8,1.2-1.9,1.2-3.1
							c0-1.3-0.4-2.4-1.2-3.2c-0.8-0.9-1.9-1.3-3.1-1.3c-1.2,0-2.3,0.4-3.1,1.3c-0.8,0.8-1.2,1.9-1.2,3.2c0,1.3,0.4,2.4,1.2,3.2
							c0.8,0.8,1.8,1.2,3.1,1.2S380,229.5,380.9,228.7z"/>
						<path class="st0" d="M389.5,228c-0.3-0.3-0.5-0.7-0.5-1.2c0-0.5,0.2-0.9,0.5-1.2s0.7-0.5,1.2-0.5c0.5,0,0.9,0.2,1.2,0.5
							s0.5,0.7,0.5,1.2c0,0.5-0.2,0.9-0.5,1.2s-0.7,0.5-1.2,0.5C390.2,228.5,389.8,228.3,389.5,228z M389.5,238.2
							c-0.3-0.3-0.5-0.7-0.5-1.2c0-0.5,0.2-0.9,0.5-1.2c0.3-0.3,0.7-0.5,1.2-0.5c0.5,0,0.9,0.2,1.2,0.5c0.3,0.3,0.5,0.7,0.5,1.2
							c0,0.5-0.2,0.9-0.5,1.2s-0.7,0.5-1.2,0.5C390.2,238.7,389.8,238.5,389.5,238.2z"/>
						<path class="st0" d="M405.6,238.6c0-0.8,0-1.5,0-2s0-1.2,0-2h-9.4v-2.2c0.4-0.8,0.9-1.6,1.5-2.6c0.6-1,1.2-2,1.9-3.1
							c0.7-1.1,1.5-2.3,2.3-3.5c0.8-1.2,1.6-2.5,2.5-3.8h3.5v13.1h2.7v2.1H408v4H405.6z M398.7,232.3v0.2h6.9v-10.9h-0.2
							c-0.5,0.7-1,1.5-1.6,2.3s-1.1,1.7-1.7,2.6c-0.6,0.9-1.2,1.9-1.8,2.8C399.9,230.4,399.3,231.3,398.7,232.3z"/>
						<path class="st0" d="M419,238.6c0-1.6,0-3,0-4.3s0-2.6,0-4s0-2.7,0-4c0-1.3,0-2.7,0-4.3h-0.2c-1,0.7-1.8,1.3-2.4,1.8
							c-0.6,0.5-1.5,1.1-2.4,1.8v-2.5c1-0.7,1.9-1.3,2.6-1.8c0.7-0.5,1.5-1.1,2.6-1.8h2.4v19.2H419z"/>
						<path class="st0" d="M447.6,238.6c-0.4-1.1-0.7-2-1-2.7s-0.6-1.6-1-2.7H438l-1.9,5.5h-2.5l7.1-19.2h2.4l7.1,19.2H447.6z
							 M441.7,222.5c-0.4,1.2-0.8,2.2-1.1,3s-0.6,1.7-0.9,2.6c-0.3,0.9-0.7,1.9-1.1,3h6.2l-3-8.6H441.7z"/>
						<path class="st0" d="M472.4,238.6c-0.5,0-0.8,0-1.1,0s-0.7,0-1.1,0v-14.7H470l-6.1,14.5h-2l-6.1-14.5h-0.2v14.7h-2.2v-19.2
							h2.8l6.6,15.9h0.2l6.6-15.9h2.8V238.6z"/>
					</g>
				</g>
				<g>
					<defs>
						<path id="SVGID_9_" d="M228,223.7l-2.5,2.4c-3.1-3.2-7.5-5.2-12.3-5.2c-4.8,0-9.2,2-12.3,5.1l-2.5-2.4
							c3.7-3.8,8.9-6.1,14.7-6.1C219,217.6,224.3,219.9,228,223.7z M223.1,228.5L223.1,228.5l-2.5,2.4c-1.8-2-4.4-3.2-7.4-3.2
							c-2.9,0-5.5,1.2-7.3,3.1l-2.5-2.4c2.4-2.5,5.9-4.1,9.8-4.1C217.1,224.4,220.6,226,223.1,228.5z M218.1,233.3l-4.8,4.7
							l-4.9-4.8c1.2-1.3,2.9-2.1,4.8-2.1C215.2,231.1,216.9,232,218.1,233.3z"/>
					</defs>
					<clipPath id="SVGID_10_">
						<use xlink:href="#SVGID_9_"  style="overflow:visible;"/>
					</clipPath>
					<g class="st34">
						<defs>
							<rect id="SVGID_11_" x="81.6" y="207.4" width="681" height="38.6"/>
						</defs>
						<clipPath id="SVGID_12_">
							<use xlink:href="#SVGID_11_"  style="overflow:visible;"/>
						</clipPath>
						<g class="st35">
							<rect x="187.1" y="206.2" class="st0" width="52.2" height="43.1"/>
						</g>
					</g>
				</g>
				<g>
					<defs>
						<path id="SVGID_13_" d="M166.1,234.6c-3.4,0-6.2-2.8-6.2-6.2c0-3.4,2.8-6.2,6.2-6.2s6.2,2.8,6.2,6.2
							C172.4,231.8,169.6,234.6,166.1,234.6z M150.3,234.6c-3.4,0-6.2-2.8-6.2-6.2c0-3.4,2.8-6.2,6.2-6.2c3.4,0,6.2,2.8,6.2,6.2
							C156.5,231.8,153.7,234.6,150.3,234.6z M134.4,234.6c-3.4,0-6.2-2.8-6.2-6.2c0-3.4,2.8-6.2,6.2-6.2s6.2,2.8,6.2,6.2
							C140.6,231.8,137.8,234.6,134.4,234.6z M118.5,234.6c-3.4,0-6.2-2.8-6.2-6.2c0-3.4,2.8-6.2,6.2-6.2s6.2,2.8,6.2,6.2
							C124.7,231.8,121.9,234.6,118.5,234.6z M102.6,234.6c-3.4,0-6.2-2.8-6.2-6.2c0-3.4,2.8-6.2,6.2-6.2s6.2,2.8,6.2,6.2
							C108.8,231.8,106,234.6,102.6,234.6z"/>
					</defs>
					<clipPath id="SVGID_14_">
						<use xlink:href="#SVGID_13_"  style="overflow:visible;"/>
					</clipPath>
					<g class="st36">
						<defs>
							<rect id="SVGID_15_" x="81.6" y="207.4" width="681" height="38.6"/>
						</defs>
						<clipPath id="SVGID_16_">
							<use xlink:href="#SVGID_15_"  style="overflow:visible;"/>
						</clipPath>
						<g class="st37">
							<rect x="85" y="210.8" class="st0" width="98.7" height="35.2"/>
						</g>
					</g>
				</g>
				<g>
					<defs>
						<polygon id="SVGID_17_" points="114.4,331.9 118.9,327 108.6,316.5 160.2,316.5 160.2,310.3 108.6,310.3 118.9,300.9 
							114.4,296.8 96.3,313.5 						"/>
					</defs>
					<use xlink:href="#SVGID_17_"  style="overflow:visible;fill-rule:evenodd;clip-rule:evenodd;fill:#E3D4E8;"/>
					<clipPath id="SVGID_18_">
						<use xlink:href="#SVGID_17_"  style="overflow:visible;"/>
					</clipPath>
					<g class="st38">
						<defs>
							<rect id="SVGID_19_" x="-605.9" y="-290.5" width="1340.6" height="2106.6"/>
						</defs>
						<use xlink:href="#SVGID_19_"  style="overflow:visible;fill:#E3D4E8;"/>
						<clipPath id="SVGID_20_">
							<use xlink:href="#SVGID_19_"  style="overflow:visible;"/>
						</clipPath>
						<g class="st39">
							<rect x="80.4" y="280.8" class="st32" width="95.8" height="67"/>
						</g>
					</g>
				</g>
				<g>
					<path class="st40" d="M312.4,524.2h7.2c3.4,0,5.9,0.5,7.4,1.5c1.5,1,2.3,2.6,2.3,4.8c0,1.5-0.4,2.8-1.3,3.8s-2.1,1.6-3.7,1.9
						v0.2c3.9,0.7,5.8,2.7,5.8,6.1c0,2.3-0.8,4.1-2.3,5.4c-1.5,1.3-3.7,1.9-6.5,1.9h-8.9V524.2z M315.4,535.2h4.9
						c2.1,0,3.6-0.3,4.5-1c0.9-0.7,1.4-1.8,1.4-3.3c0-1.4-0.5-2.5-1.5-3.1c-1-0.6-2.7-1-4.9-1h-4.4V535.2z M315.4,537.7v9.6h5.3
						c2.1,0,3.6-0.4,4.7-1.2c1-0.8,1.6-2.1,1.6-3.8c0-1.6-0.5-2.8-1.6-3.5c-1.1-0.7-2.7-1.1-4.9-1.1H315.4z"/>
					<path class="st40" d="M356.1,549.8l-3.2-8.2h-10.3l-3.2,8.2h-3l10.1-25.7h2.5l10.1,25.7H356.1z M351.9,539l-3-7.9
						c-0.4-1-0.8-2.2-1.2-3.7c-0.3,1.1-0.6,2.4-1.1,3.7l-3,7.9H351.9z"/>
					<path class="st40" d="M387,549.8h-3.4l-14-21.5h-0.1c0.2,2.5,0.3,4.8,0.3,6.9v14.6H367v-25.6h3.4l14,21.4h0.1
						c0-0.3-0.1-1.3-0.2-3c-0.1-1.7-0.1-2.9-0.1-3.7v-14.7h2.8V549.8z"/>
					<path class="st40" d="M416.9,549.8h-3.5l-9.3-12.4l-2.7,2.4v10h-3v-25.6h3v12.7l11.6-12.7h3.5l-10.3,11.1L416.9,549.8z"/>
					<path class="st40" d="M438.4,549.8v-25.6h3v25.6H438.4z"/>
					<path class="st40" d="M472.7,549.8h-3.4l-14-21.5h-0.1c0.2,2.5,0.3,4.8,0.3,6.9v14.6h-2.8v-25.6h3.4l14,21.4h0.1
						c0-0.3-0.1-1.3-0.2-3c-0.1-1.7-0.1-2.9-0.1-3.7v-14.7h2.8V549.8z"/>
					<path class="st40" d="M487,549.8h-3v-25.6h14.3v2.6H487v9.4h10.6v2.6H487V549.8z"/>
					<path class="st40" d="M529.1,537c0,4.1-1,7.3-3.1,9.7c-2.1,2.3-5,3.5-8.7,3.5c-3.8,0-6.7-1.2-8.7-3.5c-2.1-2.3-3.1-5.6-3.1-9.8
						c0-4.2,1-7.4,3.1-9.7c2.1-2.3,5-3.4,8.8-3.4c3.7,0,6.6,1.2,8.6,3.5C528.1,529.6,529.1,532.8,529.1,537z M508.7,537
						c0,3.5,0.7,6.1,2.2,7.9c1.5,1.8,3.6,2.7,6.4,2.7c2.8,0,5-0.9,6.4-2.7c1.4-1.8,2.2-4.4,2.2-7.9c0-3.4-0.7-6.1-2.2-7.8
						s-3.6-2.7-6.4-2.7c-2.8,0-5,0.9-6.5,2.7C509.5,530.9,508.7,533.5,508.7,537z"/>
				</g>
				<g>
					<path class="st0" d="M142.8,650.4h2.5v20.5c0,2.8-0.8,5-2.4,6.6s-3.7,2.5-6.4,2.5c-2.8,0-5-0.7-6.5-2.2s-2.3-3.6-2.3-6.2h2.5
						c0,2.1,0.6,3.7,1.7,4.8s2.7,1.6,4.7,1.6c1.9,0,3.4-0.6,4.5-1.8c1.2-1.2,1.8-2.9,1.8-5V650.4z"/>
					<path class="st0" d="M159.1,667.7v11.9h-2.5v-29.2h9.9c3,0,5.4,0.8,7.2,2.3c1.8,1.5,2.6,3.7,2.6,6.4c0,2.7-0.8,4.9-2.5,6.3
						c-1.7,1.5-4.1,2.2-7.3,2.2H159.1z M159.1,665.6h7.5c2.4,0,4.2-0.6,5.5-1.7c1.3-1.1,1.9-2.7,1.9-4.8c0-2-0.6-3.6-1.9-4.8
						c-1.2-1.2-3-1.8-5.3-1.8h-7.6V665.6z"/>
					<path class="st0" d="M189.3,650.4l10.8,25.7l10.8-25.7h3.3v29.2h-2.5v-12.7l0.2-13L201,679.6h-1.9l-10.8-25.6l0.2,12.8v12.8
						H186v-29.2H189.3z"/>
					<path class="st0" d="M223.7,668.4c0-2.1,0.4-4,1.2-5.6s2-3,3.4-3.9s3.1-1.4,5-1.4c2.9,0,5.2,1,7,3s2.7,4.7,2.7,8v0.5
						c0,2.1-0.4,4-1.2,5.7c-0.8,1.7-1.9,3-3.4,3.9c-1.5,0.9-3.1,1.4-5,1.4c-2.9,0-5.2-1-7-3s-2.7-4.7-2.7-8V668.4z M226.1,669.1
						c0,2.6,0.7,4.7,2,6.4c1.3,1.7,3.1,2.5,5.3,2.5c2.2,0,3.9-0.8,5.3-2.5c1.3-1.7,2-3.9,2-6.6v-0.5c0-1.7-0.3-3.2-0.9-4.5
						c-0.6-1.4-1.5-2.4-2.6-3.2c-1.1-0.8-2.4-1.1-3.8-1.1c-2.1,0-3.9,0.8-5.2,2.5c-1.3,1.7-2,3.9-2,6.6V669.1z"/>
					<path class="st0" d="M262.2,659.9c-0.5-0.1-1-0.1-1.6-0.1c-1.5,0-2.8,0.4-3.8,1.3c-1,0.8-1.8,2-2.2,3.6v14.9h-2.4v-21.7h2.3
						l0,3.4c1.3-2.6,3.3-3.8,6.1-3.8c0.7,0,1.2,0.1,1.6,0.3L262.2,659.9z"/>
					<path class="st0" d="M269.1,668.5c0-3.4,0.8-6.1,2.3-8.1s3.5-3,6.1-3c3,0,5.2,1.2,6.7,3.5l0.1-3.1h2.2v21.2
						c0,2.8-0.8,5-2.3,6.6s-3.7,2.4-6.4,2.4c-1.5,0-2.9-0.3-4.3-1c-1.4-0.7-2.4-1.6-3.2-2.7l1.3-1.4c1.7,2.1,3.7,3.1,6.1,3.1
						c2,0,3.6-0.6,4.7-1.8c1.1-1.2,1.7-2.8,1.7-4.9v-2.7c-1.5,2.1-3.8,3.2-6.7,3.2c-2.5,0-4.5-1-6.1-3s-2.3-4.7-2.3-8.1V668.5z
						 M271.5,669c0,2.8,0.6,4.9,1.7,6.5c1.1,1.6,2.7,2.4,4.7,2.4c3,0,5-1.3,6.3-4v-10.1c-0.6-1.4-1.4-2.4-2.4-3.2
						c-1.1-0.7-2.3-1.1-3.8-1.1c-2,0-3.6,0.8-4.7,2.4C272.1,663.5,271.5,665.9,271.5,669z"/>
					<path class="st0" d="M310.6,679.6c-0.2-0.7-0.4-1.7-0.5-3c-0.8,1.1-1.9,1.9-3.2,2.5c-1.3,0.6-2.7,0.9-4.1,0.9
						c-2.1,0-3.8-0.6-5.1-1.7c-1.3-1.2-1.9-2.6-1.9-4.4c0-2.1,0.9-3.8,2.6-5c1.8-1.2,4.2-1.8,7.3-1.8h4.3v-2.5
						c0-1.5-0.5-2.8-1.4-3.7c-1-0.9-2.3-1.3-4.2-1.3c-1.7,0-3.1,0.4-4.1,1.3c-1.1,0.9-1.6,1.9-1.6,3.1l-2.4,0c0-1.7,0.8-3.2,2.4-4.5
						c1.6-1.3,3.6-1.9,5.9-1.9c2.4,0,4.3,0.6,5.7,1.8s2.1,2.9,2.2,5.1v10.3c0,2.1,0.2,3.7,0.7,4.7v0.2H310.6z M303.1,677.8
						c1.6,0,3-0.4,4.3-1.2c1.3-0.8,2.2-1.8,2.8-3.1v-4.8h-4.3c-2.4,0-4.3,0.5-5.6,1.3c-1.3,0.8-2,2-2,3.5c0,1.2,0.5,2.2,1.4,3
						C300.4,677.4,301.6,677.8,303.1,677.8z"/>
					<path class="st0" d="M325.3,657.9l0.1,3.7c0.8-1.3,1.8-2.4,3-3.1c1.2-0.7,2.6-1.1,4-1.1c2.3,0,4.1,0.7,5.2,2
						c1.1,1.3,1.7,3.3,1.7,5.9v14.2H337v-14.2c0-1.9-0.4-3.4-1.2-4.3c-0.8-0.9-2.1-1.4-3.9-1.4c-1.5,0-2.8,0.5-3.9,1.4
						c-1.1,0.9-2,2.2-2.5,3.8v14.8H323v-21.7H325.3z"/>
					<path class="st0" d="M384.9,670.5c-0.3,3.1-1.4,5.4-3.3,7.1s-4.3,2.4-7.4,2.4c-2.2,0-4.1-0.5-5.7-1.6c-1.7-1.1-2.9-2.6-3.9-4.6
						c-0.9-2-1.4-4.3-1.4-6.8v-3.8c0-2.6,0.5-4.9,1.4-6.9c0.9-2,2.2-3.5,3.9-4.6c1.7-1.1,3.7-1.6,5.9-1.6c3.1,0,5.6,0.8,7.4,2.5
						c1.8,1.7,2.9,4,3.2,7h-2.5c-0.6-5-3.3-7.4-8.1-7.4c-2.6,0-4.8,1-6.3,3c-1.6,2-2.4,4.7-2.4,8.2v3.6c0,3.4,0.8,6.1,2.3,8.1
						s3.6,3,6.2,3c2.6,0,4.5-0.6,5.8-1.9s2.1-3.1,2.4-5.6H384.9z"/>
					<path class="st0" d="M396.9,661.6c0.8-1.3,1.8-2.3,3-3c1.2-0.7,2.6-1.1,4-1.1c2.3,0,4.1,0.7,5.2,2c1.1,1.3,1.7,3.3,1.7,5.9
						v14.2h-2.4v-14.2c0-1.9-0.4-3.4-1.2-4.3c-0.8-0.9-2.1-1.4-3.9-1.4c-1.5,0-2.8,0.5-3.9,1.4c-1.1,0.9-2,2.2-2.5,3.8v14.8h-2.4
						v-30.8h2.4V661.6z"/>
					<path class="st0" d="M434.8,679.6c-0.2-0.7-0.4-1.7-0.5-3c-0.8,1.1-1.9,1.9-3.2,2.5c-1.3,0.6-2.7,0.9-4.1,0.9
						c-2.1,0-3.8-0.6-5.1-1.7c-1.3-1.2-1.9-2.6-1.9-4.4c0-2.1,0.9-3.8,2.6-5c1.8-1.2,4.2-1.8,7.3-1.8h4.3v-2.5
						c0-1.5-0.5-2.8-1.4-3.7c-1-0.9-2.3-1.3-4.2-1.3c-1.7,0-3.1,0.4-4.1,1.3c-1.1,0.9-1.6,1.9-1.6,3.1l-2.4,0c0-1.7,0.8-3.2,2.4-4.5
						c1.6-1.3,3.6-1.9,5.9-1.9c2.4,0,4.3,0.6,5.7,1.8c1.4,1.2,2.1,2.9,2.2,5.1v10.3c0,2.1,0.2,3.7,0.7,4.7v0.2H434.8z M427.3,677.8
						c1.6,0,3-0.4,4.3-1.2c1.3-0.8,2.2-1.8,2.8-3.1v-4.8H430c-2.4,0-4.3,0.5-5.6,1.3c-1.3,0.8-2,2-2,3.5c0,1.2,0.5,2.2,1.4,3
						C424.6,677.4,425.8,677.8,427.3,677.8z"/>
					<path class="st0" d="M460.2,674.1c0-1.2-0.5-2.1-1.4-2.9c-1-0.7-2.4-1.3-4.3-1.7s-3.4-0.9-4.5-1.4c-1.1-0.5-1.9-1.2-2.4-1.9
						c-0.5-0.8-0.8-1.7-0.8-2.8c0-1.7,0.7-3.1,2.1-4.2c1.4-1.1,3.3-1.7,5.5-1.7c2.4,0,4.4,0.6,5.8,1.8c1.5,1.2,2.2,2.8,2.2,4.7h-2.4
						c0-1.3-0.5-2.3-1.6-3.2c-1.1-0.8-2.4-1.3-4-1.3c-1.6,0-2.8,0.4-3.8,1.1c-1,0.7-1.4,1.6-1.4,2.7c0,1.1,0.4,1.9,1.2,2.5
						c0.8,0.6,2.2,1.1,4.3,1.6c2.1,0.5,3.7,1,4.7,1.6s1.8,1.2,2.3,2c0.5,0.8,0.8,1.7,0.8,2.9c0,1.8-0.7,3.3-2.2,4.4
						c-1.5,1.1-3.4,1.6-5.8,1.6c-2.5,0-4.6-0.6-6.1-1.8c-1.6-1.2-2.4-2.8-2.4-4.6h2.4c0.1,1.4,0.7,2.5,1.8,3.3s2.5,1.2,4.3,1.2
						c1.7,0,3-0.4,4-1.1C459.7,676.1,460.2,675.2,460.2,674.1z"/>
					<path class="st0" d="M480.5,680c-1.8,0-3.5-0.5-5-1.4c-1.5-0.9-2.6-2.2-3.5-3.8s-1.2-3.4-1.2-5.5v-0.9c0-2.1,0.4-4,1.2-5.6
						s1.9-3,3.4-3.9c1.4-1,3-1.4,4.7-1.4c2.6,0,4.7,0.9,6.3,2.7c1.5,1.8,2.3,4.3,2.3,7.4v1.3h-15.5v0.5c0,2.5,0.7,4.5,2.1,6.1
						c1.4,1.6,3.2,2.5,5.3,2.5c1.3,0,2.4-0.2,3.4-0.7c1-0.5,1.9-1.2,2.7-2.2l1.5,1.1C486.4,678.7,483.8,680,480.5,680z M480,659.5
						c-1.8,0-3.3,0.7-4.6,2c-1.2,1.3-2,3.1-2.3,5.3h13v-0.3c-0.1-2.1-0.7-3.8-1.8-5.1C483.3,660.2,481.9,659.5,480,659.5z"/>
					<path class="st0" d="M516.4,663.7c-1.2-1.4-2-2.7-2.5-3.8s-0.8-2.2-0.8-3.3c0-2,0.6-3.7,1.8-4.8c1.2-1.2,2.8-1.8,4.9-1.8
						c1.9,0,3.4,0.5,4.5,1.6c1.1,1.1,1.7,2.4,1.7,4.1c0,1.9-1.1,3.8-3.3,5.7l-3.2,2.5l8,9.3c1.2-2,1.8-4.2,1.8-6.7h2.2
						c0,3.3-0.9,6.1-2.6,8.4l4,4.6h-2.9l-2.5-2.9c-1.1,1-2.3,1.9-3.7,2.4c-1.4,0.6-2.8,0.9-4.4,0.9c-2.8,0-5-0.7-6.6-2.1
						c-1.6-1.4-2.4-3.3-2.4-5.7c0-1.4,0.4-2.8,1.3-4c0.8-1.3,2.3-2.7,4.4-4.3L516.4,663.7z M519.6,677.9c1.2,0,2.4-0.3,3.5-0.8
						c1.1-0.5,2.2-1.2,3.1-2.2l-8.2-9.5l-0.3-0.3l-0.9,0.7c-2.6,2.1-3.9,4.2-3.9,6.2c0,1.8,0.6,3.2,1.8,4.2S517.5,677.9,519.6,677.9
						z M515.5,656.5c0,1.6,0.9,3.6,2.7,5.8l2.6-2c0.9-0.6,1.6-1.3,2.1-2c0.5-0.7,0.8-1.6,0.8-2.6c0-1-0.4-1.9-1.1-2.6
						c-0.7-0.7-1.7-1.1-2.9-1.1c-1.3,0-2.4,0.4-3.1,1.3C515.9,654.1,515.5,655.2,515.5,656.5z"/>
					<path class="st0" d="M576.1,670.5c-0.3,3.1-1.4,5.4-3.3,7.1s-4.3,2.4-7.4,2.4c-2.2,0-4.1-0.5-5.7-1.6c-1.7-1.1-2.9-2.6-3.9-4.6
						s-1.4-4.3-1.4-6.8v-3.8c0-2.6,0.5-4.9,1.4-6.9c0.9-2,2.2-3.5,3.9-4.6c1.7-1.1,3.7-1.6,5.9-1.6c3.1,0,5.6,0.8,7.4,2.5
						c1.8,1.7,2.9,4,3.2,7h-2.5c-0.6-5-3.3-7.4-8.1-7.4c-2.6,0-4.8,1-6.3,3c-1.6,2-2.4,4.7-2.4,8.2v3.6c0,3.4,0.8,6.1,2.3,8.1
						c1.5,2,3.6,3,6.2,3c2.6,0,4.5-0.6,5.8-1.9s2.1-3.1,2.4-5.6H576.1z"/>
					<path class="st0" d="M584.3,668.4c0-2.1,0.4-4,1.2-5.6s2-3,3.4-3.9c1.5-0.9,3.1-1.4,5-1.4c2.9,0,5.2,1,7,3s2.7,4.7,2.7,8v0.5
						c0,2.1-0.4,4-1.2,5.7c-0.8,1.7-1.9,3-3.4,3.9c-1.5,0.9-3.1,1.4-5,1.4c-2.9,0-5.2-1-7-3c-1.8-2-2.7-4.7-2.7-8V668.4z
						 M586.7,669.1c0,2.6,0.7,4.7,2,6.4c1.3,1.7,3.1,2.5,5.3,2.5c2.2,0,3.9-0.8,5.3-2.5c1.3-1.7,2-3.9,2-6.6v-0.5
						c0-1.7-0.3-3.2-0.9-4.5s-1.5-2.4-2.6-3.2c-1.1-0.8-2.4-1.1-3.8-1.1c-2.1,0-3.9,0.8-5.2,2.5c-1.3,1.7-2,3.9-2,6.6V669.1z"/>
					<path class="st0" d="M612.5,678.1c0-0.5,0.2-0.9,0.5-1.2c0.3-0.3,0.7-0.5,1.3-0.5c0.5,0,1,0.2,1.3,0.5c0.3,0.3,0.5,0.7,0.5,1.2
						c0,0.5-0.2,0.9-0.5,1.2s-0.7,0.5-1.3,0.5c-0.5,0-1-0.1-1.3-0.5S612.5,678.6,612.5,678.1z"/>
				</g>
				<g>
					<path class="st41" d="M128.8,611.3h5c2.3,0,3.9,0.4,5,1.2c1.1,0.8,1.6,1.9,1.6,3.5c0,1.1-0.3,1.9-1,2.6
						c-0.6,0.7-1.6,1.2-2.8,1.4v0.1c1.5,0.2,2.5,0.7,3.2,1.4c0.7,0.7,1,1.7,1,2.9c0,1.7-0.6,3-1.7,3.9c-1.1,0.9-2.7,1.4-4.8,1.4
						h-5.6V611.3z M130.1,619.5h4c1.7,0,3-0.3,3.8-0.9c0.8-0.6,1.2-1.5,1.2-2.7c0-1.2-0.4-2.1-1.3-2.7c-0.9-0.6-2.2-0.8-3.9-0.8
						h-3.7V619.5z M130.1,620.6v7.9h4.3c3.4,0,5.1-1.4,5.1-4.1c0-2.5-1.8-3.8-5.4-3.8H130.1z"/>
					<path class="st41" d="M155.4,629.6l-0.3-2.2H155c-0.7,0.9-1.4,1.5-2.1,1.9c-0.7,0.4-1.6,0.5-2.6,0.5c-1.3,0-2.4-0.3-3.1-1
						s-1.1-1.6-1.1-2.8c0-1.3,0.6-2.4,1.7-3.1s2.7-1.1,4.8-1.2l2.6-0.1v-0.9c0-1.3-0.3-2.3-0.8-2.9c-0.5-0.7-1.4-1-2.5-1
						c-1.3,0-2.6,0.4-3.9,1.1l-0.5-1.1c1.5-0.7,3-1.1,4.4-1.1c1.5,0,2.6,0.4,3.4,1.2c0.7,0.8,1.1,2,1.1,3.6v9.1H155.4z M150.4,628.8
						c1.5,0,2.6-0.4,3.4-1.2c0.8-0.8,1.3-2,1.3-3.5v-1.3l-2.4,0.1c-1.9,0.1-3.3,0.4-4.1,0.9c-0.8,0.5-1.2,1.3-1.2,2.4
						c0,0.9,0.3,1.5,0.8,2C148.7,628.5,149.5,628.8,150.4,628.8z"/>
					<path class="st41" d="M172.8,629.6v-8.8c0-1.4-0.3-2.4-0.9-3s-1.5-0.9-2.7-0.9c-1.6,0-2.8,0.4-3.6,1.2c-0.8,0.8-1.1,2.2-1.1,4
						v7.5h-1.2V616h1.1l0.2,1.9h0.1c0.9-1.4,2.5-2.1,4.7-2.1c3.1,0,4.6,1.7,4.6,5v8.9H172.8z"/>
					<path class="st41" d="M182.2,623.7l7-7.6h1.5l-5.4,5.8l5.8,7.8h-1.5l-5.2-6.9l-2.2,2v4.8H181v-19.5h1.2v9.8L182.2,623.7
						L182.2,623.7z"/>
					<path class="st41" d="M218.8,629.6h-1.3l-10.8-16.3h-0.1c0.1,1.9,0.2,3.4,0.2,4.4v11.9h-1.2v-18.3h1.3l10.8,16.2h0.1
						c-0.1-1.5-0.1-2.9-0.1-4.3v-11.9h1.2V629.6z"/>
					<path class="st41" d="M234.6,629.6l-0.3-2.2h-0.1c-0.7,0.9-1.4,1.5-2.1,1.9c-0.7,0.4-1.6,0.5-2.6,0.5c-1.3,0-2.4-0.3-3.1-1
						s-1.1-1.6-1.1-2.8c0-1.3,0.6-2.4,1.7-3.1s2.7-1.1,4.8-1.2l2.6-0.1v-0.9c0-1.3-0.3-2.3-0.8-2.9c-0.5-0.7-1.4-1-2.5-1
						c-1.3,0-2.6,0.4-3.9,1.1l-0.5-1.1c1.5-0.7,3-1.1,4.4-1.1c1.5,0,2.6,0.4,3.4,1.2c0.7,0.8,1.1,2,1.1,3.6v9.1H234.6z M229.5,628.8
						c1.5,0,2.6-0.4,3.4-1.2c0.8-0.8,1.3-2,1.3-3.5v-1.3l-2.4,0.1c-1.9,0.1-3.3,0.4-4.1,0.9c-0.8,0.5-1.2,1.3-1.2,2.4
						c0,0.9,0.3,1.5,0.8,2C227.9,628.5,228.6,628.8,229.5,628.8z"/>
					<path class="st41" d="M259.4,629.6v-8.9c0-1.3-0.3-2.3-0.8-2.9s-1.3-0.9-2.4-0.9c-1.4,0-2.4,0.4-3.1,1.2c-0.7,0.8-1,2-1,3.6v8
						h-1.3v-9.3c0-2.3-1.1-3.4-3.2-3.4c-1.4,0-2.5,0.4-3.1,1.2c-0.7,0.8-1,2.2-1,4v7.5h-1.2V616h1l0.3,1.9h0.1
						c0.4-0.7,0.9-1.2,1.6-1.6s1.5-0.6,2.3-0.6c2.1,0,3.5,0.8,4.1,2.4h0.1c0.4-0.8,1-1.4,1.8-1.8s1.6-0.6,2.5-0.6
						c1.5,0,2.6,0.4,3.3,1.2c0.7,0.8,1.1,2.1,1.1,3.8v8.9H259.4z"/>
					<path class="st41" d="M273.1,629.9c-2,0-3.5-0.6-4.6-1.8c-1.1-1.2-1.7-2.9-1.7-5.1c0-2.2,0.5-3.9,1.6-5.2c1.1-1.3,2.5-2,4.3-2
						c1.6,0,2.9,0.6,3.8,1.7c0.9,1.1,1.4,2.6,1.4,4.6v1h-9.8c0,1.9,0.5,3.3,1.3,4.3s2.1,1.5,3.7,1.5c0.8,0,1.5-0.1,2-0.2
						c0.6-0.1,1.3-0.3,2.2-0.7v1.1c-0.8,0.3-1.5,0.6-2.1,0.7S273.9,629.9,273.1,629.9z M272.8,616.9c-1.3,0-2.4,0.4-3.2,1.3
						c-0.8,0.9-1.3,2.1-1.4,3.7h8.4c0-1.6-0.3-2.8-1-3.7S274,616.9,272.8,616.9z"/>
				</g>
				<g>
					<line class="st42" x1="125.2" y1="700.9" x2="723.3" y2="700.9"/>
					<rect x="125.2" y="700.7" class="st43" width="598.1" height="0.5"/>
				</g>
				<g>
					<path class="st0" d="M143.7,813.8h4.5v2h-4.5v7.4h-2.4v-7.4h-13.7v-1.4l13.5-20.4h2.6V813.8z M130.5,813.8h10.8v-16.7l-1.1,1.8
						L130.5,813.8z"/>
					<path class="st0" d="M173.8,795.4l-12.5,27.8h-2.5l12.4-27.1h-16.6v-2h19.2V795.4z"/>
					<path class="st0" d="M188,807.3h2.5c1.4,0,2.6-0.2,3.6-0.7c1-0.5,1.8-1.2,2.4-2c0.5-0.8,0.8-1.8,0.8-2.9c0-1.9-0.5-3.3-1.6-4.4
						c-1.1-1.1-2.6-1.6-4.5-1.6c-1.9,0-3.4,0.6-4.6,1.7c-1.2,1.1-1.8,2.6-1.8,4.4h-2.4c0-1.5,0.4-2.9,1.1-4.1
						c0.8-1.2,1.8-2.2,3.2-2.9c1.3-0.7,2.8-1,4.5-1c2.6,0,4.7,0.7,6.3,2.2s2.3,3.4,2.3,5.9c0,1.4-0.4,2.7-1.3,3.9
						c-0.9,1.2-2.1,2.1-3.7,2.7c1.8,0.5,3.2,1.4,4.1,2.6c0.9,1.2,1.4,2.7,1.4,4.4c0,2.5-0.8,4.5-2.4,6s-3.8,2.3-6.5,2.3
						c-1.7,0-3.3-0.3-4.8-1c-1.4-0.7-2.6-1.7-3.4-2.9c-0.8-1.2-1.2-2.7-1.2-4.4h2.4c0,1.9,0.6,3.4,1.9,4.5s3,1.8,5,1.8
						c2.1,0,3.7-0.5,4.8-1.6c1.2-1.1,1.7-2.6,1.7-4.6c0-2-0.6-3.4-1.9-4.5c-1.2-1-3.1-1.5-5.5-1.5H188V807.3z"/>
					<path class="st0" d="M226.7,801.5c0,1.5-0.4,2.9-1.3,4.1c-0.9,1.2-2,2.1-3.5,2.6c1.7,0.6,3,1.5,4,2.8c1,1.3,1.5,2.8,1.5,4.4
						c0,2.5-0.8,4.5-2.5,5.9c-1.7,1.5-3.9,2.2-6.7,2.2c-2.8,0-5.1-0.7-6.8-2.2c-1.7-1.5-2.5-3.4-2.5-6c0-1.7,0.5-3.1,1.5-4.4
						c1-1.3,2.3-2.2,4-2.8c-1.4-0.6-2.6-1.4-3.4-2.6c-0.9-1.2-1.3-2.5-1.3-4.1c0-2.4,0.8-4.3,2.3-5.8c1.6-1.4,3.6-2.1,6.2-2.1
						s4.6,0.7,6.2,2.2S226.7,799.2,226.7,801.5z M225.1,815.5c0-1.8-0.6-3.3-1.9-4.5c-1.3-1.2-3-1.8-5-1.8s-3.7,0.6-4.9,1.7
						c-1.3,1.1-1.9,2.7-1.9,4.5s0.6,3.3,1.9,4.4c1.2,1.1,2.9,1.7,5,1.7c2.1,0,3.7-0.5,5-1.6S225.1,817.4,225.1,815.5z M224.3,801.5
						c0-1.7-0.6-3.1-1.7-4.2c-1.2-1.1-2.6-1.7-4.4-1.7c-1.8,0-3.3,0.5-4.4,1.6c-1.1,1.1-1.7,2.5-1.7,4.2c0,1.7,0.6,3.1,1.7,4.1
						s2.6,1.6,4.4,1.6c1.8,0,3.3-0.5,4.4-1.6C223.8,804.6,224.3,803.2,224.3,801.5z"/>
					<path class="st0" d="M251.4,809.7c-0.9,1.3-1.9,2.2-3.2,2.9c-1.3,0.7-2.6,1-4.1,1c-1.7,0-3.1-0.4-4.4-1.3
						c-1.3-0.9-2.3-2-2.9-3.5c-0.7-1.5-1-3.2-1-4.9c0-1.9,0.4-3.7,1.1-5.2c0.7-1.6,1.8-2.8,3.1-3.7c1.3-0.9,2.9-1.3,4.6-1.3
						c2.9,0,5.2,1,6.8,3.1c1.6,2.1,2.4,5,2.4,8.7v2.2c0,5.3-1.1,9.2-3.4,11.9c-2.2,2.6-5.7,4-10.3,4h-0.4l0-2.1h0.8
						c3.5-0.1,6.1-1,8-3C250.3,816.5,251.3,813.6,251.4,809.7z M244.3,811.6c1.6,0,3-0.5,4.3-1.4c1.3-1,2.2-2.2,2.7-3.7v-1.4
						c0-3-0.6-5.3-1.9-6.9c-1.2-1.6-2.9-2.4-5-2.4c-1.9,0-3.5,0.8-4.7,2.3c-1.2,1.5-1.8,3.4-1.8,5.8c0,2.2,0.6,4.1,1.8,5.6
						C240.9,810.8,242.5,811.6,244.3,811.6z"/>
					<path class="st0" d="M281.5,823.2h-18.3v-1.8l10-11.3c1.7-1.9,2.8-3.5,3.4-4.7c0.6-1.2,1-2.5,1-3.6c0-1.8-0.5-3.3-1.6-4.4
						c-1.1-1.1-2.6-1.6-4.5-1.6c-2,0-3.6,0.6-4.8,1.9c-1.2,1.3-1.8,2.9-1.8,4.9h-2.4c0-1.6,0.4-3.1,1.1-4.5c0.7-1.3,1.8-2.4,3.2-3.2
						c1.4-0.8,2.9-1.2,4.7-1.2c2.7,0,4.8,0.7,6.3,2.1s2.3,3.3,2.3,5.7c0,1.4-0.4,2.9-1.3,4.5c-0.8,1.6-2.3,3.6-4.5,6.1l-8.1,9.2
						h15.3V823.2z"/>
					<path class="st0" d="M307.3,801.5c0,1.5-0.4,2.9-1.3,4.1c-0.9,1.2-2,2.1-3.5,2.6c1.7,0.6,3,1.5,4,2.8c1,1.3,1.5,2.8,1.5,4.4
						c0,2.5-0.8,4.5-2.5,5.9c-1.7,1.5-3.9,2.2-6.7,2.2c-2.8,0-5.1-0.7-6.8-2.2c-1.7-1.5-2.5-3.4-2.5-6c0-1.7,0.5-3.1,1.5-4.4
						c1-1.3,2.3-2.2,4-2.8c-1.4-0.6-2.6-1.4-3.4-2.6c-0.9-1.2-1.3-2.5-1.3-4.1c0-2.4,0.8-4.3,2.3-5.8c1.6-1.4,3.6-2.1,6.2-2.1
						s4.6,0.7,6.2,2.2S307.3,799.2,307.3,801.5z M305.6,815.5c0-1.8-0.6-3.3-1.9-4.5c-1.3-1.2-3-1.8-5-1.8s-3.7,0.6-4.9,1.7
						c-1.3,1.1-1.9,2.7-1.9,4.5s0.6,3.3,1.9,4.4c1.2,1.1,2.9,1.7,5,1.7c2.1,0,3.7-0.5,5-1.6S305.6,817.4,305.6,815.5z M304.9,801.5
						c0-1.7-0.6-3.1-1.7-4.2c-1.2-1.1-2.6-1.7-4.4-1.7c-1.8,0-3.3,0.5-4.4,1.6c-1.1,1.1-1.7,2.5-1.7,4.2c0,1.7,0.6,3.1,1.7,4.1
						s2.6,1.6,4.4,1.6c1.8,0,3.3-0.5,4.4-1.6C304.3,804.6,304.9,803.2,304.9,801.5z"/>
					<path class="st0" d="M334.9,795.4l-12.5,27.8h-2.5l12.4-27.1h-16.6v-2h19.2V795.4z"/>
					<path class="st0" d="M354.9,823.2h-2.4v-26.3l-7.9,2.9v-2.2l9.9-3.7h0.4V823.2z"/>
				</g>
				<g>
					<path class="st41" d="M137.7,766.8h-7.4l-2.6,6.5h-1.4l7.4-18.4h0.8l7.2,18.4h-1.4L137.7,766.8z M130.7,765.7h6.6l-2.5-6.6
						c-0.2-0.5-0.5-1.2-0.8-2.2c-0.2,0.8-0.5,1.5-0.7,2.2L130.7,765.7z"/>
					<path class="st41" d="M151.9,773.5c-1.9,0-3.5-0.6-4.6-1.8c-1.1-1.2-1.7-2.9-1.7-5.1c0-2.3,0.6-4,1.7-5.3
						c1.1-1.3,2.7-1.9,4.7-1.9c1.2,0,2.3,0.2,3.4,0.6l-0.3,1.1c-1.2-0.4-2.2-0.6-3.1-0.6c-1.7,0-2.9,0.5-3.8,1.5
						c-0.9,1-1.3,2.5-1.3,4.5c0,1.8,0.4,3.3,1.3,4.3c0.9,1,2.1,1.6,3.6,1.6c1.2,0,2.4-0.2,3.4-0.7v1.2
						C154.5,773.3,153.3,773.5,151.9,773.5z"/>
					<path class="st41" d="M166.7,773.5c-1.9,0-3.5-0.6-4.6-1.8c-1.1-1.2-1.7-2.9-1.7-5.1c0-2.3,0.6-4,1.7-5.3
						c1.1-1.3,2.7-1.9,4.7-1.9c1.2,0,2.3,0.2,3.4,0.6l-0.3,1.1c-1.2-0.4-2.2-0.6-3.1-0.6c-1.7,0-2.9,0.5-3.8,1.5
						c-0.9,1-1.3,2.5-1.3,4.5c0,1.8,0.4,3.3,1.3,4.3c0.9,1,2.1,1.6,3.6,1.6c1.2,0,2.4-0.2,3.4-0.7v1.2
						C169.2,773.3,168.1,773.5,166.7,773.5z"/>
					<path class="st41" d="M187.2,766.5c0,2.2-0.5,4-1.6,5.2c-1.1,1.2-2.6,1.9-4.5,1.9c-1.2,0-2.2-0.3-3.2-0.9s-1.6-1.4-2.1-2.5
						c-0.5-1.1-0.7-2.3-0.7-3.7c0-2.2,0.5-4,1.6-5.2s2.6-1.9,4.4-1.9c1.9,0,3.3,0.6,4.4,1.9C186.7,762.5,187.2,764.3,187.2,766.5z
						 M176.5,766.5c0,1.9,0.4,3.3,1.2,4.4c0.8,1,2,1.6,3.5,1.6s2.7-0.5,3.5-1.6c0.8-1,1.2-2.5,1.2-4.4c0-1.9-0.4-3.3-1.2-4.4
						c-0.8-1-2-1.6-3.5-1.6c-1.5,0-2.7,0.5-3.5,1.5C176.9,763.1,176.5,764.6,176.5,766.5z"/>
					<path class="st41" d="M194.7,759.7v8.8c0,1.4,0.3,2.4,0.9,3s1.5,0.9,2.7,0.9c1.6,0,2.8-0.4,3.6-1.2s1.1-2.1,1.1-4v-7.5h1.2
						v13.6h-1.1l-0.2-1.9h-0.1c-0.9,1.4-2.5,2.1-4.7,2.1c-3.1,0-4.6-1.7-4.6-5v-8.9H194.7z"/>
					<path class="st41" d="M220.8,773.3v-8.8c0-1.4-0.3-2.4-0.9-3s-1.5-0.9-2.7-0.9c-1.6,0-2.8,0.4-3.6,1.2c-0.8,0.8-1.1,2.2-1.1,4
						v7.5h-1.2v-13.6h1.1l0.2,1.9h0.1c0.9-1.4,2.5-2.1,4.7-2.1c3.1,0,4.6,1.7,4.6,5v8.9H220.8z"/>
					<path class="st41" d="M232.6,772.4c0.8,0,1.5-0.1,2.1-0.2v1c-0.6,0.2-1.3,0.3-2.1,0.3c-1.2,0-2.1-0.3-2.7-1
						c-0.6-0.6-0.9-1.7-0.9-3v-8.8h-2V760l2-0.6l0.6-3.1h0.6v3.3h4v1.1h-4v8.6c0,1,0.2,1.8,0.6,2.3
						C231.2,772.2,231.8,772.4,232.6,772.4z"/>
					<path class="st41" d="M263,773.3h-1.3L250.8,757h-0.1c0.1,1.9,0.2,3.4,0.2,4.4v11.9h-1.2V755h1.3l10.8,16.2h0.1
						c-0.1-1.5-0.1-2.9-0.1-4.3V755h1.2V773.3z"/>
					<path class="st41" d="M281.7,766.5c0,2.2-0.5,4-1.6,5.2c-1.1,1.2-2.6,1.9-4.5,1.9c-1.2,0-2.2-0.3-3.2-0.9s-1.6-1.4-2.1-2.5
						c-0.5-1.1-0.7-2.3-0.7-3.7c0-2.2,0.5-4,1.6-5.2s2.6-1.9,4.4-1.9c1.9,0,3.3,0.6,4.4,1.9C281.1,762.5,281.7,764.3,281.7,766.5z
						 M270.9,766.5c0,1.9,0.4,3.3,1.2,4.4c0.8,1,2,1.6,3.5,1.6s2.7-0.5,3.5-1.6c0.8-1,1.2-2.5,1.2-4.4c0-1.9-0.4-3.3-1.2-4.4
						c-0.8-1-2-1.6-3.5-1.6c-1.5,0-2.7,0.5-3.5,1.5C271.3,763.1,270.9,764.6,270.9,766.5z"/>
					<path class="st41" d="M287.8,772.3c0-0.8,0.3-1.2,1-1.2c0.7,0,1,0.4,1,1.2c0,0.8-0.3,1.2-1,1.2
						C288.1,773.5,287.8,773.1,287.8,772.3z"/>
				</g>
				<g>
					<line class="st42" x1="125.2" y1="844.6" x2="723.3" y2="844.6"/>
					<rect x="125.2" y="844.3" class="st43" width="598.1" height="0.5"/>
				</g>
				<g>
					<path class="st0" d="M146.2,943.9c0,1.5-0.4,2.9-1.3,4.1c-0.9,1.2-2,2.1-3.5,2.6c1.7,0.6,3,1.5,4,2.8c1,1.3,1.5,2.8,1.5,4.4
						c0,2.5-0.8,4.5-2.5,5.9c-1.7,1.5-3.9,2.2-6.7,2.2c-2.8,0-5.1-0.7-6.8-2.2c-1.7-1.5-2.5-3.4-2.5-6c0-1.7,0.5-3.1,1.5-4.4
						s2.3-2.2,4-2.8c-1.4-0.6-2.6-1.4-3.4-2.6c-0.9-1.2-1.3-2.5-1.3-4.1c0-2.4,0.8-4.3,2.3-5.8c1.6-1.4,3.6-2.1,6.2-2.1
						s4.6,0.7,6.2,2.2S146.2,941.5,146.2,943.9z M144.5,957.8c0-1.8-0.6-3.3-1.9-4.5s-3-1.8-5-1.8s-3.7,0.6-4.9,1.7
						c-1.3,1.1-1.9,2.7-1.9,4.5c0,1.9,0.6,3.3,1.9,4.4c1.2,1.1,2.9,1.7,5,1.7c2.1,0,3.7-0.5,5-1.6
						C143.9,961.2,144.5,959.7,144.5,957.8z M143.8,943.9c0-1.7-0.6-3.1-1.7-4.2c-1.2-1.1-2.6-1.7-4.4-1.7c-1.8,0-3.3,0.5-4.4,1.6
						s-1.7,2.5-1.7,4.2c0,1.7,0.6,3.1,1.7,4.1s2.6,1.6,4.4,1.6c1.8,0,3.3-0.5,4.4-1.6C143.2,947,143.8,945.6,143.8,943.9z"/>
					<path class="st0" d="M157.5,950.6l1.4-14.2h14.6v2.2h-12.5l-1,9.9c1.6-1.1,3.4-1.6,5.5-1.6c2.6,0,4.7,0.9,6.3,2.6
						s2.3,4,2.3,6.8c0,3.1-0.8,5.5-2.3,7.2c-1.5,1.7-3.7,2.5-6.4,2.5c-2.5,0-4.6-0.7-6.2-2.1c-1.6-1.4-2.5-3.4-2.7-6h2.3
						c0.2,2,0.9,3.5,2,4.5c1.1,1,2.6,1.5,4.5,1.5c2.1,0,3.7-0.7,4.7-2c1.1-1.3,1.6-3.2,1.6-5.7c0-2.1-0.6-3.9-1.8-5.2
						c-1.2-1.3-2.8-2-4.9-2c-1.1,0-2.1,0.1-3,0.4c-0.8,0.3-1.7,0.8-2.7,1.7L157.5,950.6z"/>
					<path class="st0" d="M200.3,953.4c0,4.1-0.8,7.2-2.3,9.4c-1.5,2.1-3.7,3.2-6.7,3.2c-2.9,0-5.1-1-6.6-3.1s-2.3-5.1-2.4-9.1v-5.2
						c0-4.1,0.8-7.2,2.3-9.3c1.5-2.1,3.7-3.2,6.7-3.2c2.9,0,5.1,1,6.6,3.1s2.3,5,2.4,9V953.4z M197.9,948.2c0-3.3-0.5-5.9-1.6-7.6
						c-1.1-1.7-2.7-2.6-4.9-2.6c-2.2,0-3.8,0.8-4.9,2.5c-1.1,1.7-1.7,4.1-1.7,7.4v5.7c0,3.3,0.6,5.9,1.7,7.6
						c1.1,1.8,2.8,2.6,4.9,2.6c2.1,0,3.8-0.9,4.9-2.6c1.1-1.7,1.7-4.2,1.7-7.6V948.2z"/>
					<path class="st0" d="M227.1,953.4c0,4.1-0.8,7.2-2.3,9.4c-1.5,2.1-3.7,3.2-6.7,3.2c-2.9,0-5.1-1-6.6-3.1s-2.3-5.1-2.4-9.1v-5.2
						c0-4.1,0.8-7.2,2.3-9.3c1.5-2.1,3.7-3.2,6.7-3.2c2.9,0,5.1,1,6.6,3.1s2.3,5,2.4,9V953.4z M224.7,948.2c0-3.3-0.5-5.9-1.6-7.6
						c-1.1-1.7-2.7-2.6-4.9-2.6c-2.2,0-3.8,0.8-4.9,2.5c-1.1,1.7-1.7,4.1-1.7,7.4v5.7c0,3.3,0.6,5.9,1.7,7.6
						c1.1,1.8,2.8,2.6,4.9,2.6c2.1,0,3.8-0.9,4.9-2.6c1.1-1.7,1.7-4.2,1.7-7.6V948.2z"/>
					<path class="st0" d="M254.4,937.8l-12.5,27.8h-2.5l12.4-27.1h-16.6v-2h19.2V937.8z"/>
					<path class="st0" d="M274.4,965.6H272v-26.3l-7.9,2.9V940l9.9-3.7h0.4V965.6z"/>
					<path class="st0" d="M304.2,936.2v2.1h-0.3c-3.5,0-6.2,1-8.2,3.1c-2,2.1-3.1,4.9-3.3,8.6c0.8-1.1,1.8-2,3.1-2.6
						c1.2-0.6,2.6-0.9,4.2-0.9c2.6,0,4.6,0.9,6.1,2.7c1.5,1.8,2.3,4.1,2.3,6.9c0,1.9-0.4,3.6-1.1,5.1c-0.7,1.5-1.7,2.7-3,3.6
						c-1.3,0.8-2.8,1.3-4.5,1.3c-2.8,0-5.1-1-6.8-3c-1.8-2-2.6-4.6-2.6-7.8v-2.4c0-5.2,1.2-9.3,3.6-12.1s5.8-4.3,10.1-4.4H304.2z
						 M299.2,948.5c-1.5,0-2.9,0.5-4.3,1.4c-1.3,0.9-2.2,2-2.6,3.4v2c0,2.5,0.7,4.6,2,6.2c1.3,1.6,3,2.4,5.1,2.4
						c1.9,0,3.4-0.7,4.5-2.2c1.2-1.5,1.7-3.3,1.7-5.6c0-2.3-0.6-4.1-1.7-5.5C302.8,949.2,301.2,948.5,299.2,948.5z"/>
					<path class="st0" d="M322.3,949.7h2.5c1.4,0,2.6-0.2,3.6-0.7c1-0.5,1.8-1.2,2.4-2s0.8-1.8,0.8-2.9c0-1.9-0.5-3.3-1.6-4.4
						c-1.1-1.1-2.6-1.6-4.5-1.6c-1.9,0-3.4,0.6-4.6,1.7c-1.2,1.1-1.8,2.6-1.8,4.4h-2.4c0-1.5,0.4-2.9,1.1-4.1
						c0.8-1.2,1.8-2.2,3.2-2.9c1.3-0.7,2.8-1,4.5-1c2.6,0,4.7,0.7,6.3,2.2s2.3,3.4,2.3,5.9c0,1.4-0.4,2.7-1.3,3.9
						c-0.9,1.2-2.1,2.1-3.7,2.7c1.8,0.5,3.2,1.4,4.1,2.6c0.9,1.2,1.4,2.7,1.4,4.4c0,2.5-0.8,4.5-2.4,6c-1.6,1.5-3.8,2.3-6.5,2.3
						c-1.7,0-3.3-0.3-4.8-1c-1.4-0.7-2.6-1.7-3.4-2.9c-0.8-1.2-1.2-2.7-1.2-4.4h2.4c0,1.9,0.6,3.4,1.9,4.5c1.3,1.2,3,1.8,5,1.8
						c2.1,0,3.7-0.5,4.8-1.6c1.2-1.1,1.7-2.6,1.7-4.6c0-2-0.6-3.4-1.9-4.5c-1.2-1-3.1-1.5-5.5-1.5h-2.4V949.7z"/>
					<path class="st0" d="M358.5,956.2h4.5v2h-4.5v7.4h-2.4v-7.4h-13.7v-1.4l13.5-20.4h2.6V956.2z M345.3,956.2h10.8v-16.7l-1.1,1.8
						L345.3,956.2z"/>
				</g>
				<g>
					<path class="st41" d="M130.1,907.7v8h-1.3v-18.3h4.4c2.3,0,3.9,0.4,5,1.3c1.1,0.8,1.6,2.1,1.6,3.8c0,1.2-0.3,2.3-1,3.1
						c-0.6,0.8-1.6,1.4-2.9,1.8l5,8.3h-1.5l-4.7-8H130.1z M130.1,906.6h3.5c1.5,0,2.7-0.3,3.6-1c0.9-0.7,1.3-1.7,1.3-3
						c0-1.4-0.4-2.4-1.3-3c-0.8-0.6-2.2-1-4.1-1h-3V906.6z"/>
					<path class="st41" d="M157.6,908.8c0,2.2-0.5,4-1.6,5.2c-1.1,1.2-2.6,1.9-4.5,1.9c-1.2,0-2.2-0.3-3.2-0.9s-1.6-1.4-2.1-2.5
						s-0.7-2.3-0.7-3.7c0-2.2,0.5-4,1.6-5.2c1.1-1.2,2.6-1.9,4.4-1.9c1.9,0,3.3,0.6,4.4,1.9C157.1,904.9,157.6,906.6,157.6,908.8z
						 M146.8,908.8c0,1.9,0.4,3.3,1.2,4.4s2,1.6,3.5,1.6s2.7-0.5,3.5-1.6s1.2-2.5,1.2-4.4c0-1.9-0.4-3.3-1.2-4.4
						c-0.8-1-2-1.6-3.5-1.6c-1.5,0-2.7,0.5-3.5,1.5C147.3,905.5,146.8,906.9,146.8,908.8z"/>
					<path class="st41" d="M165,902v8.8c0,1.4,0.3,2.4,0.9,3s1.5,0.9,2.7,0.9c1.6,0,2.8-0.4,3.6-1.2c0.8-0.8,1.1-2.1,1.1-4V902h1.2
						v13.6h-1.1l-0.2-1.9h-0.1c-0.9,1.4-2.5,2.1-4.7,2.1c-3.1,0-4.6-1.7-4.6-5V902H165z"/>
					<path class="st41" d="M185.2,914.8c0.8,0,1.5-0.1,2.1-0.2v1c-0.6,0.2-1.3,0.3-2.1,0.3c-1.2,0-2.1-0.3-2.7-1
						c-0.6-0.6-0.9-1.7-0.9-3v-8.8h-2v-0.7l2-0.6l0.6-3.1h0.6v3.3h4v1.1h-4v8.6c0,1,0.2,1.8,0.6,2.3
						C183.9,914.5,184.4,914.8,185.2,914.8z"/>
					<path class="st41" d="M192.6,898.2c0-0.8,0.3-1.2,0.8-1.2c0.3,0,0.5,0.1,0.6,0.3s0.2,0.5,0.2,0.9c0,0.4-0.1,0.7-0.2,0.9
						s-0.3,0.3-0.6,0.3C192.9,899.5,192.6,899,192.6,898.2z M194,915.6h-1.2V902h1.2V915.6z"/>
					<path class="st41" d="M210.6,915.6v-8.8c0-1.4-0.3-2.4-0.9-3s-1.5-0.9-2.7-0.9c-1.6,0-2.8,0.4-3.6,1.2c-0.8,0.8-1.1,2.2-1.1,4
						v7.5h-1.2V902h1.1l0.2,1.9h0.1c0.9-1.4,2.5-2.1,4.7-2.1c3.1,0,4.6,1.7,4.6,5v8.9H210.6z"/>
					<path class="st41" d="M229.5,902v0.9l-2.8,0.2c0.8,0.9,1.1,2,1.1,3.1c0,1.3-0.4,2.4-1.3,3.2c-0.9,0.8-2,1.2-3.5,1.2
						c-0.6,0-1.1,0-1.3-0.1c-0.5,0.3-0.9,0.6-1.1,0.9s-0.4,0.7-0.4,1.1c0,0.4,0.2,0.8,0.5,1c0.3,0.2,0.9,0.3,1.7,0.3h2.4
						c1.5,0,2.6,0.3,3.4,0.9c0.8,0.6,1.2,1.5,1.2,2.6c0,1.4-0.6,2.5-1.7,3.3c-1.2,0.8-2.8,1.2-5,1.2c-1.7,0-3-0.3-4-1
						c-0.9-0.7-1.4-1.6-1.4-2.8c0-0.9,0.3-1.7,0.9-2.3c0.6-0.6,1.4-1,2.4-1.3c-0.4-0.2-0.7-0.4-1-0.7c-0.2-0.3-0.4-0.7-0.4-1.1
						c0-0.9,0.6-1.7,1.7-2.4c-0.8-0.3-1.4-0.8-1.9-1.5c-0.4-0.7-0.7-1.5-0.7-2.4c0-1.4,0.4-2.5,1.3-3.3c0.9-0.8,2-1.2,3.5-1.2
						c0.9,0,1.6,0.1,2.1,0.3H229.5z M218.4,917.9c0,1.9,1.4,2.8,4.2,2.8c3.6,0,5.4-1.1,5.4-3.4c0-0.8-0.3-1.4-0.8-1.8
						s-1.5-0.6-2.7-0.6h-2.2C219.7,915,218.4,916,218.4,917.9z M219.5,906.3c0,1.1,0.3,1.9,1,2.4c0.6,0.6,1.5,0.9,2.6,0.9
						c1.1,0,2-0.3,2.6-0.9c0.6-0.6,0.9-1.4,0.9-2.5c0-1.2-0.3-2-0.9-2.6c-0.6-0.6-1.5-0.9-2.6-0.9c-1.1,0-1.9,0.3-2.6,0.9
						S219.5,905.2,219.5,906.3z"/>
					<path class="st41" d="M257.7,915.6h-1.3l-10.8-16.3h-0.1c0.1,1.9,0.2,3.4,0.2,4.4v11.9h-1.2v-18.3h1.3l10.8,16.2h0.1
						c-0.1-1.5-0.1-2.9-0.1-4.3v-11.9h1.2V915.6z"/>
					<path class="st41" d="M276.4,908.8c0,2.2-0.5,4-1.6,5.2c-1.1,1.2-2.6,1.9-4.5,1.9c-1.2,0-2.2-0.3-3.2-0.9s-1.6-1.4-2.1-2.5
						s-0.7-2.3-0.7-3.7c0-2.2,0.5-4,1.6-5.2c1.1-1.2,2.6-1.9,4.4-1.9c1.9,0,3.3,0.6,4.4,1.9C275.8,904.9,276.4,906.6,276.4,908.8z
						 M265.6,908.8c0,1.9,0.4,3.3,1.2,4.4s2,1.6,3.5,1.6s2.7-0.5,3.5-1.6s1.2-2.5,1.2-4.4c0-1.9-0.4-3.3-1.2-4.4
						c-0.8-1-2-1.6-3.5-1.6c-1.5,0-2.7,0.5-3.5,1.5C266,905.5,265.6,906.9,265.6,908.8z"/>
					<path class="st41" d="M282.4,914.7c0-0.8,0.3-1.2,1-1.2c0.7,0,1,0.4,1,1.2s-0.3,1.2-1,1.2C282.8,915.9,282.4,915.5,282.4,914.7
						z"/>
				</g>
				<g>
					<line class="st42" x1="125.2" y1="986.9" x2="723.3" y2="986.9"/>
					<rect x="125.2" y="986.7" class="st43" width="598.1" height="0.5"/>
				</g>
				<g>
					<path class="st0" d="M129.9,1111.8v-29.2h8.2c2.4,0,4.5,0.5,6.4,1.6s3.4,2.6,4.4,4.7c1.1,2,1.6,4.3,1.6,6.9v2.7
						c0,2.6-0.5,4.9-1.6,6.9c-1.1,2-2.5,3.6-4.5,4.7c-1.9,1.1-4.1,1.6-6.6,1.6H129.9z M132.4,1084.7v25h5.5c3.1,0,5.5-1,7.4-3.1
						c1.9-2,2.8-4.8,2.8-8.3v-2.6c0-3.4-0.9-6-2.7-8.1c-1.8-2-4.2-3-7.2-3H132.4z"/>
					<path class="st0" d="M168.7,1112.2c-1.8,0-3.5-0.5-5-1.4s-2.6-2.2-3.5-3.8c-0.8-1.6-1.2-3.4-1.2-5.5v-0.9c0-2.1,0.4-4,1.2-5.6
						s1.9-3,3.4-3.9c1.4-1,3-1.4,4.7-1.4c2.6,0,4.7,0.9,6.3,2.7s2.3,4.3,2.3,7.4v1.3h-15.5v0.5c0,2.5,0.7,4.5,2.1,6.1
						c1.4,1.6,3.2,2.5,5.3,2.5c1.3,0,2.4-0.2,3.4-0.7s1.9-1.2,2.7-2.2l1.5,1.1C174.7,1110.9,172.1,1112.2,168.7,1112.2z
						 M168.3,1091.7c-1.8,0-3.3,0.7-4.6,2c-1.2,1.3-2,3.1-2.3,5.3h13v-0.3c-0.1-2.1-0.7-3.8-1.8-5.1
						C171.6,1092.4,170.1,1091.7,168.3,1091.7z"/>
					<path class="st0" d="M187.9,1090.1l0.1,3.7c0.8-1.3,1.8-2.4,3-3.1c1.2-0.7,2.6-1.1,4-1.1c2.3,0,4.1,0.7,5.2,2
						c1.1,1.3,1.7,3.3,1.7,5.9v14.2h-2.4v-14.2c0-1.9-0.4-3.4-1.2-4.3c-0.8-0.9-2.1-1.4-3.9-1.4c-1.5,0-2.8,0.5-3.9,1.4
						c-1.1,0.9-2,2.2-2.5,3.8v14.8h-2.4v-21.7H187.9z"/>
					<path class="st0" d="M219.1,1108.5l6.6-18.4h2.5l-8.1,21.7h-1.9l-8.1-21.7h2.5L219.1,1108.5z"/>
					<path class="st0" d="M244.5,1112.2c-1.8,0-3.5-0.5-5-1.4s-2.6-2.2-3.5-3.8c-0.8-1.6-1.2-3.4-1.2-5.5v-0.9c0-2.1,0.4-4,1.2-5.6
						s1.9-3,3.4-3.9c1.4-1,3-1.4,4.7-1.4c2.6,0,4.7,0.9,6.3,2.7s2.3,4.3,2.3,7.4v1.3h-15.5v0.5c0,2.5,0.7,4.5,2.1,6.1
						c1.4,1.6,3.2,2.5,5.3,2.5c1.3,0,2.4-0.2,3.4-0.7s1.9-1.2,2.7-2.2l1.5,1.1C250.4,1110.9,247.9,1112.2,244.5,1112.2z
						 M244.1,1091.7c-1.8,0-3.3,0.7-4.6,2c-1.2,1.3-2,3.1-2.3,5.3h13v-0.3c-0.1-2.1-0.7-3.8-1.8-5.1
						C247.4,1092.4,245.9,1091.7,244.1,1091.7z"/>
					<path class="st0" d="M271.5,1092.1c-0.5-0.1-1-0.1-1.6-0.1c-1.5,0-2.8,0.4-3.8,1.3c-1,0.8-1.8,2-2.2,3.6v14.9h-2.4v-21.7h2.3
						l0,3.4c1.3-2.6,3.3-3.8,6.1-3.8c0.7,0,1.2,0.1,1.6,0.3L271.5,1092.1z"/>
				</g>
				<g>
					<path class="st41" d="M136.7,1044.4c-2.3,0-4.1,0.7-5.4,2.2c-1.3,1.5-2,3.5-2,6c0,2.6,0.6,4.6,1.9,6.1c1.2,1.4,3,2.2,5.3,2.2
						c1.5,0,2.9-0.2,4.2-0.6v1.1c-1.2,0.4-2.7,0.6-4.5,0.6c-2.6,0-4.6-0.8-6.1-2.5c-1.5-1.7-2.2-4-2.2-7c0-1.9,0.4-3.5,1.1-4.9
						c0.7-1.4,1.7-2.5,3-3.3s2.9-1.2,4.6-1.2c1.8,0,3.4,0.3,4.8,1l-0.5,1.2C139.5,1044.7,138.1,1044.4,136.7,1044.4z"/>
					<path class="st41" d="M146.8,1044.4c0-0.8,0.3-1.2,0.8-1.2c0.3,0,0.5,0.1,0.6,0.3s0.2,0.5,0.2,0.9c0,0.4-0.1,0.7-0.2,0.9
						s-0.3,0.3-0.6,0.3C147.1,1045.7,146.8,1045.2,146.8,1044.4z M148.3,1061.8H147v-13.6h1.2V1061.8z"/>
					<path class="st41" d="M159,1061c0.8,0,1.5-0.1,2.1-0.2v1c-0.6,0.2-1.3,0.3-2.1,0.3c-1.2,0-2.1-0.3-2.7-1
						c-0.6-0.6-0.9-1.7-0.9-3v-8.8h-2v-0.7l2-0.6l0.6-3.1h0.6v3.3h4v1.1h-4v8.6c0,1,0.2,1.8,0.6,2.3
						C157.6,1060.7,158.2,1061,159,1061z"/>
					<path class="st41" d="M164.3,1048.2h1.3l2.9,7.6c0.9,2.3,1.4,3.9,1.7,4.7h0.1c0.4-1.1,0.9-2.7,1.7-4.8l2.9-7.6h1.3l-6.1,15.8
						c-0.5,1.3-0.9,2.2-1.2,2.6c-0.3,0.5-0.7,0.8-1.2,1c-0.4,0.2-1,0.3-1.6,0.3c-0.5,0-1-0.1-1.6-0.3v-1.1c0.5,0.1,1,0.2,1.6,0.2
						c0.4,0,0.8-0.1,1.1-0.3s0.6-0.5,0.9-0.9c0.3-0.4,0.6-1.1,0.9-2c0.3-0.9,0.6-1.5,0.7-1.8L164.3,1048.2z"/>
				</g>
				<g>
					<line class="st42" x1="125.2" y1="1133.1" x2="723.3" y2="1133.1"/>
					<rect x="125.2" y="1132.9" class="st43" width="598.1" height="0.5"/>
				</g>
				<g>
					<path class="st0" d="M150.6,1246.2c-0.3,3.1-1.4,5.4-3.3,7.1s-4.3,2.4-7.4,2.4c-2.2,0-4.1-0.5-5.7-1.6s-2.9-2.6-3.9-4.6
						c-0.9-2-1.4-4.3-1.4-6.8v-3.8c0-2.6,0.5-4.9,1.4-6.9c0.9-2,2.2-3.6,3.9-4.6s3.7-1.6,5.9-1.6c3.1,0,5.6,0.8,7.4,2.5
						c1.8,1.7,2.9,4,3.2,7h-2.5c-0.6-5-3.3-7.4-8.1-7.4c-2.6,0-4.8,1-6.3,3c-1.6,2-2.4,4.7-2.4,8.2v3.6c0,3.4,0.8,6.1,2.3,8.1
						c1.5,2,3.6,3,6.2,3c2.6,0,4.5-0.6,5.8-1.9c1.3-1.2,2.1-3.1,2.4-5.6H150.6z"/>
					<path class="st0" d="M158.8,1244.1c0-2.1,0.4-4,1.2-5.6c0.8-1.7,2-3,3.4-3.9c1.5-0.9,3.1-1.4,5-1.4c2.9,0,5.2,1,7,3
						s2.7,4.7,2.7,8v0.5c0,2.1-0.4,4-1.2,5.7c-0.8,1.7-1.9,3-3.4,3.9c-1.5,0.9-3.1,1.4-5,1.4c-2.9,0-5.2-1-7-3c-1.8-2-2.7-4.7-2.7-8
						V1244.1z M161.2,1244.8c0,2.6,0.7,4.7,2,6.4c1.3,1.7,3.1,2.5,5.3,2.5c2.2,0,3.9-0.8,5.3-2.5c1.3-1.7,2-3.9,2-6.6v-0.5
						c0-1.7-0.3-3.2-0.9-4.5c-0.6-1.4-1.5-2.4-2.6-3.2s-2.4-1.1-3.8-1.1c-2.1,0-3.9,0.8-5.2,2.5c-1.3,1.7-2,3.9-2,6.6V1244.8z"/>
					<path class="st0" d="M189.9,1255.3h-2.4v-30.8h2.4V1255.3z"/>
					<path class="st0" d="M199.2,1244.1c0-2.1,0.4-4,1.2-5.6c0.8-1.7,2-3,3.4-3.9c1.5-0.9,3.1-1.4,5-1.4c2.9,0,5.2,1,7,3
						s2.7,4.7,2.7,8v0.5c0,2.1-0.4,4-1.2,5.7c-0.8,1.7-1.9,3-3.4,3.9c-1.5,0.9-3.1,1.4-5,1.4c-2.9,0-5.2-1-7-3c-1.8-2-2.7-4.7-2.7-8
						V1244.1z M201.6,1244.8c0,2.6,0.7,4.7,2,6.4c1.3,1.7,3.1,2.5,5.3,2.5c2.2,0,3.9-0.8,5.3-2.5c1.3-1.7,2-3.9,2-6.6v-0.5
						c0-1.7-0.3-3.2-0.9-4.5c-0.6-1.4-1.5-2.4-2.6-3.2s-2.4-1.1-3.8-1.1c-2.1,0-3.9,0.8-5.2,2.5c-1.3,1.7-2,3.9-2,6.6V1244.8z"/>
					<path class="st0" d="M237.6,1235.6c-0.5-0.1-1-0.1-1.6-0.1c-1.5,0-2.8,0.4-3.8,1.3c-1,0.8-1.8,2-2.2,3.6v14.9h-2.4v-21.7h2.3
						l0,3.4c1.3-2.6,3.3-3.8,6.1-3.8c0.7,0,1.2,0.1,1.6,0.3L237.6,1235.6z"/>
					<path class="st0" d="M258.4,1255.3c-0.2-0.7-0.4-1.7-0.5-3c-0.8,1.1-1.9,1.9-3.2,2.5c-1.3,0.6-2.7,0.9-4.1,0.9
						c-2.1,0-3.8-0.6-5.1-1.7s-1.9-2.6-1.9-4.4c0-2.1,0.9-3.8,2.6-5c1.8-1.2,4.2-1.8,7.3-1.8h4.3v-2.5c0-1.5-0.5-2.8-1.4-3.7
						c-1-0.9-2.3-1.3-4.2-1.3c-1.7,0-3.1,0.4-4.1,1.3c-1.1,0.9-1.6,1.9-1.6,3.1l-2.4,0c0-1.7,0.8-3.2,2.4-4.5
						c1.6-1.3,3.6-1.9,5.9-1.9c2.4,0,4.3,0.6,5.7,1.8c1.4,1.2,2.1,2.9,2.2,5.1v10.3c0,2.1,0.2,3.7,0.7,4.7v0.2H258.4z M250.9,1253.5
						c1.6,0,3-0.4,4.3-1.2c1.3-0.8,2.2-1.8,2.8-3.1v-4.8h-4.3c-2.4,0-4.3,0.5-5.6,1.3c-1.3,0.8-2,2-2,3.5c0,1.2,0.5,2.2,1.4,3
						S249.4,1253.5,250.9,1253.5z"/>
					<path class="st0" d="M269.8,1244.2c0-3.4,0.8-6,2.3-8s3.5-3,6.1-3c2.9,0,5.2,1.2,6.7,3.5v-12.2h2.4v30.8H285l-0.1-2.9
						c-1.5,2.2-3.8,3.3-6.8,3.3c-2.5,0-4.5-1-6-3s-2.3-4.7-2.3-8.1V1244.2z M272.3,1244.6c0,2.8,0.6,4.9,1.7,6.5
						c1.1,1.6,2.7,2.4,4.7,2.4c3,0,5-1.3,6.3-3.9v-10.2c-1.2-2.8-3.3-4.2-6.3-4.2c-2,0-3.6,0.8-4.7,2.4
						C272.8,1239.2,272.3,1241.6,272.3,1244.6z"/>
					<path class="st0" d="M296.4,1244.1c0-2.1,0.4-4,1.2-5.6c0.8-1.7,2-3,3.4-3.9c1.5-0.9,3.1-1.4,5-1.4c2.9,0,5.2,1,7,3
						s2.7,4.7,2.7,8v0.5c0,2.1-0.4,4-1.2,5.7c-0.8,1.7-1.9,3-3.4,3.9c-1.5,0.9-3.1,1.4-5,1.4c-2.9,0-5.2-1-7-3c-1.8-2-2.7-4.7-2.7-8
						V1244.1z M298.8,1244.8c0,2.6,0.7,4.7,2,6.4c1.3,1.7,3.1,2.5,5.3,2.5c2.2,0,3.9-0.8,5.3-2.5c1.3-1.7,2-3.9,2-6.6v-0.5
						c0-1.7-0.3-3.2-0.9-4.5c-0.6-1.4-1.5-2.4-2.6-3.2s-2.4-1.1-3.8-1.1c-2.1,0-3.9,0.8-5.2,2.5c-1.3,1.7-2,3.9-2,6.6V1244.8z"/>
				</g>
				<g>
					<path class="st41" d="M138.9,1200.6c0,1.5-0.6,2.7-1.7,3.6s-2.6,1.3-4.5,1.3c-2.2,0-4-0.2-5.1-0.7v-1.3c1.3,0.6,3,0.8,5,0.8
						c1.5,0,2.7-0.3,3.6-1s1.3-1.6,1.3-2.7c0-0.7-0.1-1.3-0.4-1.7s-0.8-0.9-1.4-1.2s-1.6-0.8-2.9-1.2c-1.9-0.6-3.2-1.3-3.9-2.1
						c-0.7-0.7-1.1-1.7-1.1-3c0-1.4,0.5-2.5,1.6-3.4c1.1-0.9,2.5-1.3,4.1-1.3c1.7,0,3.3,0.3,4.8,1l-0.5,1.1c-1.5-0.6-3-1-4.4-1
						c-1.4,0-2.4,0.3-3.2,0.9c-0.8,0.6-1.2,1.5-1.2,2.6c0,0.7,0.1,1.2,0.4,1.7c0.2,0.4,0.6,0.8,1.2,1.2s1.5,0.8,2.9,1.2
						c1.4,0.5,2.5,1,3.2,1.4c0.7,0.5,1.2,1,1.6,1.6C138.8,1199.1,138.9,1199.8,138.9,1200.6z"/>
					<path class="st41" d="M148.7,1204.5c0.8,0,1.5-0.1,2.1-0.2v1c-0.6,0.2-1.3,0.3-2.1,0.3c-1.2,0-2.1-0.3-2.7-1
						c-0.6-0.6-0.9-1.7-0.9-3v-8.8h-2v-0.7l2-0.6l0.6-3.1h0.6v3.3h4v1.1h-4v8.6c0,1,0.2,1.8,0.6,2.3
						C147.3,1204.2,147.9,1204.5,148.7,1204.5z"/>
					<path class="st41" d="M164.5,1205.3l-0.3-2.2h-0.1c-0.7,0.9-1.4,1.5-2.1,1.9c-0.7,0.4-1.6,0.5-2.6,0.5c-1.3,0-2.4-0.3-3.1-1
						s-1.1-1.6-1.1-2.8c0-1.3,0.6-2.4,1.7-3.1s2.7-1.1,4.8-1.2l2.6-0.1v-0.9c0-1.3-0.3-2.3-0.8-2.9c-0.5-0.7-1.4-1-2.5-1
						c-1.3,0-2.6,0.4-3.9,1.1l-0.5-1.1c1.5-0.7,3-1.1,4.4-1.1c1.5,0,2.6,0.4,3.4,1.2c0.7,0.8,1.1,2,1.1,3.6v9.1H164.5z
						 M159.5,1204.4c1.5,0,2.6-0.4,3.4-1.2c0.8-0.8,1.3-2,1.3-3.5v-1.3l-2.4,0.1c-1.9,0.1-3.3,0.4-4.1,0.9c-0.8,0.5-1.2,1.3-1.2,2.4
						c0,0.9,0.3,1.5,0.8,2C157.8,1204.2,158.5,1204.4,159.5,1204.4z"/>
					<path class="st41" d="M176,1204.5c0.8,0,1.5-0.1,2.1-0.2v1c-0.6,0.2-1.3,0.3-2.1,0.3c-1.2,0-2.1-0.3-2.7-1
						c-0.6-0.6-0.9-1.7-0.9-3v-8.8h-2v-0.7l2-0.6l0.6-3.1h0.6v3.3h4v1.1h-4v8.6c0,1,0.2,1.8,0.6,2.3
						C174.6,1204.2,175.2,1204.5,176,1204.5z"/>
					<path class="st41" d="M189,1205.6c-2,0-3.5-0.6-4.6-1.8c-1.1-1.2-1.7-2.9-1.7-5.1c0-2.2,0.5-3.9,1.6-5.2s2.5-2,4.3-2
						c1.6,0,2.9,0.6,3.8,1.7c0.9,1.1,1.4,2.6,1.4,4.6v1H184c0,1.9,0.5,3.3,1.3,4.3s2.1,1.5,3.7,1.5c0.8,0,1.5-0.1,2-0.2
						c0.6-0.1,1.3-0.3,2.2-0.7v1.1c-0.8,0.3-1.5,0.6-2.1,0.7C190.5,1205.5,189.8,1205.6,189,1205.6z M188.7,1192.5
						c-1.3,0-2.4,0.4-3.2,1.3c-0.8,0.9-1.3,2.1-1.4,3.7h8.4c0-1.6-0.3-2.8-1-3.7C190.8,1193,189.9,1192.5,188.7,1192.5z"/>
				</g>
				<g>
					<line class="st42" x1="125.2" y1="1276.6" x2="723.3" y2="1276.6"/>
					<rect x="125.2" y="1276.4" class="st43" width="598.1" height="0.5"/>
				</g>
				<g>
					<path class="st0" d="M146.2,1380.7c0,1.5-0.4,2.9-1.3,4.1c-0.9,1.2-2,2.1-3.5,2.6c1.7,0.6,3,1.5,4,2.8c1,1.3,1.5,2.8,1.5,4.4
						c0,2.5-0.8,4.5-2.5,5.9c-1.7,1.5-3.9,2.2-6.7,2.2c-2.8,0-5.1-0.7-6.8-2.2c-1.7-1.5-2.5-3.4-2.5-6c0-1.7,0.5-3.1,1.5-4.4
						s2.3-2.2,4-2.8c-1.4-0.6-2.6-1.4-3.4-2.6c-0.9-1.2-1.3-2.5-1.3-4.1c0-2.4,0.8-4.3,2.3-5.8c1.6-1.4,3.6-2.1,6.2-2.1
						s4.6,0.7,6.2,2.2S146.2,1378.3,146.2,1380.7z M144.5,1394.7c0-1.8-0.6-3.3-1.9-4.5s-3-1.8-5-1.8s-3.7,0.6-4.9,1.7
						c-1.3,1.1-1.9,2.7-1.9,4.5c0,1.9,0.6,3.3,1.9,4.4c1.2,1.1,2.9,1.7,5,1.7c2.1,0,3.7-0.5,5-1.6
						C143.9,1398,144.5,1396.5,144.5,1394.7z M143.8,1380.7c0-1.7-0.6-3.1-1.7-4.2c-1.2-1.1-2.6-1.7-4.4-1.7c-1.8,0-3.3,0.5-4.4,1.6
						s-1.7,2.5-1.7,4.2c0,1.7,0.6,3.1,1.7,4.1s2.6,1.6,4.4,1.6c1.8,0,3.3-0.5,4.4-1.6C143.2,1383.8,143.8,1382.4,143.8,1380.7z"/>
					<path class="st0" d="M173.4,1390.2c0,4.1-0.8,7.2-2.3,9.4c-1.5,2.1-3.7,3.2-6.7,3.2c-2.9,0-5.1-1-6.6-3.1s-2.3-5.1-2.4-9.1
						v-5.2c0-4.1,0.8-7.2,2.3-9.3c1.5-2.1,3.7-3.2,6.7-3.2c2.9,0,5.1,1,6.6,3.1s2.3,5,2.4,9V1390.2z M171,1385
						c0-3.3-0.5-5.9-1.6-7.6c-1.1-1.7-2.7-2.6-4.9-2.6c-2.2,0-3.8,0.8-4.9,2.5c-1.1,1.7-1.7,4.1-1.7,7.4v5.7c0,3.3,0.6,5.9,1.7,7.6
						c1.1,1.8,2.8,2.6,4.9,2.6c2.1,0,3.8-0.9,4.9-2.6c1.1-1.7,1.7-4.2,1.7-7.6V1385z"/>
					<path class="st0" d="M201,1402.4h-18.3v-1.8l10-11.3c1.7-1.9,2.8-3.5,3.4-4.7c0.6-1.2,1-2.5,1-3.6c0-1.8-0.5-3.3-1.6-4.4
						c-1.1-1.1-2.6-1.6-4.5-1.6c-2,0-3.6,0.6-4.8,1.9c-1.2,1.3-1.8,2.9-1.8,4.9H182c0-1.6,0.4-3.1,1.1-4.5c0.7-1.3,1.8-2.4,3.2-3.2
						c1.4-0.8,2.9-1.2,4.7-1.2c2.7,0,4.8,0.7,6.3,2.1c1.5,1.4,2.3,3.3,2.3,5.7c0,1.4-0.4,2.9-1.3,4.5c-0.8,1.6-2.3,3.6-4.5,6.1
						l-8.1,9.2H201V1402.4z"/>
					<path class="st0" d="M227.1,1390.2c0,4.1-0.8,7.2-2.3,9.4c-1.5,2.1-3.7,3.2-6.7,3.2c-2.9,0-5.1-1-6.6-3.1s-2.3-5.1-2.4-9.1
						v-5.2c0-4.1,0.8-7.2,2.3-9.3c1.5-2.1,3.7-3.2,6.7-3.2c2.9,0,5.1,1,6.6,3.1s2.3,5,2.4,9V1390.2z M224.7,1385
						c0-3.3-0.5-5.9-1.6-7.6c-1.1-1.7-2.7-2.6-4.9-2.6c-2.2,0-3.8,0.8-4.9,2.5c-1.1,1.7-1.7,4.1-1.7,7.4v5.7c0,3.3,0.6,5.9,1.7,7.6
						c1.1,1.8,2.8,2.6,4.9,2.6c2.1,0,3.8-0.9,4.9-2.6c1.1-1.7,1.7-4.2,1.7-7.6V1385z"/>
					<path class="st0" d="M254.7,1402.4h-18.3v-1.8l10-11.3c1.7-1.9,2.8-3.5,3.4-4.7c0.6-1.2,1-2.5,1-3.6c0-1.8-0.5-3.3-1.6-4.4
						c-1.1-1.1-2.6-1.6-4.5-1.6c-2,0-3.6,0.6-4.8,1.9c-1.2,1.3-1.8,2.9-1.8,4.9h-2.4c0-1.6,0.4-3.1,1.1-4.5c0.7-1.3,1.8-2.4,3.2-3.2
						c1.4-0.8,2.9-1.2,4.7-1.2c2.7,0,4.8,0.7,6.3,2.1c1.5,1.4,2.3,3.3,2.3,5.7c0,1.4-0.4,2.9-1.3,4.5c-0.8,1.6-2.3,3.6-4.5,6.1
						l-8.1,9.2h15.3V1402.4z"/>
				</g>
				<g>
					<path class="st41" d="M140,1352.4h-12.7v-1l10.7-16.2h-10.2v-1.2h11.9v1l-10.7,16.2h11V1352.4z"/>
					<path class="st41" d="M146.2,1352.4v-18.3h1.3v18.3H146.2z"/>
					<path class="st41" d="M166.2,1339.4c0,1.8-0.6,3.1-1.8,4.1c-1.2,0.9-2.9,1.4-5.1,1.4h-2.8v7.6h-1.3v-18.3h4.5
						C164.1,1334.1,166.2,1335.9,166.2,1339.4z M156.5,1343.8h2.5c2.1,0,3.6-0.3,4.5-1s1.4-1.8,1.4-3.3c0-1.4-0.4-2.5-1.3-3.1
						s-2.2-1-4-1h-3V1343.8z"/>
				</g>
				<g>
					<line class="st42" x1="125.2" y1="1423.8" x2="723.3" y2="1423.8"/>
					<rect x="125.2" y="1423.5" class="st43" width="598.1" height="0.5"/>
				</g>
			</g>
		</g>
	</g>
</g>
<rect x="57.2" y="187.4" class="st44" width="718.3" height="40.7"/>
<path class="st44" d="M725.8,200h46.7c0.7,0,1.2,0.5,1.2,1.2v15.6c0,0.7-0.5,1.2-1.2,1.2h-46.7c-0.7,0-1.2-0.5-1.2-1.2v-15.6
	C724.6,200.5,725.1,200,725.8,200z M725.8,198.8c-1.3,0-2.4,1.1-2.4,2.4v15.5c0,1.3,1.1,2.4,2.4,2.4h46.6c1.3,0,2.4-1.1,2.4-2.4
	v-15.5c0-1.3-1.1-2.4-2.4-2.4H725.8z M777.3,204.8h1.8c1,0,1.8,0.8,1.8,1.8v4.8c0,1-0.8,1.8-1.8,1.8h-1.8V204.8z M725.8,197.6h46.7
	c2,0,3.6,1.6,3.6,3.6v15.5c0,2-1.6,3.6-3.6,3.6h-46.7c-2,0-3.6-1.6-3.6-3.6v-15.5C722.2,199.2,723.8,197.6,725.8,197.6z"/>
</svg>
