<?xml version="1.0" encoding="utf-8"?>
<!-- Generator: Adobe Illustrator 21.1.0, SVG Export Plug-In . SVG Version: 6.00 Build 0)  -->
<svg version="1.1" id="Layer_1" xmlns="http://www.w3.org/2000/svg" xmlns:xlink="http://www.w3.org/1999/xlink" x="0px" y="0px"
	 viewBox="0 0 500 500" style="enable-background:new 0 0 500 500;" xml:space="preserve">
<style type="text/css">
	.st0{fill:none;}
	.st1{fill:#3B4663;}
	.st2{fill:#E3E3EC;}
	.st3{fill:#565E6E;}
	.st4{fill:#525969;}
	.st5{fill:#7F8195;}
	.st6{fill:#495060;}
	.st7{fill:#878996;}
	.st8{fill:#888CA1;}
	.st9{fill:#A4A9B6;}
	.st10{fill:#61697C;}
	.st11{fill:#5D6678;}
	.st12{fill:#9296AD;}
	.st13{fill:#A1B5C6;}
	.st14{fill:#B0C9D8;}
	.st15{fill:#C8D4DB;}
	.st16{fill:#98ABBB;}
	.st17{fill:#C9D2D2;}
	.st18{fill:#A7BFCB;}
	.st19{fill:#6A5263;}
	.st20{fill:#828C64;}
	.st21{fill:#9AAA69;}
	.st22{fill:#333C57;}
	.st23{fill:#52496E;}
	.st24{fill:#7A5674;}
	.st25{fill:#86608B;}
	.st26{fill:#977EA1;}
	.st27{fill:#C7D0D7;}
	.st28{fill:#BBC0CF;}
	.st29{fill:#B0B5C4;}
</style>
<g>
	<g>
		<polygon class="st0" points="258.3,276.4 264.5,280.5 269.7,268.9 		"/>
	</g>
	<g>
		<path class="st1" d="M265.8,178.2l8.5,10.9l30-20.7c-1-0.1-4.8-0.9-5.1-7.9c0-1.4,0-3,0-4.6l-25.6,16.8l0.2,0.3L265.8,178.2z"/>
	</g>
	<g>
		<path class="st1" d="M308.1,165.7L308.1,165.7L308.1,165.7z"/>
	</g>
	<g>
		<path class="st2" d="M353.6,355.2l-94.2-63.4l5.1-11.2l-6.2-4.1l-4.5,3l-20-12.9l0,0L166,311.4l-59.4-38.7l15.4-17.1l-15.2-9.8
			c-1.5,0.7-3,1.2-4.3,1.6c1,5.3,1.4,11.2,0.9,14.3c-1.1,6.6-5.5,7.5-5.7,7.5c-0.3,0-5.4-0.2-5.8-8.6c-0.2-3.6,0.2-8.4,1-12.8
			c-4.3-0.9-10.2-3.3-11.8-9.5c-1.7,3.2-4.3,3.6-4.5,3.6c-0.1,0-1.8,0-3.3-1.6l-2.3,1.6l-39.3,27.3l10.6,4.9L15,294.4l88.5,58.4
			l44.4-35.9l61.1,41.7l-49.1,32l55.8,40l43.2-29.3c-1.4-0.1-6.8-1.5-7.3-11.4c-0.2-4.7,0.3-11,1.3-16.8c-6.3-1.3-15-5-16-15.1
			c-0.5-4.8,0.1-10.7,1.7-16.8c-2.9,2.1-6.3,3.4-9.1,4.2c1.3,6.9,1.9,14.7,1.1,18.9c-1.4,8.7-7.3,9.8-7.5,9.8
			c-0.4,0-7.1-0.3-7.6-11.4c-0.2-4.7,0.3-11,1.3-16.8c-6.3-1.3-15-5-16-15.1c-1.3-13.2,5.9-35.6,16.4-42l0,0l0.1,0
			c0.1-0.1,0.3-0.2,0.5-0.3c0,0,0.1,0,0.2-0.1c0.2-0.1,0.4-0.2,0.5-0.3l0.1,0c0.2-0.1,0.5-0.2,0.7-0.3l0,0c0.2-0.1,0.4-0.1,0.7-0.2
			c0,0,0.1,0,0.2,0c0.1,0,0.3-0.1,0.5-0.1c0.1,0,0.1,0,0.2,0c0.1,0,0.3,0,0.4-0.1c0.1,0,0.2,0,0.2,0c0.1,0,0.3,0,0.5,0
			c0.1,0,0.1,0,0.2,0c0.2,0,0.5,0,0.7,0c11.9,0,21.6,22.1,22.7,37c2.2-3.5,4.8-6.3,7.6-8l0,0c0,0,0.1-0.1,0.2-0.1
			c0.1,0,0.2-0.1,0.3-0.1c0.1,0,0.2-0.1,0.3-0.2c0.1,0,0.2-0.1,0.4-0.2c0.1,0,0.2-0.1,0.3-0.1c0.2-0.1,0.4-0.2,0.7-0.3l0.1,0
			c0.2,0,0.4-0.1,0.6-0.2c0,0,0.1,0,0.2,0c0.1,0,0.3-0.1,0.5-0.1c0.1,0,0.1,0,0.2,0c0.1,0,0.3,0,0.5-0.1c0.1,0,0.1,0,0.2,0
			c0.2,0,0.3,0,0.5,0c0,0,0.1,0,0.2,0c0.2,0,0.5,0,0.7,0l0,0l0,0c14.8,0,26.1,33.7,22,45.9c-1.5,4.5-2.2,5.9-5.9,7.9
			c-3.1,2.3-6.6,3.7-9.6,4.6c1.3,6.9,1.9,14.7,1.1,18.9c-0.4,2.6-1.2,4.5-2.2,6l49-33.2l17.1,9.9l37-25l0,0l-11.5,7.6
			C355.3,356.3,354.5,355.7,353.6,355.2z"/>
	</g>
	<g>
		<polygon class="st3" points="253.2,111.7 253.2,111.7 240.5,115.8 237.2,120.6 252.2,142.2 		"/>
	</g>
	<g>
		<polygon class="st4" points="162.6,181.4 192,213.1 201.4,205.2 201.4,133.9 168.8,115.1 139.4,156.5 		"/>
	</g>
	<g>
		<polygon class="st5" points="253.2,111.7 252.2,142.2 261.8,155.8 283.4,142.5 253.6,96.8 265.7,115.3 		"/>
	</g>
	<g>
		<path class="st6" d="M81.3,220.1c0.2,1.1,0.4,2.2,0.6,3.4c0.3-1.3,0.7-2.6,1.1-4C82.5,219.8,81.9,220,81.3,220.1z"/>
	</g>
	<g>
		<path class="st6" d="M93.7,204L93.7,204c0.1-0.1,0.2-0.1,0.3-0.1c0.1,0,0.2-0.1,0.3-0.1c0.1,0,0.2-0.1,0.3-0.1
			c0.1,0,0.3-0.1,0.4-0.1c0.1,0,0.2,0,0.3-0.1c0.1,0,0.1,0,0.2,0c0.1,0,0.2,0,0.3-0.1c0.1,0,0.1,0,0.2,0s0.2,0,0.3,0
			c0,0,0.1,0,0.2,0c0.1,0,0.2,0,0.3,0c0,0,0.1,0,0.2,0c0.2,0,0.3,0,0.5,0c11.2,0,19.8,25.6,16.7,34.9c-1.2,3.5-1.7,4.5-4.5,6l0,0
			c-1,0.7-2,1.3-3,1.8l15.2,9.8l5.3-5.9l-0.6-60.6l-20.1-20.4l-16.2,21.7c1.6,4.1,2.7,8.4,3.1,12.2C93.7,203.1,93.7,203.6,93.7,204z
			"/>
	</g>
	<g>
		<path class="st6" d="M68.7,219.7l-0.8,1.1l3.3,2.1c0.1-0.8,0.2-1.6,0.4-2.4C70.8,220.3,69.8,220.1,68.7,219.7z"/>
	</g>
	<g>
		<polygon class="st7" points="137.1,239 166.1,206.8 182.3,221.1 192,213.1 162.6,181.4 138.2,176.7 126.8,189.1 126.8,189.1 
			127.4,249.7 		"/>
	</g>
	<g>
		<polygon class="st8" points="215.2,108.1 201.4,133.9 201.4,205.2 253.3,162.1 265.8,178.2 273.7,173 273.5,172.7 261.8,155.8 
			252.2,142.2 237.2,120.6 201.4,69.3 230.2,110.5 		"/>
	</g>
	<g>
		<polygon class="st9" points="253.3,162.1 279.8,196.2 253.8,220.6 253.6,220.4 253.8,279.4 258.3,276.4 269.7,268.9 294.2,214.9 
			274.2,189.1 265.8,178.2 		"/>
	</g>
	<g>
		<polygon class="st10" points="238.2,206.8 205.3,201.9 253.3,162.1 201.4,205.2 192,213.1 182.3,221.1 233.9,266.5 253.8,279.4 
			253.6,220.4 		"/>
	</g>
	<g>
		<polygon class="st11" points="166,246.3 157.5,235.4 137.1,239 137.1,239 137.1,239 127.4,249.7 122,255.6 106.7,272.7 166,311.4 
			166.1,246.3 		"/>
	</g>
	<g>
		<polygon class="st12" points="166.1,206.8 188.5,226.6 166.1,246.3 166,311.4 233.9,266.5 233.9,266.5 182.3,221.1 		"/>
	</g>
	<g>
		<polygon class="st13" points="157.5,235.4 166,246.3 166.1,206.8 137.1,239 		"/>
	</g>
	<g>
		<path class="st13" d="M137.1,239L137.1,239L137.1,239z"/>
	</g>
	<g>
		<polygon class="st14" points="166.1,246.3 188.5,226.6 166.1,206.8 166,246.3 		"/>
	</g>
	<g>
		<polygon class="st13" points="238.2,206.8 253.6,220.4 253.8,220.6 253.3,162.1 205.3,201.9 		"/>
	</g>
	<g>
		<polygon class="st15" points="279.8,196.2 253.3,162.1 253.8,220.6 		"/>
	</g>
	<g>
		<polygon class="st16" points="126.8,189.1 126.3,142.3 106.7,168.7 106.7,168.7 		"/>
	</g>
	<g>
		<polygon class="st17" points="138.2,176.7 162.6,181.4 162.6,181.4 139.4,156.5 126.3,142.3 126.8,189.1 		"/>
	</g>
	<g>
		<polygon class="st18" points="201.4,69.3 168.8,115.1 168.8,115.1 201.4,133.9 		"/>
	</g>
	<g>
		<polygon class="st17" points="215.2,108.1 230.2,110.5 201.4,69.3 201.4,133.9 		"/>
	</g>
	<g>
		<polygon class="st18" points="253.6,96.8 240.5,115.8 240.5,115.8 253.2,111.7 		"/>
	</g>
	<g>
		<polygon class="st17" points="253.2,111.7 265.7,115.3 253.6,96.8 		"/>
	</g>
	<g>
		<path class="st19" d="M81,238.3c-0.1-0.6-0.3-1.3-0.4-2c-0.4-3.6,0.1-8.2,1.3-12.8c-0.1-1.1-0.3-2.3-0.6-3.4c-2.6,0.8-4.7,1-4.9,1
			c-0.3,0-2.2,0-4.7-0.6c-0.1,0.8-0.2,1.6-0.4,2.4c-0.5,3.7-0.7,7.5-0.6,10.4c0.2,3.7,1.2,5.8,2.4,7.1c1.5,1.6,3.2,1.6,3.3,1.6
			C76.7,242,79.3,241.4,81,238.3z"/>
	</g>
	<g>
		<path class="st20" d="M76.5,175.8c-0.2,0-0.4,0-0.5,0C76.1,175.8,76.3,175.8,76.5,175.8L76.5,175.8z"/>
	</g>
	<g>
		<path class="st20" d="M76.4,221.1c0.2,0,2.3-0.2,4.9-1c0.6-0.1,1.1-0.3,1.7-0.5c-0.4,1.3-0.8,2.6-1.1,4c-1.1,4.5-1.6,9.1-1.3,12.8
			c0,0.7,0.2,1.4,0.4,2c1.6,6.2,7.5,8.6,11.8,9.5c2.5,0.5,4.4,0.6,4.7,0.6c0.2,0,2.3-0.2,4.9-1c1.3-0.4,2.8-0.9,4.3-1.6
			c1-0.5,2.1-1.1,3-1.8c0,0-5.9,3-13.3-6.4c-7.5-9.3-3.4-33-3.3-33.2c-3.7,2.2-6.8,7-9.1,12.5c-2.3-0.6-5.3-2.3-8.7-6.5
			c-7.5-9.4-3.3-33.2-3.3-33.2C64,182,58.5,199,59.5,209c0.6,6.2,5.1,9.3,9.3,10.7c1,0.3,2,0.6,3,0.8
			C74.2,221,76.1,221.1,76.4,221.1z"/>
	</g>
	<g>
		<path class="st21" d="M75.4,210.3c3.4,4.3,6.4,5.9,8.7,6.5c2.2-5.5,5.3-10.3,9.1-12.5c0,0.2-4.1,23.9,3.3,33.2
			c7.5,9.3,13.2,6.4,13.3,6.4l0,0c2.8-1.6,3.3-2.6,4.5-6c3.2-9.2-5.5-34.9-16.7-34.9c-0.2,0-0.3,0-0.5,0c0,0-0.1,0-0.2,0
			s-0.2,0-0.3,0c0,0-0.1,0-0.2,0c-0.1,0-0.2,0-0.3,0c-0.1,0-0.1,0-0.2,0s-0.2,0-0.3,0.1c-0.1,0-0.1,0-0.2,0c-0.1,0-0.2,0-0.3,0.1
			c-0.1,0-0.3,0.1-0.4,0.1c-0.1,0-0.2,0-0.3,0.1c-0.1,0-0.2,0.1-0.3,0.1c-0.1,0-0.1,0-0.2,0.1l0,0c0-0.4,0-0.9-0.1-1.4
			c-0.4-3.8-1.5-8.1-3.1-12.2c-3.2-7.9-8.2-14.7-14-14.7l0,0c-0.2,0-0.4,0-0.5,0c0,0-0.1,0-0.1,0c-0.1,0-0.2,0-0.4,0
			c0,0-0.1,0-0.2,0c-0.1,0-0.2,0-0.3,0c0,0-0.1,0-0.2,0c-0.1,0-0.2,0-0.3,0.1c0,0-0.1,0-0.2,0c-0.1,0-0.3,0.1-0.4,0.1h0
			c-0.2,0-0.3,0.1-0.5,0.2l-0.1,0c-0.1,0-0.3,0.1-0.4,0.2l-0.1,0c-0.1,0.1-0.3,0.1-0.4,0.2h0l0,0C72,177.1,67.9,201,75.4,210.3z
			 M93.5,204.2c-0.1,0-0.1,0.1-0.2,0.1C93.4,204.3,93.4,204.2,93.5,204.2z"/>
	</g>
	<g>
		<path class="st19" d="M92.9,247.8c-0.8,4.3-1.1,9.2-1,12.8c0.4,8.5,5.5,8.6,5.8,8.6c0.2,0,4.6-0.9,5.7-7.5
			c0.5-3.2,0.1-9.1-0.9-14.3c-2.6,0.8-4.7,1-4.9,1C97.3,248.4,95.3,248.4,92.9,247.8z"/>
	</g>
	<g>
		<path class="st0" d="M95,203.5c0.1,0,0.2,0,0.3-0.1"/>
	</g>
	<g>
		<path class="st0" d="M96,203.2c0.1,0,0.2,0,0.3,0"/>
	</g>
	<g>
		<path class="st0" d="M94.3,203.8c0.1,0,0.2-0.1,0.3-0.1"/>
	</g>
	<g>
		<path class="st0" d="M93.8,204c0.1,0,0.1-0.1,0.2-0.1"/>
	</g>
	<g>
		<path class="st0" d="M96.5,203.1c0.1,0,0.2,0,0.3,0"/>
	</g>
	<g>
		<path class="st0" d="M95.5,203.4c0.1,0,0.2,0,0.3-0.1"/>
	</g>
	<g>
		<path class="st0" d="M97.1,203.1c0.2,0,0.3,0,0.5,0"/>
	</g>
	<g>
		<path class="st0" d="M93.3,204.3c0.1,0,0.1-0.1,0.2-0.1"/>
	</g>
	<g>
		<path class="st22" d="M411.8,286.1l-8.2-5.7l-2.3,5.2c-1.5,15-4.3,31.7-9.7,38.8c-10.8,14.1-16.6,19.9-16.6,19.9l61.8-40.9
			c0,0-12-1.1-19.2-7.5C415.6,294.2,413.7,290.5,411.8,286.1z M416,295.2l-6.2,4.1l-6.2-4.3v-0.7l6.2-3.9l6.2,3.9V295.2z"/>
	</g>
	<g>
		<path class="st23" d="M417.6,296c7.2,6.5,19.1,7.5,19.2,7.5l0,0l-24.9-17.3C413.7,290.5,415.6,294.2,417.6,296z"/>
	</g>
	<g>
		<path class="st23" d="M391.6,324.5c5.4-7.1,8.2-23.8,9.7-38.8L375,344.4l0,0C375,344.4,380.8,338.6,391.6,324.5z"/>
	</g>
	<g>
		<path class="st24" d="M264.5,280.5l-5.1,11.2l94.2,63.4c-82.9-56.9-48.9-163.7-48.9-163.7l-10.6,23.5l-24.5,54L264.5,280.5z"/>
	</g>
	<g>
		<path class="st25" d="M353.6,355.2c0.8,0.6,1.6,1.1,2.5,1.7l45.8-100.4l-97.2-65C304.8,191.5,270.8,298.2,353.6,355.2z"/>
	</g>
	<g>
		<polygon class="st26" points="422.4,288.2 414.1,282.5 414.1,281.6 422.4,276.4 422.9,276.7 421.2,275.1 408.8,266.6 408.8,265 
			410,264.3 401.9,256.4 356.1,356.8 367.7,349.2 375,344.4 401.3,285.7 403.7,280.4 411.8,286.1 436.8,303.5 444.9,298.1 
			429.7,283.3 		"/>
	</g>
	<g>
		<polygon class="st27" points="403.7,294.4 409.9,298.5 416,294.4 409.9,290.5 		"/>
	</g>
	<g>
		<polygon class="st28" points="403.7,294.4 403.7,295.1 409.9,299.3 409.9,298.5 		"/>
	</g>
	<g>
		<polygon class="st29" points="409.9,299.3 416,295.2 416,294.4 409.9,298.5 		"/>
	</g>
	<g>
		<polygon class="st27" points="414.1,281.6 422.4,287 430.6,281.6 422.9,276.7 422.4,276.4 		"/>
	</g>
	<g>
		<polygon class="st28" points="414.1,281.6 414.1,282.5 422.4,288.2 422.4,287 		"/>
	</g>
	<g>
		<polygon class="st29" points="422.4,288.2 429.7,283.3 430.6,282.6 430.6,281.6 422.4,287 		"/>
	</g>
	<g>
		<polygon class="st27" points="423,274.4 437.3,265 423,256 410,264.3 408.8,265 		"/>
	</g>
	<g>
		<polygon class="st28" points="408.8,265 408.8,266.6 421.2,275.1 423,276.4 423,274.4 		"/>
	</g>
	<g>
		<polygon class="st29" points="423,276.4 437.3,266.9 437.3,265 423,274.4 		"/>
	</g>
	<g>
		<polygon class="st27" points="425.2,228.5 408.1,239.3 438.4,259.3 468.8,239.3 460.1,233.8 446.3,243 		"/>
	</g>
	<g>
		<polygon class="st28" points="408.1,239.3 408.1,242.6 438.4,263.5 438.4,259.3 		"/>
	</g>
	<g>
		<polygon class="st29" points="438.4,263.5 468.8,243.2 468.8,239.3 438.4,259.3 		"/>
	</g>
	<g>
		<polygon class="st27" points="485,212.1 455.3,193.4 423.2,214.8 413.7,208.3 407.6,212.1 446.3,237.6 		"/>
	</g>
	<g>
		<polygon class="st28" points="446.3,237.6 407.6,212.1 407.6,216.4 425.2,228.5 446.3,243 		"/>
	</g>
	<g>
		<polygon class="st29" points="485,212.1 446.3,237.6 446.3,243 460.1,233.8 485,217.2 		"/>
	</g>
	<g>
		<polygon class="st27" points="471.1,176.7 423.2,146.5 375.4,176.7 423.2,208.2 		"/>
	</g>
	<g>
		<polygon class="st28" points="423.2,208.2 375.4,176.7 375.4,181.9 413.7,208.3 423.2,214.8 		"/>
	</g>
	<g>
		<polygon class="st29" points="423.2,214.8 455.3,193.4 471.1,183 471.1,176.7 423.2,208.2 		"/>
	</g>
	<g>
		<path class="st19" d="M216.8,346c-1,5.7-1.5,12.1-1.3,16.8c0.5,11.1,7.3,11.4,7.6,11.4c0.2,0,6.1-1.1,7.5-9.8
			c0.7-4.2,0.1-11.9-1.1-18.9c-3.5,1-6.2,1.2-6.5,1.2C222.6,346.7,220.1,346.7,216.8,346z"/>
	</g>
	<g>
		<path class="st21" d="M221.6,332.6c8.5,10.6,15.3,9.2,17.1,8.5c1.5-6.1,4-12.2,7.1-17c-1.1-14.9-10.7-37-22.7-37
			c-0.2,0-0.5,0-0.7,0c-0.1,0-0.1,0-0.2,0c-0.1,0-0.3,0-0.5,0c-0.1,0-0.2,0-0.2,0c-0.1,0-0.3,0-0.4,0.1c-0.1,0-0.1,0-0.2,0
			c-0.1,0-0.3,0.1-0.5,0.1c0,0-0.1,0-0.2,0c-0.2,0-0.4,0.1-0.7,0.2l0,0c-0.2,0.1-0.5,0.2-0.7,0.3l-0.1,0c-0.2,0.1-0.4,0.2-0.5,0.3
			c0,0-0.1,0-0.2,0.1c-0.1,0.1-0.3,0.2-0.5,0.3l-0.1,0l0,0C217.2,289,211.8,320.3,221.6,332.6z"/>
	</g>
	<g>
		<path class="st19" d="M265.7,372.7c-3.5,1-6.2,1.2-6.5,1.2c-0.4,0-2.9,0-6.2-0.7c-1,5.7-1.5,12.1-1.3,16.8
			c0.5,9.9,5.8,11.2,7.3,11.4c0.2,0,0.3,0,0.3,0c0.2,0,3.1-0.6,5.3-3.9c1-1.4,1.8-3.3,2.2-6C267.5,387.3,267,379.6,265.7,372.7z"/>
	</g>
	<g>
		<path class="st20" d="M259.2,314.3c-0.2,0-0.5,0-0.7,0C258.8,314.3,259,314.3,259.2,314.3L259.2,314.3z"/>
	</g>
	<g>
		<path class="st20" d="M259.2,373.9c0.3,0,3-0.2,6.5-1.2c3-0.9,6.5-2.2,9.6-4.6l0,0c0,0-7.6,4-17.5-8.4
			c-9.8-12.2-4.5-43.4-4.4-43.7c-2.8,1.7-5.4,4.5-7.6,8c-3.1,4.8-5.5,10.9-7.1,17c-1.8,0.6-8.6,2.1-17.1-8.5
			c-9.8-12.3-4.4-43.5-4.4-43.7c-10.6,6.4-17.8,28.8-16.4,42c1,10.2,9.8,13.9,16,15.1c3.3,0.7,5.8,0.7,6.2,0.7c0.3,0,3-0.2,6.5-1.2
			c2.9-0.8,6.2-2.1,9.1-4.2c-1.5,6-2.1,12-1.7,16.8c1,10.2,9.8,13.9,16,15.1C256.3,373.9,258.8,373.9,259.2,373.9z"/>
	</g>
	<g>
		<path class="st21" d="M257.8,359.7c9.8,12.3,17.5,8.4,17.5,8.4l0,0c3.6-2.1,4.3-3.4,5.9-7.9c4.1-12.1-7.2-45.9-22-45.9l0,0
			c-0.2,0-0.5,0-0.7,0c0,0-0.1,0-0.2,0c-0.2,0-0.3,0-0.5,0c-0.1,0-0.1,0-0.2,0c-0.1,0-0.3,0-0.5,0.1c-0.1,0-0.1,0-0.2,0
			c-0.1,0-0.3,0.1-0.5,0.1c0,0-0.1,0-0.2,0c-0.2,0-0.4,0.1-0.6,0.2l-0.1,0c-0.2,0.1-0.4,0.2-0.7,0.3c-0.1,0-0.2,0.1-0.3,0.1
			c-0.1,0-0.2,0.1-0.4,0.2c-0.1,0-0.2,0.1-0.3,0.2c-0.1,0-0.2,0.1-0.3,0.1c0,0-0.1,0-0.2,0.1l0,0C253.3,316.4,248,347.5,257.8,359.7
			z"/>
	</g>
	<g>
		<path class="st19" d="M299.1,160.5c0.3,7,4.2,7.8,5.1,7.9c0.1,0,0.2,0,0.2,0c0.1,0,2.1-0.4,3.7-2.7l0,0c0.7-1,1.2-2.3,1.5-4.1
			c0.5-2.9,0.1-8.3-0.8-13.1c-2.4,0.7-4.3,0.9-4.5,0.9c-0.2,0-2.1,0-4.3-0.5c-0.4,2.3-0.7,4.7-0.8,7
			C299.1,157.6,299.1,159.1,299.1,160.5z"/>
	</g>
	<g>
		<path class="st20" d="M304.3,149.3c0.2,0,2.1-0.2,4.5-0.9c2.1-0.6,4.6-1.6,6.7-3.2c0,0-5.3,2.7-12.2-5.8
			c-6.8-8.5-3.1-30.1-3.1-30.4c-7.4,4.4-12.3,20-11.4,29.2c0.7,7.1,6.8,9.6,11.2,10.6C302.3,149.3,304.1,149.4,304.3,149.3z"/>
	</g>
	<g>
		<path class="st21" d="M303.4,139.5c6.8,8.5,12.1,5.8,12.2,5.8l0,0c2.5-1.4,3-2.3,4.1-5.5c2.9-8.5-5-31.9-15.2-31.9
			c-0.1,0-0.3,0-0.5,0c0,0-0.1,0-0.1,0c-0.1,0-0.2,0-0.3,0c0,0-0.1,0-0.2,0c-0.1,0-0.2,0-0.3,0c0,0-0.1,0-0.2,0c-0.1,0-0.2,0-0.3,0
			c0,0-0.1,0-0.2,0c-0.1,0-0.2,0-0.2,0.1c-0.2,0-0.3,0.1-0.5,0.2l-0.1,0c-0.1,0-0.2,0.1-0.3,0.1c0,0-0.1,0-0.1,0
			c-0.1,0-0.2,0.1-0.3,0.1l-0.1,0c0,0-0.1,0-0.1,0.1l0,0C300.2,109.5,296.5,131,303.4,139.5z"/>
	</g>
</g>
</svg>
