<?xml version="1.0" encoding="utf-8"?>
<!-- Generator: Adobe Illustrator 21.1.0, SVG Export Plug-In . SVG Version: 6.00 Build 0)  -->
<svg version="1.1" id="Layer_1" xmlns="http://www.w3.org/2000/svg" xmlns:xlink="http://www.w3.org/1999/xlink" x="0px" y="0px"
	 viewBox="0 0 600 623.6" style="enable-background:new 0 0 600 623.6;" xml:space="preserve">
<style type="text/css">
	.st0{fill:#ADBD3D;}
	.st1{opacity:0.85;}
	.st2{fill:#4D4967;}
	.st3{fill:#63568A;}
	.st4{fill:#907BA2;}
	.st5{fill:#DCD6E5;}
</style>
<g>
	<g>
		<path class="st0" d="M137.9,422L137.9,422c-20.6-20.6-53.9-20.6-74.4,0v0c-20.6,20.6-20.6,53.9,0,74.4l37.2,37.2l37.2-37.2
			C158.5,475.8,158.5,442.5,137.9,422z M130.2,477.1c-0.9,0.5-1.8,1.1-2.7,1.6c-0.6,0.4-1.1,0.8-1.7,1.1c-0.5,0.3-1,0.5-1.6,0.7
			c-2.9,1.1-6.1,1.3-9.2,0.8c-1.5-0.2-2.9-0.6-4.1-1.4c-0.1-0.1-0.3-0.2-0.4-0.3c0.2,0.5,0.3,1.1,0.4,1.7c0.3,1.4,0.7,2.8,1,4.2
			c0.2,0.8-0.7,1.5-1.6,1.1c-1-0.5-2.1-1-3.1-1.4c-0.5-0.2-1.1-0.5-1.6-0.8c-0.7-0.4-1.3-0.9-1.9-1.5c-1.4-1.6-2.3-3.4-2.8-5.3
			c0-0.1-0.1-0.3-0.1-0.4c-0.4,1.4-0.9,2.8-1.8,4.1c-0.9,1.4-2.2,2.6-3.8,3.4c-1.3,0.6-2.7,1.2-4.1,1.8c-0.4,0.2-0.9,0.2-1.3-0.2
			c-0.3-0.2-0.4-0.6-0.3-0.9c0.4-1.4,0.7-2.8,1.1-4.2c0.1-0.5,0.3-1.1,0.5-1.6c-0.4,0.3-0.9,0.5-1.3,0.7c-1.6,0.7-3.4,1-5.2,1.1
			c-2.8,0.2-5.8-0.2-8.4-1.5c-0.4-0.2-0.7-0.4-1.1-0.7c-0.6-0.4-1.1-0.7-1.7-1.1c-0.7-0.4-1.5-0.9-2.2-1.3c-0.6-0.4-0.5-1.4,0.2-1.5
			c2.3-0.6,4.7-1.4,6.9-2.3c0.2-0.1,0.6-0.2,0.9-0.4c0.3-0.1,0.6-0.3,0.9-0.4c0.5-0.3,1.1-0.6,1.6-0.8c0.7-0.4,1.3-0.7,2-1.1
			c-0.8-0.8-1.6-1.6-2.2-2.5c-0.9-1.3-1.5-2.6-2.1-4.1c-0.4-1.2-0.8-2.3-1.2-3.5c-0.8-2.4-1.6-4.8-2.4-7.2c-0.2-0.6,0.4-1.2,1-1
			c1.5,0.5,3.1,1,4.6,1.6c1.4,0.5,2.8,0.9,4.2,1.4c1.2,0.4,2.4,0.9,3.5,1.4c1.4,0.7,2.6,1.6,3.8,2.6c0.4,0.4,0.8,0.8,1.2,1.2
			c-0.3-1.2-0.5-2.5-0.6-3.8c-0.2-2.7,0-5.4,0.9-8c0.7-2.1,1.8-4,2.8-6c0.9-1.8,1.8-3.6,2.7-5.4c0.3-0.5,1.2-0.6,1.5,0
			c1.2,2.4,2.4,4.8,3.6,7.2c0,0.1,0.1,0.2,0.1,0.3c0.9,1.9,1.8,3.8,2.3,5.8c0.3,1.4,0.4,2.7,0.4,4.1c0,1.7-0.2,3.5-0.6,5.1
			c-0.1,0.3-0.1,0.5-0.2,0.8c0.2-0.2,0.4-0.4,0.6-0.6c1.1-1.1,2.3-2.2,3.7-3.1c1-0.7,2-1.2,3.1-1.7c1-0.5,2.1-0.8,3.2-1.2
			c2.4-0.8,4.8-1.6,7.2-2.4c0.6-0.2,1.2,0.4,1,1c-0.1,0.3-0.2,0.6-0.3,0.9c-0.5,1.4-0.9,2.8-1.4,4.3c-0.5,1.4-0.9,2.8-1.4,4.1
			c-0.5,1.4-1.1,2.9-1.9,4.2c-1,1.6-2.2,3-3.6,4.3c0.1,0,0.1,0.1,0.2,0.1c1,0.6,2,1.2,3.1,1.8c1.3,0.7,2.4,1.2,3.7,1.7
			c1.9,0.7,3.8,1.3,5.8,1.8C130.7,475.7,130.8,476.7,130.2,477.1z"/>
	</g>
	<g>
		<g class="st1">
			<g>
				<path class="st2" d="M370.5,445.9H245.1c0-85.3-69.4-154.7-154.7-154.7V165.9C244.9,165.9,370.5,291.5,370.5,445.9z"/>
			</g>
		</g>
		<g class="st1">
			<g>
				<path class="st3" d="M165.1,355.8c-24.5-25.2-57.4-39.1-92.6-39.1V191.4c69.3,0,134,27.3,182.4,77L165.1,355.8z"/>
			</g>
		</g>
		<g class="st1">
			<g>
				<path class="st4" d="M75.6,344.5c-6.8-1.4-13.9-2.1-20.9-2.1V217c15.5,0,31,1.6,46.1,4.7L75.6,344.5z"/>
			</g>
		</g>
		<g>
			<polygon class="st5" points="73,253.5 72.2,252.9 182.5,109.6 408,109.6 408,110.7 183,110.7 			"/>
		</g>
		<g>
			<path class="st5" d="M455.1,115.8c0-1.1-0.4-2-1.1-2.8c-0.7-0.7-1.9-1.4-3.5-2c-1.7-0.6-2.9-1.1-3.9-1.6
				c-3.1-1.6-4.6-4.1-4.6-7.3c0-2.2,0.7-4,2-5.4c1.3-1.4,3.1-2.2,5.4-2.5V90h3.2v4.3c2.3,0.3,4.1,1.3,5.3,2.9
				c1.2,1.6,1.9,3.7,1.9,6.3h-4.8c0-1.7-0.4-3-1.1-3.9c-0.7-1-1.8-1.4-3-1.4c-1.3,0-2.2,0.3-3,1c-0.7,0.7-1.1,1.7-1.1,2.9
				c0,1.1,0.4,2.1,1.1,2.7c0.7,0.7,1.9,1.3,3.6,2c1.7,0.6,3,1.2,4,1.7c1,0.5,1.8,1.1,2.4,1.8c0.7,0.7,1.2,1.5,1.5,2.3
				c0.4,0.9,0.5,1.9,0.5,3.1c0,2.2-0.7,4-2,5.4c-1.4,1.4-3.3,2.2-5.7,2.4v3.8H449v-3.8c-2.6-0.3-4.6-1.2-6-2.8
				c-1.4-1.6-2.1-3.7-2.1-6.3h4.8c0,1.7,0.4,2.9,1.3,3.8c0.8,0.9,2,1.4,3.5,1.4c1.5,0,2.6-0.4,3.4-1.1
				C454.7,118,455.1,117,455.1,115.8z"/>
			<path class="st5" d="M465.3,109.1l1.6-14.5h15.4v4.1h-11.4l-0.8,6.9c1.3-0.8,2.8-1.1,4.5-1.1c2.7,0,4.9,0.9,6.4,2.6
				c1.5,1.7,2.3,4.1,2.3,7.1c0,2.9-0.8,5.2-2.5,7c-1.7,1.7-4,2.6-6.9,2.6c-2.6,0-4.8-0.7-6.5-2.2c-1.7-1.5-2.7-3.5-2.8-5.9h4.6
				c0.2,1.4,0.7,2.5,1.5,3.2c0.8,0.7,1.9,1.1,3.2,1.1c1.5,0,2.6-0.5,3.4-1.6c0.8-1.1,1.2-2.5,1.2-4.3c0-1.7-0.5-3.1-1.4-4.1
				s-2.2-1.5-3.7-1.5c-0.9,0-1.6,0.1-2.2,0.3c-0.6,0.2-1.3,0.7-2,1.3L465.3,109.1z"/>
			<path class="st5" d="M505.6,111.2c0,4.1-0.8,7.2-2.3,9.3c-1.5,2.1-3.9,3.1-7,3.1c-3.1,0-5.4-1-7-3.1s-2.4-5.1-2.4-9.1v-5
				c0-4.1,0.8-7.2,2.3-9.3c1.5-2.1,3.9-3.1,7.1-3.1c3.1,0,5.5,1,7,3c1.5,2,2.3,5,2.4,9V111.2z M500.8,105.9c0-2.7-0.4-4.7-1.1-5.9
				c-0.7-1.3-1.9-1.9-3.5-1.9c-1.6,0-2.7,0.6-3.4,1.8c-0.7,1.2-1.1,3-1.2,5.6v6.5c0,2.7,0.4,4.7,1.1,6c0.7,1.3,1.9,2,3.5,2
				c1.5,0,2.7-0.6,3.4-1.8c0.7-1.2,1.1-3.1,1.2-5.7V105.9z"/>
			<path class="st5" d="M517.1,114.2l-2.1,2.2v7h-4.8V93.1h4.8v17.5l1.5-1.9l5.9-6.6h5.8l-7.9,8.9l8.8,12.4h-5.5L517.1,114.2z"/>
		</g>
		<g>
			<path class="st4" d="M455.1,204.7c0-1.1-0.4-2-1.1-2.8c-0.7-0.7-1.9-1.4-3.5-2c-1.7-0.6-2.9-1.1-3.9-1.6
				c-3.1-1.6-4.6-4.1-4.6-7.3c0-2.2,0.7-4,2-5.4c1.3-1.4,3.1-2.2,5.4-2.5v-4.3h3.2v4.3c2.3,0.3,4.1,1.3,5.3,2.9
				c1.2,1.6,1.9,3.7,1.9,6.3h-4.8c0-1.7-0.4-3-1.1-3.9c-0.7-1-1.8-1.4-3-1.4c-1.3,0-2.2,0.3-3,1c-0.7,0.7-1.1,1.7-1.1,2.9
				c0,1.1,0.4,2.1,1.1,2.7c0.7,0.7,1.9,1.3,3.6,2c1.7,0.6,3,1.2,4,1.7c1,0.5,1.8,1.1,2.4,1.8c0.7,0.7,1.2,1.5,1.5,2.3
				c0.4,0.9,0.5,1.9,0.5,3.1c0,2.2-0.7,4-2,5.4c-1.4,1.4-3.3,2.2-5.7,2.4v3.8H449v-3.8c-2.6-0.3-4.6-1.2-6-2.8s-2.1-3.7-2.1-6.3h4.8
				c0,1.7,0.4,2.9,1.3,3.8c0.8,0.9,2,1.4,3.5,1.4c1.5,0,2.6-0.4,3.4-1.1C454.7,206.9,455.1,205.9,455.1,204.7z"/>
			<path class="st4" d="M477,212.2h-4.8v-23l-7,2.4v-4l11.2-4.1h0.6V212.2z"/>
			<path class="st4" d="M505.6,200.2c0,4.1-0.8,7.2-2.3,9.3c-1.5,2.1-3.9,3.1-7,3.1c-3.1,0-5.4-1-7-3.1c-1.6-2-2.4-5.1-2.4-9.1v-5
				c0-4.1,0.8-7.2,2.3-9.3c1.5-2.1,3.9-3.1,7.1-3.1c3.1,0,5.5,1,7,3c1.5,2,2.3,5,2.4,9V200.2z M500.8,194.8c0-2.7-0.4-4.7-1.1-5.9
				c-0.7-1.3-1.9-1.9-3.5-1.9c-1.6,0-2.7,0.6-3.4,1.8c-0.7,1.2-1.1,3-1.2,5.6v6.5c0,2.7,0.4,4.7,1.1,6c0.7,1.3,1.9,2,3.5,2
				c1.5,0,2.7-0.6,3.4-1.8c0.7-1.2,1.1-3.1,1.2-5.7V194.8z"/>
			<path class="st4" d="M528.6,200.2c0,4.1-0.8,7.2-2.3,9.3c-1.5,2.1-3.9,3.1-7,3.1c-3.1,0-5.4-1-7-3.1c-1.6-2-2.4-5.1-2.4-9.1v-5
				c0-4.1,0.8-7.2,2.3-9.3c1.5-2.1,3.9-3.1,7.1-3.1c3.1,0,5.5,1,7,3c1.5,2,2.3,5,2.4,9V200.2z M523.8,194.8c0-2.7-0.4-4.7-1.1-5.9
				c-0.7-1.3-1.9-1.9-3.5-1.9c-1.6,0-2.7,0.6-3.4,1.8c-0.7,1.2-1.1,3-1.2,5.6v6.5c0,2.7,0.4,4.7,1.1,6c0.7,1.3,1.9,2,3.5,2
				c1.5,0,2.7-0.6,3.4-1.8c0.7-1.2,1.1-3.1,1.2-5.7V194.8z"/>
			<path class="st4" d="M540,203.1l-2.1,2.2v7h-4.8V182h4.8v17.5l1.5-1.9l5.9-6.6h5.8l-7.9,8.9l8.8,12.4h-5.5L540,203.1z"/>
		</g>
		<g>
			<path class="st3" d="M455.1,298.6c0-1.1-0.4-2-1.1-2.8c-0.7-0.7-1.9-1.4-3.5-2c-1.7-0.6-2.9-1.1-3.9-1.6
				c-3.1-1.6-4.6-4.1-4.6-7.3c0-2.2,0.7-4,2-5.4c1.3-1.4,3.1-2.2,5.4-2.5v-4.3h3.2v4.3c2.3,0.3,4.1,1.3,5.3,2.9
				c1.2,1.6,1.9,3.7,1.9,6.3h-4.8c0-1.7-0.4-3-1.1-3.9c-0.7-1-1.8-1.4-3-1.4c-1.3,0-2.2,0.3-3,1c-0.7,0.7-1.1,1.7-1.1,2.9
				c0,1.1,0.4,2.1,1.1,2.7c0.7,0.7,1.9,1.3,3.6,2c1.7,0.6,3,1.2,4,1.7c1,0.5,1.8,1.1,2.4,1.8c0.7,0.7,1.2,1.5,1.5,2.3
				c0.4,0.9,0.5,1.9,0.5,3.1c0,2.2-0.7,4-2,5.4c-1.4,1.4-3.3,2.2-5.7,2.4v3.8H449v-3.8c-2.6-0.3-4.6-1.2-6-2.8s-2.1-3.7-2.1-6.3h4.8
				c0,1.7,0.4,2.9,1.3,3.8c0.8,0.9,2,1.4,3.5,1.4c1.5,0,2.6-0.4,3.4-1.1C454.7,300.8,455.1,299.8,455.1,298.6z"/>
			<path class="st3" d="M483.3,306.1H464v-3.3l9.6-10.4c1.4-1.5,2.4-2.8,2.9-3.9c0.6-1,0.9-2.1,0.9-3.1c0-1.4-0.4-2.5-1.2-3.3
				c-0.8-0.8-1.8-1.3-3.1-1.3c-1.6,0-2.8,0.5-3.6,1.4s-1.3,2.2-1.3,3.9h-4.8c0-1.7,0.4-3.3,1.2-4.7c0.8-1.4,1.9-2.5,3.4-3.3
				c1.5-0.8,3.2-1.2,5.1-1.2c2.8,0,5,0.7,6.6,2.1c1.6,1.4,2.4,3.3,2.4,5.8c0,1.4-0.4,2.9-1.2,4.5c-0.8,1.6-2.1,3.4-4,5.3l-7,7.5
				h13.3V306.1z"/>
			<path class="st3" d="M505.6,294c0,4.1-0.8,7.2-2.3,9.3c-1.5,2.1-3.9,3.1-7,3.1c-3.1,0-5.4-1-7-3.1s-2.4-5.1-2.4-9.1v-5
				c0-4.1,0.8-7.2,2.3-9.3c1.5-2.1,3.9-3.1,7.1-3.1c3.1,0,5.5,1,7,3c1.5,2,2.3,5,2.4,9V294z M500.8,288.7c0-2.7-0.4-4.7-1.1-5.9
				c-0.7-1.3-1.9-1.9-3.5-1.9c-1.6,0-2.7,0.6-3.4,1.8c-0.7,1.2-1.1,3-1.2,5.6v6.5c0,2.7,0.4,4.7,1.1,6c0.7,1.3,1.9,2,3.5,2
				c1.5,0,2.7-0.6,3.4-1.8c0.7-1.2,1.1-3.1,1.2-5.7V288.7z"/>
			<path class="st3" d="M528.6,294c0,4.1-0.8,7.2-2.3,9.3c-1.5,2.1-3.9,3.1-7,3.1c-3.1,0-5.4-1-7-3.1s-2.4-5.1-2.4-9.1v-5
				c0-4.1,0.8-7.2,2.3-9.3c1.5-2.1,3.9-3.1,7.1-3.1c3.1,0,5.5,1,7,3c1.5,2,2.3,5,2.4,9V294z M523.8,288.7c0-2.7-0.4-4.7-1.1-5.9
				c-0.7-1.3-1.9-1.9-3.5-1.9c-1.6,0-2.7,0.6-3.4,1.8c-0.7,1.2-1.1,3-1.2,5.6v6.5c0,2.7,0.4,4.7,1.1,6c0.7,1.3,1.9,2,3.5,2
				c1.5,0,2.7-0.6,3.4-1.8c0.7-1.2,1.1-3.1,1.2-5.7V288.7z"/>
			<path class="st3" d="M540,297l-2.1,2.2v7h-4.8v-30.3h4.8v17.5l1.5-1.9l5.9-6.6h5.8l-7.9,8.9l8.8,12.4h-5.5L540,297z"/>
		</g>
		<g>
			<path class="st0" d="M455.1,395.4c0-1.1-0.4-2-1.1-2.8c-0.7-0.7-1.9-1.4-3.5-2c-1.7-0.6-2.9-1.1-3.9-1.6
				c-3.1-1.6-4.6-4.1-4.6-7.3c0-2.2,0.7-4,2-5.4c1.3-1.4,3.1-2.2,5.4-2.5v-4.3h3.2v4.3c2.3,0.3,4.1,1.3,5.3,2.9
				c1.2,1.6,1.9,3.7,1.9,6.3h-4.8c0-1.7-0.4-3-1.1-3.9c-0.7-1-1.8-1.4-3-1.4c-1.3,0-2.2,0.3-3,1s-1.1,1.7-1.1,2.9
				c0,1.1,0.4,2.1,1.1,2.7c0.7,0.7,1.9,1.3,3.6,2c1.7,0.6,3,1.2,4,1.7c1,0.5,1.8,1.1,2.4,1.8c0.7,0.7,1.2,1.5,1.5,2.3
				c0.4,0.9,0.5,1.9,0.5,3.1c0,2.2-0.7,4-2,5.4c-1.4,1.4-3.3,2.2-5.7,2.4v3.8H449v-3.8c-2.6-0.3-4.6-1.2-6-2.8s-2.1-3.7-2.1-6.3h4.8
				c0,1.7,0.4,2.9,1.3,3.8c0.8,0.9,2,1.4,3.5,1.4c1.5,0,2.6-0.4,3.4-1.1C454.7,397.5,455.1,396.6,455.1,395.4z"/>
			<path class="st0" d="M483.3,402.9H464v-3.3l9.6-10.4c1.4-1.5,2.4-2.8,2.9-3.9c0.6-1,0.9-2.1,0.9-3.1c0-1.4-0.4-2.5-1.2-3.3
				c-0.8-0.8-1.8-1.3-3.1-1.3c-1.6,0-2.8,0.5-3.6,1.4c-0.9,0.9-1.3,2.2-1.3,3.9h-4.8c0-1.7,0.4-3.3,1.2-4.7c0.8-1.4,1.9-2.5,3.4-3.3
				c1.5-0.8,3.2-1.2,5.1-1.2c2.8,0,5,0.7,6.6,2.1c1.6,1.4,2.4,3.3,2.4,5.8c0,1.4-0.4,2.9-1.2,4.5c-0.8,1.6-2.1,3.4-4,5.3l-7,7.5
				h13.3V402.9z"/>
			<path class="st0" d="M488.2,388.7l1.6-14.5h15.4v4.1h-11.4l-0.8,6.9c1.3-0.8,2.8-1.1,4.5-1.1c2.7,0,4.9,0.9,6.4,2.6
				c1.5,1.7,2.3,4.1,2.3,7.1c0,2.9-0.8,5.2-2.5,7c-1.7,1.7-4,2.6-6.9,2.6c-2.6,0-4.8-0.7-6.5-2.2c-1.7-1.5-2.7-3.5-2.8-5.9h4.6
				c0.2,1.4,0.7,2.5,1.5,3.2c0.8,0.7,1.9,1.1,3.2,1.1c1.5,0,2.6-0.5,3.4-1.6c0.8-1.1,1.2-2.5,1.2-4.3c0-1.7-0.5-3.1-1.4-4.1
				c-0.9-1-2.2-1.5-3.7-1.5c-0.9,0-1.6,0.1-2.2,0.3c-0.6,0.2-1.3,0.7-2,1.3L488.2,388.7z"/>
			<path class="st0" d="M528.6,390.8c0,4.1-0.8,7.2-2.3,9.3c-1.5,2.1-3.9,3.1-7,3.1c-3.1,0-5.4-1-7-3.1c-1.6-2-2.4-5.1-2.4-9.1v-5
				c0-4.1,0.8-7.2,2.3-9.3c1.5-2.1,3.9-3.1,7.1-3.1c3.1,0,5.5,1,7,3c1.5,2,2.3,5,2.4,9V390.8z M523.8,385.4c0-2.7-0.4-4.7-1.1-5.9
				c-0.7-1.3-1.9-1.9-3.5-1.9c-1.6,0-2.7,0.6-3.4,1.8c-0.7,1.2-1.1,3-1.2,5.6v6.5c0,2.7,0.4,4.7,1.1,6c0.7,1.3,1.9,2,3.5,2
				c1.5,0,2.7-0.6,3.4-1.8c0.7-1.2,1.1-3.1,1.2-5.7V385.4z"/>
			<path class="st0" d="M540,393.7l-2.1,2.2v7h-4.8v-30.3h4.8v17.5l1.5-1.9l5.9-6.6h5.8l-7.9,8.9l8.8,12.4h-5.5L540,393.7z"/>
		</g>
		<g>
			<polygon class="st5" points="205.9,266.6 205.2,265.7 292.3,196.5 408,196.5 408,197.6 292.6,197.6 			"/>
		</g>
		<g>
			<polygon class="st5" points="300.5,338.2 299.9,337.3 360.3,294.7 408,294.7 408,295.7 360.6,295.7 			"/>
		</g>
		<g>
			<polygon class="st5" points="136.6,437.2 136.4,436.2 298.7,393.6 426.8,393.6 426.8,394.7 298.8,394.7 			"/>
		</g>
	</g>
</g>
</svg>
