<?xml version="1.0" encoding="utf-8"?>
<!-- Generator: Adobe Illustrator 21.1.0, SVG Export Plug-In . SVG Version: 6.00 Build 0)  -->
<svg version="1.1" id="Layer_1" xmlns="http://www.w3.org/2000/svg" xmlns:xlink="http://www.w3.org/1999/xlink" x="0px" y="0px"
	 viewBox="0 0 600 750.8" style="enable-background:new 0 0 600 750.8;" xml:space="preserve">
<style type="text/css">
	.st0{fill:none;}
	.st1{fill:#8F7CA3;}
	.st2{fill:#BBBDBF;}
	.st3{fill:#DBDBDA;}
	.st4{fill:#E6E7E8;}
	.st5{fill:#4D4967;}
	.st6{fill:#907BA2;}
	.st7{fill:#BCB0C7;}
	.st8{fill:#FFFFFF;}
</style>
<g>
	<polygon class="st0" points="432.7,579.8 395.7,559.1 395.6,513.5 395.6,513.5 358.5,492.8 358.5,452.1 353.3,449.2 316.4,469.8 
		286.9,453.3 205.1,498.1 242,518.7 241.9,490.2 279.7,469.1 316.7,489.8 316.8,535.5 316.8,535.5 353.7,556.1 353.8,582.6 
		315.9,603.6 278.9,582.9 278.8,556.5 278.9,556.5 242.1,535.9 242.1,564.5 204.3,585.5 167.3,564.8 167.3,564.8 130.2,544.1 
		130.2,539.2 67.9,573.3 241.5,670.6 241.4,625.2 279.2,604.2 316.2,624.9 316.3,670.1 532.1,549.5 470.4,514.9 470.5,558.8 	"/>
	<polygon class="st1" points="205.1,498.1 286.9,453.3 286.4,453 205,497.6 205,498.1 	"/>
	<polygon class="st1" points="470.4,514.4 470.4,514.9 532.1,549.5 316.3,670.1 316.3,670.6 278.5,691.6 241.5,670.9 241.5,670.6 
		67.9,573.3 130.2,539.2 130.2,538.6 67.3,573.1 67,573.3 278.3,691.8 278.4,691.9 532.7,549.7 533,549.5 	"/>
	<polygon class="st1" points="358.5,452.1 358.5,451.6 353.8,449 353.3,449.2 	"/>
	<polygon class="st2" points="130.2,544.1 167.3,564.8 167.2,550.4 167.3,564.8 167.3,564.8 204.3,585.5 204.2,539.8 167.2,519.1 
		167.2,519.1 167.2,502.9 130.2,482.2 130.2,538.6 130.2,539.2 	"/>
	<polygon class="st3" points="167.3,564.8 167.2,550.4 167.3,564.8 167.3,564.8 	"/>
	<polygon class="st3" points="167.2,519.1 205,498.1 205,498.1 205,497.6 205,481.9 167.2,502.9 	"/>
	<polygon class="st4" points="205,481.9 168,461.2 130.2,482.2 167.2,502.9 	"/>
	<polygon class="st3" points="242.1,535.9 242,535.9 242,518.8 204.2,539.8 204.3,585.5 242.1,564.5 	"/>
	<polygon class="st4" points="242,518.8 242,518.7 205.1,498.1 205,498.1 205,498.1 167.2,519.1 167.2,519.1 204.2,539.8 	"/>
	<polygon class="st2" points="278.8,556.5 278.9,582.9 315.9,603.6 315.8,577.2 	"/>
	<polygon class="st3" points="315.9,603.6 353.8,582.6 353.7,556.1 315.8,577.2 	"/>
	<polygon class="st4" points="278.9,556.5 278.8,556.5 315.8,577.2 353.7,556.1 316.8,535.5 279,556.5 	"/>
	<path class="st5" d="M360,338.9l-0.2-204.6l-66.9-37.4l0.2,204.6L360,338.9z M308.9,134.7c4.9-2.8,11.2-1.9,17.5,1.8
		c6.3,3.7,12.7,10.1,17.5,18.5c9.6,16.7,9.6,34.7-0.1,40.3l-17.6,10L308.8,175C299.1,158.3,299.2,140.3,308.9,134.7z"/>
	<path class="st5" d="M313.5,167.8c0.3,0.3,0.5,0.7,0.8,1c0.2,0.2,0.3,0.5,0.5,0.7c1,1.2,2.2,2.1,3.4,2.8c0.2,0.1,0.4,0.2,0.5,0.3
		c0.8,0.4,1.7,0.8,2.4,0.8c0.2,0,0.4,0,0.6,0c-0.1,0.2-0.2,0.5-0.2,0.7c-0.2,0.7-0.3,1.3-0.5,2c0,0.2,0,0.4,0.1,0.6
		c0.1,0.2,0.2,0.3,0.3,0.4c0.1,0.1,0.2,0.1,0.3,0.1c0.6,0,1.3,0.1,1.9,0.2c0.8,0,1.4-0.3,1.8-0.8c0.4-0.5,0.7-1.1,0.8-1.7l0,0.2
		c0.2,1.2,0.7,2.4,1.3,3.6c0.3,0.5,0.6,0.9,0.9,1.3c0.2,0.3,0.5,0.6,0.7,0.9c0.5,0.5,1,1.1,1.5,1.6c0.1,0.1,0.2,0.2,0.2,0.2
		c0.3,0.2,0.6,0,0.5-0.4c-0.2-0.9-0.3-1.7-0.5-2.5c-0.1-0.3-0.1-0.7-0.2-1l0.2,0.3c0.6,0.8,1.3,1.4,1.9,1.9c0.5,0.4,0.9,0.7,1.4,0.9
		c1,0.6,2,1,2.9,1.1c0.3,0,0.5,0.1,0.7,0c0.3,0,0.5-0.1,0.8-0.1c0.4-0.1,0.9-0.1,1.3-0.1c0.3,0,0.2-0.6-0.1-0.9
		c-0.9-0.8-1.8-1.7-2.7-2.6c-0.6-0.6-1.1-1.2-1.7-1.9c-0.5-0.6-1-1.2-1.4-1.8l-0.1-0.1c0.7-0.3,1.2-0.7,1.7-1.3
		c0.4-0.5,0.7-1.1,0.9-1.7c0.2-0.6,0.4-1.2,0.7-1.9c0.2-0.6,0.4-1.3,0.7-1.9c0.1-0.1,0.1-0.3,0.1-0.4c0.1-0.2-0.1-0.7-0.4-0.8
		c0,0-0.1,0-0.1,0c-1.1-0.2-2.3-0.4-3.4-0.6c-0.5-0.1-1-0.2-1.5-0.2c-0.5,0-1,0-1.4,0.1c-0.6,0.1-1.2,0.4-1.7,0.7
		c-0.1,0.1-0.2,0.1-0.3,0.2c0-0.1,0.1-0.2,0.1-0.4c0.2-0.8,0.3-1.7,0.3-2.6c0-0.7-0.1-1.5-0.2-2.3c-0.2-1.2-0.6-2.5-1.1-3.8
		l-0.1-0.2c-0.6-1.6-1.1-3.3-1.7-4.9c-0.1-0.2-0.2-0.3-0.3-0.4c-0.1-0.1-0.3-0.1-0.3,0c-0.4,0.7-0.9,1.5-1.3,2.2
		c-0.5,0.8-1,1.6-1.3,2.5c-0.4,1.1-0.5,2.5-0.4,4.1c0,0.7,0.1,1.4,0.3,2.2c-0.2-0.3-0.4-0.7-0.6-1c-0.5-0.9-1.1-1.7-1.8-2.4
		c-0.5-0.6-1.1-1.2-1.6-1.7c-0.7-0.6-1.3-1.3-2-1.9c-0.7-0.7-1.4-1.4-2.2-2.1c0,0-0.1-0.1-0.1-0.1c-0.2-0.1-0.5,0-0.4,0.4
		c0.4,1.5,0.7,3,1.1,4.6c0.2,0.7,0.3,1.5,0.6,2.2c0.3,0.9,0.6,1.8,1,2.8c0.3,0.7,0.6,1.3,1,2c-0.3,0-0.6,0-0.9,0.1
		c-0.2,0-0.5,0-0.8,0c-0.1,0-0.3,0-0.4,0c-0.2,0-0.3,0-0.4,0c-1.1-0.1-2.2-0.3-3.3-0.6c-0.3-0.1-0.4,0.4-0.1,0.8
		C312.8,167,313.2,167.4,313.5,167.8z"/>
	<polygon class="st6" points="360,338.9 428.3,300.9 428.2,96.3 359.8,134.3 	"/>
	<polygon class="st7" points="428.2,96.3 361.3,58.9 292.9,96.9 359.8,134.3 	"/>
	<polygon class="st2" points="168.2,343.7 168.3,389.4 205.3,410.1 205.2,364.4 	"/>
	<polygon class="st3" points="205.2,364.4 205.2,364.4 205.3,410.1 233.2,394.6 205.2,379 	"/>
	<polygon class="st4" points="205.2,364.4 205.2,364.4 205.2,323.2 168.2,343.7 	"/>
	<polygon class="st2" points="432.7,579.8 432.6,534.1 395.6,513.4 395.6,513.5 395.7,559.1 	"/>
	<polygon class="st3" points="432.6,534.1 432.7,579.8 470.5,558.8 470.4,514.9 470.4,514.4 470.4,513.1 	"/>
	<polygon class="st4" points="395.6,513.4 432.6,534.1 470.4,513.1 433.4,492.4 433.4,492.4 433.4,492.4 	"/>
	<polygon class="st2" points="278.4,645.9 241.4,625.2 241.5,670.6 241.5,670.9 278.5,691.6 	"/>
	<polygon class="st3" points="278.4,645.9 278.5,691.6 316.3,670.6 316.3,670.1 316.2,624.9 	"/>
	<polygon class="st4" points="316.2,624.9 279.2,604.2 241.4,625.2 278.4,645.9 	"/>
	<polygon class="st2" points="242,535.9 242.1,535.9 278.9,556.5 279,556.5 278.9,510.8 241.9,490.2 242,518.7 242,518.8 	"/>
	<polygon class="st3" points="279,556.5 316.8,535.5 316.8,535.5 316.7,489.8 278.9,510.8 	"/>
	<polygon class="st4" points="316.7,489.8 279.7,469.1 241.9,490.2 278.9,510.8 	"/>
	<polygon class="st2" points="316.4,469.8 316.3,424.1 279.3,403.4 279.4,449.1 286.4,453 286.9,453.3 	"/>
	<polygon class="st3" points="316.4,469.8 353.3,449.2 353.8,449 354.2,448.7 354.1,403 316.3,424.1 	"/>
	<polygon class="st4" points="354.1,403 317.1,382.3 279.3,403.4 316.3,424.1 	"/>
	<polygon class="st2" points="205.2,379 233.2,394.6 242.3,399.7 242.2,327 205.2,306.3 205.2,323.2 205.2,364.4 	"/>
	<polygon class="st3" points="242.3,399.7 280.1,378.7 280,306 242.2,327 	"/>
	<polygon class="st4" points="280,306 243,285.3 205.2,306.3 242.2,327 	"/>
	<polygon class="st2" points="358.5,492.8 395.6,513.5 395.5,467.8 358.5,447.1 358.5,451.6 358.5,452.1 	"/>
	<polygon class="st4" points="414.5,457.2 395.5,446.6 395.5,426.5 358.5,447.1 395.5,467.8 	"/>
	<polygon class="st2" points="414.5,457.2 432.5,467.3 432.4,375.3 395.4,354.6 395.5,426.5 395.5,446.6 	"/>
	<polygon class="st3" points="432.5,467.3 414.5,457.2 395.5,467.8 395.6,513.5 395.6,513.5 395.6,513.4 433.4,492.4 433.4,492.4 
		433.3,466.8 470.4,446.3 470.3,354.2 432.4,375.3 	"/>
	<polygon class="st4" points="470.3,354.2 433.2,333.5 395.4,354.6 432.4,375.3 	"/>
	<rect x="67.2" y="333" class="st1" width="0.5" height="239.8"/>
	<path class="st8" d="M326.2,205.2l17.6-10c9.7-5.5,9.8-23.6,0.1-40.3c-4.8-8.4-11.2-14.8-17.5-18.5c-6.3-3.7-12.7-4.5-17.5-1.8
		c-9.7,5.5-9.8,23.6-0.1,40.3L326.2,205.2z M312.6,165.8c1.1,0.3,2.2,0.5,3.3,0.6c0.1,0,0.3,0,0.4,0c0.1,0,0.3,0,0.4,0
		c0.3,0,0.5,0,0.8,0c0.3,0,0.6,0,0.9-0.1c-0.4-0.6-0.7-1.3-1-2c-0.4-0.9-0.7-1.8-1-2.8c-0.2-0.7-0.4-1.5-0.6-2.2
		c-0.4-1.5-0.7-3-1.1-4.6c-0.1-0.3,0.1-0.5,0.4-0.4c0,0,0.1,0,0.1,0.1c0.7,0.7,1.4,1.4,2.2,2.1c0.7,0.6,1.3,1.3,2,1.9
		c0.6,0.5,1.1,1.1,1.6,1.7c0.6,0.7,1.2,1.6,1.8,2.4c0.2,0.3,0.4,0.7,0.6,1c-0.1-0.8-0.2-1.5-0.3-2.2c-0.1-1.5,0-2.9,0.4-4.1
		c0.3-0.9,0.9-1.7,1.3-2.5c0.4-0.7,0.8-1.5,1.3-2.2c0.1-0.1,0.2-0.1,0.3,0c0.1,0.1,0.3,0.2,0.3,0.4c0.6,1.6,1.1,3.2,1.7,4.9l0.1,0.2
		c0.4,1.3,0.9,2.5,1.1,3.8c0.1,0.8,0.2,1.6,0.2,2.3c0,0.9-0.1,1.8-0.3,2.6c0,0.1-0.1,0.2-0.1,0.4c0.1-0.1,0.2-0.1,0.3-0.2
		c0.5-0.3,1.1-0.6,1.7-0.7c0.5-0.1,0.9-0.1,1.4-0.1c0.5,0,1,0.1,1.5,0.2c1.1,0.2,2.3,0.4,3.4,0.6c0,0,0.1,0,0.1,0
		c0.2,0.1,0.5,0.6,0.4,0.8c-0.1,0.1-0.1,0.3-0.1,0.4c-0.2,0.6-0.4,1.3-0.7,1.9c-0.2,0.6-0.4,1.3-0.7,1.9c-0.2,0.6-0.5,1.2-0.9,1.7
		c-0.5,0.6-1,1-1.7,1.3l0.1,0.1c0.5,0.6,1,1.2,1.4,1.8c0.6,0.7,1.1,1.3,1.7,1.9c0.9,0.9,1.8,1.7,2.7,2.6c0.3,0.3,0.4,0.9,0.1,0.9
		c-0.4,0-0.9,0.1-1.3,0.1c-0.3,0-0.5,0.1-0.8,0.1c-0.2,0-0.5,0-0.7,0c-0.9-0.1-1.9-0.5-2.9-1.1c-0.5-0.3-1-0.6-1.4-0.9
		c-0.7-0.5-1.4-1.1-1.9-1.9l-0.2-0.3c0.1,0.3,0.1,0.7,0.2,1c0.2,0.8,0.3,1.7,0.5,2.5c0.1,0.4-0.2,0.5-0.5,0.4
		c-0.1,0-0.2-0.1-0.2-0.2c-0.5-0.5-1-1.1-1.5-1.6c-0.2-0.3-0.5-0.6-0.7-0.9c-0.3-0.4-0.6-0.9-0.9-1.3c-0.6-1.2-1.1-2.4-1.3-3.6
		l0-0.2c-0.2,0.7-0.4,1.3-0.8,1.7c-0.4,0.5-1,0.8-1.8,0.8c-0.6,0-1.3-0.1-1.9-0.2c-0.1,0-0.2,0-0.3-0.1c-0.1-0.1-0.3-0.2-0.3-0.4
		c-0.1-0.2-0.2-0.4-0.1-0.6c0.2-0.7,0.3-1.3,0.5-2c0.1-0.3,0.1-0.5,0.2-0.7c-0.2,0-0.4,0.1-0.6,0c-0.8-0.1-1.6-0.4-2.4-0.8
		c-0.2-0.1-0.4-0.2-0.5-0.3c-1.2-0.7-2.4-1.6-3.4-2.8c-0.2-0.2-0.4-0.4-0.5-0.7c-0.3-0.4-0.5-0.7-0.8-1c-0.3-0.4-0.7-0.9-1-1.3
		C312.2,166.2,312.2,165.7,312.6,165.8z"/>
</g>
</svg>
