<?xml version="1.0" encoding="utf-8"?>
<!-- Generator: Adobe Illustrator 21.1.0, SVG Export Plug-In . SVG Version: 6.00 Build 0)  -->
<svg version="1.1" id="Layer_1" xmlns="http://www.w3.org/2000/svg" xmlns:xlink="http://www.w3.org/1999/xlink" x="0px" y="0px"
	 viewBox="0 0 1000 400" style="enable-background:new 0 0 1000 400;" xml:space="preserve">
<style type="text/css">
	.st0{opacity:0.15;fill:#C7CFE9;}
	.st1{opacity:0.19;fill:#C7CFE9;}
	.st2{fill:#C7CFE9;}
	.st3{fill:#9396AD;}
	.st4{fill:#5E6578;}
	.st5{fill:#454C5A;}
	.st6{fill:#71788D;}
	.st7{fill:#8A86A5;}
	.st8{fill:#907BA2;}
	.st9{fill:#584B80;}
	.st10{fill:#4D4967;}
	.st11{fill:#664A9D;}
	.st12{fill:#9AAA68;}
	.st13{fill:#828C65;}
	.st14{fill:#E3D4E8;}
	.st15{fill:#C6BCCB;}
	.st16{fill:#6B5363;}
</style>
<polygon class="st0" points="-13,297.2 1012,24 1012,403.8 -13,403.8 "/>
<polygon class="st0" points="1102,346 -168,-10.6 -168,408 1102,408 "/>
<polygon class="st1" points="1245,-86.4 -25,69.6 -25,-213 1245,-213 "/>
<g id="color">
	
		<rect x="281.3" y="463.3" transform="matrix(8.428858e-10 -1 1 8.428858e-10 -165.1944 783.6288)" class="st2" width="55.8" height="22.2"/>
	
		<rect x="236.9" y="463.3" transform="matrix(-1.849041e-09 -1 1 -1.849041e-09 -209.6017 739.2214)" class="st3" width="55.8" height="22.2"/>
	
		<rect x="148.1" y="463.3" transform="matrix(-1.247832e-09 -1 1 -1.247832e-09 -298.4164 650.4068)" class="st4" width="55.8" height="22.2"/>
	
		<rect x="103.7" y="463.3" transform="matrix(9.165007e-10 -1 1 9.165007e-10 -342.8237 605.9995)" class="st5" width="55.8" height="22.2"/>
	
		<rect x="192.5" y="463.3" transform="matrix(1.138013e-09 -1 1 1.138013e-09 -254.009 694.8141)" class="st6" width="55.8" height="22.2"/>
	
		<rect x="363.2" y="463.3" transform="matrix(-5.607176e-10 -1 1 -5.607176e-10 -83.356 865.4672)" class="st7" width="55.8" height="22.2"/>
	
		<rect x="671.3" y="463.3" transform="matrix(2.628483e-09 -1 1 2.628483e-09 224.8211 1173.6443)" class="st8" width="55.8" height="22.2"/>
	
		<rect x="582.5" y="463.3" transform="matrix(4.846897e-10 -1 1 4.846897e-10 136.0064 1084.8296)" class="st9" width="55.8" height="22.2"/>
	
		<rect x="538.1" y="463.3" transform="matrix(3.065868e-10 -1 1 3.065868e-10 91.5991 1040.4222)" class="st10" width="55.8" height="22.2"/>
	
		<rect x="626.9" y="463.3" transform="matrix(-9.241292e-10 -1 1 -9.241292e-10 180.4138 1129.2369)" class="st11" width="55.8" height="22.2"/>
	
		<rect x="840.3" y="463.3" transform="matrix(-4.334728e-10 -1 1 -4.334728e-10 393.7958 1342.619)" class="st12" width="55.8" height="22.2"/>
	
		<rect x="795.9" y="463.3" transform="matrix(-2.700859e-09 -1 1 -2.700859e-09 349.3885 1298.2117)" class="st13" width="55.8" height="22.2"/>
	
		<rect x="451.7" y="463.3" transform="matrix(1.534560e-10 -1 1 1.534560e-10 5.2317 954.0549)" class="st14" width="55.8" height="22.2"/>
	
		<rect x="407.3" y="463.3" transform="matrix(2.351369e-09 -1 1 2.351369e-09 -39.1756 909.6476)" class="st15" width="55.8" height="22.2"/>
	
		<rect x="751.5" y="463.3" transform="matrix(9.836923e-10 -1 1 9.836923e-10 304.9812 1253.8043)" class="st16" width="55.8" height="22.2"/>
</g>
</svg>
