<?xml version="1.0" encoding="utf-8"?>
<!-- Generator: Adobe Illustrator 21.1.0, SVG Export Plug-In . SVG Version: 6.00 Build 0)  -->
<svg version="1.1" id="Layer_1" xmlns="http://www.w3.org/2000/svg" xmlns:xlink="http://www.w3.org/1999/xlink" x="0px" y="0px"
	 viewBox="0 0 500 500" style="enable-background:new 0 0 500 500;" xml:space="preserve">
<style type="text/css">
	.st0{fill:none;}
	.st1{fill:#E3E3EC;}
	.st2{fill:#E41F2F;}
	.st3{fill:#5E6578;}
	.st4{fill:#52596A;}
	.st5{fill:#9396AD;}
	.st6{fill:#71788D;}
	.st7{fill:#454C5A;}
	.st8{fill:#C7CFE9;}
	.st9{fill:#B1B6CF;}
	.st10{fill:#828C65;}
	.st11{fill:#9AAA68;}
	.st12{fill:#928BA8;}
	.st13{fill:#736E8A;}
	.st14{fill:#B0ACCB;}
	.st15{fill:#8F7CA3;}
	.st16{fill:#6B5363;}
</style>
<g>
	<path class="st0" d="M131.4,295.2L131.4,295.2L131.4,295.2z"/>
	<polygon class="st0" points="365.8,139.2 339.3,154.7 339.3,154.7 	"/>
	<polygon class="st0" points="339,154.9 339,154.9 271.6,194.4 271.6,194.4 	"/>
	<polygon class="st0" points="363.6,296.8 363.6,296.8 343.6,308.1 343.6,308.1 	"/>
	<path class="st0" d="M264.5,179.6l4.9,2.8L264.5,179.6z"/>
	<polygon class="st0" points="264.3,179.5 243.1,167 201.6,142.8 	"/>
	<polygon class="st1" points="371.9,339.1 371.9,339.6 343.6,355 343.6,354.4 314.8,337.3 314.8,337.2 269.4,363.2 269.4,363.2 
		248,350.1 202.4,377.7 132.1,336.1 25,397 119.4,451.5 204.5,402.5 232,419.8 248.5,409.3 269.4,423.2 393.3,349.4 393.1,349.2 
		391.6,350.1 	"/>
	<polygon class="st2" points="339.3,154.7 339.3,154.7 339,154.9 339,154.9 	"/>
	<polygon class="st2" points="264.3,179.5 264.3,179.5 264.5,179.6 264.5,179.6 	"/>
	<path class="st3" d="M376.2,221L376.2,221l-12.8,7.4l20.6,12.3c0.2-1.1,0.4-2.2,0.5-3.4c0-0.2,0.1-0.3,0.3-0.4
		c0.2-0.1,0.4,0,0.5,0.2c0,0,0.1,0.1,0.1,0.2c0.1,0.2,0.2,0.4,0.3,0.6c0.2,0.2,0.3,0.5,0.5,0.8c0.1,0.2,0.3,0.4,0.4,0.6
		c0.9,1.5,1.8,2.9,2.5,4.4l16.9,10c0.3-0.5,0.6-0.9,1-1.4c0.4-0.6,0.8-1.1,1.2-1.6v-47.4l-30.7,18.2
		C377,221.3,376.6,221.2,376.2,221z"/>
	<path class="st3" d="M360.1,262.2l5.6,3.1c-1.6-1.9-3-3.9-4.2-6c-0.1-0.1-0.2-0.3-0.3-0.5C361,259.9,360.6,261.1,360.1,262.2z"/>
	<path class="st3" d="M408.2,287.9l1.8,1l1.3-0.7c-1.3-0.1-2.6-0.3-3.9-0.5l0.8,0.5V287.9z"/>
	<polygon class="st4" points="340.6,109.6 340.8,60.9 201.6,142.8 243.1,167 	"/>
	<polygon class="st3" points="179.2,141 179.2,141 179.2,141 	"/>
	<path class="st3" d="M184.5,235.3c4.6,5.6,7.5,12.6,9.4,19.6c0.1,0.4,0.2,0.8,0.3,1.2c1.9-2.3,4.2-4.5,7.1-5.7
		c2.2-0.8,4.3-0.9,6.3-0.3c4,1,7.7,4.5,10.8,9.3c0,0,0.1,0.1,0.1,0.2c0.1,0.2,0.3,0.5,0.4,0.7c1.1,1.8,2,3.6,2.9,5.5
		c2.2,4.8,3.8,10.1,4.7,15.1c0.3,1.8,0.6,3.5,0.6,5.3c0.2,2.7,0.2,5.6-0.7,8.1c-0.1,0.4-0.3,0.8-0.5,1.2c-0.2,0.6-0.4,1.1-0.6,1.6
		l22.9,13.8l-0.1,39.5l-0.1,0.1l21.3,13.1V195.7l2.3-1.3l0,0l-2.3,1.3l-90.1-54.6v89.4c1.1,0.6,2,1.4,3.1,2.3
		C183.1,233.7,183.8,234.4,184.5,235.3z"/>
	<path class="st5" d="M339.3,154.7l-0.3,0.2l-67.4,39.5l-2.3,1.3v167.5l0,0l45.5-26.1v-46.7v-6.2v-14.4v-7.7v-0.6v-4.2V255v-10
		c-11.7-6.1-28.7-18.8-30.7-42.1l50.7-30l0,0v-0.1l49.3-29.8h0.1h0l0,0l42.4-24.6v0l0.1,0c0,0,0.8,5.4,4,12.5l0.1-29.9l-64.9,38.1
		L339.3,154.7z"/>
	<path class="st5" d="M413.9,286.6l15.6-9.2L413.9,286.6C413.9,286.6,413.9,286.6,413.9,286.6z"/>
	<path class="st5" d="M410,288.8l-1.8-1v0.1l1.7,0.9l1.4-0.8h0L410,288.8z"/>
	<path class="st5" d="M430.3,190.3l-22.1,13.1v47.3c1.4-1.9,2.9-3.6,4.5-5.2c0.6-0.6,1.2-1.2,2-1.9c0.2-0.2,0.4-0.5,0.7-0.4
		c0.1,0,0.1,0.1,0.2,0.2c0.1,0.2,0,0.4,0,0.6c-0.1,4.7-0.9,9.3-2.5,13.7l17.2,10.2l0.2-77.7L430.3,190.3
		C430.3,190.3,430.3,190.3,430.3,190.3z"/>
	<polygon class="st5" points="243.1,167 264.3,179.5 264.5,179.6 269.4,182.5 367,125.4 340.6,109.6 	"/>
	<polygon class="st3" points="367,125.4 408.9,101 340.8,60.9 340.6,109.6 	"/>
	<path class="st6" d="M269.4,195.7l2.3-1.3l67.4-39.5l0.3-0.2l26.5-15.5l64.9-38.1l0,0l-90-52.6L179.2,141h0l-0.1,0l0.1,0
		L269.4,195.7z M340.8,60.9l68.1,40L367,125.5l-97.6,57l-4.9-2.9l-0.2-0.1l-62.7-36.7L340.8,60.9z"/>
	<path class="st7" d="M353.5,256.4l-0.5-22.2l-17.5,10c3.2,5.4,5.6,11.2,7,17.5c0.3,1.2,0.5,2.3,0.6,3.4l8.1-5
		C351.9,258.9,352.7,257.6,353.5,256.4z"/>
	<path class="st7" d="M314.8,255.1v-1.9l18.1,11c-0.2-1-0.5-2-0.6-3c-0.4-1.9-0.7-3.7-0.9-5.5c-0.2-1.5-0.2-3-0.3-4.5
		c0-1.4,0-3,0-4.4l-5.2,3c0,0-4.8-1.3-11.2-4.6L314.8,255.1L314.8,255.1z"/>
	<path class="st4" d="M343.7,285.5c-0.1,0.4,0,0.6,0.1,0.9c0.6,2.6,1.3,5.2,2,7.8c0.2,0.8-0.4,1.3-1.2,1.2c-0.5-0.1-0.6-0.5-0.6-0.8
		c-0.5-2.4-1-4.6-1.4-6.9c-0.1-0.6-0.3-1.1-0.5-1.9c-0.7,1.2-1.3,2.4-2.1,3.3c-2,2.5-4.4,4.7-7,6.5l10.6,6.6l14.8-8.5l-8.8-5.2
		c-1.6-0.6-3.1-1.2-4.6-2.2C344.5,286.1,344.2,285.8,343.7,285.5z"/>
	<polygon class="st4" points="314.9,266.2 314.8,262.3 314.8,262.3 314.8,269.9 	"/>
	<path class="st4" d="M332.4,290.7c1.4-1.4,3.1-2.8,4.8-4.1c-1.3,0.4-2.7,0.8-4.1,1.2c-2.3,0.6-6.2,1.5-9.4,1.9l7.2,4.5l-1-0.7
		C330.6,292.5,331.5,291.7,332.4,290.7z"/>
	<path class="st4" d="M332.3,282.1c0.9,0.1,1.8,0.2,2.7,0.3c-0.1-0.4-0.4-0.4-0.6-0.5c-6.1-2-11.7-5-16.7-9.3
		c-1.1-0.9-2-1.7-2.9-2.7v14.4l0.1,0v-0.4C320.3,282.6,326.7,281.7,332.3,282.1z"/>
	<path class="st4" d="M351.2,260.1l-8.1,5c0.3,1.9,0.5,3.7,0.6,5.6l1.9,1.1C347.1,267.8,349,263.8,351.2,260.1z"/>
	<path class="st4" d="M389.4,284.2c-1.3,0.4-2.7,0.8-4.1,1.2c-6.1,1.3-12.1,0.8-17.9-1.3c-1.2-0.5-2.3-1-3.4-1.4
		c-0.2-0.1-0.6-0.1-0.5-0.5c0-0.3,0.3-0.4,0.6-0.5c6.7-2.2,13.5-2.6,20.5-2.1c0.9,0.1,1.8,0.2,2.7,0.3c-0.1-0.5-0.4-0.5-0.6-0.6
		c-6.1-2.1-11.7-5.2-16.6-9.5c-1.6-1.4-3-2.9-4.4-4.5l-5.6-3.1c-0.1,0.3-0.2,0.6-0.4,0.9c-1.9,4.7-4.6,8.8-7.9,12.6l1.4,0.9
		c4.6-2.4,9.5-4.2,14.6-5.2c0.6-0.2,1.2-0.2,1.7-0.3c0.2,0,0.4-0.1,0.6,0c0.2,0,0.5,0,0.6,0.1c0.2,0.4-0.2,0.6-0.4,0.8
		c-1,1.2-1.9,2.4-3,3.3c-2.1,2.1-4.5,4-7.2,5.4l20.2,12.2c1.2-1.7,2.5-3.3,4-4.9C386.1,286.7,387.7,285.4,389.4,284.2z"/>
	<path class="st4" d="M407.4,287.6L407.4,287.6c-3.7-0.6-7.1-1.7-10-3.7c-0.4-0.3-0.8-0.6-1.2-0.9c-0.1,0.4,0,0.6,0.1,0.9
		c0.6,2.6,1.2,5.2,1.9,7.8c0.2,0.8-0.5,1.3-1.2,1.2c-0.5-0.1-0.6-0.5-0.6-0.8c-0.5-2.4-0.9-4.7-1.3-6.9c-0.1-0.6-0.3-1.1-0.5-1.9
		c-0.7,1.2-1.3,2.4-2.1,3.3c-2.6,3.3-5.9,5.7-9.4,7.8l8.8,5.3l18.3-10.7l-1.7-0.9L407.4,287.6z"/>
	<path class="st6" d="M406.1,253.7l-16.9-10c2.1,4.1,3.8,8.4,5,12.9l7.5,4.4C403,258.5,404.4,256,406.1,253.7z"/>
	<path class="st6" d="M363.3,228.3l-8.7,5l29,17.1c0-0.7,0-1.5,0-2.3c-0.1-2,0.1-3.9,0.2-5.8c0-0.6,0-1.2,0.1-1.8L363.3,228.3z"/>
	<path class="st6" d="M413.1,257.8c-0.3,0.8-0.6,1.7-1,2.5c-0.8,1.8-1.7,3.6-2.7,5.2l6.8,4c1.4-0.4,2.9-0.7,4.4-1
		c0.6-0.1,1.1-0.1,1.7-0.2c0.3,0,0.6-0.2,0.8,0.1c0,0.1,0,0.2,0,0.3c0,0.3-0.2,0.5-0.4,0.6c-0.7,0.9-1.5,1.8-2.3,2.6l9.2,5.4
		l-15.6,9.2c0.3,0.2,0.6,0.4,0.9,0.6c0.1,0.1,0.3,0.2,0.4,0.3c0.2,0.1,0.4,0.3,0.3,0.6c-0.1,0.3-0.4,0.3-0.6,0.3
		c-1.2,0-2.4-0.1-3.6-0.2l-1.4,0.8l-18.3,10.7l-8.7-5.3c-0.1,0.1-0.2,0.1-0.4,0.2c-1,0.6-1.9,1.1-2.9,1.6c-0.3,0.1-0.6,0.5-0.8,0.2
		s0-0.6,0.1-0.8c0.5-0.9,1.1-1.8,1.6-2.6l-20.2-12.2c-0.1,0.1-0.3,0.2-0.5,0.2c-2.9,1.4-6,2.5-9.2,3c-0.3-0.1-0.6-0.3-0.8-0.4
		c-0.3,0-0.5,0-0.8,0.1c0,0-0.1,0-0.3,0.1c0.6,0.4,1.1,0.4,1.5,0.5c4.5,0.9,8.7,2.5,12.4,5.2c0.1,0.1,0.3,0.2,0.4,0.3
		c0.2,0.2,0.4,0.3,0.3,0.6s-0.4,0.3-0.6,0.3c-2.5,0-5-0.2-7.6-0.6c-1.9-0.3-3.7-0.8-5.5-1.4l8.8,5.2l-14.8,8.5l-10.6-6.6
		c0,0-0.1,0.1-0.1,0.1l-1.9-1.4l-7.2-4.5c-1.4,0.2-2.6,0.2-3.7,0.1l-5.1-2.7v-2.9l-0.1,0v6.2l28.8,17.7l20-11.4l0,0l8.4-4.8v9.3
		l19.7,12l56.1-35L430.2,268L413.1,257.8z"/>
	<polygon class="st3" points="371.9,339.1 391.6,350.1 391.6,313.3 371.9,301.3 	"/>
	<path class="st8" d="M391.6,313.3v36.8l1.4-0.9l54.6-33v-37.9L391.6,313.3z M443.4,313.6l-47.6,29.1v-26.5l47.6-29.4V313.6z"/>
	<polygon class="st9" points="395.8,342.7 443.4,313.6 443.4,286.8 395.8,316.2 	"/>
	<path class="st3" d="M401.6,261l-7.5-4.4c0.2,0.8,0.4,1.5,0.6,2.3c1.1,5.2,1.4,10.5,1.1,15.8c0,0.1,0,0.3,0,0.5
		c0.6-1.7,1.2-3.5,1.9-5.2C398.8,266.8,400.1,263.8,401.6,261z"/>
	<path class="st3" d="M395.7,275c0,0,0,0.1,0,0.2C395.8,275.2,395.7,275.1,395.7,275z"/>
	<path class="st3" d="M401,276c-0.1,0.1-0.4,0.4-0.5,0.6c0.8-0.5,1.7-1,2.5-1.4c4.2-2.4,8.6-4.4,13.2-5.6l-6.8-4
		C407.1,269.4,404.3,272.8,401,276z"/>
	<path class="st3" d="M419.7,272.6c-2.4,2.3-4.9,4.2-7.7,5.6c-2.9,1.4-6,2.5-9.2,2.9c0,0-0.1,0-0.1,0c-0.1,0-0.2,0-0.3,0
		c-0.4,0.1-0.7,0.1-1.1,0.2c-0.1,0-0.2,0.1-0.3,0.1c0.6,0.4,1.1,0.4,1.5,0.5c4.1,0.8,8,2.4,11.4,4.8l15.6-9.2l-9.2-5.5
		C420.2,272.2,420,272.4,419.7,272.6z"/>
	<path class="st3" d="M354.7,233.3l-1.7,1l0.5,22.2c0.3-0.4,0.6-0.9,0.9-1.3c1.7-2.5,3.5-4.7,5.6-6.9c0.6-0.6,1.2-1.2,1.9-1.9
		c0.2-0.2,0.4-0.6,0.6-0.4c0,0,0,0,0,0c0.1-0.1,0.2-0.1,0.3,0c0.3,0.2,0.2,0.5,0.2,0.7c0,3.2-0.3,6.4-1,9.5c1.8,0.6,3.5,1.4,5.2,2.1
		c5.7,2.7,10.9,6,15.7,10.1c2.8,2.4,5.4,4.9,7.8,7.6c0-0.1,0.2,0.3,0.6,0.4c-1-2-2.1-3.9-2.9-6c-1.6-4-3-8-3.7-12.4
		c-0.3-1.8-0.6-3.6-0.8-5.5c-0.1-0.7-0.1-1.5-0.1-2.2L354.7,233.3z"/>
	<path class="st6" d="M314.8,262.3l0,3.9l0.1-4.9c5.7,2.6,10.6,6,15.4,9.9c2.8,2.3,5.5,4.8,7.9,7.4c0.2,0.3,0.4,0.6,0.7,0.7
		c-0.5-0.9-0.9-1.8-1.4-2.7c0,0,0,0,0,0c-0.2-0.4-0.4-0.7-0.6-1.2c-0.3-0.6-0.6-1.3-1-2c-1.3-3-2.4-6.1-3.1-9.3l-18.1-11v1.9l0,0
		v2.4v4.2L314.8,262.3L314.8,262.3z"/>
	<path class="st6" d="M345.3,272.8c0.1-0.3,0.2-0.6,0.4-0.9l-1.9-1.1c0.1,2.1,0.1,4.3,0,6.5C344.3,275.8,344.7,274.3,345.3,272.8z"
		/>
	<path class="st6" d="M348.8,278.9c-0.1,0.1-0.3,0.2-0.4,0.4c0.6-0.4,1.3-0.8,2-1.2c0.9-0.6,1.9-1.1,2.8-1.6l-1.4-0.9
		C350.9,276.8,349.9,277.9,348.8,278.9z"/>
	<polygon class="st3" points="314.8,337.2 314.8,337.3 343.6,354.4 343.6,308.1 343.6,308.1 314.8,290.5 	"/>
	<path class="st8" d="M343.6,308.1v46.3v0.6l28.4-15.3v-0.6v-37.8V292l-8.4,4.8L343.6,308.1z M368.5,298.6l-0.3,36.6l-19.4,10.6
		v-35.4l18.9-11.7L368.5,298.6L368.5,298.6z"/>
	<polygon class="st9" points="348.8,310.3 348.8,345.7 368.2,335.2 368.5,298.6 367.8,298.6 	"/>
	<path class="st10" d="M331.1,251.2c0.1,1.5,0.1,3,0.3,4.5c0.2,1.8,0.6,3.6,0.9,5.5c0.2,1,0.4,2,0.6,3c0.8,3.1,1.9,6.2,3.1,9.3
		c0.3,0.7,0.6,1.3,1,2c-0.3-0.6-0.5-1.3-0.6-2c-1.7-4-3.1-8-3.8-12.3c-0.4-1.9-0.7-3.7-0.9-5.5c-0.2-1.5-0.2-3-0.3-4.5
		c-0.1-1.5,0-3.1,0-4.6l-0.4,0.2C331.1,248.2,331,249.7,331.1,251.2z"/>
	<path class="st10" d="M348.5,279.4c0,0.1-0.1,0.2-0.2,0.3c0.8-0.6,1.7-1,2.5-1.5c5.5-3.2,11.2-5.6,17.5-6.8
		c0.6-0.2,1.2-0.2,1.7-0.3c0.1,0,0.1,0,0.2,0c-0.2,0-0.4,0-0.6,0c-0.6,0.1-1.1,0.1-1.7,0.3c-5.1,1-10,2.7-14.6,5.2
		c-1,0.5-1.9,1-2.8,1.6C349.9,278.6,349.2,278.9,348.5,279.4z"/>
	<path class="st10" d="M361.9,246.4c-0.6,0.6-1.2,1.2-1.9,1.9c-2.1,2.2-3.9,4.4-5.6,6.9c-0.3,0.4-0.6,0.9-0.9,1.3
		c-0.8,1.2-1.6,2.5-2.3,3.7c-2.2,3.7-4.1,7.6-5.6,11.8c-0.1,0.3-0.2,0.6-0.4,0.9c-0.6,1.4-1,3-1.5,4.4c0,0.1,0,0.2,0,0.3
		c0,0.1,0,0.3,0,0.5c-0.1,0.1-0.1,0.3,0,0.3c0.1,0,0.1-0.1,0.1-0.2c0.6-1.7,1.2-3.5,1.8-5.2c2.3-6.3,5.3-12.2,9.1-17.7
		c1.7-2.5,3.6-4.7,5.6-6.9c0.6-0.6,1.3-1.2,1.9-1.9c0.1-0.1,0.2-0.2,0.3-0.3c0,0,0,0,0,0C362.2,245.8,362,246.2,361.9,246.4z"/>
	<path class="st10" d="M339,279.3c-0.4-0.2-0.6-0.5-0.7-0.7c-2.5-2.6-5.1-5.1-7.9-7.4c-4.8-4-9.7-7.3-15.4-9.9l-0.1,4.9l-0.1,3.8
		c0.9,1,1.8,1.8,2.9,2.7c5,4.3,10.6,7.3,16.7,9.3c0.3,0.1,0.6,0.1,0.6,0.5c-0.9-0.1-1.8-0.2-2.7-0.3c-5.6-0.5-12,0.6-17.4,1.8v0.4
		v2.9l5.1,2.7c1,0.1,2.3,0,3.7-0.1c3.2-0.4,7.1-1.4,9.4-1.9c1.3-0.4,2.7-0.8,4.1-1.2c-1.6,1.2-3.3,2.6-4.8,4.1
		c-0.9,0.9-1.7,1.8-2.5,2.8l1,0.7l1.9,1.4c0,0,0.1-0.1,0.1-0.1c2.6-1.8,5-3.9,7-6.5c0.7-1,1.3-2.1,2.1-3.3c0.2,0.8,0.4,1.3,0.5,1.9
		c0.5,2.4,1,4.6,1.4,6.9c0.1,0.4,0.2,0.7,0.6,0.8c0.8,0.2,1.3-0.4,1.2-1.2c-0.6-2.6-1.3-5.2-2-7.8c-0.1-0.3-0.2-0.6-0.1-0.9
		c0.5,0.3,0.8,0.6,1.2,0.8c1.4,0.9,3,1.7,4.6,2.2c1.8,0.6,3.6,1.1,5.5,1.4c2.5,0.5,5,0.6,7.6,0.6c0.3,0,0.6,0,0.6-0.3
		c0.1-0.3-0.1-0.4-0.3-0.6c-0.1-0.1-0.3-0.2-0.4-0.3c-3.7-2.7-7.8-4.3-12.4-5.2c-0.5-0.1-1-0.1-1.5-0.5c0.2-0.1,0.3-0.1,0.3-0.1
		c0.3,0,0.5-0.1,0.8-0.1c-4.4-2-8.5-4.4-12.2-7C338.1,277.5,338.6,278.4,339,279.3z"/>
	<path class="st11" d="M370.5,272c0.2-0.2,0.6-0.5,0.4-0.8c-0.1-0.2-0.4-0.2-0.6-0.1c-0.1,0-0.2,0-0.2,0c-0.6,0.1-1.1,0.1-1.7,0.3
		c-6.2,1.2-12,3.5-17.5,6.8c-0.8,0.6-1.7,1-2.5,1.5c0-0.1,0.1-0.2,0.2-0.3c0.1-0.1,0.3-0.3,0.4-0.4c1.1-1.1,2.1-2.1,3-3.3
		c3.2-3.8,5.9-8,7.9-12.6c0.1-0.3,0.2-0.6,0.4-0.9c0.5-1.2,0.8-2.3,1.2-3.5c-0.4-0.7-0.7-1.4-1.1-2c-0.1-0.3-0.5-0.6-0.2-0.8
		c0.3-0.3,0.6-0.1,0.8,0c0.4,0.1,0.7,0.3,1.1,0.4c0.7-3.1,1.1-6.2,1-9.5c0-0.3,0.1-0.6-0.2-0.7c-0.1-0.1-0.2,0-0.3,0
		c-0.1,0.1-0.2,0.2-0.3,0.3c-0.6,0.6-1.3,1.2-1.9,1.9c-2,2.2-3.9,4.4-5.6,6.9c-3.8,5.5-6.9,11.3-9.1,17.7c-0.6,1.7-1.2,3.5-1.8,5.2
		c0,0.1,0,0.2-0.1,0.2s-0.1-0.2,0-0.3c0-0.2,0-0.4,0-0.5c0-0.1,0-0.2,0-0.3c0.1-2.2,0.1-4.4,0-6.5c-0.1-1.9-0.3-3.8-0.6-5.6
		c-0.2-1.2-0.4-2.3-0.6-3.4c-1.4-6.2-3.8-12-7-17.5l-3.9,2.3c0,1.5-0.1,3.1,0,4.6c0.1,1.5,0.1,3,0.3,4.5c0.2,1.8,0.6,3.6,0.9,5.5
		c0.7,4.3,2.1,8.3,3.8,12.3c0.1,0.7,0.3,1.4,0.6,2c0.2,0.4,0.4,0.7,0.6,1.2c0,0,0,0,0,0c3.7,2.6,7.8,5,12.2,7
		c0.3,0.1,0.6,0.3,0.8,0.4c3.2-0.6,6.3-1.5,9.2-3c0.1-0.1,0.3-0.2,0.5-0.2c2.7-1.4,5.1-3.3,7.2-5.4
		C368.6,274.4,369.5,273.2,370.5,272z"/>
	<path class="st10" d="M406.1,253.7c-1.6,2.4-3.1,4.8-4.4,7.3c-1.5,2.9-2.9,5.8-4,8.9c-0.7,1.7-1.2,3.5-1.9,5.2c0,0.1,0.1,0.2,0,0.2
		c0,0,0,0.1,0,0.1c0.1,0.1,0.1-0.1,0.1-0.2c0.6-1.7,1.2-3.5,1.9-5.2c2.4-6.3,5.5-12.1,9.4-17.6c1.7-2.4,3.6-4.7,5.7-6.8
		c0.6-0.6,1.3-1.2,2-1.9c0.2-0.2,0.4-0.6,0.6-0.4c0.1,0,0.1,0.1,0.2,0.1c0-0.1-0.1-0.2-0.2-0.2c-0.4-0.1-0.6,0.2-0.7,0.4
		c-0.7,0.6-1.3,1.3-2,1.9c-1.6,1.6-3.1,3.3-4.5,5.2c-0.4,0.5-0.8,1.1-1.2,1.6C406.7,252.7,406.4,253.2,406.1,253.7z"/>
	<path class="st10" d="M386.2,238.5c-0.2-0.3-0.3-0.5-0.5-0.8C385.9,238,386.1,238.3,386.2,238.5z"/>
	<path class="st10" d="M403,275.1c-0.8,0.5-1.7,1-2.5,1.4c0,0,0,0.1,0,0.1C401.3,276.2,402.2,275.7,403,275.1
		c5.6-3.1,11.3-5.4,17.6-6.5c0.6-0.1,1.2-0.1,1.7-0.2c0.3-0.1,0.6-0.2,0.8,0.1c0,0,0,0.1,0,0.2c0-0.1,0-0.2,0-0.3
		c-0.2-0.3-0.6-0.1-0.8-0.1c-0.6,0.1-1.2,0.1-1.7,0.2c-1.5,0.2-2.9,0.6-4.4,1C411.5,270.8,407.2,272.7,403,275.1z"/>
	<path class="st10" d="M402.5,281.8c-0.5-0.1-1-0.1-1.5-0.5c0.1,0,0.2-0.1,0.3-0.1c0.4-0.1,0.7-0.1,1.1-0.2c0.1,0,0.2,0,0.3,0
		c-4.5-2.2-8.8-4.8-12.8-7.5c-0.5-1-1-2-1.4-3c-1.7-4-3.1-8.1-3.7-12.4c-0.3-1.8-0.6-3.7-0.8-5.5c-0.1-1.5-0.1-3-0.2-4.5
		c-0.1-1.9,0.1-3.9,0.2-5.8c0.1-1.7,0.6-3.4,0.6-5.1c0-0.2,0.1-0.4,0.3-0.4c0.1,0,0.3,0,0.4,0.1c-0.1-0.1-0.3-0.2-0.5-0.2
		c-0.2,0.1-0.3,0.2-0.3,0.4c0,1.1-0.3,2.2-0.5,3.4c-0.1,0.6-0.1,1.2-0.1,1.8c-0.1,1.9-0.3,3.8-0.2,5.8c0,0.8,0,1.5,0,2.3
		c0,0.7,0,1.5,0.1,2.2c0.2,1.9,0.6,3.7,0.8,5.5c0.7,4.3,2.1,8.4,3.7,12.4c0.8,2.1,1.9,4,2.9,6c-0.4-0.1-0.6-0.5-0.6-0.4
		c-2.5-2.7-5-5.2-7.8-7.6c-4.8-4.1-10-7.4-15.7-10.1c-1.7-0.7-3.4-1.5-5.2-2.1c-0.4-0.1-0.7-0.3-1.1-0.4c-0.3-0.1-0.6-0.3-0.8,0
		c-0.3,0.3,0.1,0.6,0.2,0.8c0.4,0.6,0.7,1.4,1.1,2c0.1,0.1,0.2,0.3,0.3,0.5c1.2,2.1,2.6,4.2,4.2,6c1.3,1.6,2.8,3.1,4.4,4.5
		c4.9,4.3,10.5,7.5,16.6,9.5c0.3,0.1,0.6,0.1,0.6,0.6c-0.9-0.1-1.8-0.2-2.7-0.3c-6.9-0.6-13.8-0.1-20.5,2.1
		c-0.3,0.1-0.6,0.2-0.6,0.5c-0.1,0.4,0.3,0.4,0.5,0.5c1.2,0.5,2.3,1,3.4,1.4c5.8,2.2,11.7,2.7,17.9,1.3c1.3-0.4,2.7-0.8,4.1-1.2
		c-1.7,1.2-3.3,2.5-4.9,4c-1.5,1.5-2.9,3.1-4,4.9c-0.6,0.8-1.1,1.7-1.6,2.6c-0.1,0.3-0.4,0.6-0.1,0.8s0.6-0.1,0.8-0.2
		c1-0.6,1.9-1.1,2.9-1.6c0.1-0.1,0.2-0.1,0.4-0.2c3.6-2.1,6.9-4.5,9.4-7.8c0.7-1,1.3-2.1,2.1-3.3c0.2,0.8,0.4,1.3,0.5,1.9
		c0.5,2.3,0.9,4.6,1.3,6.9c0.1,0.4,0.2,0.7,0.6,0.8c0.7,0.2,1.3-0.4,1.2-1.2c-0.6-2.6-1.3-5.2-1.9-7.8c-0.1-0.3-0.2-0.6-0.1-0.9
		c0.5,0.4,0.9,0.6,1.2,0.9c3,2,6.4,3.1,10,3.7h0c1.3,0.2,2.6,0.4,3.9,0.5h0c1.2,0.1,2.4,0.2,3.6,0.2c0.3,0,0.6,0,0.6-0.3
		c0.1-0.3-0.1-0.5-0.3-0.6c-0.1-0.1-0.3-0.2-0.4-0.3c-0.3-0.2-0.6-0.4-0.9-0.6l0,0C410.5,284.3,406.6,282.6,402.5,281.8z"/>
	<path class="st11" d="M415.6,243.5c0,0-0.1-0.1-0.2-0.1c-0.3-0.2-0.5,0.2-0.6,0.4c-0.6,0.6-1.3,1.2-2,1.9c-2.1,2.1-4,4.4-5.7,6.8
		c-3.9,5.5-7,11.2-9.4,17.6c-0.6,1.7-1.3,3.5-1.9,5.2c0,0.1,0,0.3-0.1,0.2c0,0,0,0,0-0.1c0,0,0-0.1,0-0.2c0-0.2,0-0.4,0-0.5
		c0.4-5.3,0-10.6-1.1-15.8c-0.2-0.8-0.4-1.6-0.6-2.3c-1.2-4.5-2.8-8.8-5-12.9c-0.8-1.5-1.6-3-2.5-4.4c-0.1-0.2-0.3-0.4-0.4-0.6
		c-0.1-0.2-0.3-0.5-0.5-0.8c-0.1-0.2-0.2-0.4-0.3-0.6c0-0.1-0.1-0.1-0.1-0.2c-0.1-0.1-0.2-0.1-0.4-0.1c-0.2,0-0.3,0.2-0.3,0.4
		c-0.1,1.7-0.6,3.4-0.6,5.1c-0.1,1.9-0.3,3.9-0.2,5.8c0.1,1.5,0.1,3,0.2,4.5c0.2,1.8,0.6,3.7,0.8,5.5c0.6,4.3,2,8.4,3.7,12.4
		c0.5,1,1,2,1.4,3c3.9,2.8,8.2,5.4,12.8,7.5c0,0,0.1,0,0.1,0c3.2-0.5,6.3-1.4,9.2-2.9c2.9-1.4,5.4-3.3,7.7-5.6
		c0.2-0.2,0.4-0.4,0.6-0.6c0.8-0.8,1.6-1.8,2.3-2.6c0.1-0.1,0.4-0.4,0.4-0.6c0,0,0-0.1,0-0.2c-0.2-0.3-0.6-0.2-0.8-0.1
		c-0.6,0.1-1.1,0.1-1.7,0.2c-6.3,1.1-12.1,3.4-17.6,6.6c-0.8,0.5-1.7,1-2.5,1.4c0,0,0-0.1,0-0.1c0.1-0.2,0.3-0.5,0.5-0.6
		c3.3-3.1,6.1-6.6,8.4-10.5c1-1.7,1.9-3.4,2.7-5.2c0.4-0.8,0.7-1.7,1-2.5c1.6-4.4,2.5-9,2.5-13.8
		C415.6,243.8,415.7,243.7,415.6,243.5z"/>
	<path class="st8" d="M462.3,171.6l12.7-7.3c-0.2,0-0.5-0.1-0.7-0.1c0.3,0.1,0.4,0.1,0.4,0.1L462.3,171.6z"/>
	<path class="st8" d="M426.5,118.6c0.9,5,2.5,9.6,4.6,13.7c-0.2-0.4-0.4-0.8-0.6-1.2C427.4,124,426.6,118.6,426.5,118.6L426.5,118.6
		z"/>
	<path class="st8" d="M326,249.7l5.2-3l0.4-0.2l3.9-2.3l17.5-10l1.7-1l8.7-5l12.8-7.4c-40-16.9-41.5-43.4-41.5-47.5V173v-0.1
		L284,203c2,23.3,19,36,30.7,42.1C321.1,248.4,325.9,249.7,326,249.7z"/>
	<path class="st12" d="M384.2,143.7c0-0.3-0.1-0.5-0.1-0.5h0h-0.1l-49.2,29.8v0.1L384.2,143.7z"/>
	<path class="st13" d="M408.2,202.6l-32,18.3c0.4,0.2,0.8,0.4,1.3,0.6l30.7-18.2V202.6z"/>
	<path class="st12" d="M408.2,203.3l22.1-13.1c-0.1,0-0.2-0.1-0.3-0.1l-21.8,12.5V203.3z"/>
	<path class="st14" d="M334.7,173.4c0,4.1,1.4,30.6,41.5,47.5l0,0l32-18.3l21.8-12.5c-39.3-15.1-45.1-42.5-45.8-46.5L334.7,173l0,0
		v0.1L334.7,173.4z"/>
	<path class="st15" d="M426.5,118.6L426.5,118.6l-42.4,24.6l0,0c0,0,0,0.2,0.1,0.5c0.6,4.1,6.5,31.3,45.8,46.5
		c0.1,0,0.2,0.1,0.3,0.1c0,0,0,0,0.1,0l0,0l31.9-18.7l12.4-7.3c0,0-0.1,0-0.4-0.1c-3.7-1-31.3-9.3-43.2-31.9
		C429,128.2,427.4,123.7,426.5,118.6z"/>
	<path class="st3" d="M181.2,296l4.6,2.7c-1.2-1.9-2-4-2.3-6.7c-0.1-0.8-0.2-1.7-0.2-2.5c0-1.7,0-3.5,0.2-5.2
		c-1.2,0.5-2.5,0.9-3.7,1.2c0.3,1.7,0.6,3.4,0.8,5C180.8,292.3,181.1,294.1,181.2,296z"/>
	<path class="st3" d="M220.5,301.9c-2.9,2.1-6.2,3.5-9.1,4.3c0.3,1.7,0.6,3.4,0.8,5.1c0.1,0.9,0.2,1.8,0.3,2.8l7,4
		c0.3-0.2,0.5-0.3,0.8-0.5c4.4-2.8,8.8-5.6,13.2-8.4c0,0,0.1,0,0.1,0l-12.5-7.7c-0.1,0.1-0.3,0.2-0.5,0.3
		C220.6,301.9,220.6,301.9,220.5,301.9z"/>
	<path class="st5" d="M248.2,310.6L248.2,310.6c-0.2,0.3-0.7,0.6-0.9,0.6c-0.6,0.4-1.1,0.6-1.6,1c-1.7,1-3.3,2.1-5,3.1
		c-3.5,2.1-6.9,4.3-10.4,6.4l-13.9,8.6c-1.7,1-3.4,2.1-5,3.1c-0.2,0.1-0.3,0.2-0.5,0.3l0,0l0.1,0.1c-1.2,0.7-2.5,1.4-3.7,2.2
		c-0.7,0.5-1.6,0.9-2.4,1.3c-0.2,0.1-0.5,0.3-0.7,0.5c-0.3,0.2-0.7,0.5-1.1,0.7c-0.1,0.1-0.2,0.1-0.4,0.2c-0.1,0.1-0.3,0.3-0.4,0.3
		v38.7l45.7-27.5l0.1-0.1L248.2,310.6z"/>
	<path class="st3" d="M131.3,295.2L131.3,295.2C131.3,295.3,131.3,295.2,131.3,295.2L131.3,295.2z"/>
	<path class="st3" d="M202.4,339c-0.2,0-0.6-0.4-0.7-0.5c-0.6-0.3-1-0.6-1.5-0.9c-2-1.2-3.9-2.5-5.9-3.6l0,0c-3-1.8-5.9-3.7-8.9-5.5
		c-7.5-4.6-15-9.2-22.5-13.8c-6.9-4.3-14-8.6-20.9-12.9c-2.4-1.4-4.8-3-7.1-4.4c-0.7-0.5-1.5-0.9-2.3-1.3c-0.3-0.2-1-0.5-1.2-0.7
		c0,0-0.1-0.1-0.2-0.1l0.5,40.6l0.4,0.2l70.2,41.6L202.4,339L202.4,339z"/>
	<path class="st7" d="M166.3,300.6l-5.1,3c0.8,0.5,1.7,1,2.5,1.5c1.2,0.7,2.3,1.4,3.5,2.1c-0.5-1.3-0.7-3-0.8-5.1
		C166.3,301.6,166.3,301.1,166.3,300.6z"/>
	<path class="st7" d="M199.1,306.7c-4.4-0.9-10.1-3.1-13.3-8l-4.6-2.7c0.2,2.5,0.2,5.1-0.2,7.6c-0.8,5.4-3.4,7.8-5.3,8.8
		c2.9,1.8,5.7,3.5,8.6,5.3c4.7,2.8,9.3,5.6,14,8.5c-0.2-0.9-0.3-2-0.4-3.2C197.6,317.5,198.1,312,199.1,306.7z"/>
	<path class="st7" d="M212.8,322.3c2.2-1.4,4.5-2.8,6.7-4.2l-7-4C212.8,316.8,213,319.6,212.8,322.3z"/>
	<path class="st4" d="M167.5,285.9c-1.6-0.3-3.4-0.8-5.2-1.6l-16.5,9.9c0.3,0.2,0.6,0.4,0.9,0.6c4.8,2.9,9.7,5.9,14.5,8.8l5.1-3
		C166.2,295.7,166.7,290.7,167.5,285.9z"/>
	<path class="st4" d="M131.4,295.2L131.4,295.2l25-14.7l0,0L131.4,295.2L131.4,295.2C131.4,295.2,131.4,295.2,131.4,295.2z"/>
	<path class="st16" d="M181,303.6c0.4-2.5,0.4-5,0.2-7.6c-0.1-1.9-0.4-3.7-0.6-5.5c-0.2-1.7-0.5-3.4-0.8-5c-3.3,0.9-6,1.2-6.2,1.2
		c-0.4,0-2.9,0-6-0.7c-0.9,4.8-1.4,9.8-1.2,14.7c0,0.5,0,1,0,1.5c0.1,2,0.4,3.7,0.8,5.1c2.8,1.7,5.6,3.4,8.5,5.2
		C177.5,311.3,180.1,308.9,181,303.6z"/>
	<path class="st10" d="M162.3,284.3c1.8,0.7,3.6,1.2,5.2,1.6c3.1,0.6,5.6,0.7,6,0.7c0.3,0,2.9-0.2,6.2-1.2c1.2-0.3,2.4-0.7,3.7-1.2
		c-0.2,1.8-0.2,3.5-0.2,5.2c0,0.8,0.1,1.7,0.2,2.5c0.3,2.7,1.1,4.9,2.3,6.7c3.2,4.9,8.9,7.1,13.3,8c3.2,0.7,5.7,0.7,6,0.7
		c0.3,0,2.9-0.2,6.2-1.2c2.8-0.8,6.2-2.1,9.1-4.3c-1.1,0.5-8.1,2.7-16.8-8.2c-9.4-11.9-4.3-42.3-4.3-42.3c1.8-1.1,3.7-1.7,5.7-1.7
		c0.8,0,1.6,0.1,2.4,0.3c-2-0.6-4.1-0.5-6.3,0.3c-2.9,1.1-5.1,3.3-7.1,5.7c-0.1-0.4-0.2-0.8-0.3-1.2c-1.9-6.9-4.8-14-9.4-19.6
		c-0.7-0.8-1.5-1.7-2.3-2.4c5.5,5.1,9.8,14.4,11.9,23.2c0,0-0.1,0.1-0.2,0.2c-2.5,3.1-4.3,6.5-5.8,10.1c-2,4.7-3.6,9.8-4.3,15
		c-3-0.6-7.1-2.7-11.7-8.5c-9.4-11.9-4.3-42.3-4.3-42.3c1.3-0.8,2.7-1.3,4.2-1.6c-0.7,0.1-1.5,0.3-2.3,0.6c-3,1.2-5.3,3.5-7.3,6
		c-2.5,3.1-4.3,6.5-5.8,10.1c-3.1,7.2-5,15.2-4.9,23c0,0.8,0.1,1.7,0.2,2.5c0.4,4.1,2.1,7.1,4.4,9.3l0,0
		C158.1,282.2,160.2,283.4,162.3,284.3z"/>
	<path class="st11" d="M172.1,272.9c4.6,5.7,8.7,7.8,11.7,8.5c0.8-5.1,2.3-10.2,4.3-15c1.5-3.6,3.3-7,5.8-10.1
		c0-0.1,0.1-0.1,0.2-0.2c-2.1-8.8-6.5-18.1-11.9-23.2c-1-0.9-2-1.7-3.1-2.3c-1.8-1.1-3.7-1.7-5.6-1.7c-0.5,0-1,0-1.5,0.1
		c-1.4,0.2-2.8,0.8-4.2,1.6C167.9,230.6,162.7,261,172.1,272.9z"/>
	<path class="st16" d="M212.5,314.1c-0.1-0.9-0.2-1.9-0.3-2.8c-0.2-1.7-0.5-3.4-0.8-5.1c-3.3,0.9-6,1.2-6.2,1.2c-0.3,0-2.8,0-6-0.7
		c-1,5.4-1.5,10.9-1.2,16.3c0,1.2,0.2,2.3,0.4,3.2c1.3,0.8,2.6,1.6,3.9,2.4c0.1,0.1,0.3,0.1,0.4,0.2c3.4-2.2,6.8-4.3,10.2-6.4
		C213,319.6,212.8,316.8,212.5,314.1z"/>
	<path class="st10" d="M218.3,259.3c0,0,0.1,0.1,0.1,0.2C218.4,259.4,218.4,259.4,218.3,259.3z"/>
	<path class="st10" d="M218.9,260.1c1.1,1.7,2,3.5,2.9,5.5C220.9,263.7,220,261.9,218.9,260.1z"/>
	<path class="st10" d="M226.3,294.2c-0.1,0.4-0.2,0.7-0.4,1.1C226.1,294.9,226.3,294.5,226.3,294.2c1-2.6,1-5.5,0.8-8.2
		c-0.1-1.8-0.3-3.5-0.6-5.3C227.4,286,227.5,290.9,226.3,294.2z"/>
	<path class="st11" d="M226.3,294.2c1.1-3.3,1.1-8.1,0.2-13.5c-0.9-5-2.5-10.3-4.7-15.1c-0.9-1.9-1.9-3.8-2.9-5.5
		c-0.1-0.2-0.3-0.5-0.4-0.7c0,0-0.1-0.1-0.1-0.2c-3.1-4.7-6.8-8.2-10.8-9.3c-0.8-0.2-1.6-0.3-2.4-0.3c-2,0-3.9,0.6-5.7,1.7
		c0,0-5.2,30.4,4.3,42.3c8.8,10.9,15.6,8.7,16.8,8.2c0.1,0,0.2-0.1,0.2-0.1c0.2-0.1,0.3-0.2,0.5-0.3c2.3-1.4,3.3-2.5,4.3-4.8
		c0.2-0.5,0.4-1,0.6-1.6C226.1,294.9,226.2,294.5,226.3,294.2z"/>
	<path class="st6" d="M132.6,296.1c0.7,0.5,1.5,0.9,2.3,1.3c2.4,1.4,4.8,3,7.1,4.4c6.9,4.3,14,8.6,20.9,12.9
		c7.5,4.6,15,9.2,22.5,13.8c3,1.8,5.9,3.7,8.9,5.5l0,0c2,1.2,3.9,2.4,5.9,3.6c0.6,0.3,1,0.6,1.5,0.9c0.2,0.1,0.6,0.5,0.7,0.5
		c0.1,0,0.3-0.2,0.4-0.3c0.1-0.1,0.2-0.1,0.4-0.2c0.4-0.2,0.7-0.5,1.1-0.7c0.2-0.1,0.5-0.3,0.7-0.5c0.8-0.5,1.6-0.9,2.4-1.3
		c1.3-0.7,2.5-1.4,3.7-2.2l-0.1-0.1l0,0c0.2-0.1,0.3-0.2,0.5-0.3c1.7-1,3.4-2.1,5-3.1l13.9-8.6c3.5-2.1,6.9-4.3,10.4-6.4
		c1.7-1,3.3-2.1,5-3.1c0.6-0.4,1.1-0.6,1.6-1c0.2-0.1,0.7-0.4,0.8-0.6l0.1-0.1l-22.9-13.8c-0.9,2.3-1.9,3.4-4.3,4.8l12.5,7.7
		c0,0-0.1,0-0.1,0c-4.4,2.8-8.8,5.6-13.2,8.4c-0.3,0.2-0.5,0.3-0.8,0.5c-2.2,1.4-4.5,2.8-6.7,4.2c-3.4,2.1-6.8,4.3-10.2,6.4
		c-0.1-0.1-0.3-0.1-0.4-0.2c-1.3-0.8-2.6-1.6-3.9-2.4c-4.7-2.9-9.3-5.7-14-8.5c-2.9-1.8-5.7-3.5-8.6-5.3c-2.8-1.7-5.6-3.5-8.5-5.2
		c-1.2-0.7-2.3-1.4-3.5-2.1c-0.8-0.5-1.7-1-2.5-1.5c-4.8-2.9-9.7-5.9-14.5-8.8c-0.3-0.2-0.6-0.4-0.9-0.6l16.5-9.9
		c-2.1-0.9-4.2-2.1-5.9-3.8l-25,14.7h0c0,0,0,0,0,0l0,0c0,0,0,0-0.1,0l0,0l0,0c0.1,0,0.2,0.1,0.2,0.1
		C131.7,295.6,132.4,295.9,132.6,296.1z"/>
</g>
</svg>
