<?xml version="1.0" encoding="utf-8"?>
<!-- Generator: Adobe Illustrator 21.1.0, SVG Export Plug-In . SVG Version: 6.00 Build 0)  -->
<svg version="1.1" id="Layer_1" xmlns="http://www.w3.org/2000/svg" xmlns:xlink="http://www.w3.org/1999/xlink" x="0px" y="0px"
	 viewBox="0 0 600 623.6" style="enable-background:new 0 0 600 623.6;" xml:space="preserve">
<style type="text/css">
	.st0{fill:#E3E3EC;}
	.st1{fill:#C6BCCB;}
	.st2{opacity:0.2;}
	.st3{clip-path:url(#SVGID_2_);}
	.st4{fill:#8A86A5;}
	.st5{fill:#4D4967;}
	.st6{opacity:0.5;}
	.st7{clip-path:url(#SVGID_4_);}
	.st8{fill:#D7CBE4;}
	.st9{opacity:0.7;}
	.st10{clip-path:url(#SVGID_6_);}
	.st11{fill:#FFFFFF;}
	.st12{clip-path:url(#SVGID_8_);}
	.st13{fill:#818C66;}
	.st14{clip-path:url(#SVGID_10_);}
	.st15{fill:#9AAA67;}
	.st16{clip-path:url(#SVGID_12_);}
	.st17{fill:#F9F9FC;}
	.st18{clip-path:url(#SVGID_14_);}
</style>
<g>
	<g>
		<g id="_x34__SHADOW_2_">
			<polyline class="st0" points="193.2,474.3 346.1,471.4 442.7,525.4 302.5,600 209.6,548.1 74,623.6 0,582.4 			"/>
		</g>
		<g id="_x33__CASE_2_">
			<g>
				<polygon class="st1" points="267.1,226.9 599.8,41.2 599.8,330.1 267.1,515.6 				"/>
			</g>
			<g class="st2">
				<g>
					<g>
						<g>
							<g>
								<g>
									<defs>
										<rect id="SVGID_1_" x="267.1" y="226.9" width="332.9" height="288.8"/>
									</defs>
									<clipPath id="SVGID_2_">
										<use xlink:href="#SVGID_1_"  style="overflow:visible;"/>
									</clipPath>
									<g class="st3">
										<path class="st4" d="M267.1,226.9l2,1.6c91.8,71.7,206.4,107.7,322.7,101.9l8.2-0.4L267.1,515.7V226.9L267.1,226.9z"/>
									</g>
								</g>
							</g>
						</g>
					</g>
				</g>
			</g>
			<g>
				<polygon class="st5" points="267.1,226.9 193.2,185.7 193.2,474.5 267.1,515.6 				"/>
			</g>
			<g>
				<polygon class="st4" points="526,0 599.8,41.2 267.1,226.9 193.2,185.7 				"/>
			</g>
			<g class="st6">
				<g>
					<g>
						<g>
							<g>
								<g>
									<defs>
										<rect id="SVGID_3_" x="226.3" y="17.8" width="334.5" height="476.1"/>
									</defs>
									<clipPath id="SVGID_4_">
										<use xlink:href="#SVGID_3_"  style="overflow:visible;"/>
									</clipPath>
									<g class="st7">
										<polygon class="st8" points="229.4,493.9 226.3,493.9 226.3,203.7 227.2,203.3 559.4,17.8 560.8,20.3 229.4,205.5 
																					"/>
									</g>
								</g>
							</g>
						</g>
					</g>
				</g>
			</g>
			<g>
				<path class="st5" d="M368.6,134.8V87.4c0-4,2.2-7.4,5.4-9.4l37.2-16.2v32.1l14.9,8.5v-58c0-7.6-3.8-10.2-10.5-6.5l-55.5,31
					c-4,2.2-6.4,6.4-6.4,10.9v46.2L368.6,134.8z"/>
			</g>
			<g>
				<polygon class="st5" points="423.1,36.6 440.8,46.6 421,59.5 				"/>
			</g>
			<g>
				<path class="st4" d="M426.1,58c-1.6-5.3,1.3-10.7,6.5-12.3c5.3-1.6,10.7,1.3,12.3,6.5c1.6,5.3-1.3,10.7-6.5,12.3
					C433.3,66.2,427.7,63.1,426.1,58"/>
			</g>
			<g>
				<path class="st1" d="M387.8,123.9V91.7l38.4-21.4v32.1l19.2-10.7V55.1c0-7.6-8.2-12.5-14.9-8.7L373.8,78
					c-3.3,1.8-5.3,5.3-5.3,9.1v47.5L387.8,123.9z"/>
			</g>
		</g>
		<g id="_x32__CLIPBOARD_2_">
			<g>
				<polygon class="st5" points="559.4,136.9 547.9,131 411.5,207.1 411.5,473 423,479 559.4,402.8 				"/>
			</g>
			<g>
				<polygon class="st1" points="423,213.1 559.6,136.9 559.6,403.2 423,479.4 				"/>
			</g>
			<g class="st9">
				<g>
					<g>
						<g>
							<g>
								<g>
									<defs>
										<rect id="SVGID_5_" x="435.3" y="157.1" width="111.7" height="283.9"/>
									</defs>
									<clipPath id="SVGID_6_">
										<use xlink:href="#SVGID_5_"  style="overflow:visible;"/>
									</clipPath>
									<g class="st10">
										<polygon class="st11" points="435.3,217.3 547,157.1 547,380.9 435.3,440.9 										"/>
									</g>
								</g>
							</g>
						</g>
					</g>
				</g>
			</g>
			<g>
				<polygon class="st4" points="547.9,131 559.4,136.9 423,213.1 411.5,207.1 				"/>
			</g>
			<g>
				<polygon class="st4" points="463.9,179.7 444.7,169 502.4,136.9 521.6,147.6 				"/>
			</g>
			<g>
				<polygon class="st1" points="521.6,147.6 521.6,158.3 531.1,153.1 531.1,174.5 454.3,217.3 454.3,195.9 463.9,190.4 
					463.9,179.7 				"/>
			</g>
			<g>
				<polygon class="st5" points="444.7,169 444.7,179.7 463.9,190.4 463.9,179.7 				"/>
			</g>
			<g>
				<polygon class="st5" points="435.3,185.2 454.3,195.9 454.3,217.3 444.7,211.8 444.7,201.2 435.3,195.9 				"/>
			</g>
			<g>
				<polygon class="st4" points="463.9,190.4 454.3,195.9 435.3,185.2 444.7,179.7 				"/>
			</g>
			<g>
				<polygon class="st5" points="510.2,313.4 510.2,322.9 449.1,357.1 449.1,347.5 				"/>
			</g>
			<g>
				<polygon class="st5" points="490.8,379.8 490.8,389.4 449.1,412.6 449.1,403 				"/>
			</g>
			<g>
				<polygon class="st5" points="532.7,279.3 532.7,288.7 449.4,335.2 449.4,325.8 				"/>
			</g>
			<g>
				<g>
					<g>
						<g>
							<g>
								<defs>
									<polygon id="SVGID_7_" points="454.3,233.1 454.3,309.8 531.1,265.5 531.1,188.8 									"/>
								</defs>
								<clipPath id="SVGID_8_">
									<use xlink:href="#SVGID_7_"  style="overflow:visible;"/>
								</clipPath>
								<g class="st12">
									<path class="st13" d="M490.4,259.2c-0.5-1.8-1.3-3.6-1.6-5.6c-0.7-4-1.3-8.2-0.9-12.7c0.2-2,0.2-4,0.4-6
										c0.2-1.6,0.5-3.4,0.7-5.1c0.4-2.2,1.1-4.4,1.5-6.7c0.4-2,1.3-4,1.8-6c0-0.2,0.2-0.4,0.4-0.5c0.2-0.2,0.4,0,0.5,0.2
										c0.4,0.5,0.5,1.1,0.9,1.8c2.4,5.6,3.6,12,3.6,19.4c0,5.4-0.9,11.4-2.5,17.6c0,0.2,0,0.4-0.2,0.5c0,0.2-0.2,0.4,0,0.4
										c0.2,0,0.2-0.2,0.2-0.2c1.1-2.2,2-4.4,3.1-6.5c3.8-8,8.2-15.8,13.4-23.2c2.4-3.3,4.7-6.5,7.3-9.8c0.7-0.9,1.6-1.8,2.4-2.9
										c0.2-0.2,0.5-0.7,0.7-0.5c0.4,0,0,0.5,0,0.7c-1.3,6.5-3.8,13.1-7.3,19.8c-4,7.8-8.9,14.9-14.7,21.8
										c-0.2,0.4-0.5,0.5-0.7,1.1c0.9-0.9,2-1.8,2.9-2.5c6.2-5.6,12.5-10.3,19.1-13.6c0.5-0.4,1.1-0.5,1.8-0.9
										c0.4-0.2,0.7-0.4,0.7-0.2c0.2,0.4-0.4,0.7-0.5,1.1c-1.3,1.6-2.4,3.3-3.8,4.7c-2.9,3.3-5.8,6.4-9.1,9.1
										c-3.4,2.9-6.9,5.1-10.3,6.7c-0.4,0.2-0.7,0.4-1.1,0.5c0,0-0.2,0.2-0.4,0.2c0.4,0.2,0.9,0,1.5,0c4.4-0.5,8,0,11.3,1.8
										c0.2,0,0.2,0.2,0.4,0.2c0.2,0,0.4,0.2,0.2,0.5c-0.2,0.4-0.4,0.4-0.7,0.5c-2.5,0.7-5.1,1.5-7.4,1.8
										c-3.4,0.5-6.7,0.5-9.3-0.7c-0.4-0.2-0.7-0.4-1.1-0.5c-0.2,0.4-0.2,0.7-0.2,1.1c0,2.7,0.2,5.4,0.2,8.2
										c0,0.9-0.7,1.6-1.5,1.8c-0.4,0-0.5-0.4-0.4-0.7c0-2.5,0.2-4.9,0.2-7.4c0-0.5,0-1.3,0-2c-1.1,1.6-1.8,3.1-2.9,4.5
										c-3.4,4.7-7.4,8.9-11.6,12.5c-1.1,0.9-2.2,1.8-3.3,2.9c-0.2,0.2-0.5,0.7-0.9,0.4c-0.2-0.2,0.2-0.5,0.4-0.9
										c2.2-3.6,4.5-7.3,7.4-10.5c1.8-2.2,3.8-4.2,5.8-6.2c-1.5,0.9-2.9,1.8-4.4,2.7c-6.5,3.8-12.3,5.3-17.6,4.7
										c-1.1-0.2-2-0.4-3.1-0.5c-0.2,0-0.5,0-0.4-0.4c0.2-0.4,0.4-0.5,0.5-0.7c7.3-4.9,14.2-7.8,21.1-9.6c0.9-0.2,1.8-0.4,2.7-0.7
										c0-0.4-0.4-0.4-0.5-0.4c-5.6-0.2-10.5-1.8-14.5-4.9c-2.7-2.2-4.9-5.3-6.2-8.9c-0.4-0.7-0.5-1.6-0.7-2.4
										c0-0.2-0.4-0.4,0-0.9c0.4-0.4,0.5-0.4,0.9-0.4c2,0,4,0.4,5.8,0.7c5.1,1.1,9.6,2.9,13.4,5.8c2.2,1.6,4.4,3.6,6.2,5.8
										C489.9,258.8,490.1,259.2,490.4,259.2L490.4,259.2L490.4,259.2z"/>
								</g>
							</g>
						</g>
					</g>
				</g>
				<g>
					<g>
						<g>
							<g>
								<defs>
									<polygon id="SVGID_9_" points="454.3,233.1 454.3,309.8 531.1,265.5 531.1,188.8 									"/>
								</defs>
								<clipPath id="SVGID_10_">
									<use xlink:href="#SVGID_9_"  style="overflow:visible;"/>
								</clipPath>
								<g class="st14">
									<path class="st15" d="M489.7,256.3c3.3,1.8,7.1,3.3,11.3,4c3.3-1.6,6.7-3.8,10-6.5s6.2-5.8,9.1-9.1
										c1.3-1.5,2.5-3.1,3.8-4.7c0.2-0.4,0.7-0.7,0.5-1.1c-0.2-0.2-0.5,0-0.7,0.2c-0.5,0.4-1.1,0.5-1.8,0.9
										c-6.5,3.4-12.9,8.2-19.1,13.6c-0.9,0.9-2,1.8-2.9,2.5c0.2-0.4,0.5-0.7,0.7-1.1c5.8-6.9,10.7-14,14.7-21.8
										c3.4-6.7,5.8-13.2,7.3-19.8c0-0.4,0.2-0.7,0-0.7c-0.4,0-0.5,0.4-0.7,0.5c-0.7,0.9-1.6,1.8-2.4,2.9
										c-2.5,3.1-4.9,6.4-7.3,9.8c-5.1,7.6-9.6,15.2-13.4,23.2c-1.1,2.2-2,4.4-3.1,6.5c0,0.2,0,0.2-0.2,0.2c-0.2,0,0-0.2,0-0.4
										c0-0.2,0-0.4,0.2-0.5c1.6-6.2,2.4-12,2.5-17.6c0-7.4-1.3-14-3.6-19.4c-0.2-0.5-0.5-1.3-0.9-1.8c0-0.2-0.2-0.2-0.5-0.2
										c-0.2,0.2-0.4,0.2-0.4,0.5c-0.4,2-1.3,4-1.8,6c-0.5,2.2-1.1,4.5-1.5,6.7c-0.4,1.6-0.7,3.4-0.9,5.1c-0.2,2-0.4,4-0.4,6
										c-0.4,4.5,0.2,8.7,0.9,12.7C489.2,254.5,489.5,255.4,489.7,256.3"/>
								</g>
							</g>
						</g>
					</g>
				</g>
			</g>
		</g>
		<g id="_x31__PHONE_2_">
			<g>
				<polygon class="st1" points="346.1,291.8 362.2,282.9 458.9,336.8 458.9,516.7 442.7,525.6 346.1,471.8 				"/>
			</g>
			<g>
				<polygon class="st5" points="442.7,345.9 346.1,291.8 346.1,471.8 442.7,525.6 				"/>
			</g>
			<g class="st9">
				<g>
					<g>
						<g>
							<g>
								<g>
									<defs>
										<rect id="SVGID_11_" x="358.6" y="313.6" width="71.7" height="167"/>
									</defs>
									<clipPath id="SVGID_12_">
										<use xlink:href="#SVGID_11_"  style="overflow:visible;"/>
									</clipPath>
									<g class="st16">
										<polygon class="st17" points="430.2,352.2 358.6,313.6 358.6,442.2 430.2,480.6 										"/>
									</g>
								</g>
							</g>
						</g>
					</g>
				</g>
			</g>
			<g class="st9">
				<g>
					<g>
						<g>
							<g>
								<g>
									<defs>
										<rect id="SVGID_13_" x="385" y="472.8" width="12" height="15.8"/>
									</defs>
									<clipPath id="SVGID_14_">
										<use xlink:href="#SVGID_13_"  style="overflow:visible;"/>
									</clipPath>
									<g class="st18">
										<path class="st4" d="M397,480.6c0-4.4-2.7-7.8-6-7.8s-6,3.4-6,7.8s2.7,7.8,6,7.8C394.3,488.6,397,485,397,480.6"/>
									</g>
								</g>
							</g>
						</g>
					</g>
				</g>
			</g>
			<g>
				<polygon class="st4" points="362.2,282.9 346.1,291.8 442.7,345.9 458.9,336.8 				"/>
			</g>
			<g>
				<polygon class="st4" points="358.6,313.6 430.2,480.6 358.6,442.2 				"/>
			</g>
		</g>
	</g>
</g>
</svg>
