<?xml version="1.0" encoding="utf-8"?>
<!-- Generator: Adobe Illustrator 21.1.0, SVG Export Plug-In . SVG Version: 6.00 Build 0)  -->
<svg version="1.1" id="Layer_1" xmlns="http://www.w3.org/2000/svg" xmlns:xlink="http://www.w3.org/1999/xlink" x="0px" y="0px"
	 viewBox="0 0 626 178" style="enable-background:new 0 0 626 178;" xml:space="preserve">
<style type="text/css">
	.st0{fill:none;}
	.st1{fill:#C7BDCC;}
	.st2{fill:#4E4A68;}
	.st3{fill:#4D4D4D;}
</style>
<g>
	<path class="st0" d="M415.6,86.8c-1.5,0-2.9,0.2-4.2,0.7c-1.3,0.5-2.5,1.1-3.6,2s-2,1.9-2.8,3.1c-0.7,1.2-1.3,2.5-1.7,4H428
		C426.3,90.1,422.2,86.8,415.6,86.8z"/>
	<path class="st0" d="M238.1,86.8c-4.2,0-7.8,1.6-10.6,4.8c-2.8,3.2-4.2,7.2-4.2,12c0,5.1,1.4,9.3,4.1,12.5
		c2.8,3.3,6.3,4.9,10.6,4.9c4.5,0,8.2-1.6,11-4.7c2.8-3.2,4.2-7.4,4.2-12.3c0-5-1.4-9.2-4.2-12.4S242.6,86.8,238.1,86.8z"/>
	<path class="st0" d="M71.4,81.7C71.4,81.7,71.5,81.7,71.4,81.7c0,0-0.1,0-0.2,0C71.3,81.7,71.3,81.7,71.4,81.7z"/>
	<path class="st0" d="M117,96.2c-2.6-0.6-5.2-1.5-7.7-2.4c-1.7-0.6-3.2-1.3-4.9-2.2c-1.4-0.8-2.7-1.7-4.1-2.5c-0.1,0-0.2,0-0.3-0.1
		c1.8-1.7,3.4-3.6,4.7-5.7c1.1-1.7,1.9-3.6,2.6-5.5c0.6-1.8,1.2-3.7,1.8-5.5c0.6-1.9,1.3-3.8,1.9-5.7c0.1-0.4,0.3-0.8,0.4-1.2
		c0.2-0.8-0.6-1.7-1.4-1.4c-0.1,0-0.1,0-0.2,0.1c0.7-0.1,1.4,0.7,1.2,1.4c-0.1,0.4-0.3,0.8-0.4,1.2c-0.6,1.9-1.3,3.8-1.9,5.7
		c-0.6,1.8-1.1,3.7-1.8,5.5c-0.7,1.9-1.5,3.8-2.6,5.5c-1.2,2.1-2.9,4-4.7,5.7c0.1,0,0.2,0,0.3,0.1c1.4,0.8,2.7,1.7,4.1,2.5
		c1.7,0.9,3.2,1.6,4.9,2.2c2.5,0.9,5.1,1.7,7.7,2.4c1,0.3,1.1,1.6-0.1,2.2c-1.3,0.7-2.5,1.4-3.7,2.2c-0.7,0.5-1.4,1-2.2,1.5
		c-0.7,0.4-1.4,0.7-2.1,1c-0.4,0.2-0.9,0.3-1.3,0.4c0.6-0.2,1.2-0.3,1.7-0.5c0.7-0.3,1.4-0.6,2.1-1c0.7-0.5,1.4-1,2.2-1.5
		c1.2-0.8,2.5-1.5,3.7-2.2C117.7,97.9,117.6,96.6,117,96.2z"/>
	<path class="st0" d="M90.8,104.2c0.5,1.9,0.9,3.7,1.4,5.6c0.2,0.7-0.3,1.3-1,1.5c0.9,0,1.6-0.7,1.4-1.6c-0.5-1.9-1-3.7-1.4-5.6
		c-0.2-0.6-0.3-1.2-0.5-1.8c-0.2-0.1-0.3-0.3-0.5-0.3C90.4,102.7,90.6,103.5,90.8,104.2z"/>
	<path class="st0" d="M51.9,66.9c1.9,0.6,3.7,1.3,5.6,1.9c1.5,0.5,3.1,1.1,4.6,1.9c1.8,1,3.5,2.1,5,3.5c0.6,0.6,1.2,1.1,1.7,1.7
		c-0.1-0.2-0.1-0.4-0.1-0.7c-0.4-0.4-0.7-0.8-1.2-1.1c-1.5-1.4-3.2-2.6-5-3.5c-1.4-0.8-3-1.4-4.6-1.9c-1.9-0.6-3.7-1.3-5.6-1.9
		c-2-0.7-4.1-1.4-6.1-2.1c-0.3-0.1-0.5-0.1-0.8,0c0.1,0,0.2,0,0.4,0.1C47.8,65.5,49.9,66.2,51.9,66.9z"/>
	<path class="st0" d="M78.4,45.1c1.6,3.2,3.2,6.4,4.8,9.6c0.1,0.2,0.1,0.3,0.2,0.4c1.2,2.5,2.4,5,3,7.8c0.4,1.8,0.6,3.7,0.6,5.5
		c0,2.2-0.3,4.6-0.8,6.8c-0.1,0.3-0.2,0.7-0.3,1c0.2-0.2,0.4-0.4,0.5-0.5c0.1-0.2,0.1-0.3,0.2-0.6c0.5-2.2,0.8-4.5,0.8-6.8
		c0-1.8-0.2-3.7-0.6-5.5c-0.6-2.8-1.7-5.3-3-7.8c-0.1-0.2-0.1-0.3-0.2-0.4c-1.6-3.2-3.2-6.4-4.8-9.6c-0.2-0.5-0.9-0.6-1.4-0.4
		C77.8,44.6,78.2,44.7,78.4,45.1z"/>
	<path class="st0" d="M77.5,98.6c-0.5,2-1.3,3.8-2.4,5.5c-1.3,1.9-2.9,3.5-5.1,4.5c-1.8,0.8-3.6,1.5-5.4,2.3c0,0-0.1,0-0.1,0.1
		c0.2,0,0.4-0.1,0.5-0.2c1.8-0.7,3.6-1.5,5.4-2.3c2.2-1,3.9-2.6,5.1-4.5c0.9-1.5,1.7-3.1,2.2-4.7c0-0.1,0-0.1-0.1-0.2
		C77.6,99,77.5,98.8,77.5,98.6z"/>
	<path class="st0" d="M62.8,102.8c-0.5,0.2-1.1,0.4-1.6,0.6c0.7-0.2,1.4-0.4,2-0.7c0.5-0.2,0.9-0.5,1.4-0.7c0-0.1,0-0.1,0-0.2
		C64,102.2,63.4,102.5,62.8,102.8z"/>
	<path class="st0" d="M538.2,86.8c-4.2,0-7.8,1.6-10.6,4.8c-2.8,3.2-4.2,7.2-4.2,12c0,5.1,1.4,9.3,4.1,12.5
		c2.8,3.3,6.3,4.9,10.6,4.9c4.5,0,8.2-1.6,11-4.7c2.8-3.2,4.2-7.4,4.2-12.3c0-5-1.4-9.2-4.2-12.4S542.7,86.8,538.2,86.8z"/>
	<path class="st1" d="M185.1,75.7c-5.4,0-10.2,2.1-14.5,6.4v-4.9h-12.4v53.3h12.4v-25.7c0-6.6,0.8-11.3,2.5-13.9
		c1.7-2.7,4.6-4,8.7-4c3.8,0,6.3,1,7.8,3.1c1.5,2,2.2,5.6,2.2,10.9v29.7h12.4V97.8c0-7.5-1.5-12.9-4.5-16.2
		C196.1,77.7,191.3,75.7,185.1,75.7z"/>
	<path class="st1" d="M252.5,83.4L252.5,83.4c-5-5.1-10.6-7.7-16.8-7.7c-7.2,0-13.2,2.7-17.9,8c-4.8,5.3-7.2,12-7.2,20
		c0,8.1,2.4,14.9,7.2,20.3c4.8,5.3,10.9,8,18.3,8c5.8,0,11.3-2.4,16.4-7.1v5.6h12.4V77.2h-12.4V83.4z M249,116.3
		c-2.8,3.1-6.5,4.7-11,4.7c-4.3,0-7.8-1.6-10.6-4.9c-2.7-3.2-4.1-7.4-4.1-12.5c0-4.8,1.4-8.8,4.2-12s6.4-4.8,10.6-4.8
		c4.5,0,8.1,1.6,10.9,4.8s4.2,7.4,4.2,12.4C253.2,108.9,251.8,113.1,249,116.3z"/>
	<polygon class="st1" points="289.4,57.7 277.1,57.7 277.1,77.2 271.9,77.2 271.9,88.7 277.1,88.7 277.1,130.5 289.4,130.5 
		289.4,88.7 299,88.7 299,77.2 289.4,77.2 	"/>
	<path class="st1" d="M338,107.8c0,8.8-3.5,13.2-10.4,13.2c-7,0-10.4-4.4-10.4-13.2V77.2h-12.3V108c0,4.9,0.5,8.6,1.5,11
		c1.1,2.8,2.9,5.3,5.4,7.5c4.2,3.6,9.4,5.4,15.8,5.4s11.7-1.8,15.9-5.4c2.5-2.2,4.3-4.7,5.3-7.5c1.1-3.1,1.6-6.8,1.6-11V77.2H338
		V107.8z"/>
	<path class="st1" d="M381.1,75.7c-2.4,0-4.6,0.5-6.3,1.4c-1.8,0.9-3.8,2.5-6,4.9v-4.8h-12.3v53.3h12.3v-27.6
		c0-10.1,3.4-15.2,10.1-15.2c2.2,0,4.5,0.8,6.8,2.5l5.6-11.3C387.8,76.8,384.4,75.7,381.1,75.7z"/>
	<path class="st1" d="M424,118.8c-2,1.5-4.5,2.2-7.6,2.2c-3.9,0-7.2-1.3-9.7-3.8c-2.5-2.6-3.9-6.1-4.3-10.4h38.2l0.1-2.9
		c0-8.8-2.3-15.7-6.8-20.6c-4.6-5-10.8-7.5-18.6-7.5s-14,2.6-18.7,7.7c-4.7,5.2-7,12-7,20.5s2.4,15.3,7.2,20.5
		c4.8,5.1,11.2,7.7,19.1,7.7c2.8,0,5.3-0.3,7.7-0.9s4.6-1.5,6.6-2.8s4-2.9,5.7-4.8c1.8-2,3.5-4.3,5.1-7l-10.4-5.8
		C428.2,114.7,426,117.4,424,118.8z M405,92.6c0.8-1.2,1.7-2.2,2.8-3.1c1.1-0.9,2.3-1.5,3.6-2c1.3-0.5,2.7-0.7,4.2-0.7
		c6.6,0,10.7,3.3,12.4,9.8h-24.7C403.7,95.1,404.3,93.8,405,92.6z"/>
	<polygon class="st2" points="463.2,57.7 450.9,57.7 450.9,77.2 445.7,77.2 445.7,88.7 450.9,88.7 450.9,130.5 463.2,130.5 
		463.2,88.7 472.8,88.7 472.8,77.2 463.2,77.2 	"/>
	<path class="st2" d="M503.2,75.7c-2.4,0-4.6,0.5-6.3,1.4c-1.8,0.9-3.8,2.5-6,4.9v-4.8h-12.3v53.3h12.3v-27.6
		c0-10.1,3.4-15.2,10.1-15.2c2.2,0,4.5,0.8,6.8,2.5l5.6-11.3C509.9,76.8,506.5,75.7,503.2,75.7z"/>
	<path class="st2" d="M552.6,83.4L552.6,83.4c-5-5.1-10.6-7.7-16.8-7.7c-7.2,0-13.2,2.7-17.9,8c-4.8,5.3-7.2,12-7.2,20
		c0,8.1,2.4,14.9,7.2,20.3c4.8,5.3,10.9,8,18.3,8c5.8,0,11.3-2.4,16.4-7.1v5.6H565V77.2h-12.4V83.4z M549.1,116.3
		c-2.8,3.1-6.5,4.7-11,4.7c-4.3,0-7.8-1.6-10.6-4.9c-2.7-3.2-4.1-7.4-4.1-12.5c0-4.8,1.4-8.8,4.2-12s6.4-4.8,10.6-4.8
		c4.5,0,8.1,1.6,10.9,4.8c2.8,3.2,4.2,7.4,4.2,12.4C553.3,108.9,551.9,113.1,549.1,116.3z"/>
	<polygon class="st2" points="593.9,99.6 617,77.2 600.5,77.2 583.2,94.4 583.2,38.1 570.8,38.1 570.8,130.5 583.2,130.5 583.2,110 
		585.1,108 602.7,130.5 618.7,130.5 	"/>
	<path class="st3" d="M71.4,81.7c-0.1,0-0.1,0-0.2,0C71.3,81.8,71.3,81.8,71.4,81.7z"/>
	<path class="st3" d="M70.2,105.4C70,105.6,70.2,105.5,70.2,105.4L70.2,105.4z"/>
	<path class="st3" d="M85.1,80.5C85,80.6,84.9,80.7,85.1,80.5L85.1,80.5z"/>
	<path class="st3" d="M80.4,85.8c0-0.1,0-0.1,0-0.2C80.4,85.7,80.3,85.7,80.4,85.8L80.4,85.8z"/>
	<path class="st2" d="M127.2,24.8c-27.4-27.4-71.9-27.4-99.4,0c-27.4,27.4-27.4,71.9,0,99.4l49.7,49.7l49.7-49.7
		C154.7,96.7,154.7,52.2,127.2,24.8z M116.9,98.4c-1.2,0.7-2.5,1.4-3.7,2.2c-0.8,0.5-1.5,1-2.2,1.5c-0.6,0.4-1.3,0.6-1.9,0.9
		c-0.2,0.1-0.4,0.2-0.5,0.3c-0.4,0.1-0.8,0.3-1.3,0.4c-3.5,1.1-7.4,1.2-10.9,0.7c-1.9-0.3-3.8-0.8-5.5-1.9c0,0,0-0.1,0-0.1
		c0,0,0,0-0.1,0l0,0c0,0,0,0,0,0c0,0,0,0-0.1,0c0,0,0,0,0,0c0.2,0.6,0.3,1.2,0.5,1.8c0.4,1.9,0.9,3.7,1.4,5.6
		c0.2,0.7-0.3,1.3-0.9,1.5c-0.1,0.1-0.2,0.1-0.4,0.2c-0.3,0.1-0.7,0.1-1.1-0.1c-1.4-0.6-2.8-1.3-4.2-1.9c-0.7-0.3-1.4-0.6-2.1-1
		c-0.7-0.5-1.4-1-2-1.6c-0.2-0.2-0.4-0.4-0.6-0.6c-1.8-2-2.9-4.4-3.6-6.9c-0.5,1.6-1.2,3.2-2.2,4.7c-0.9,1.5-2.2,2.8-3.7,3.8
		c-0.5,0.4-1.1,0.7-1.7,0.9c-1.8,0.8-3.6,1.5-5.4,2.3c0,0.1-0.1,0.1-0.1,0.1c-0.5,0.2-1.1,0.1-1.6-0.3c0,0-0.1-0.1-0.1-0.1
		c0,0,0,0,0,0c-0.4-0.3-0.5-0.8-0.4-1.2c0.5-1.9,1-3.7,1.5-5.6c0.2-0.6,0.4-1.3,0.6-1.9c-0.3,0.2-0.5,0.3-0.8,0.4
		c-0.3,0.2-0.6,0.3-0.9,0.5c-0.5,0.2-1,0.4-1.6,0.6c-1.8,0.5-3.6,0.7-5.3,0.8c-3.7,0.2-7.7-0.2-11.1-1.9c-0.6-0.3-1-0.6-1.5-0.9
		c-0.8-0.5-1.5-1-2.3-1.5c-0.9-0.6-1.9-1.1-2.9-1.7c-0.1-0.1-0.2-0.2-0.3-0.2c-0.6-0.6-0.4-1.8,0.5-2c3.2-0.9,6.3-1.9,9.3-3.1
		c0.3-0.1,0.8-0.3,1.2-0.5s0.8-0.4,1.2-0.6c0.8-0.3,1.5-0.7,2.2-1.1c0.9-0.5,1.8-1,2.7-1.5c-1.1-1.1-2.1-2.2-3-3.4
		c-1.2-1.7-2.1-3.5-2.8-5.4c-0.6-1.5-1.1-3.1-1.6-4.7c-1.1-3.2-2.1-6.4-3.2-9.6c-0.2-0.7,0.4-1.4,1-1.5c0.2-0.1,0.5-0.1,0.8,0
		c2,0.7,4.1,1.4,6.1,2.1c1.9,0.6,3.7,1.3,5.6,1.9c1.6,0.5,3.2,1.1,4.6,1.9c1.8,0.9,3.5,2.1,5,3.5c0.4,0.3,0.8,0.7,1.2,1.1
		c-0.3-1.4-0.5-2.9-0.7-4.3c-0.3-3.6,0-7.2,1.2-10.6c0.9-2.8,2.4-5.4,3.7-8c1.2-2.4,2.4-4.8,3.6-7.2c0.1-0.3,0.5-0.5,0.9-0.5
		c0.5-0.2,1.2-0.1,1.4,0.4c1.6,3.2,3.2,6.4,4.8,9.6c0.1,0.1,0.1,0.2,0.2,0.4c1.3,2.5,2.4,5,3,7.8c0.4,1.8,0.6,3.7,0.6,5.5
		c0,2.3-0.3,4.6-0.8,6.8c-0.1,0.2-0.1,0.4-0.2,0.6c0.1-0.1,0.2-0.2,0.3-0.3c1.5-1.6,3.1-3,4.9-4.2c1.3-0.9,2.7-1.7,4.1-2.3
		c1.4-0.6,2.9-1.1,4.3-1.6c0.8-0.2,1.6-0.5,2.3-0.8c1.8-0.6,3.6-1.2,5.3-1.8c0.6-0.2,1.3-0.4,1.9-0.7c0.1,0,0.2,0,0.2,0
		c0.1,0,0.1,0,0.2-0.1c0.8-0.3,1.6,0.6,1.4,1.4c-0.1,0.4-0.3,0.8-0.4,1.2c-0.6,1.9-1.3,3.8-1.9,5.7c-0.6,1.8-1.2,3.7-1.8,5.5
		c-0.7,1.9-1.5,3.8-2.6,5.5c-1.3,2.1-2.9,4-4.7,5.7c0.1,0.1,0.2,0.1,0.3,0.1c1.4,0.8,2.7,1.7,4.1,2.5c1.7,0.9,3.2,1.6,4.9,2.2
		c2.5,0.9,5.1,1.8,7.7,2.4C117.6,96.6,117.7,97.9,116.9,98.4z"/>
</g>
</svg>
